<svg xmlns="http://www.w3.org/2000/svg" width="100" height="100" viewBox="0 0 100 100"><path fill="#010101" d="M38.8 79.5a1.8 1.8 0 0 0 1.9-1.9 1.9 1.9 0 0 0-1.9-1.9 2 2 0 0 0-1.9 1.9 1.9 1.9 0 0 0 1.9 1.9z"/><circle cx="63.6" cy="77.6" r="1.9" fill="#010101"/><path fill="#010101" d="M66.3 64.9a4.3 4.3 0 0 0 3.8-2.4l11.7-23a3 3 0 0 0 0-2.9 2.7 2.7 0 0 0-2.5-1.4h-50c-.5-1.6-1-2.4-1.5-3.9a4 4 0 0 0-1.8-2.4 3.5 3.5 0 0 0-2.5-.7H19a2 2 0 1 0 0 4h4.8c3.1 10 6.2 19.6 9.3 29.6a2.6 2.6 0 0 1-.3 2.4L31 67.6a4.7 4.7 0 0 0-.7 2.5 4.8 4.8 0 0 0 .7 2.6 4.7 4.7 0 0 0 1.8 1.9 4.8 4.8 0 0 0 2.6.7h.1a4.1 4.1 0 0 0-.8 2.4 4.1 4.1 0 0 0 8.1 0 4.1 4.1 0 0 0-.8-2.4h18.3a4.1 4.1 0 0 0-.8 2.4 4.1 4.1 0 0 0 8.1 0 4.1 4.1 0 0 0-.8-2.4h2.5a2.3 2.3 0 0 0 2.3-2.3 2.3 2.3 0 0 0-2.3-2.4H35.4c-.5 0-.7-.4-.5-.7l2.9-5-.6-1.9.6 1.9zM44.9 48h5.8v-5.8a2 2 0 0 1 4 0V48h5.9a2 2 0 0 1 0 4h-5.9v5.8a2 2 0 0 1-4 0V52h-5.8a2 2 0 0 1 0-4zm18.7 27.7a1.9 1.9 0 0 1 1.9 1.9 1.8 1.8 0 0 1-1.9 1.9 1.8 1.8 0 0 1-1.8-1.9 1.9 1.9 0 0 1 1.8-1.9zm-24.8 0a1.9 1.9 0 0 1 1.9 1.9 1.8 1.8 0 0 1-1.9 1.9 1.9 1.9 0 0 1-1.9-1.9 2 2 0 0 1 1.9-1.9z"/></svg>