<svg xmlns="http://www.w3.org/2000/svg" width="100" height="100" viewBox="0 0 100 100"><path fill="#010101" fill-rule="evenodd" d="M4.9 37.5h17.9a1.5 1.5 0 1 1 0 2.9H4.9a1.5 1.5 0 1 1 0-2.9zm-3.3 7.3H6a1.5 1.5 0 1 1 0 2.9H1.6a1.5 1.5 0 1 1 0-2.9zm8.6 7.4h.9a1.4 1.4 0 1 1 0 2.8h-.9a1.4 1.4 0 1 1 0-2.8zm3.3 7.3h17.9a1.5 1.5 0 1 1 0 2.9H13.5a1.5 1.5 0 1 1 0-2.9zm4.4-7.3h17.9a1.4 1.4 0 1 1 0 2.8H17.9a1.4 1.4 0 1 1 0-2.8zm-6.4-7.4h17.8a1.5 1.5 0 1 1 0 2.9H11.5a1.5 1.5 0 1 1 0-2.9z"/><path fill="#010101" d="M82.2 62.9a4.9 4.9 0 0 0 4.3-2.7l13.1-25.8a3.6 3.6 0 0 0 0-3.2 2.9 2.9 0 0 0-2.7-1.5h-56c-.6-1.8-1.1-2.7-1.7-4.4a4.3 4.3 0 0 0-2-2.7 3.9 3.9 0 0 0-2.8-.8H26a2.3 2.3 0 1 0 0 4.5h8.6v.2c3.5 11.1 7 21.9 10.4 33a3.5 3.5 0 0 1-.3 2.8l-2.1 3.6a6 6 0 0 0-.8 2.9 6.7 6.7 0 0 0 .8 2.9 6 6 0 0 0 2.1 2.1 5.9 5.9 0 0 0 2.9.7h.1a4.4 4.4 0 0 0-.9 2.7 4.5 4.5 0 0 0 4.5 4.5 4.6 4.6 0 0 0 4.7-4.5 4.4 4.4 0 0 0-.9-2.7h20.4a5 5 0 0 0-.8 2.7 4.5 4.5 0 0 0 9 0 5 5 0 0 0-.8-2.7h2.7a2.6 2.6 0 0 0 2.7-2.6 2.7 2.7 0 0 0-2.7-2.6H47.7c-.5 0-.8-.5-.6-.8l3.2-5.6a16 16 0 0 0-.5-2.1c.4 1.3.6 2.1.6 2.1zm-2.9-26a1.7 1.7 0 1 1 3.4 0v18.7a1.7 1.7 0 1 1-3.4 0zm-8.7 0a1.7 1.7 0 1 1 3.4 0v18.7a1.7 1.7 0 1 1-3.4 0V36.9zm-8.8 0a1.8 1.8 0 0 1 3.5 0v18.7a1.8 1.8 0 0 1-3.5 0zm-8.7 0a1.7 1.7 0 1 1 3.4 0v18.7a1.7 1.7 0 1 1-3.4 0zm-1.6 42.3a2.1 2.1 0 0 1-2.1-2.1 2.1 2.1 0 0 1 4.2 0 2.1 2.1 0 0 1-2.1 2.1zm27.8 0a2.1 2.1 0 0 1-2.1-2.1 2.1 2.1 0 0 1 4.2 0 2.1 2.1 0 0 1-2.1 2.1z"/></svg>