<svg xmlns="http://www.w3.org/2000/svg" width="100" height="100" viewBox="0 0 100 100"><path fill="#010101" d="M49.6 93.7A43.7 43.7 0 1 1 93.4 50a43.7 43.7 0 0 1-43.8 43.7zm0-81.4A37.7 37.7 0 1 0 87.4 50a37.7 37.7 0 0 0-37.8-37.7z"/><path fill="#010101" d="M53.4 73.5h-9a2 2 0 0 1-2-2V50.2h-4.3a2 2 0 0 1-2-2v-7.3a2 2 0 0 1 2-2h4.5v-6.4a8.9 8.9 0 0 1 2.5-6.6c3-2.9 7.6-2.9 7.8-2.9h8.8a2 2 0 0 1 2 2v7.5a1.9 1.9 0 0 1-1.9 2h-6.7a.4.4 0 0 1 .1.3v3.9h6.5a2 2 0 0 1 2 2v7.5a2 2 0 0 1-2 2h-6.3v21.3a2 2 0 0 1-2 2zm-7-4h5V48.3a2 2 0 0 1 2-2h6.3v-3.5h-6.5a2 2 0 0 1-2-2V35a4 4 0 0 1 .9-3.2 3.3 3.3 0 0 1 2.8-1.3h4.8V27h-6.9a7.6 7.6 0 0 0-4.9 1.8 4.9 4.9 0 0 0-1.3 3.7v8.4a2 2 0 0 1-2 2h-4.5v3.3h4.3a2 2 0 0 1 2 2zm15.3-37zm35.5 4.3a2.1 2.1 0 0 1-2.1-1.8A36 36 0 0 0 67.9 6.1a2.1 2.1 0 0 1-1.6-2.6 2.2 2.2 0 0 1 2.6-1.6 40.1 40.1 0 0 1 30.3 32.6 2.4 2.4 0 0 1-1.8 2.5.2.2 0 0 0-.2-.2z"/></svg>