<svg xmlns="http://www.w3.org/2000/svg" width="100" height="100" viewBox="0 0 100 100"><circle cx="49.6" cy="50" r="40.7" fill="none" stroke="#010101" stroke-miterlimit="10" stroke-width="6"/><path fill="none" stroke="#010101" stroke-linecap="round" stroke-linejoin="round" stroke-width="4" d="M61.7 32.5V25h-8.9s-8.2-.1-8.2 7.5v8.4h-6.5v7.3h6.3v23.3h9V48.3h8.3v-7.5h-8.5v-5.9s-.4-2.4 1.7-2.4z"/><path fill="#010101" d="M97.2 36.8a2.1 2.1 0 0 1-2.1-1.8A36 36 0 0 0 67.9 6.1a2.1 2.1 0 0 1-1.6-2.6 2.2 2.2 0 0 1 2.6-1.6 40.1 40.1 0 0 1 30.3 32.6 2.4 2.4 0 0 1-1.8 2.5.2.2 0 0 0-.2-.2z"/></svg>