<svg xmlns="http://www.w3.org/2000/svg" width="100" height="100" viewBox="0 0 100 100"><path fill="#010101" d="M98.3 26.2c-3.9-10.4-13.6-17.8-24.4-18a26.5 26.5 0 0 0-23.4 12.7.6.6 0 0 1-1 0A26.5 26.5 0 0 0 26.1 8.2c-11.1.2-20.5 7.6-24.4 18C-6.4 47.3 16.4 64.1 30.2 77l18 15.7a3.2 3.2 0 0 0 3.9 0L70 77c13.6-12.9 36.4-29.7 28.3-50.8zM65.2 71.3L52.1 82.8a4.1 4.1 0 0 1-4.9 0L34.1 71.3C22.2 60.2 2.1 46.2 9 28c.3-.5.5-1.2.7-1.6 7.4-15.9 29.2-12.7 36.9 3.4.8 1.6 1.3 2.8 1.3 2.8a2 2 0 0 0 3 0 20.4 20.4 0 0 0 1.3-2.8c8-17 30.7-19.3 37.6-2.3v.3c7.4 18.4-12.6 32.4-24.6 43.5z"/></svg>