<svg xmlns="http://www.w3.org/2000/svg" width="100" height="100" viewBox="0 0 100 100"><path fill="#010101" d="M83.1 47.3l-43-45.9a4 4 0 0 0-5.6-.2 4.1 4.1 0 0 0-.2 5.7 2 2 0 0 0-1.6 2 2 2 0 0 0 2 2H38l2.1 2.2H25.6a2 2 0 1 0 0 4h18.3l4.2 4.5h-3.9a2 2 0 0 0 0 4h7.6l5.8 6.2H46.7a2 2 0 0 0 0 4h14.6l3.7 3.9H36.5a2 2 0 0 0 0 4h32.2l6 6.4-3.2 3.4h-3.9a2 2 0 0 0 0 4h.1l-1.5 1.7H43.8a2 2 0 0 0 0 4h18.6l-6.9 7.4h-8.2a2 2 0 0 0 0 4h4.5l-4 4.3H22.2a2 2 0 0 0 0 4H44l-3.3 3.5h-7.6a2 2 0 1 0 0 4H37l-2.7 2.9a4 4 0 0 0 .2 5.6 3.9 3.9 0 0 0 2.7 1.1 3.7 3.7 0 0 0 2.9-1.3l43-45.9a4.1 4.1 0 0 0 0-5.5z"/><path fill="#010101" d="M35.1 25.6a2 2 0 0 0 0-4h-2.8a2 2 0 1 0 0 4zm6.9 49a2 2 0 0 0 0-4h-2.8a2 2 0 0 0 0 4zm24.9-23.3a2 2 0 0 0 0-4h-4.7a2 2 0 0 0 0 4z"/></svg>