<svg xmlns="http://www.w3.org/2000/svg" width="100" height="100" viewBox="0 0 100 100"><path fill="#010101" d="M50.5 93.7A43.7 43.7 0 1 1 94.2 50a43.7 43.7 0 0 1-43.7 43.7zm0-81.4A37.7 37.7 0 1 0 88.2 50a37.7 37.7 0 0 0-37.7-37.7z"/><path fill="#010101" d="M62 40.8a4.3 4.3 0 1 1 4.3-4.3 4.2 4.2 0 0 1-4.3 4.3zm0-5.5a1.2 1.2 0 0 0-1.2 1.2 1.2 1.2 0 0 0 1.2 1.3 1.3 1.3 0 0 0 1.3-1.3 1.3 1.3 0 0 0-1.3-1.2z"/><path fill="#010101" d="M72.3 35.5c-.1-3.2-2.3-9.4-9.4-9.4H37.8c-3 .3-8.7 2.6-8.7 9.5v25.7c.2 2.9 2.6 8.5 10.3 8.5h23.7a10.1 10.1 0 0 0 6.6-2.6 9 9 0 0 0 2.6-6.8zm-39.2.1c0-4.7 4.3-5.4 5-5.5h24.8c4.8 0 5.4 4.8 5.4 5.6v5.6h-9.9a11.2 11.2 0 0 0-7.9-3.3 10.6 10.6 0 0 0-7.8 3.3h-9.6zM56.5 49a6 6 0 0 1-12 0 6 6 0 0 1 12 0zM67 64.3a6.5 6.5 0 0 1-4.1 1.5H39.4c-5.5 0-6.2-3.9-6.3-4.7V46.3h6.8A11 11 0 1 0 61.5 49a7.7 7.7 0 0 0-.4-2.7h7.2v14.1a5.3 5.3 0 0 1-1.3 3.9zM2.4 62.9a2.2 2.2 0 0 1 2 1.8 35.9 35.9 0 0 0 25.9 30.1 2.2 2.2 0 0 1-1.2 4.2A40.1 40.1 0 0 1 .3 65.1a2.3 2.3 0 0 1 1.9-2.4.2.2 0 0 0 .2.2z"/></svg>