<svg xmlns="http://www.w3.org/2000/svg" width="100" height="100" viewBox="0 0 100 100"><circle cx="50.5" cy="50" r="40.7" fill="none" stroke="#010101" stroke-miterlimit="10" stroke-width="6"/><circle cx="50.5" cy="49" r="8.5" fill="none" stroke="#010101" stroke-miterlimit="10" stroke-width="5"/><circle cx="62" cy="36.5" r="2.7" fill="none" stroke="#010101" stroke-miterlimit="10" stroke-width="3"/><path fill="none" stroke="#010101" stroke-miterlimit="10" stroke-width="4" d="M31.1 35.6v25.5s.5 6.7 8.3 6.7h23.5s7.4.3 7.4-7.4V35.6s-.3-7.5-7.4-7.5H38s-6.9.6-6.9 7.5z"/><path fill="none" stroke="#010101" stroke-miterlimit="10" stroke-width="5" d="M31.1 43.8h11.7m15.6 0h11.7"/><path fill="#010101" d="M2.4 62.9a2.2 2.2 0 0 1 2 1.8 35.9 35.9 0 0 0 25.9 30.1 2.2 2.2 0 0 1-1.2 4.2A40.1 40.1 0 0 1 .3 65.1a2.3 2.3 0 0 1 1.9-2.4.2.2 0 0 0 .2.2z"/></svg>