<svg xmlns="http://www.w3.org/2000/svg" width="100" height="100" viewBox="0 0 100 100"><path fill="#010101" d="M7 1.9c-4.1 0-7 2.5-7 7.7v30.5c0 4.2 2 7.6 6.1 7.6h5.5a1.6 1.6 0 0 0 1.5-1.6V8.7c0-4.6-2.2-6.8-6.1-6.8z"/><path fill="#010101" d="M85.8 0H9.3a7.9 7.9 0 0 1 7.8 7.9V93c0 3 .6 5.2 2.7 6.4s5.8-.3 7.8-2.3l27.1-18.8 27.1 18.8c2 2.1 4.9 3.9 7.7 2.3s2.7-3.4 2.7-6.4V6.4A6.4 6.4 0 0 0 85.8 0zm.3 7.9v84.3L57 70.7a3 3 0 0 0-2.3-1 3.3 3.3 0 0 0-2.3 1L23.3 92.2V7.9a1.6 1.6 0 0 1 .4-1.2 1.5 1.5 0 0 1 1.1-.4h59.6a1.4 1.4 0 0 1 1.1.4 1.2 1.2 0 0 1 .6 1.2z"/><path fill="#010101" d="M75 26.6H34a3.6 3.6 0 0 1 0-7.2h41a3.6 3.6 0 0 1 0 7.2zm0 16.7H34a3.6 3.6 0 0 1 0-7.2h41a3.6 3.6 0 0 1 0 7.2zM75 60H34a3.6 3.6 0 0 1 0-7.2h41a3.6 3.6 0 0 1 0 7.2z"/></svg>