<svg xmlns="http://www.w3.org/2000/svg" width="100" height="100" viewBox="0 0 100 100"><circle cx="52.5" cy="50" r="40.7" fill="none" stroke="#010101" stroke-miterlimit="10" stroke-width="6"/><path fill="none" stroke="#010101" stroke-linecap="round" stroke-linejoin="round" stroke-width="4" d="M33.1 67.1s9.2.9 12.6-4.3c-6.3 0-7.8-6-7.8-6h3.8s-7.6-2.9-6.9-10c3.1 1.5 3.4 1.1 3.4 1.1s-6.7-4.9-1.8-12.3c4.2 5.7 10.4 9.5 17.6 9.5-.8-7.2 4.3-11.5 7.9-11.5s5.7 1.1 7.4 2.7a17.8 17.8 0 0 0 5.4-2s-2.4 4.9-3.3 4.9l4.6-1.3s-1.9 3.8-4.7 4.7c1.7 12.8-8.2 22.5-10.5 24.1s-13.1 8.6-27.7.4z"/><path fill="#010101" d="M2.9 35.6a2 2 0 0 0 2-1.8A36.1 36.1 0 0 1 32.2 4.9a2.2 2.2 0 0 0 1.6-2.6A2.3 2.3 0 0 0 31.2.7 40.1 40.1 0 0 0 .9 33.3a2.3 2.3 0 0 0 1.8 2.5.2.2 0 0 1 .2-.2z"/></svg>