<svg xmlns="http://www.w3.org/2000/svg" width="100" height="100" viewBox="0 0 100 100"><path fill="#010101" d="M52.5 93.7A43.7 43.7 0 1 1 96.2 50a43.7 43.7 0 0 1-43.7 43.7zm0-81.4A37.7 37.7 0 1 0 90.2 50a37.7 37.7 0 0 0-37.7-37.7z"/><path fill="#010101" d="M47.1 73a30.2 30.2 0 0 1-15-4.2 2.1 2.1 0 0 1-.9-2.4 2 2 0 0 1 2.1-1.3 18.4 18.4 0 0 0 8.1-1.2 10.2 10.2 0 0 1-5.4-6.6 1.7 1.7 0 0 1 .3-1.7 10.4 10.4 0 0 1-3.5-9 2.2 2.2 0 0 1 .8-1.3c-1.3-2.9-1.6-6.6 1.1-10.8a1.9 1.9 0 0 1 1.6-.9 1.9 1.9 0 0 1 1.7.8A20.5 20.5 0 0 0 51.9 43a13.2 13.2 0 0 1 3.1-8 9.9 9.9 0 0 1 6.9-3.4 11.7 11.7 0 0 1 8 2.6 18.3 18.3 0 0 0 3.8-1.6 2 2 0 0 1 2.4.2 2.1 2.1 0 0 1 .4 2.4l-.3.7a2.1 2.1 0 0 1 1.3.7 2.2 2.2 0 0 1 .3 2.2 13.7 13.7 0 0 1-4.4 5c1 13.1-8.9 22.8-11.5 24.5A26 26 0 0 1 47.1 73zm-5.9-4.8A22.4 22.4 0 0 0 59.7 65c1.9-1.3 11.2-10.2 9.6-22.1a2.1 2.1 0 0 1 .9-2 2.2 2.2 0 0 1-.8-1.4 1.7 1.7 0 0 1 .2-1.2 1.8 1.8 0 0 1-1.7-.6c-1.3-1.3-2.8-2.1-6-2.1a5.9 5.9 0 0 0-3.9 2.1 9.2 9.2 0 0 0-2 7.2 1.7 1.7 0 0 1-.5 1.5 2.1 2.1 0 0 1-1.5.7 23.2 23.2 0 0 1-17.1-7.8 6.7 6.7 0 0 0 2.5 7 1.9 1.9 0 0 1 .8 1.5 1.5 1.5 0 0 1-.6 1.5 2.2 2.2 0 0 1-2.5.5c1.2 3.5 5.1 5 5.3 5.1a2 2 0 0 1 1.2 2.2 2 2 0 0 1-1.9 1.7h-.5a5.8 5.8 0 0 0 4.5 2 2 2 0 0 1 1.7 3.1 11 11 0 0 1-6.2 4.3zM2.9 35.6a2 2 0 0 0 2-1.8A36.1 36.1 0 0 1 32.2 4.9a2.2 2.2 0 0 0 1.6-2.6A2.3 2.3 0 0 0 31.2.7 40.1 40.1 0 0 0 .9 33.3a2.3 2.3 0 0 0 1.8 2.5.2.2 0 0 1 .2-.2z"/></svg>