<svg xmlns="http://www.w3.org/2000/svg"><symbol id="add-cart" viewBox="0 0 100 100"><path fill="currentColor" d="M38.8 79.5a1.8 1.8 0 0 0 1.9-1.9 1.9 1.9 0 0 0-1.9-1.9 2 2 0 0 0-1.9 1.9 1.9 1.9 0 0 0 1.9 1.9z"/><circle cx="63.6" cy="77.6" r="1.9" fill="currentColor"/><path fill="currentColor" d="M66.3 64.9a4.3 4.3 0 0 0 3.8-2.4l11.7-23a3 3 0 0 0 0-2.9 2.7 2.7 0 0 0-2.5-1.4h-50c-.5-1.6-1-2.4-1.5-3.9a4 4 0 0 0-1.8-2.4 3.5 3.5 0 0 0-2.5-.7H19a2 2 0 1 0 0 4h4.8c3.1 10 6.2 19.6 9.3 29.6a2.6 2.6 0 0 1-.3 2.4L31 67.6a4.7 4.7 0 0 0-.7 2.5 4.8 4.8 0 0 0 .7 2.6 4.7 4.7 0 0 0 1.8 1.9 4.8 4.8 0 0 0 2.6.7h.1a4.1 4.1 0 0 0-.8 2.4 4.1 4.1 0 0 0 8.1 0 4.1 4.1 0 0 0-.8-2.4h18.3a4.1 4.1 0 0 0-.8 2.4 4.1 4.1 0 0 0 8.1 0 4.1 4.1 0 0 0-.8-2.4h2.5a2.3 2.3 0 0 0 2.3-2.3 2.3 2.3 0 0 0-2.3-2.4H35.4c-.5 0-.7-.4-.5-.7l2.9-5-.6-1.9.6 1.9zM44.9 48h5.8v-5.8a2 2 0 0 1 4 0V48h5.9a2 2 0 0 1 0 4h-5.9v5.8a2 2 0 0 1-4 0V52h-5.8a2 2 0 0 1 0-4zm18.7 27.7a1.9 1.9 0 0 1 1.9 1.9 1.8 1.8 0 0 1-1.9 1.9 1.8 1.8 0 0 1-1.8-1.9 1.9 1.9 0 0 1 1.8-1.9zm-24.8 0a1.9 1.9 0 0 1 1.9 1.9 1.8 1.8 0 0 1-1.9 1.9 1.9 1.9 0 0 1-1.9-1.9 2 2 0 0 1 1.9-1.9z"/></symbol><symbol id="cart" viewBox="0 0 100 100"><path fill="currentColor" d="M66.8 62.9a4.9 4.9 0 0 0 4.3-2.7l13.1-25.8a3.6 3.6 0 0 0 0-3.2 3 3 0 0 0-2.8-1.5h-56c-.5-1.8-1-2.7-1.6-4.4a5.1 5.1 0 0 0-2-2.7 3.9 3.9 0 0 0-2.8-.8h-8.4a2.3 2.3 0 1 0 0 4.5h8.5l.2.2c3.5 11.1 7 21.9 10.4 33a3.5 3.5 0 0 1-.3 2.8l-2.1 3.6a6 6 0 0 0-.8 2.9 6.7 6.7 0 0 0 .8 2.9 6 6 0 0 0 2.1 2.1 5.9 5.9 0 0 0 2.9.7h.1a4.4 4.4 0 0 0-.9 2.7 4.5 4.5 0 0 0 4.5 4.5 4.6 4.6 0 0 0 4.6-4.5 4.4 4.4 0 0 0-.9-2.7h20.4a5.1 5.1 0 0 0-.9 2.7 4.6 4.6 0 0 0 4.6 4.5 4.5 4.5 0 0 0 4.5-4.5 5 5 0 0 0-.8-2.7h2.7a2.5 2.5 0 0 0 2.6-2.6 2.6 2.6 0 0 0-2.6-2.6h-38a.6.6 0 0 1-.5-.8l3.2-5.6a16 16 0 0 1-.5-2.1 18.3 18.3 0 0 0 .6 2.1zm-2.9-26a1.7 1.7 0 1 1 3.4 0v18.7a1.7 1.7 0 1 1-3.4 0zm-8.7 0a1.7 1.7 0 1 1 3.4 0v18.7a1.7 1.7 0 1 1-3.4 0V36.9zm-8.8 0a1.8 1.8 0 0 1 3.5 0v18.7a1.8 1.8 0 0 1-3.5 0zm-8.7 0a1.7 1.7 0 1 1 3.4 0v18.7a1.7 1.7 0 1 1-3.4 0zm-1.6 42.3a2.1 2.1 0 0 1-2.1-2.1 2.1 2.1 0 0 1 4.2 0 2.1 2.1 0 0 1-2.1 2.1zm27.8 0a2.1 2.1 0 0 1-2.1-2.1 2.1 2.1 0 0 1 4.2 0 2.1 2.1 0 0 1-2.1 2.1z"/></symbol><symbol id="favorite-hover" viewBox="0 0 100 100"><path fill="currentColor" d="M98.3 26.2c-3.9-10.4-13.6-17.8-24.4-18a26.5 26.5 0 0 0-23.4 12.7.6.6 0 0 1-1 0A26.5 26.5 0 0 0 26.1 8.2c-11.1.2-20.5 7.6-24.4 18C-6.4 47.3 16.4 64.1 30.2 77l18 15.7a3.2 3.2 0 0 0 3.9 0L70 77c13.6-12.9 36.4-29.7 28.3-50.8z"/></symbol><symbol id="favorite" viewBox="0 0 100 100"><path fill="currentColor" d="M98.3 26.2c-3.9-10.4-13.6-17.8-24.4-18a26.5 26.5 0 0 0-23.4 12.7.6.6 0 0 1-1 0A26.5 26.5 0 0 0 26.1 8.2c-11.1.2-20.5 7.6-24.4 18C-6.4 47.3 16.4 64.1 30.2 77l18 15.7a3.2 3.2 0 0 0 3.9 0L70 77c13.6-12.9 36.4-29.7 28.3-50.8zM65.2 71.3L52.1 82.8a4.1 4.1 0 0 1-4.9 0L34.1 71.3C22.2 60.2 2.1 46.2 9 28c.3-.5.5-1.2.7-1.6 7.4-15.9 29.2-12.7 36.9 3.4.8 1.6 1.3 2.8 1.3 2.8a2 2 0 0 0 3 0 20.4 20.4 0 0 0 1.3-2.8c8-17 30.7-19.3 37.6-2.3v.3c7.4 18.4-12.6 32.4-24.6 43.5z"/></symbol><symbol id="facebook" viewBox="0 0 100 100"><path fill="currentColor" d="M49.6 93.7A43.7 43.7 0 1 1 93.4 50a43.7 43.7 0 0 1-43.8 43.7zm0-81.4A37.7 37.7 0 1 0 87.4 50a37.7 37.7 0 0 0-37.8-37.7z"/><path fill="currentColor" d="M53.4 73.5h-9a2 2 0 0 1-2-2V50.2h-4.3a2 2 0 0 1-2-2v-7.3a2 2 0 0 1 2-2h4.5v-6.4a8.9 8.9 0 0 1 2.5-6.6c3-2.9 7.6-2.9 7.8-2.9h8.8a2 2 0 0 1 2 2v7.5a1.9 1.9 0 0 1-1.9 2h-6.7a.4.4 0 0 1 .1.3v3.9h6.5a2 2 0 0 1 2 2v7.5a2 2 0 0 1-2 2h-6.3v21.3a2 2 0 0 1-2 2zm-7-4h5V48.3a2 2 0 0 1 2-2h6.3v-3.5h-6.5a2 2 0 0 1-2-2V35a4 4 0 0 1 .9-3.2 3.3 3.3 0 0 1 2.8-1.3h4.8V27h-6.9a7.6 7.6 0 0 0-4.9 1.8 4.9 4.9 0 0 0-1.3 3.7v8.4a2 2 0 0 1-2 2h-4.5v3.3h4.3a2 2 0 0 1 2 2zm15.3-37zm35.5 4.3a2.1 2.1 0 0 1-2.1-1.8A36 36 0 0 0 67.9 6.1a2.1 2.1 0 0 1-1.6-2.6 2.2 2.2 0 0 1 2.6-1.6 40.1 40.1 0 0 1 30.3 32.6 2.4 2.4 0 0 1-1.8 2.5.2.2 0 0 0-.2-.2z"/></symbol><symbol id="go-hover" viewBox="0 0 100 100"><path fill="currentColor" d="M83.1 47.3l-43-45.9a4 4 0 0 0-5.6-.2 4.1 4.1 0 0 0-.2 5.7 2 2 0 0 0-1.6 2 2 2 0 0 0 2 2H38l2.1 2.2H25.6a2 2 0 1 0 0 4h18.3l4.2 4.5h-3.9a2 2 0 0 0 0 4h7.6l5.8 6.2H46.7a2 2 0 0 0 0 4h14.6l3.7 3.9H36.5a2 2 0 0 0 0 4h32.2l6 6.4-3.2 3.4h-3.9a2 2 0 0 0 0 4h.1l-1.5 1.7H43.8a2 2 0 0 0 0 4h18.6l-6.9 7.4h-8.2a2 2 0 0 0 0 4h4.5l-4 4.3H22.2a2 2 0 0 0 0 4H44l-3.3 3.5h-7.6a2 2 0 1 0 0 4H37l-2.7 2.9a4 4 0 0 0 .2 5.6 3.9 3.9 0 0 0 2.7 1.1 3.7 3.7 0 0 0 2.9-1.3l43-45.9a4.1 4.1 0 0 0 0-5.5z"/><path fill="currentColor" d="M35.1 25.6a2 2 0 0 0 0-4h-2.8a2 2 0 1 0 0 4zm6.9 49a2 2 0 0 0 0-4h-2.8a2 2 0 0 0 0 4zm24.9-23.3a2 2 0 0 0 0-4h-4.7a2 2 0 0 0 0 4z"/></symbol><symbol id="cart-hover" viewBox="0 0 100 100"><path fill="currentColor" fill-rule="evenodd" d="M4.9 37.5h17.9a1.5 1.5 0 1 1 0 2.9H4.9a1.5 1.5 0 1 1 0-2.9zm-3.3 7.3H6a1.5 1.5 0 1 1 0 2.9H1.6a1.5 1.5 0 1 1 0-2.9zm8.6 7.4h.9a1.4 1.4 0 1 1 0 2.8h-.9a1.4 1.4 0 1 1 0-2.8zm3.3 7.3h17.9a1.5 1.5 0 1 1 0 2.9H13.5a1.5 1.5 0 1 1 0-2.9zm4.4-7.3h17.9a1.4 1.4 0 1 1 0 2.8H17.9a1.4 1.4 0 1 1 0-2.8zm-6.4-7.4h17.8a1.5 1.5 0 1 1 0 2.9H11.5a1.5 1.5 0 1 1 0-2.9z"/><path fill="currentColor" d="M82.2 62.9a4.9 4.9 0 0 0 4.3-2.7l13.1-25.8a3.6 3.6 0 0 0 0-3.2 2.9 2.9 0 0 0-2.7-1.5h-56c-.6-1.8-1.1-2.7-1.7-4.4a4.3 4.3 0 0 0-2-2.7 3.9 3.9 0 0 0-2.8-.8H26a2.3 2.3 0 1 0 0 4.5h8.6v.2c3.5 11.1 7 21.9 10.4 33a3.5 3.5 0 0 1-.3 2.8l-2.1 3.6a6 6 0 0 0-.8 2.9 6.7 6.7 0 0 0 .8 2.9 6 6 0 0 0 2.1 2.1 5.9 5.9 0 0 0 2.9.7h.1a4.4 4.4 0 0 0-.9 2.7 4.5 4.5 0 0 0 4.5 4.5 4.6 4.6 0 0 0 4.7-4.5 4.4 4.4 0 0 0-.9-2.7h20.4a5 5 0 0 0-.8 2.7 4.5 4.5 0 0 0 9 0 5 5 0 0 0-.8-2.7h2.7a2.6 2.6 0 0 0 2.7-2.6 2.7 2.7 0 0 0-2.7-2.6H47.7c-.5 0-.8-.5-.6-.8l3.2-5.6a16 16 0 0 0-.5-2.1c.4 1.3.6 2.1.6 2.1zm-2.9-26a1.7 1.7 0 1 1 3.4 0v18.7a1.7 1.7 0 1 1-3.4 0zm-8.7 0a1.7 1.7 0 1 1 3.4 0v18.7a1.7 1.7 0 1 1-3.4 0V36.9zm-8.8 0a1.8 1.8 0 0 1 3.5 0v18.7a1.8 1.8 0 0 1-3.5 0zm-8.7 0a1.7 1.7 0 1 1 3.4 0v18.7a1.7 1.7 0 1 1-3.4 0zm-1.6 42.3a2.1 2.1 0 0 1-2.1-2.1 2.1 2.1 0 0 1 4.2 0 2.1 2.1 0 0 1-2.1 2.1zm27.8 0a2.1 2.1 0 0 1-2.1-2.1 2.1 2.1 0 0 1 4.2 0 2.1 2.1 0 0 1-2.1 2.1z"/></symbol><symbol id="go" viewBox="0 0 100 100"><path fill="currentColor" d="M31.6 100a3.9 3.9 0 0 1-2.7-1.1 4 4 0 0 1-.2-5.6l40.4-43.2L28.7 6.9a4.1 4.1 0 0 1 .2-5.7 4 4 0 0 1 5.6.2l43 45.9a4.1 4.1 0 0 1 0 5.5l-43 45.9a3.7 3.7 0 0 1-2.9 1.3z"/></symbol><symbol id="instagram" viewBox="0 0 100 100"><path fill="currentColor" d="M50.5 93.7A43.7 43.7 0 1 1 94.2 50a43.7 43.7 0 0 1-43.7 43.7zm0-81.4A37.7 37.7 0 1 0 88.2 50a37.7 37.7 0 0 0-37.7-37.7z"/><path fill="currentColor" d="M62 40.8a4.3 4.3 0 1 1 4.3-4.3 4.2 4.2 0 0 1-4.3 4.3zm0-5.5a1.2 1.2 0 0 0-1.2 1.2 1.2 1.2 0 0 0 1.2 1.3 1.3 1.3 0 0 0 1.3-1.3 1.3 1.3 0 0 0-1.3-1.2z"/><path fill="currentColor" d="M72.3 35.5c-.1-3.2-2.3-9.4-9.4-9.4H37.8c-3 .3-8.7 2.6-8.7 9.5v25.7c.2 2.9 2.6 8.5 10.3 8.5h23.7a10.1 10.1 0 0 0 6.6-2.6 9 9 0 0 0 2.6-6.8zm-39.2.1c0-4.7 4.3-5.4 5-5.5h24.8c4.8 0 5.4 4.8 5.4 5.6v5.6h-9.9a11.2 11.2 0 0 0-7.9-3.3 10.6 10.6 0 0 0-7.8 3.3h-9.6zM56.5 49a6 6 0 0 1-12 0 6 6 0 0 1 12 0zM67 64.3a6.5 6.5 0 0 1-4.1 1.5H39.4c-5.5 0-6.2-3.9-6.3-4.7V46.3h6.8A11 11 0 1 0 61.5 49a7.7 7.7 0 0 0-.4-2.7h7.2v14.1a5.3 5.3 0 0 1-1.3 3.9zM2.4 62.9a2.2 2.2 0 0 1 2 1.8 35.9 35.9 0 0 0 25.9 30.1 2.2 2.2 0 0 1-1.2 4.2A40.1 40.1 0 0 1 .3 65.1a2.3 2.3 0 0 1 1.9-2.4.2.2 0 0 0 .2.2z"/></symbol><symbol id="search" viewBox="0 0 100 100"><path fill="currentColor" fill-rule="evenodd" d="M57.6 66.6a29.4 29.4 0 0 1-38.9-2.8 29.8 29.8 0 0 1 .4-41.7 29.8 29.8 0 0 1 41.7.5 29.8 29.8 0 0 1 1.9 39.1l6.8 6.8a8.3 8.3 0 0 1 7.6 1.9L93.3 87a7.4 7.4 0 0 1-.2 10.8 7.6 7.6 0 0 1-10.9-.2L66.1 81a7.6 7.6 0 0 1-1.7-7.9c-.2.3-6.8-6.5-6.8-6.5zm-1.5-39.4a23 23 0 1 0-.4 32.6 22.9 22.9 0 0 0 .4-32.6z"/><path fill="currentColor" d="M20.8 12.6a2.7 2.7 0 0 1-1.9-1.1 2.2 2.2 0 0 1 .9-3 36.2 36.2 0 0 1 12.5-4.6 2.3 2.3 0 0 1 2.6 1.7 2.4 2.4 0 0 1-1.7 2.5 34.2 34.2 0 0 0-11.1 4.3 2.7 2.7 0 0 1-1.3.2zm55.9 25.3a2.1 2.1 0 0 1-2.1-1.7A35.9 35.9 0 0 0 46.5 8.1a2.2 2.2 0 0 1-1.7-2.5 2.2 2.2 0 0 1 2.6-1.7 39.7 39.7 0 0 1 31.2 31.6 2.3 2.3 0 0 1-1.7 2.6.2.2 0 0 0-.2-.2zm-4 25a2.2 2.2 0 0 1-1.1-.2 2.1 2.1 0 0 1-.8-2.9A52.4 52.4 0 0 0 75.2 47a2.2 2.2 0 0 1 2.6-1.7 2.3 2.3 0 0 1 1.7 2.6 68.4 68.4 0 0 1-4.9 14 2.3 2.3 0 0 1-1.9 1zm-33 19.8A39.8 39.8 0 0 1 0 43a40.5 40.5 0 0 1 8.3-24.5 2.4 2.4 0 0 1 3-.4 2.4 2.4 0 0 1 .4 3 35 35 0 0 0-7.4 21.7 35.6 35.6 0 0 0 51.2 31.8 2.1 2.1 0 0 1 2.7 1.1 2.1 2.1 0 0 1-1 2.8 38.6 38.6 0 0 1-17.5 4.2z"/></symbol><symbol id="twitter" viewBox="0 0 100 100"><path fill="currentColor" d="M52.5 93.7A43.7 43.7 0 1 1 96.2 50a43.7 43.7 0 0 1-43.7 43.7zm0-81.4A37.7 37.7 0 1 0 90.2 50a37.7 37.7 0 0 0-37.7-37.7z"/><path fill="currentColor" d="M47.1 73a30.2 30.2 0 0 1-15-4.2 2.1 2.1 0 0 1-.9-2.4 2 2 0 0 1 2.1-1.3 18.4 18.4 0 0 0 8.1-1.2 10.2 10.2 0 0 1-5.4-6.6 1.7 1.7 0 0 1 .3-1.7 10.4 10.4 0 0 1-3.5-9 2.2 2.2 0 0 1 .8-1.3c-1.3-2.9-1.6-6.6 1.1-10.8a1.9 1.9 0 0 1 1.6-.9 1.9 1.9 0 0 1 1.7.8A20.5 20.5 0 0 0 51.9 43a13.2 13.2 0 0 1 3.1-8 9.9 9.9 0 0 1 6.9-3.4 11.7 11.7 0 0 1 8 2.6 18.3 18.3 0 0 0 3.8-1.6 2 2 0 0 1 2.4.2 2.1 2.1 0 0 1 .4 2.4l-.3.7a2.1 2.1 0 0 1 1.3.7 2.2 2.2 0 0 1 .3 2.2 13.7 13.7 0 0 1-4.4 5c1 13.1-8.9 22.8-11.5 24.5A26 26 0 0 1 47.1 73zm-5.9-4.8A22.4 22.4 0 0 0 59.7 65c1.9-1.3 11.2-10.2 9.6-22.1a2.1 2.1 0 0 1 .9-2 2.2 2.2 0 0 1-.8-1.4 1.7 1.7 0 0 1 .2-1.2 1.8 1.8 0 0 1-1.7-.6c-1.3-1.3-2.8-2.1-6-2.1a5.9 5.9 0 0 0-3.9 2.1 9.2 9.2 0 0 0-2 7.2 1.7 1.7 0 0 1-.5 1.5 2.1 2.1 0 0 1-1.5.7 23.2 23.2 0 0 1-17.1-7.8 6.7 6.7 0 0 0 2.5 7 1.9 1.9 0 0 1 .8 1.5 1.5 1.5 0 0 1-.6 1.5 2.2 2.2 0 0 1-2.5.5c1.2 3.5 5.1 5 5.3 5.1a2 2 0 0 1 1.2 2.2 2 2 0 0 1-1.9 1.7h-.5a5.8 5.8 0 0 0 4.5 2 2 2 0 0 1 1.7 3.1 11 11 0 0 1-6.2 4.3zM2.9 35.6a2 2 0 0 0 2-1.8A36.1 36.1 0 0 1 32.2 4.9a2.2 2.2 0 0 0 1.6-2.6A2.3 2.3 0 0 0 31.2.7 40.1 40.1 0 0 0 .9 33.3a2.3 2.3 0 0 0 1.8 2.5.2.2 0 0 1 .2-.2z"/></symbol><symbol id="warning" viewBox="0 0 100 100"><path fill="currentColor" fill-rule="evenodd" d="M28.2 77.9H9.8a7.7 7.7 0 0 1-7.5-8V14.3a7.7 7.7 0 0 1 7.5-8h80.5a7.7 7.7 0 0 1 7.5 8v55.6a7.7 7.7 0 0 1-7.5 8H56.1L32 96.2a2.4 2.4 0 0 1-3.8-2zm21.9-24.2a5.2 5.2 0 0 1 5.1 5.2 5.2 5.2 0 1 1-10.3 0 5.2 5.2 0 0 1 5.2-5.2zm0-34.2a7.2 7.2 0 0 0-7.2 8.3l2.9 19.7a1 1 0 0 0 1.1 1 11.2 11.2 0 0 1 6.3 0 1 1 0 0 0 1.1-1l2.9-19.7a7.2 7.2 0 0 0-7.1-8.3z"/></symbol><symbol id="menu" viewBox="0 0 100 100"><path fill="currentColor" d="M7 1.9c-4.1 0-7 2.5-7 7.7v30.5c0 4.2 2 7.6 6.1 7.6h5.5a1.6 1.6 0 0 0 1.5-1.6V8.7c0-4.6-2.2-6.8-6.1-6.8z"/><path fill="currentColor" d="M85.8 0H9.3a7.9 7.9 0 0 1 7.8 7.9V93c0 3 .6 5.2 2.7 6.4s5.8-.3 7.8-2.3l27.1-18.8 27.1 18.8c2 2.1 4.9 3.9 7.7 2.3s2.7-3.4 2.7-6.4V6.4A6.4 6.4 0 0 0 85.8 0zm.3 7.9v84.3L57 70.7a3 3 0 0 0-2.3-1 3.3 3.3 0 0 0-2.3 1L23.3 92.2V7.9a1.6 1.6 0 0 1 .4-1.2 1.5 1.5 0 0 1 1.1-.4h59.6a1.4 1.4 0 0 1 1.1.4 1.2 1.2 0 0 1 .6 1.2z"/><path fill="currentColor" d="M75 26.6H34a3.6 3.6 0 0 1 0-7.2h41a3.6 3.6 0 0 1 0 7.2zm0 16.7H34a3.6 3.6 0 0 1 0-7.2h41a3.6 3.6 0 0 1 0 7.2zM75 60H34a3.6 3.6 0 0 1 0-7.2h41a3.6 3.6 0 0 1 0 7.2z"/></symbol></svg>
