<svg xmlns="http://www.w3.org/2000/svg"><symbol id="go-hover" viewBox="0 0 100 100"><path fill="none" stroke="#010101" stroke-linecap="round" stroke-linejoin="round" stroke-width="8" d="M37.2 4.1l43 46-43 45.9"/><path fill="none" stroke="#010101" stroke-linecap="round" stroke-linejoin="round" stroke-width="4" d="M41.3 88.4h-8.2m16.1-7.5h-27m24.5-47.1h16.4M44.2 23.6H54m-28.4-8.5h18.2m-11.5 8.5h2.8m20.4 49h-8.2m-8.1 0H42m25.6-11.4H43.8m24.7-19.5h-32m25.7 7.6h4.7m.7 6.2h4.8M34.7 8.9h4.6"/></symbol><symbol id="cart-hover" viewBox="0 0 100 100"><path fill="#010101" fill-rule="evenodd" d="M4.9 37.5h17.9a1.5 1.5 0 1 1 0 2.9H4.9a1.5 1.5 0 1 1 0-2.9zm-3.3 7.3H6a1.5 1.5 0 1 1 0 2.9H1.6a1.5 1.5 0 1 1 0-2.9zm8.6 7.4h.9a1.4 1.4 0 1 1 0 2.8h-.9a1.4 1.4 0 1 1 0-2.8zm3.3 7.3h17.9a1.5 1.5 0 1 1 0 2.9H13.5a1.5 1.5 0 1 1 0-2.9zm4.4-7.3h17.9a1.4 1.4 0 1 1 0 2.8H17.9a1.4 1.4 0 1 1 0-2.8zm-6.4-7.4h17.8a1.5 1.5 0 1 1 0 2.9H11.5a1.5 1.5 0 1 1 0-2.9z"/><path fill="#010101" d="M82.2 62.9a4.9 4.9 0 0 0 4.3-2.7l13.1-25.8a3.6 3.6 0 0 0 0-3.2 2.9 2.9 0 0 0-2.7-1.5h-56c-.6-1.8-1.1-2.7-1.7-4.4a4.3 4.3 0 0 0-2-2.7 3.9 3.9 0 0 0-2.8-.8H26a2.3 2.3 0 1 0 0 4.5h8.6v.2c3.5 11.1 7 21.9 10.4 33a3.5 3.5 0 0 1-.3 2.8l-2.1 3.6a6 6 0 0 0-.8 2.9 6.7 6.7 0 0 0 .8 2.9 6 6 0 0 0 2.1 2.1 5.9 5.9 0 0 0 2.9.7h.1a4.4 4.4 0 0 0-.9 2.7 4.5 4.5 0 0 0 4.5 4.5 4.6 4.6 0 0 0 4.7-4.5 4.4 4.4 0 0 0-.9-2.7h20.4a5 5 0 0 0-.8 2.7 4.5 4.5 0 0 0 9 0 5 5 0 0 0-.8-2.7h2.7a2.6 2.6 0 0 0 2.7-2.6 2.7 2.7 0 0 0-2.7-2.6H47.7c-.5 0-.8-.5-.6-.8l3.2-5.6a16 16 0 0 0-.5-2.1c.4 1.3.6 2.1.6 2.1zm-2.9-26a1.7 1.7 0 1 1 3.4 0v18.7a1.7 1.7 0 1 1-3.4 0zm-8.7 0a1.7 1.7 0 1 1 3.4 0v18.7a1.7 1.7 0 1 1-3.4 0V36.9zm-8.8 0a1.8 1.8 0 0 1 3.5 0v18.7a1.8 1.8 0 0 1-3.5 0zm-8.7 0a1.7 1.7 0 1 1 3.4 0v18.7a1.7 1.7 0 1 1-3.4 0zm-1.6 42.3a2.1 2.1 0 0 1-2.1-2.1 2.1 2.1 0 0 1 4.2 0 2.1 2.1 0 0 1-2.1 2.1zm27.8 0a2.1 2.1 0 0 1-2.1-2.1 2.1 2.1 0 0 1 4.2 0 2.1 2.1 0 0 1-2.1 2.1z"/></symbol><symbol id="favorite" viewBox="0 0 100 100"><path fill="#010101" d="M98.3 26.2c-3.9-10.4-13.6-17.8-24.4-18a26.5 26.5 0 0 0-23.4 12.7.6.6 0 0 1-1 0A26.5 26.5 0 0 0 26.1 8.2c-11.1.2-20.5 7.6-24.4 18C-6.4 47.3 16.4 64.1 30.2 77l18 15.7a3.2 3.2 0 0 0 3.9 0L70 77c13.6-12.9 36.4-29.7 28.3-50.8zM65.2 71.3L52.1 82.8a4.1 4.1 0 0 1-4.9 0L34.1 71.3C22.2 60.2 2.1 46.2 9 28c.3-.5.5-1.2.7-1.6 7.4-15.9 29.2-12.7 36.9 3.4.8 1.6 1.3 2.8 1.3 2.8a2 2 0 0 0 3 0 20.4 20.4 0 0 0 1.3-2.8c8-17 30.7-19.3 37.6-2.3v.3c7.4 18.4-12.6 32.4-24.6 43.5z"/></symbol><symbol id="facebook" viewBox="0 0 100 100"><circle cx="49.6" cy="50" r="40.7" fill="none" stroke="#010101" stroke-miterlimit="10" stroke-width="6"/><path fill="none" stroke="#010101" stroke-linecap="round" stroke-linejoin="round" stroke-width="4" d="M61.7 32.5V25h-8.9s-8.2-.1-8.2 7.5v8.4h-6.5v7.3h6.3v23.3h9V48.3h8.3v-7.5h-8.5v-5.9s-.4-2.4 1.7-2.4z"/><path fill="#010101" d="M97.2 36.8a2.1 2.1 0 0 1-2.1-1.8A36 36 0 0 0 67.9 6.1a2.1 2.1 0 0 1-1.6-2.6 2.2 2.2 0 0 1 2.6-1.6 40.1 40.1 0 0 1 30.3 32.6 2.4 2.4 0 0 1-1.8 2.5.2.2 0 0 0-.2-.2z"/></symbol><symbol id="cart" viewBox="0 0 100 100"><path fill="#010101" d="M66.8 62.9a4.9 4.9 0 0 0 4.3-2.7l13.1-25.8a3.6 3.6 0 0 0 0-3.2 3 3 0 0 0-2.8-1.5h-56c-.5-1.8-1-2.7-1.6-4.4a5.1 5.1 0 0 0-2-2.7 3.9 3.9 0 0 0-2.8-.8h-8.4a2.3 2.3 0 1 0 0 4.5h8.5l.2.2c3.5 11.1 7 21.9 10.4 33a3.5 3.5 0 0 1-.3 2.8l-2.1 3.6a6 6 0 0 0-.8 2.9 6.7 6.7 0 0 0 .8 2.9 6 6 0 0 0 2.1 2.1 5.9 5.9 0 0 0 2.9.7h.1a4.4 4.4 0 0 0-.9 2.7 4.5 4.5 0 0 0 4.5 4.5 4.6 4.6 0 0 0 4.6-4.5 4.4 4.4 0 0 0-.9-2.7h20.4a5.1 5.1 0 0 0-.9 2.7 4.6 4.6 0 0 0 4.6 4.5 4.5 4.5 0 0 0 4.5-4.5 5 5 0 0 0-.8-2.7h2.7a2.5 2.5 0 0 0 2.6-2.6 2.6 2.6 0 0 0-2.6-2.6h-38a.6.6 0 0 1-.5-.8l3.2-5.6a16 16 0 0 1-.5-2.1 18.3 18.3 0 0 0 .6 2.1zm-2.9-26a1.7 1.7 0 1 1 3.4 0v18.7a1.7 1.7 0 1 1-3.4 0zm-8.7 0a1.7 1.7 0 1 1 3.4 0v18.7a1.7 1.7 0 1 1-3.4 0V36.9zm-8.8 0a1.8 1.8 0 0 1 3.5 0v18.7a1.8 1.8 0 0 1-3.5 0zm-8.7 0a1.7 1.7 0 1 1 3.4 0v18.7a1.7 1.7 0 1 1-3.4 0zm-1.6 42.3a2.1 2.1 0 0 1-2.1-2.1 2.1 2.1 0 0 1 4.2 0 2.1 2.1 0 0 1-2.1 2.1zm27.8 0a2.1 2.1 0 0 1-2.1-2.1 2.1 2.1 0 0 1 4.2 0 2.1 2.1 0 0 1-2.1 2.1z"/></symbol><symbol id="go" viewBox="0 0 100 100"><path fill="none" stroke="#010101" stroke-linecap="round" stroke-linejoin="round" stroke-width="8" d="M31.6 4.1l43 46-43 45.9"/></symbol><symbol id="instagram" viewBox="0 0 100 100"><circle cx="50.5" cy="50" r="40.7" fill="none" stroke="#010101" stroke-miterlimit="10" stroke-width="6"/><circle cx="50.5" cy="49" r="8.5" fill="none" stroke="#010101" stroke-miterlimit="10" stroke-width="5"/><circle cx="62" cy="36.5" r="2.7" fill="none" stroke="#010101" stroke-miterlimit="10" stroke-width="3"/><path fill="none" stroke="#010101" stroke-miterlimit="10" stroke-width="4" d="M31.1 35.6v25.5s.5 6.7 8.3 6.7h23.5s7.4.3 7.4-7.4V35.6s-.3-7.5-7.4-7.5H38s-6.9.6-6.9 7.5z"/><path fill="none" stroke="#010101" stroke-miterlimit="10" stroke-width="5" d="M31.1 43.8h11.7m15.6 0h11.7"/><path fill="#010101" d="M2.4 62.9a2.2 2.2 0 0 1 2 1.8 35.9 35.9 0 0 0 25.9 30.1 2.2 2.2 0 0 1-1.2 4.2A40.1 40.1 0 0 1 .3 65.1a2.3 2.3 0 0 1 1.9-2.4.2.2 0 0 0 .2.2z"/></symbol><symbol id="menu" viewBox="0 0 100 100"><path fill="#010101" d="M7 1.9c-4.1 0-7 2.5-7 7.7v30.5c0 4.2 2 7.6 6.1 7.6h5.5a1.6 1.6 0 0 0 1.5-1.6V8.7c0-4.6-2.2-6.8-6.1-6.8z"/><path fill="#010101" d="M85.8 0H9.3a7.9 7.9 0 0 1 7.8 7.9V93c0 3 .6 5.2 2.7 6.4s5.8-.3 7.8-2.3l27.1-18.8 27.1 18.8c2 2.1 4.9 3.9 7.7 2.3s2.7-3.4 2.7-6.4V6.4A6.4 6.4 0 0 0 85.8 0zm.3 7.9v84.3L57 70.7a3 3 0 0 0-2.3-1 3.3 3.3 0 0 0-2.3 1L23.3 92.2V7.9a1.6 1.6 0 0 1 .4-1.2 1.5 1.5 0 0 1 1.1-.4h59.6a1.4 1.4 0 0 1 1.1.4 1.2 1.2 0 0 1 .6 1.2z"/><path fill="#010101" d="M75 26.6H34a3.6 3.6 0 0 1 0-7.2h41a3.6 3.6 0 0 1 0 7.2zm0 16.7H34a3.6 3.6 0 0 1 0-7.2h41a3.6 3.6 0 0 1 0 7.2zM75 60H34a3.6 3.6 0 0 1 0-7.2h41a3.6 3.6 0 0 1 0 7.2z"/></symbol><symbol id="search" viewBox="0 0 100 100"><path fill="#010101" fill-rule="evenodd" d="M57.6 66.6a29.4 29.4 0 0 1-38.9-2.8 29.8 29.8 0 0 1 .4-41.7 29.8 29.8 0 0 1 41.7.5 29.8 29.8 0 0 1 1.9 39.1l6.8 6.8a8.3 8.3 0 0 1 7.6 1.9L93.3 87a7.4 7.4 0 0 1-.2 10.8 7.6 7.6 0 0 1-10.9-.2L66.1 81a7.6 7.6 0 0 1-1.7-7.9c-.2.3-6.8-6.5-6.8-6.5zm-1.5-39.4a23 23 0 1 0-.4 32.6 22.9 22.9 0 0 0 .4-32.6z"/><path fill="#010101" d="M20.8 12.6a2.7 2.7 0 0 1-1.9-1.1 2.2 2.2 0 0 1 .9-3 36.2 36.2 0 0 1 12.5-4.6 2.3 2.3 0 0 1 2.6 1.7 2.4 2.4 0 0 1-1.7 2.5 34.2 34.2 0 0 0-11.1 4.3 2.7 2.7 0 0 1-1.3.2zm55.9 25.3a2.1 2.1 0 0 1-2.1-1.7A35.9 35.9 0 0 0 46.5 8.1a2.2 2.2 0 0 1-1.7-2.5 2.2 2.2 0 0 1 2.6-1.7 39.7 39.7 0 0 1 31.2 31.6 2.3 2.3 0 0 1-1.7 2.6.2.2 0 0 0-.2-.2zm-4 25a2.2 2.2 0 0 1-1.1-.2 2.1 2.1 0 0 1-.8-2.9A52.4 52.4 0 0 0 75.2 47a2.2 2.2 0 0 1 2.6-1.7 2.3 2.3 0 0 1 1.7 2.6 68.4 68.4 0 0 1-4.9 14 2.3 2.3 0 0 1-1.9 1zm-33 19.8A39.8 39.8 0 0 1 0 43a40.5 40.5 0 0 1 8.3-24.5 2.4 2.4 0 0 1 3-.4 2.4 2.4 0 0 1 .4 3 35 35 0 0 0-7.4 21.7 35.6 35.6 0 0 0 51.2 31.8 2.1 2.1 0 0 1 2.7 1.1 2.1 2.1 0 0 1-1 2.8 38.6 38.6 0 0 1-17.5 4.2z"/></symbol><symbol id="twitter" viewBox="0 0 100 100"><circle cx="52.5" cy="50" r="40.7" fill="none" stroke="#010101" stroke-miterlimit="10" stroke-width="6"/><path fill="none" stroke="#010101" stroke-linecap="round" stroke-linejoin="round" stroke-width="4" d="M33.1 67.1s9.2.9 12.6-4.3c-6.3 0-7.8-6-7.8-6h3.8s-7.6-2.9-6.9-10c3.1 1.5 3.4 1.1 3.4 1.1s-6.7-4.9-1.8-12.3c4.2 5.7 10.4 9.5 17.6 9.5-.8-7.2 4.3-11.5 7.9-11.5s5.7 1.1 7.4 2.7a17.8 17.8 0 0 0 5.4-2s-2.4 4.9-3.3 4.9l4.6-1.3s-1.9 3.8-4.7 4.7c1.7 12.8-8.2 22.5-10.5 24.1s-13.1 8.6-27.7.4z"/><path fill="#010101" d="M2.9 35.6a2 2 0 0 0 2-1.8A36.1 36.1 0 0 1 32.2 4.9a2.2 2.2 0 0 0 1.6-2.6A2.3 2.3 0 0 0 31.2.7 40.1 40.1 0 0 0 .9 33.3a2.3 2.3 0 0 0 1.8 2.5.2.2 0 0 1 .2-.2z"/></symbol></svg>