<svg xmlns="http://www.w3.org/2000/svg" width="86.4" height="86.4" viewBox="0 0 64 64.1"><path fill="#f0f0f0" d="M16.6 22.8l.5.6c1 1.1 1.8 2.8-.1 3.6 1.9 1.1 4.3-.7 3.1-2.8a.1.1 0 0 1-.1-.2 2.5 2.5 0 0 0 1.3.4h1.8c3.3-.4 4.7-4.4 2.8-7.1s-6.8-1.8-7.7.5h-.1c0 .2-.1.3-.1.4a1.8 1.8 0 0 1-1 .2c0 .1 0 .1-.1 0-.1 0-.1 0-.1.1h-.4l-.8-.5a2.9 2.9 0 0 1-.8-1.4h-.1c0-.3-.1-.6-.1-.9a3.1 3.1 0 0 0 1.3.6h1.3a3.5 3.5 0 0 0 2.5-2.8c-1.4.6-2.2.5-2.8.1h-.1a3.1 3.1 0 0 1-1.2-2.7C15.5 6.7 20.1 5 25.1 5V3c-5 0-8.1.5-11 2.9a8.9 8.9 0 0 0-2.7 4.2c-1.4 4.2-.9 9.8 5.2 12.7zm1.2-7.7zm-.5.3zm.3-.3zm-1.2.4zm.2-.2zm8.2 7.5zm-1.9.8zm-3.5 1.3zm.5-.3zm-4.6-11.5zm1.8.5zm0 .7zm-.5.7zm.7-.8zm-.9.3zm-1.3.5zm1 3.3zm.9.4zm2.2 3.6h-.1a.1.1 0 0 1 .1-.1m-.2-5.4zm5.8.1zm.9.3zm-.7.8s-.1 0 0-.1zm.8.4zm.1 0zm-4.2 3.8zm3.1-1.8zm-5.2 2.5a.1.1 0 0 1-.1-.1zm1.4-1zm1.1.1zm3.2-1.6zm-4.5 2.3h.1a.1.1 0 0 1-.1.1zm-.3.3zm.2.4zm2.3-.8zm-.3.1zm-.8.5zm4.2-2zm-1.3 1zm-1.9.8zm-.2.1a.1.1 0 0 1 .1.1zm-2.2 1zm.4-.2zm1.6-.9zm-.6.2h.1a.1.1 0 0 0-.1.1zm-.7.3a.1.1 0 0 1 .1-.1h-.1zm-.8.3zm1.1-.6zm.1-.1zm3.3-1.8zm-3.5 1.9zm-2.8 1.5zm.8-.4zm.4-.2zm3.7-2.3zm-1 .4zm-3.1 1.5zm-1.1.4zm1.4-1zm-.4.3h-.1c.1-.1.1 0 .1 0zm-1 .1h-.1.1zm.2-.5zm1.9-.8l-2 .8h-.1.1zm-.6 0zm-3-9zm-.3 37a6.6 6.6 0 0 0-1.2 1.7.1.1 0 0 0-.1.1 18.6 18.6 0 0 0-1 2c-.1.3-.1.5-.2.8a6.7 6.7 0 0 0 4.1 8 13.6 13.6 0 0 0 2.5.7s.1-.1.1 0c5.9.8 10.6-4.6 5.6-10.3.1 3.7-1.8 5.4-4.5 4.5a2.8 2.8 0 0 0 1.9-2 3.9 3.9 0 0 0-.1-2.8 3.2 3.2 0 0 1-1 1h-.1l-.5.3a4.4 4.4 0 0 1-1.5.3h-.1l-1-.3-.2-.2a2.4 2.4 0 0 1-.2-2.5c-.1 0 0-.2 0-.2l.3-.4v-.2c1.2-1.5 3.9-3.6 9.6-3.6h5.6V46c-3-.1-7.3.6-11.9-.4s-7.9-8.1-4.3-10c1.6-.9 3.3-.1 2.3 1.6a3.5 3.5 0 0 0 4.7-4.8c-1.3-3.2-6.8-3.9-10.3-1S11 44.8 20.9 47a4 4 0 0 0-1.3.7h-.1L18 48.8h-.1m7.6-14.6zm-.1-1.9h-.1c0 .1 0 .1.1.1zm-.6.2h-.1a.1.1 0 0 1 .1.1zm-.6-1.3zm-.9-.4zm0 1.4zm-.2-1.8z"/><path fill="none" d="M42.9 24.9h-1.4V46h3c4.8 0 6.2-3.6 6.2-9.4v-3.4c0-5.2-1.6-8.3-7.8-8.3zm6.1-9.3v-3c0-6.1-1.1-8.4-5.5-8.4h-2v19.5h1.6c4.6 0 5.9-2.9 5.9-8.1z"/><path fill="#f0f0f0" d="M34 32.2l1.8.6v-1.4l-1.8.5-.3.2zm-1.1-7.1a.4.4 0 0 0-.1.3V27h2v-1.5a.6.6 0 0 0-.1-.4c0-.1-.1-.2-.2-.3h-.2c-.5-.2-1.2-.2-1.4.3z"/><path fill="#f0f0f0" d="M51.1 23.9v-.2c6.6-1.1 10.4-4.3 10.4-10.3C61.5 5.5 55.1 3 43.9 3H25v1.2h2.3A1.9 1.9 0 0 1 29.2 6v38.2a1.9 1.9 0 0 1-1.9 1.8H25v1.2h18.6c11.9 0 20.1-2.5 20.1-12.3 0-6.7-4.6-10-12.6-11zM41.5 4.2h2c4.4 0 5.5 2.3 5.5 8.4v3c0 5.2-1.3 8.1-5.9 8.1h-1.6zm-10 7.8V7c0-.2 0-.2.1-.2h1.1a.1.1 0 0 0 .1.1v1.8c0 .2 0 .1.2.1h5.8c.2 0 .1 0 .1.2v1h-6.1v2h-1.3zm0 2.4v-1.5h1.3V16h1.7v-2.6h1.3V16h1.8v-3.1h1.3v4.3h-7.4v-3zm0 13.9v-2.9a2 2 0 0 1 .3-1.1 2.4 2.4 0 0 1 2.1-1l.8.2.7.4.2.2.3-.2.5-.2h2.5v1.1h-2.3l-.3.3h-.1a.3.3 0 0 1-.1.2V27h2.8v1.1h-7.4zm0 4.4v-1.2h.1l.6-.2 2.1-.7 2.5-.8 1-.3 1.1-.4v1.2h-1.4l-.3.2h-.1v2.2h.5l.4.2h.9v1.3h-.3c-2.2-.6-4.4-1.4-6.8-2.2h-.3zm7.4 9.4h-7.4v-1.3l.4-.3.6-.4.8-.6.6-.5-2.3-1.8a.1.1 0 0 1-.1-.1v-1.3h7.4v1.1h-5l1.3 1h.1V39l-.4.3-.9.7-.3.2h5.2c0 .8.1 1.9 0 1.9zm-.2-19.4h-7.2v-1.2h2.7l-1.1-.7-1.1-.9-.5-.3V18h.2l.3.2 1.1.8.3.2.3.2 1.2.8h.6l.5-.3c0-.1 0-.1.1-.1h.1l.3-.2.4-.2.4-.3h.4a.2.2 0 0 1 .2-.2h.1c0-.1 0-.1.1-.1h.1l.4-.3h.3v1.2a.1.1 0 0 0-.1.1l-.3.2H38l-.4.3h-.3l-.2.2-.3.2-.3.2c-.1.1-.1 0-.1.1h-.2l.3.2h2.4c0 .8.2 1.8-.2 1.5zm12 13.9c0 5.8-1.4 9.4-6.2 9.4h-3V24.9h1.4c6.2 0 7.8 3.1 7.8 8.3zM15.4 47.1c-8.4-6.5-4-14.2-3.3-16.5-2 .7-2.9 2.7-3.4 5.3 0 .2-.3.3-.3.1C6.6 31.6 4 30.4.8 31.6c4.2.8 5.8 4.2 6.8 7.7s3.3 7 7.5 8.1c.2 0 .5-.1.3-.3zM9.5 8.5c-2.8 8.9.2 13 4.6 16.7.1 0 0 .2-.1.1-9.4-2.7-8.2-11-7.9-12.9H6c-.8.8-3.4 3.3-5.8 3.2 2.9-1.3 4.4-3.9 6.1-7.1a12.9 12.9 0 0 1 13-7.4c.3 0 .3.4.1.4-6.5.9-9.2 5-9.9 7z"/></svg>
