<svg xmlns="http://www.w3.org/2000/svg" width="86.4" height="86.4" viewBox="0 0 64 64.1" fill="#f8f8f8"><path d="M30.7 57.8v2.3h-1v-3.6l-.2.2-.7.9h-1l-.3-.3-.5-.7c-.1-.1-.1-.1-.1-.2h-.1v3.8h-.1s-.9.1-.9 0v-5.3h1l.3.3.3.4.5.7.3.4c0 .1 0 .1.1.1l1.4-1.9h1v2.9zM26 59.3zm.1-3.5zm0 1.9zm0 .5zm0-2.6zm.3 1.5h-.1a.1.1 0 0 1-.1-.1h.2zm-.2-.3zm.1.2zm-.1 1.7a.1.1 0 0 0-.1.1zm0 .6zm1.2-3.1h-.5a.1.1 0 0 1 .1-.1h-.2c-.1-.1-.1-.1-.1 0h-.4a.1.1 0 0 1 .1.1h-.2c.1 0 .1 0 0 .1h.1a.1.1 0 0 1-.1.1h.1c.1 0 .1 0 .1.1h-.1a.1.1 0 0 1 .1.1.1.1 0 0 0 .1-.1h-.3c.1 0 .1 0 .1.1h-.1c.1 0 0 0 .1.1h.7a.1.1 0 0 0 .1-.1h.1c.1 0 .1.1.1 0h.1zm-1.2 3.3c0 .1-.1.1 0 .1zm0-3.8zm0 2.2zm0 .7zm0-.9zm.1 1.9zm-.1-2.3c.1 0 .1-.1 0-.1zm.1 1.6a.1.1 0 0 0-.1.1h.1c.1-.1.1-.1 0-.1zm0-.9zm0 .2zm0-2.7zm0 1.9zm0-2.2zm.2 3.5c-.1 0-.1 0-.1-.1s-.1-.1-.1 0a.1.1 0 0 0 .1.1h.1zm-.2.8zm.1-1.6zm0 1.9zm-.1-4.2zm0 3.6zm0-1.1zm0 .2h.1a.1.1 0 0 0-.1-.1zm0-.3zm0-2.2h.1a.1.1 0 0 1-.1.1zm.1 1.1zm0 3zm0-4.2zm0 1.4zm0-1.9h.1a.1.1 0 0 0 .1-.1h-.2zm0 2.2a.1.1 0 0 0 .1-.1h-.1zm0 .9zm.1-2.8zm-.1 1.3zm0 1.2zm.4-2.3h-.1c.1 0 .1 0 0-.1h.1zm-.3.2zm0 2.6zm0-1.4zm0-.1zm0 2.3zm0-4zm0 2.5zm0-1.5zm0 2.5zm0-3.3zm.1 1.3zm-.1-1.3zm.1.6zm0 3.6zm0-3.3zm0-1.2zm0 .7zm.1 2.9zm0-3.3zm0 .8zm0-1.1zm.1.7zm.1-.1zm0-.1c-.1-.1-.1-.1 0-.1zm.1.1zm0-.3zm.1.5zm0-.2zm.1.6a.1.1 0 0 1-.1-.1h.1zm0-.2zm.1-.3zm.1.7zm0-.2zm.1-.2zm0 .4zm.1-.1zm0 .3zm0-.2zm.3.2h-.2a.1.1 0 0 1 .1.1h.1zm-.1.1h-.1a.1.1 0 0 0 .1.1zm0 .1zm0-.4zm0 .6zm.1-.2zm0 .1zm.1.4zm.3-.3h-.2c-.1 0-.1 0-.1.1s0 .1-.1.1h.4zm-.2-.2zm0-.1zm.1.5zm0-.2zm.1-.2zm0-.1zm.1.2zm0 .2zm.2-.4h-.1c0-.1 0 0-.1 0 0 .1 0 .1.1.1h.1zm0-.2zm0 .5zm.1 0zm0-.5zm.1.2zm0-.3zm.1.1zm0-.1zm.1-.2h-.1a.1.1 0 0 0 .1.1zm.2-.1h-.1c0-.1 0-.1.1-.1zm-.1-.2zm.1.3zm.1-.2zm.5.1c.1 0 .1 0 .1-.1h.1c.1 0 .1 0 .1-.1 0 .1 0 .1.1.1h.1c0-.1 0-.1-.1-.1h.1c.1-.1.1-.1 0-.1h-.2c-.1.1-.1.1-.1 0h-.1c-.1 0-.1 0-.1-.1 0 .1 0 .1-.1.1h-.2a.1.1 0 0 1-.1.1.1.1 0 0 1-.1.1h.5zm-.5 0zm0 .1zm0-.6zm.2.3zm.3-.3zm-.3-.3zm.1.2zm0-.2zm0 .8zm.1-.8zm0 .7zm.1-.2zm0-.1zm.1.6c0-.1 0-.1-.1-.1h.1zm-.1-.5a.1.1 0 0 0 .1-.1h-.1zm.1.1zm0 3.4zm0-1.2zm0-1.4zm.1-1.5zm0 4.1zm0-3.5s-.1-.1 0-.1zm.3.9c0 .1-.1.1-.1 0a.1.1 0 0 1-.1.1H30c-.1 0 0 .1 0 .1s0 .1.1 0h.2zm-.2-.5zm-.1.9a6634428825554.9 6634428825554.9 0 0 1 .2.2.1.1 0 0 0-.1.1h.2a.1.1 0 0 1-.1-.1H30zm0 .9zm0 .1zm0 1.3zm0-4.5zm.2 4.1a.1.1 0 0 1-.1-.1h.1zm-.2-3.6zm0 1.9zm.3.7h-.1s-.1.1-.1 0h.2zm-.3-1.1zm.1 2.3zm0-.9c0-.1 0-.1.1-.1zm0-1.5zm0 1.4zm0 .4H30c0 .1 0 .1.1.1zm-.1-.6zm.1-3zm.1.4zm-.1 0zm0 2.7zm.2-1.2h-.2c.1 0 0 0 0 .1h.2c-.1-.1 0 0 0-.1zm0 2.7h-.1c0-.1 0 0-.1 0h.2zm-.1-1.9zm0-2.5zm.2 3.8zm-.2-2.2zm0 2.9zm0-.6h.1a.1.1 0 0 1-.1 0zm0-.6h.1a.1.1 0 0 1-.1-.1h.1c0-.1 0-.1-.1-.1zm0-1.3zm0-2.1zm0-.3zm.1 4.3zm0-1.3zm0-.5zm0 .9zm.1-1.9zm0 .6h-.1a.1.1 0 0 1 .1.1zm0 1.2zm0 1.1zm0-1.4zm0 .2zm0-2.1zm.1-.5zm0 1.3c-.1.1 0 .1 0 .1zm5.5 3.6h-1a.3.3 0 0 1-.1-.2v-.2a.4.4 0 0 0-.1-.3v-.2a.3.3 0 0 1-.1-.2c0-.1 0-.1-.1-.2h-1.8a.4.4 0 0 0-.1.3c0 .1-.1.2-.1.3s-.1.1-.1.2a.4.4 0 0 1-.1.3h-1.1c0-.1 0-.1.1-.2.5-1.7 1.1-3.4 1.7-5.3v-.2h1.1c.1.2.1.4.2.5a7.5 7.5 0 0 0 .5 1.6l.6 2 .3.8a2.4 2.4 0 0 1 .2.8zm-4.2-.5zm.1-.2zm.2.2H32a.1.1 0 0 1 .1.1zm-.1-1.2zm0 .5zm0 .2zm0 .4zm0-.9zm.1.5a.1.1 0 0 0-.1.1h.1zM32 59zm.1.2zm0 .2zm.1.4zm.9-1.1H33c0 .1.1 0 .1 0h-.4c.1-.1.1 0 .1 0h.1a.1.1 0 0 1-.1-.1h-.1a.1.1 0 0 1 .1.1h-.3c0 .1 0 .1.1.1-.1 0-.1 0-.1-.1h-.2c0 .1 0 .1-.1.1h.4a.1.1 0 0 1-.1-.1h.2c.1 0 .1 0 .1-.1h.2a.1.1 0 0 0 .1-.1zm-1 1zm.1-.7zm0 .1zm-.1.2zm.1.2zm0 .2zm0-.2zm.2-.2h-.1s-.1 0 0 .1a.1.1 0 0 1 .1-.1zm-.2-.9zm.1 1.6zm.1-.5zm-.1-.4h.2a.1.1 0 0 0-.1-.1h-.1c-.1 0-.1.1 0 .1zm0-.8c-.1-.1-.1-.1 0 0zm0-.4zm.1.9zm0-1zm.2 1.4zm-.1-1.2zm0 .1zm0 .8h-.1c0-.1.1-.1.1 0zm0-.2zm0-.8zm0-.1zm0 .3zm.2.4zm-.1.6zm0-1.4zm0-.9zm.1.9h.1a.1.1 0 0 1-.1-.1zm.1 1h-.1c.1-.1.1-.1.1 0zm-.1-1.5a.1.1 0 0 0 .1.1h-.1zm0 .9c.1.1.1.1 0 .1zm.1.2zm0 .1zm0-1.6zm0 .3zm0-.1zm0 .5c.1 0 .1 0 0 0zm0 .7zm.2-1.1h-.1c0 .1 0 .1-.1.1h.2zm-.1 1.4h-.1a.1.1 0 0 1 .1-.1zm0-.1zm0-1.5c-.1 0-.1 0 0 .1zm0-.3s-.1-.1 0 0zm0-.4zm0 .5zm0 1zm0-1.2h.2a.1.1 0 0 0-.1.1h.2c-.1 0 0 0 0-.1h-.3zm0 .9zm0 .5zm.1.4zm-.1-2h.3c-.1-.1-.1-.1 0-.1h.3a.1.1 0 0 0 .1.1c.1 0 .1 0 .1.1a.1.1 0 0 1 .1-.1h.5a.1.1 0 0 0-.1-.1h.1c-.1.1 0 .1 0 .1h-.2c0 .1 0 .1-.1.1-.1-.1 0-.1-.1-.1.1 0 .1 0 0-.1h-.7a.1.1 0 0 0-.1-.1h.2a.1.1 0 0 0-.1-.1h-.3zm0-.2c0 .1.1.1.1 0h-.1zm0 .7zm.1.6a.1.1 0 0 0-.1.1h.1zm-.1.7zm.1-1.3zm.1.2c0 .1 0 .1-.1.1h.1zm-.1.2zm0 1zm.1-2.5s-.1 0 0 .1zm0 .2zm0 .9zm0 1.8zm0 .2zm1.1-.7l-.4-1.4a.3.3 0 0 1-.1-.2c-.1.1-.1.1-.1.2l-.5 1.4h1.1zm-1 .8zm0-3.5zm0 1.5zm0 1.7zm.2.2h-.1c.1 0 .1 0 .1-.1zm-.2-3.4zm.1 1.1zm-.1.2zm.1 1.8a.1.1 0 0 0-.1.1c.1 0 .1 0 .1.1s0-.1.1-.1c0-.1 0-.1-.1-.1zm-.1-2.4zm.1 2.4zm0-3.1zm0 .6zm0 .8zm0 2zm0-2.8h.1a.1.1 0 0 1-.1.1zm.1-.7zm0 1.3zm0 1.9zm0-2.8zm.1.1zm0 2.8a.1.1 0 0 0-.1.1h.1zm-.1-.3zm0-2zm0-.3zm.1 2.7zm0-2.9zm0-.4zm.1 3.1zm0 .3zm.1 0zm-.2-3.3a.1.1 0 0 1 .1-.1h-.1zm.1.5zm0 2.9zm0-3.6zm0-.1zm0 3.3zm0-3.6zm0 .6a.1.1 0 0 1 .1.1zm0 3zm0-2.2zm0 2zm.1-2.1zm.1 2.7zm1.1.3h.2c-.1 0-.1 0-.1-.1h.1c.1-.1.1-.1 0-.1-.1.1-.1.1-.1 0h-.1a.1.1 0 0 0 .1.1h-.8c-.1 0-.1 0-.1-.1a.1.1 0 0 0 .1.1h.1c.1.1.1 0 .1 0h-.2v.2h.3c.1 0 0 .1 0 .1h.2a.1.1 0 0 1-.1.1h.3zm-1.2-3.7h.2a.1.1 0 0 0-.1.1h-.1zm0 .7zm.1 2.2zm.1-2.5zm-.2-.3zm0-.5c0 .1 0 .1.1.1h-.1zm.1.6zm0 3.1zm0-2.7c.1 0 0 .1 0 .1zm.2-.5zm0 .1zm0 3.2zm.1-2.6H34c.1.1.1.1.1 0zm-.1.1zm0 .1zm0-1.1h.1c0-.1 0-.1-.1-.1zm.1 3.4zm-.1-2zm.1 0c.1-.1.1-.1 0-.1zm0-1.6zm.1 2.2zm0-1.4zm.1.9zm-.1-.3zm0-.8zm.1 1.2zm0-1.1zm0 .9zm0 .8zm0 1.1zm0-1.2zm.1-.9h-.1c0 .1 0 .1.1.1zm0 .3zm0-.6zm0 .5zm0 .3zm.1.1zm0 .2h.1c0-.1 0 0-.1-.1h-.1a.1.1 0 0 0 .1.1zm.1.3h-.1c0 .1 0 .1-.1.1.1.1 0 .1 0 .1h.2c.1 0 .1-.1 0-.1zm-.2.9zm0-1.6zm.1.1h.1s-.1.1-.1 0zm0-.3zm.1 2.1c-.1 0-.1 0-.1.1.1 0 .1 0 .1-.1zm0 0zm0-.4a.1.1 0 0 1 .1.1zm0-1.1c.1.1.1.1.1 0h-.1zm.1.9zm.1.2a.1.1 0 0 0-.1-.1h.2c0 .1 0 .1-.1.1zm0 .2zm.1.8zm0-.5zm.1.3zm0-.1zm0-.3zm0 .8zm.3-.4h-.2a.1.1 0 0 0-.1.1.1.1 0 0 0 .1-.1h.2zM35 58c.1-.1.1-.1 0-.1zm0 .4a.1.1 0 0 1 .1-.1c-.1 0-.1 0-.1.1zm0 .8zm0 .4h.1c0-.1 0-.1-.1-.1zm.1.4c0 .1 0 .1-.1.1h.1zm0-.3H35c0 .1 0 .1.1.1zm0-1.2zm0 1c.1 0 .1 0 0-.1zm0-1.2zm.1.7zm0 1zm0-.4zm0 .1zm.1.2zm-.1-1.1zm.1.3zm0 .5zm.1.4zm-.1-.3zm0 .4zm0-.8zm.1.3zm.1.3h-.1a.1.1 0 0 0 .1 0zm0-.1zm0 .4zm5-3.6a1.3 1.3 0 0 1-.1.6 1.6 1.6 0 0 1-.3.6H40c0 .1.1.1.1.2s.1.2.2.4v1.8h-1v-1.5l-.3-.2h-.2a.1.1 0 0 1-.1-.1h-1.1v1.9h-1v-5.4H39l.8.2a2 2 0 0 1 .7 1.5zm-3.7 2.7zm0-3.4zm.9 2h-.3c-.1.1-.1 0-.1.1a.1.1 0 0 1-.1.1.1.1 0 0 0-.1.1H37c-.1 0-.1 0-.1.1h-.1c0 .1.1.1 0 .1h.2a.1.1 0 0 1-.1.1h.4c0-.1 0-.1-.1-.1h.1a.1.1 0 0 1 .1.1h.3zm-.8.9zm0-.6a.1.1 0 0 0 .1-.1h-.1zm0-2.6zm.2 1.6c-.1 0-.1 0-.1-.1h.1zm-.2 1.5zm.1-1.8zm-.1 1.5zm0 .9zm0-2.5zm.1 2.7c0-.1-.1-.1-.1 0h.1zm0-1a.1.1 0 0 0-.1.1h.1c.1 0 .1 0 .1.1H37zm0-.2zm0 1.3zm0-2.9h.1c0-.1 0-.1.1-.1H37zm.3 1.5h-.2a.1.1 0 0 0-.1.1s0-.1.1 0h.2zm-.3-2zm.1 2.7zm-.1-2.1zm0-1.3zm0 .4zm0 .4zm.1-.1a.1.1 0 0 0-.1-.1h.1zm-.1-.5s.1 0 0 .1zm.1-.5zm0 1.4h.1a.1.1 0 0 0-.1-.1zm-.1 2.9zm.2-4.2a.1.1 0 0 0-.1-.1.1.1 0 0 0 .1-.1zm-.1 1.3zm0 3.2zm0-1.5zm0-.6zm0 1.5zm0-2.2zm.1-1zm-.1 1.5zm0 .8zm.1-.4zm0-1zm0 3zm0-4.2zm-.1.1zm.1 1.2h-.1a.1.1 0 0 0 .1.1zm0-1.8h.1c.1-.1 0-.1 0-.1h-.1zm0 1.6zm0 1.6zm0-2.1zm0 1.9zm.1-1.1zm-.1-1.7c.1 0 .1 0 .1-.1zm.1 1.3zm-.1.3h.1a.1.1 0 0 0-.1.1zm.1-1zm0 2.8zm0 .5h-.1a.1.1 0 0 0 .1.1zm0-2.5zm0 1.3zm.2-2.7h-.1c0 .1 0 .1-.1.1h.2zm-.2.4zm0 1.6c.1.1.1.1.1 0h-.1zm0-1.2zm0 2zm.1-2.6c-.1 0-.1 0-.1.1a.1.1 0 0 0 .1-.1zm0 4.1zm0-2.8zm0 .8zm0-2.5zm0 3.6zm0-1c.1 0 0 0 0 .1zm.1.4zm0-3.1zm.1.2zm0 .1zm1.3.4h-1.3v1.4h1.6l.2-.2c0-.1 0-.1.1-.2s.1-.9-.3-1.1zm-1.3-.5zm0 2.8c.1-.1.1-.1 0-.1zm.1-2.9h.1a.1.1 0 0 0-.1-.1zm.2 2.9a.1.1 0 0 0 .1-.1c0-.1 0-.1-.1-.1a.1.1 0 0 1 .1-.1h-.1zm-.1-2.7zm0-.1h.2a.1.1 0 0 1-.1-.1.1.1 0 0 1-.1.1zm.1 2.8zm.2-.4v-.2c.1.2.1.2 0 .2zm-.1-2.4c0 .1 0 .1.1.1H38zm.1.2zm.1-.1zm0 2.5zm.1-.1zm0-2.4a.1.1 0 0 1 .1-.1h-.1zm0 .1zm0 2.4zm0-2.7s.1-.1 0-.1zm.1 3zm.1-.3zm.2-.1h-.2a.1.1 0 0 1 .1-.1c.1 0 .1 0 .1-.1zm-.2-2.5zm.2-.1c0-.1 0-.1.1-.1h-.1zm0 2.4zm0-.1zm0 .4zm.1.1zm0 .2zm0-3zm.1.2zm.6 2.9h.1c-.1 0-.1 0-.1-.1h-.1a.1.1 0 0 0 .1.1.1.1 0 0 1-.1-.1.1.1 0 0 1-.1.1h-.1a.1.1 0 0 1-.1.1c-.1.1-.1.1-.1.2h.2a.1.1 0 0 1 .1.1.1.1 0 0 1 .1.1.1.1 0 0 1 .1-.5zm-.6-.1zm.1-3h.1a.1.1 0 0 0-.1-.1zm0 3.1zm0-2.8zm.1-.3zm0 2.6zm.1.4a.1.1 0 0 0-.1-.1h.1zm.1-.3h-.2a.1.1 0 0 0 .1-.1h.1zm-.1-2.4zm0-.1zm0 2.6zm.1.3zm0-3c-.1-.1-.1-.1 0 0zm.1 2.2h-.1s0 .1.1 0zm-.1-2c.1 0 .1 0 .1-.1h-.1zm.1-.2zm.2 3.3h.2s-.1-.1-.1 0c-.1 0-.1 0-.1.1h-.1c-.1 0-.1 0-.1.1h.2zm0-1.1h-.1c0-.1 0-.1-.1-.1h.2zm-.1-2.1zm0 .1zm0 0zm.1 3.3zm0-1.4zm0 1.7zm.1-1zm-.1-2.6zm.1 3.4h-.1s.2.1.1 0zm.1-1.6zm-.1.1zm0 1.8zm0 .2zm0-1.2zm0-2.6zm0 4.1zm0-1.9zm0 .4zm0 1.3zm0-3zm0 .9zm0 1.4c.1 0 .1 0 .1-.1zm.1.4s-.1.1 0 .1zm0-.5zm0-1.1zm0-1.7zm0 1.1zm0 .3zm0 .2zm0 2.1zm.1-2.8zm-.1-1.1zm.1 3.2h-.1c.1-.1.1-.1.1 0zm-.1-2.6zm.1 3.5zm0 .1zm0-2.5zm0-.2zm0-1.1zm0 2.6zm0-1.9zm0 2.6zm0-3.6zm0 1.2zm.1 2.1zm-.1-.4zm.1-2.9zm0 .8zm0 .5zm.1-.6a.1.1 0 0 0-.1-.1c0 .1 0 .1.1.1zm-.1 0zm0 3zm.1-2.6H40c.1 0 .1 0 .1-.1zm-.1 2.5zm0-3.2zm0 2.5zm.1-2.4zm0 1zm0-1.6zm.1 1.1zm.1.1zm4.6 3.6h-1.2l-.2-.2a.3.3 0 0 1-.1-.2l-.2-.2-.2-.3h-.1v-.2c0-.1-.1-.1-.1-.2s-.2-.2-.2-.3 0 0-.1-.1a.1.1 0 0 0-.1-.1v.2h-.1v1.8c-.4 0-1.1.2-1-.2v-3a.1.1 0 0 1 .1-.1h-.1v-2.6h1v1.9a.1.1 0 0 0 .1-.1 5.6 5.6 0 0 0 .5-.8l.6-.8.3-.4H45a.1.1 0 0 1-.1.1c0 .1-.1.2-.1.3l-.8 1-.2.3a.3.3 0 0 0-.1.2l-.7.9h.1c0 .1.1.1.1.2s.2.2.2.3h.1c0 .1 0 .1.1.1s.1.2.1.3l.2.3.2.3a.1.1 0 0 1 .1.1h.1c0 .1.1.2.1.3h.1a.1.1 0 0 1 .1.1l.2.3a.1.1 0 0 1 .1.1zm-3.6-3.8zm0 1.6zm.1-1.3zm1.5 1.5h.1a.1.1 0 0 0 .1-.1h-.2a.1.1 0 0 0-.1-.1c0 .1 0 .1-.1.1h-.2a.1.1 0 0 1-.1-.1h.1a.1.1 0 0 1 .1.1h.2a.1.1 0 0 0 .1-.1h-.1c-.1 0-.1 0-.1-.1h.1a.1.1 0 0 0-.1.1.1.1 0 0 0-.1-.1h-.2c-.1 0-.1 0-.1-.1h-.1a.1.1 0 0 0-.1.1.1.1 0 0 0-.1.1.1.1 0 0 0-.1-.1c0 .1 0 .1-.1.1.1 0 .1 0 .1-.1h-.1c.1-.1.1-.1-.1-.1s.1-.1 0-.1c.1 0 .1 0 .1.1 0-.1 0-.1.1-.1h-.3c0 .1 0 .1-.1.1h.1c-.1 0-.1 0-.1.1v.2a.1.1 0 0 1 .1-.1h.1c0 .1 0 0-.1 0a.1.1 0 0 0-.1-.1c0 .1 0 .1-.1.1 0 .1.1.1.1 0h.1a.1.1 0 0 1-.1.1h-.1a.1.1 0 0 1 .1.1.1.1 0 0 1 .1.1h-.1c0-.1 0 0 .1 0h-.1c-.1 0-.1 0-.1-.1h.2c.1-.1.1-.1.1 0 .1 0 .1-.1 0-.1h.1c.1 0 .1.1 0 .1a.1.1 0 0 1 .1.1h.1c-.1 0-.1 0-.1-.1h.1a.1.1 0 0 1 .1-.1h.2a.1.1 0 0 0 .1-.1h.4a.1.1 0 0 1 .1-.1h.1a.1.1 0 0 1-.1.1h-.1c-.1-.1-.1-.1-.1 0h.2zM41.4 56zm0 2.2zm.1 1.1zm-.1-2.7zm0 .8zm0-.4zm0 .7zm0 1.2zm0-.9zm.1 1.5zm-.1-2.2zm0-1.7zm0 2.6zm0-2.4h.2a.1.1 0 0 1-.1.1h-.1zm.1 3zm0-.7zm.1-1.9zm-.1-.8zm0 .1zm.2.5h-.2a.1.1 0 0 0 .1-.1h.1zm-.2 3.8zm.1-.3a.1.1 0 0 1 .1-.1.1.1 0 0 1 .1-.1h-.2zm0-.5a.1.1 0 0 1 .1.1.1.1 0 0 1-.1-.1zm0-1.3zm0 2.4zm0-3c0-.1 0-.1-.1-.1zm0-1.5zm0 1.8zm0 .7zm0 .6zm0 .5zm0-3.8zm0 2.9zm.1-1.7zm0 .2zm0 3.1zm-.1-1.1zm0 .1zm.2.9zm-.1.2zm.1-4.3a.1.1 0 0 1-.1-.1.1.1 0 0 0 .1.1zm-.1 2.1zm0-.5zm0 1.5zm.1-3.3zm-.1 1.9zm0 1.6zm0-3.7zm0 2.5zm0 1.1zm.1-1.3zm-.1.7h.1a.1.1 0 0 1-.1 0zm.1-2.7zm0 2.4zm0 1.2zm0-1.9zm.1.3zm-.1 1.7zm.1.2zm0-2.5h-.1a.1.1 0 0 1 .1.1zm-.1.9zm.1 2.1a.1.1 0 0 0-.1.1h.1zm-.1.1zm.3-2.3H42c0 .1-.1.1-.1.2s.1-.1 0-.1c0-.1 0 0 .1-.1a.1.1 0 0 1 .1-.1zm-.2 2.1zm0-3.8zm0 .3zm0 .4zm0 2.2zm0 .4zm0-1.6zm.1-.6zm0 .2zm0-.6zm.1 1.5zm0-.8zm0-.2zm.2.5zm-.2-.4h.1c-.1 0-.1 0-.1-.1zm0-.3zm.1.7zm.1-.2zm-.1-.4zm.1.9zm0-.2zm0-.4zm0 .3zm.1-.2c-.1 0-.1 0-.1-.1zm0 .6zm0-.1zm0-.9zm0 0zm0 .2zm0 .2zm0 .2zm0 .5zm.1-.6zm0-.4zm0-.6zm.1 1.4zm0-.3zm0-.6a.1.1 0 0 1-.1-.1h.1zm0 .6zm0-1.1zm0 .5zm.1.8zm-.1-.6zm0 .4zm.1.3h-.1a.1.1 0 0 0 .1 0zm0-.2zm0-1.1zm0-.3zm.1 1.8zm0-1.5zm.1 1.4zm-.1-1.5h.1c.1 0 .1 0 .1.1h-.2zm0 .1c0 .1 0 .1.1.1h-.1zm.1.2c.1-.1 0-.1 0-.1zm0 .2zm0 1.3zm.1.2zm-.1-.7zm.1.1zm0 .5zm0-2.5zm0 .2zm.1.6H43a.1.1 0 0 1 .1-.1zm-.1 2s.1 0 0 0zm0-.2zm.1-.2zm0-1.9zm0 2zm0-2.3zm0-.1zm.1 2.7h.1c.1 0 .1 0 .1.1h-.3c0 .1 0 .1.1.1zm-.1-.4zm0 .7zm0-3.1zm.1.6zm.1-.7zm0 3zm0-2.9zm-.1 2.4zm.1-2.2zm0-.1zm-.1 2.1zm.1.3zm0-2.1zm.1 2.9h-.1c0 .1.1.1.1 0zm-.1-.7zm0-2.2zm.1 2.8zm0-.2h.1a.1.1 0 0 0-.1.1zm0-3.1zm0 .3zm.1-.1zm.1 3.4zm-.1-3.6zm0 2.7zm0 .2zm.1-2.6zm0 2.9zm-.1-.1zm0-3.3zm.1 3.6zm0 .2zm0-4.1zm.1.4h-.1a.1.1 0 0 0 .1.1zm-.1-.6zm.1.4zm0-.3zm0 4.3zm0-4.1zm.1 4.2zm-.1-.5zm0-4.1zm.1.8zm-.1 3.5h.1a.1.1 0 0 1-.1.1zm.1.4c0-.1 0-.1-.1 0zm0-.8zm.3.9h-.2c-.1 0-.1 0-.1.1a.1.1 0 0 1 .1-.1h.2zm-.2-4.6c0 .1 0 .1-.1.1s.1 0 .1-.1zm-.1 4.4zm.1-.1h.1c0-.1 0-.1-.1-.1zm0-4.7c0 .1.1.1.1 0h-.1zm.1.2zm.2 4.7zm0-4.7zm0 4.8zm0-4.9zm4.8 0v.5h-2.5v1.2h2.1c.1 0 .1 0 .1.1v.9h-2.2v1.3H49v1h-3.5c-.1 0 0-.1 0-.2v-5.1H49c.1.1 0 .1 0 .1v.2zm-3.3 1.6zm0 .3zm0-1c0 .1.1.1.1 0h.1c-.1 0-.1 0 0 .1h-.2zm0 2.5h.1a.1.1 0 0 0 .1.1h-.2zm0-.3zm.7 1.7h-.2a.1.1 0 0 0-.1.1.1.1 0 0 0-.1.1c0-.1-.1-.1-.1 0h-.2a.1.1 0 0 0 .1.1h.1c-.1 0-.1 0-.1.1h.2c-.1.1-.1.1 0 .1h.3c-.1 0-.1 0-.1-.1h.3c.1 0 .1 0 0-.1h.1a.1.1 0 0 1 .1-.1h.5s-.1-.1 0-.1h.2c-.1 0-.1 0-.1-.1-.1 0-.1 0-.1.1h-.1a.1.1 0 0 0-.1.1h.1c-.1 0-.1 0-.1.1h-.1c0 .1 0 .1-.1.1h-.4zm-.7-4.2zm0-.3zm0 2zm.1-.8c-.1 0-.1 0 0 .1zm0 .4a.1.1 0 0 0-.1-.1h.1zm.6.3h-.2a.1.1 0 0 0-.1-.1h.1c-.1-.1-.1-.1 0-.1h-.4c0 .1.1.1.1.2a.1.1 0 0 0 .1.1h.1c0 .1-.1 0-.1 0h-.2c.1 0 0 .1 0 .1 0 .1 0 .1.1.1h.2s.1 0 0-.1h.1a.1.1 0 0 0 .1-.1h.3a.1.1 0 0 1-.1-.1h.3c.1 0 .1 0 .1-.1h.4a.1.1 0 0 1-.1-.1h-.1a.1.1 0 0 0-.1-.1c.1 0 .1 0 .1.1h-.4a.1.1 0 0 1-.1-.1.1.1 0 0 1-.1.1h-.1zm-.7.4zm0 1.2zm.1-1.6c-.1 0 0 0 0 .1zm0 .6h-.1c.1.1.1.1.1 0zm0-2.4zm.4 0H46a.1.1 0 0 1-.1-.1.1.1 0 0 1 .1.1.1.1 0 0 1-.1-.1h.3zm-.4 3.5zm0-1zm0 .8zm0 .8zm0-4.3zm.1 1.1h-.1.1zm-.1.7zm0-2zm.2 1.3c0-.1 0-.1.1-.1h-.2c-.1 0 0 .1-.1.1h.1a.1.1 0 0 0 .1.1zm-.2 3.5zm.1-.8zm0-2.2h.1a.1.1 0 0 0-.1-.1zm0 1.6h.1c-.1 0-.1 0-.1-.1zm.1.6c-.1.1-.1.1 0 .2zm-.1.4zm.8-4h-.3c0-.1 0-.1-.1 0 0 .1 0 .1-.1 0a.1.1 0 0 1-.1.1h-.2a.1.1 0 0 0 .1.1c0 .1 0 .1.1.1h.3c.1 0 0 0 .1-.1 0 .1 0 .1.1.1h.1zm-.8 4.7zm0-2.5c.1-.1 0 0 0 0zm0-.4zm.1.1zm0 .6h-.1a.1.1 0 0 1 .1 0zm0 2.3zm0-3.8zm0 .3zm0 2.1zm0 .9zm.1.3zm-.1-2.3zm0 2.6zm0-3.4zm0 .3zm0 1.5zm.1-2.9zm0 1.5zM46 59zm0-3.8zm0 1h.1c0-.1 0-.1-.1 0zm.1-.7H46c0-.1.1-.1.1 0zm0 2.3zm.1 1.2h-.1s.1.1.1 0zm-.1 1zm0-4.9zm0 3.7a.1.1 0 0 1 .1-.1h-.1zm0-1.2zm.1.4zm-.1 2.3zm.1-.2a.1.1 0 0 1-.1.1h.1zm-.1-2.8zm.2.3h-.1a.1.1 0 0 0-.1-.1h.1s0-.1.1 0zm0 2.2zm-.1-.4s-.1 0 0 0zm0-.8zm0-.4zm.1-2.1a.1.1 0 0 1-.1-.1h.1zm-.1-.7zm0 .2zm.1 3.8h-.1a.1.1 0 0 1 .1.1zm0-2.9a.1.1 0 0 0-.1.1zm0 .3zm0 2.1c-.1 0-.1 0-.1.1h.1zm0-.8zm0 1.8zm.1-4.2zm0 1.8zm0 2.6c0-.1 0-.1-.1-.1h.1zm0-.6zm0 .1zm0-2.1zm0 .5zm.1 2c0-.1 0-.1-.1-.1zm0-.2zm.1-4.6zm0 5.2zm-.1-2.8zm.2.2zm-.1 2.3h.1a.1.1 0 0 1 .1.1h-.1c0 .1 0 .1-.1.1zm0-2.6zm.2-2.3c0-.1 0-.1-.1 0h.1zm-.1-.2zm0 2.6zm0 2.7zm0-2.4zm0-2.4c.1.1.1.1 0 0zm.1-.1zm-.1 4.3zm.1.7zm0-3h.2c-.1 0-.1 0-.1.1h-.1zm0 .3zm0-2.7zm0 4.9zm.1-4.6zm0 4.8zm0-2.8zm.2-1.8H47c0 .1 0 .1-.1.1h.2zm-.1 4.7zm-.1-2.5zM47 55zm0 5.1zm0-2.3h.1a.1.1 0 0 1-.1.1zm.1.2zm0 1.8zm.3-4.2zm-.3 4.1zm0-2.2h.6c0 .1 0 .1.1.1h-.1a.1.1 0 0 0-.1-.1h-.1c-.1 0-.1 0-.1.1h-.1a.1.1 0 0 0-.1-.1.1.1 0 0 0-.1 0zm.4-2.2h-.2a.1.1 0 0 0 .1.1s.1 0 0 .1h.1zm-.3 4.5zm0-4.6zm.1 2.8zm0-2.6zm0 4.4zm.1-4.5zm0 2.2h.1c0-.1 0-.1-.1-.1zm.1 2.3zm.1-.1h-.1a.1.1 0 0 0-.1.1h.2zm-.2-4.6h.1a.1.1 0 0 0-.1.1zm.2 5.2zm-.1-2.6zm0 2.1zm0-4.6zm.5.3c0-.1 0-.1-.1-.1 0-.1 0-.1-.1-.1h-.2s.1.1.1 0h.3zm-.3 4.5zm0-4.6zm0 2.1h.2c-.1.1-.1.1 0 .1h-.1a.1.1 0 0 1-.1.1zm0-2.4zm0 5.2zm0-.3zm.1-.1h.1c.1.1 0 .1.1.1a.1.1 0 0 1 .1-.1h.1a.1.1 0 0 1 .1.1.1.1 0 0 1 .1-.1c-.1 0-.1 0-.1-.1h-.5zm-.1-4.4zm.1-.3zm0 5.1zm0-5.4zm.1 5.4zm0-.5zm0-2.2zm.2-2.5zm-.2 2.7zm.1.1zm.1-2.5a.1.1 0 0 0-.1.1h.1zm0 4.8zm0 .1zm0-2.9zm0-1.9zm0 2.3zm.1 2.3a.1.1 0 0 0-.1.1zm0 .1zm.1-4.8zm.1-.2zm-.1-.2zm0 .4zm0-.3zm0 .3zm0 2.1zm.2-2.3zm-.1.3zm0 4.7zm.1-5.1c-.1-.1-.1 0 0 0zm.1 0zm0 5zm0 .1zm-.1-5.1zm.2.2h-.1a.1.1 0 0 0 .1 0zm-.1 4.5zm0 .2h.1a.1.1 0 0 0-.1.1c.1 0 .1 0 .1-.1a.1.1 0 0 0-.1-.1zm.2-.2zm5.1-4.1h-1.4c-.1 0-.1 0-.1.1v4.5c0 .2 0 .1-.2.1h-.8v-4.5h-1.6v-.8h4c.1 0 .1 0 .1.1zm-3.4-.4zm.1 0zm.1-.2h.1c-.1-.1-.1-.1-.1 0zm0 .4zm.1 0zm0-.2zm.1.1zm.1-.2a.1.1 0 0 0-.1.1h.1zm.2 0H51c.1.1.1.1.1 0zm1 2h-.1c-.1 0-.1 0 0 .1h-.2c.1 0 .1 0 0-.1a.1.1 0 0 1 .1-.1h.1c0-.1 0-.1-.1-.1s-.1-.1 0-.1a.1.1 0 0 1-.1.1h.2a.1.1 0 0 0-.1.1h-.2c-.1.1-.1 0-.1-.1-.1.1 0 .1-.1.1h.1c.1.1 0 .1 0 .1h.1c0 .1 0 .1.1.1a.1.1 0 0 0 .1.1h-.2c0-.1 0-.1-.1 0h.5zm-.9-1.7zm.1-.4zm.1.4h-.1c0 .1 0 .1.1.1zm.1 1zm0 1.9zm0-2.8zm0 .1c0 .1 0 .1.1.1h-.1zm0 2.5h.1c0-.1 0-.1-.1-.1zm0 .9zm0-.3h.2c0 .1 0 .1.1.1h.1a.1.1 0 0 0-.1-.1h-.1s-.1-.1 0-.1 0-.1.1-.1c-.1 0-.1 0 0 .1h-.1s0-.1.1 0h-.3zm0-2.2zm0-.1zm.1.9a.1.1 0 0 1-.1.1h.1zm-.1 1.7zm.2-.1h-.2c.1 0 .1 0 .1.1a.1.1 0 0 0 .1-.1zm-.1-3.4zm0-.3zm.1 2.1h-.1c.1 0 .1 0 .1-.1h.2c-.1 0-.1 0-.1.1h-.2c.1 0 .1 0 .1-.1a.1.1 0 0 0 .1.1c.1 0 .1 0 .1-.1h-.2zm-.1 1zm0 .9zm0 .6zm.2-1.8a.1.1 0 0 1-.1-.1.1.1 0 0 1-.1.1h.2zm.1 1.3a.1.1 0 0 0 .1-.1h-.2a.1.1 0 0 1 .1-.1c-.1 0-.1 0-.1-.1h-.1c0-.1 0-.1.1-.1h.1zm-.2-.3h.1a.1.1 0 0 1-.1-.1c0 .1 0 .1-.1.1h.1zm.1.6a.1.1 0 0 1-.1-.1c0 .1 0 .1.1.1zm-.2-2.4zm.1 1.1h-.1a.1.1 0 0 0 .1 0zm0 1.3zm-.1.1zm.1-3zm0-1.3h.1c0-.1-.1 0-.1 0zm0 3.9zm0-4.1zm.1 1.6zm-.1.7h.1c0-.1 0-.1-.1 0zm0 1.9zm.1-3.9c0 .1.1 0 .1 0h.1a.1.1 0 0 0-.1.1c0-.1 0-.1-.1-.1zm0 1.7zm0 2.5zm.1-1.6zm-.1-.5zm0-.5zm0-2.1zM52 60zm0-3.3zm-.1 2.9zm.2-.6a.1.1 0 0 0-.1-.1h.1zm-.1-2.2zm.1 2.8H52s0 .1.1 0zm-.1-4.3zm0 1.3zm0 3.2zm.2-1.1zM52 57zm.1-.2zm0 .6zm.1.8zm-.1 1.3zm0-.4zm.1-4zm0 .9zm0 2.4zm.2-3.1zm-.2-.2zm.1.4a.1.1 0 0 0-.1.1h.1zm0 2.8zm.2-2.9a.1.1 0 0 0-.1-.1h.1zm0-.1zm.1.3zm.1-.1zm0-.2zm0-.2zm0 0zm0 .3zm.2-.2zm.1.2zm-38.3-4.2c-6.4-5-3.1-10.9-2.5-12.6-1.5.5-2.2 2-2.6 4.1 0 .1-.2.2-.3 0C8 39.3 6 38.4 3.5 39.4c3.2.5 4.5 3.1 5.3 5.8a8.7 8.7 0 0 0 5.7 6.2c.1 0 .3-.1.2-.2zm-1.1-29.3s-3.6.4-4.8 2.3c2-1.3 4.8-1 7.5-.7s4.9 2.5 5 4.6a8.3 8.3 0 0 1-.1 2.2l.5-.7h.1a4.1 4.1 0 0 0 .7-1.7h.1v-.6a.5.5 0 0 0 0-.5c-.3-2.4-2.8-4.1-5.1-4.6C10.1 20 9.1 15.5 8.8 11c-3 8.1 4.8 10.9 4.8 10.9zm8.9 4.4zm-1.1 2.9zm.2-1.5zm.1-.3zm0 .7zm.5.1zm-.2-.6a.1.1 0 0 1 .1-.1H22zm-.1 1.2zm0-.3zm-.1.8zm0-.8zm-.1-2.4zm-.1-1.2h.1c-.1 0-.1.1-.1 0zm0 .9zm-.1 1.1zm-.1-.7zm-.4.4a.1.1 0 0 1 .1-.1H21zm0-2.6zm-.6 1.4z"/><path d="M50.1 51h.2l.9-.7c-.1-.1 0-.1 0-.1s0-.1.1-.1l.4-.4h.1a7.8 7.8 0 0 0 1.4-2 8.5 8.5 0 0 0 .6-1.7c.1-.5.1-.9.2-1.4 0-.5.1-1 .1-1.6s-.1-1.4-.1-2h-.1c-.1 0-.1 0-.1-.1h.2c-.7-6.1-6-8-9.3-8.5l.9-.5h.1a4.9 4.9 0 0 0 1.3-1.2v-.2h.2c.1-.1.1-.3.2-.4a.1.1 0 0 1 .1.1l.3-.6a1.9 1.9 0 0 0 .2-.7c-.1-.1 0-.1 0-.1h.1v-.2c0-.1.1-.2.1-.3a7.8 7.8 0 0 0 .2-1.6v-3.4a3.7 3.7 0 0 0-.1-1.1h-.1a.1.1 0 0 1 .1-.1v-.4h-.1v-.4h-.1v-.4H48a.1.1 0 0 1 .1-.1h.1a5.7 5.7 0 0 0-.4-1.4h-.2c0-.1 0-.1.1-.1h.1l-.3-.7a.3.3 0 0 1-.1-.2h-.1a6.1 6.1 0 0 0-.7-1.4h-.1l-.2-.3h-.1l-.5-.6h-.1l-.4-.4H45l-.5-.3h-.1c-2.3-1.4-5.4-1.6-9.1-1.6-8.1 0-10.4 4.9-17.8 3.1S14.4 4 17.4 6.3h.1a5.3 5.3 0 0 1 1.1 2 2.9 2.9 0 0 0 1.1-3.1 1.9 1.9 0 0 0-.4-.9h-.1a2.4 2.4 0 0 0-.9-.8l.7-.3h.2a3.3 3.3 0 0 1 1.4 0h.1a1.9 1.9 0 0 1 .8.3h.4a1.1 1.1 0 0 1 .3.8l-.3.3h-.1c-1.1 1.5-1.3 6 2.9 6.4h.4l1.5-.2h.1c2.2-.8 2.8-3.2 2.4-5.1a3 3 0 0 0-.4-1c-.1 0 0-.1 0-.1l-.2-.3h-.1a.1.1 0 0 0 .1-.1l-.9-.2h.2a1.9 1.9 0 0 0 .9-3.6c.2 1.8-1.5 1.9-2.8 1.6a.1.1 0 0 1-.1-.1h-1.1l-1.6-.4h-1.8a.1.1 0 0 1-.1.1h-.1s-.1 0 0-.1h-.8V.8h-.6a9.4 9.4 0 0 0-6.5 2.3A8.1 8.1 0 0 0 11 6.7C8.2 15.6 17.2 20 21.3 21.2s3.8 1.8 4 3.9v3a3.7 3.7 0 0 1-.5 1.7h-.2a1 1 0 0 1-.4.5h-.1l-1.4.9a2.9 2.9 0 0 1-1 .3h-.4a.3.3 0 0 0 0 .4l.6.2c.1 0 .1 0 .1.1h.4c.1 0 .1 0 .1.1l.6.5.6.5h.1l.3.4a3 3 0 0 1 .4.8c.1-.1.1-.1.1 0a.1.1 0 0 1 .1.1h-.1l.3.7q.2.8.3 1.8a10.3 10.3 0 0 1 .1 1.8c0 4.3-3.2 5.1-5.6 5.6-.2 0-.3.2-.3.4a2 2 0 0 1 0 1.1c0 .2.1.4.3.4h13.9c.3 0 .5-.2.4-.5a2.8 2.8 0 0 1 .1-.9c0-.2-.1-.5-.3-.5s-3.1-1-3.2-2c-.3-4.1.1-13 .1-19 0-2.3 2.4-3.6 3.4-3.3-1-3-3.2-2.9-4.1-3.1a17.9 17.9 0 0 1 7-.6v12.9a21 21 0 0 0-2.9 3 11.1 11.1 0 0 0 2.9 2.4v14.6s-3.2-.2-16.9-.2c-4.4 0-6.1-5.5-3.4-6.9s2.5-.1 1.7 1.2a2.6 2.6 0 0 0 3.6-3.6c-1-2.5-5.2-3-7.8-.8S11.5 49.2 19 50.8l-1.4.7a3.8 3.8 0 0 0-1.2.9h-.1a4.7 4.7 0 0 0-1 1h-.1a.1.1 0 0 1 .1-.1 6.4 6.4 0 0 0-1 1.3h-.1a10.1 10.1 0 0 0-.7 1.5c0 .2-.1.4-.1.6a5.1 5.1 0 0 0 3.1 6.3l1.8.5h.2c4.4.6 8-3.5 4.2-7.8.1 2.8-1.3 4-3.4 3.4a2.1 2.1 0 0 0 1.4-1.6h.1a4.9 4.9 0 0 0-.1-2.1l-.8.7h-.1l-.4.2a1.5 1.5 0 0 1-1.1.2c-.1 0-.1 0-.1.1l-.8-.2h-.1c0-.1-.1-.1 0-.1a2.3 2.3 0 0 1-.2-2h.1l.2-.3c0-.1.1-.1.1 0s3-2.2 7.3-2.2c8.2 0 10 .5 14.7.5a57.8 57.8 0 0 0 7.1-.1h.1a7.9 7.9 0 0 0 2.2-.5h.4c0-.1 0-.1.1-.1h.7zM19.7 5.9zm-.1-.5zm0 .4zm-.3-1.2c.1 0 .1.1 0 .1zm0 .3zm-.4.2zm.3.6zm-.3-1.2zm9.8 3.8zm-.1-1.9zm.4-3.1zm-.8-.4a.1.1 0 0 1-.1-.1h.1zm-.2.2zm.1.6zM15.5 3zm.5-.2c0 .1 0 .1-.1 0h.1zm.1 1zm.1 1.1zm.4 0zm.3-2.6c-.1 0-.1 0-.1-.1h.1zm0 2.5zm.2-1.3H17c.1 0 .1 0 .1.1zm.1.1zm.2.8h-.2a.1.1 0 0 1 .1-.1h.1zm.2-.2zm.1.8zm.1-.3zm.1 1.9zm0-2.4zm0-.4h-.1s-.1-.1 0-.1h.1zm.2 2.3zm0-3.6h.2c-.1 0-.1.1-.2 0zm.2 2.2zm.4 1.1zm.1.1zm-.3-2.1zm0 1.3zm0-.7zm-.1-.5zm-.1-.3zm.5-1h-.1s.1-.1.1 0zm-.2-.3zm.7.5c-.1.1-.1.1-.2 0h.1a.1.1 0 0 1 .1.1zm.4 0zm.2-.3zm.1-.2c0 .1 0 .1-.1.1h.1zm.8-.2c0-.1.1-.1.1 0h-.1zm.1 0zm0 .9zm.3.2H21a.1.1 0 0 1 .1-.1h.1c.1.1.1.1 0 .1zm.1-1h-.1c-.1 0-.1 0-.1-.1h.2c.1 0 .1 0 0 .1zm0-.2zm0-.1h-.1a.1.1 0 0 0-.1-.1h.2zm0 .5zm.1.9zm.1-.5zm0-.5zm.1.7a.1.1 0 0 1-.1-.1h.1zm.2.2zm.1 0c.1-.1.1-.1.2 0h-.2zm.2-.5zm0-.4zm0 1.5zm.1 1.6zm.1-1.5c0-.1 0-.1.1-.1a.1.1 0 0 1-.1.1zm.4-1.8h-.1s-.1-.1 0-.1h.1c.1 0 .1 0 0 .1zm0 .3zm-.1-.2c.1 0 .1 0 0 .1h-.2a.1.1 0 0 1 .1-.1h.1zm.4 2.6zm.4-2.8zm-.1 0h.2a.1.1 0 0 0-.1.1h-.1zm.1.6h.1v.2h-.1c-.1 0-.1 0-.1-.1zm.2-.2zm.9 1.1s.1-.1.1 0h.1a.1.1 0 0 1-.1.1.1.1 0 0 1 .1.1h-.2c-.1 0 0 0 0-.1zm.4-.2zm.3.7zm.1-.2zm.2-.4zm0 .3zm.1-.1zm.4 3.6zM25.9 6zm.1-.7zm-.1-.9zm-.5.3zm.1.1zm.3.3zm0 .8s.1-.1 0 0zm-.3-1zm-.2.6zm.1.5zm.1-.7h.2v.2h-.1c-.1-.1-.1-.1-.1-.2zm0 1.1zm.1 1.5zm0-.7zm.1 2.4zm0-2.3zm0-.7v-.2h.1c0 .3-.1.3-.1.2zm.1.4zm.1-2.9zm-.1-.6zm-.1-.5h-.1a.1.1 0 0 1 .1-.1zm0-.1h.1a.1.1 0 0 1-.1-.1zm-.1 1.6zM24.5 8zm0-.1zm-.1-.8zm-.4.6h-.1a.1.1 0 0 0 .1.1zm0 .8zm-.1-1.1c.1 0 0 .1 0 .1zm0-.1zm.1 0v-.2h.1c0 .1 0 .1-.1.1zm.1-1.3zm0-.4h.1s-.1.1-.1 0zm0-1.2zm0 .1a.1.1 0 0 0-.1-.1zm0 .9zm.4.2h-.2a.1.1 0 0 1 .1-.1h.1zm.2-1.8zm0 .2c-.1-.1 0-.1 0-.1zm.4 1.1zm0 .8H25s.1-.1.1 0zm0-.1zm-.2.8h-.2a.1.1 0 0 1-.1-.1h.3zm-.1.3zm0-1.5zm0-.1h.1c-.1 0-.1 0-.1-.1zm-.1.6h-.1s-.1 0 0-.1h.1zm-.1.4zm.4-1.7zm-.2.3zm-.1-.4zm-.1-.1zm-.1 2.4zm-.2-1zm0 .7zm-.1.4zm-.1.7zm.5-.7h-.1c-.1 0-.1 0-.1-.1h.2zm.1 0zm0 .8zm.1 1.4zm.1-1.5zm0-.5zm0 .4zm.2-1.3zm.1-1.6h.1v.2zm-.4-1.4zm-.3 1.7h-.2c-.1 0-.1-.1 0-.1h.1s0 .1.1.1zm-.1-.5h-.1c0-.1 0-.1.1-.1zm-.2-.1zm0-.9h-.1c.1 0 .1.1.1.2zm-.2.4h.2a.1.1 0 0 1-.1.1H24zm0 .7zm-.6 1.6zm.1.3zm-.2 0zm-.6-.9zm0 .4zm.1-.2zm.1 3.9zm0-3.7zm.3-.5zm.1-.8zm0-.9zm.4-.5a.1.1 0 0 1 .1.1h-.1zm.1-.9h.1c0 .1-.1.1-.1 0zm0 .2zm0 .5c-.1 0-.1 0 0-.1zm0-.4zm-.2 1.9zm-.1-.3a.1.1 0 0 0-.1-.1h.1zm.3-.6zm-.2.1c.1.1.1.1 0 .1zm0-.1h-.1c-.1 0-.1 0-.1-.1h.2zm-.2.7c-.1 0-.1 0-.1-.1zm-.3.9zm.3.2zm.1-.5h.1c0-.1.1-.1.1 0h-.2zm.1.2zm.2.3zm-.1.2zm.2-.8h-.1a.1.1 0 0 1 .1-.1zm.1-1h-.1s0 .1-.1 0h.2zm-.1-1.2zm0-.5h.1s-.1.1-.1 0zm0 .2zm-.1-.3h-.1a.1.1 0 0 0-.1-.1.1.1 0 0 1 .1-.1h.1zm-.5.8a.1.1 0 0 1 .1.1h-.1zM23.2 4zm0 .4zm0 .4zm-.1-1zm-.4-.4c0 .1 0 .1-.1.1h-.2s-.1-.1 0-.1h.3zm.1.7zm-.1-.6zm0 .4c0 .1-.1.1-.1 0h.1zm-.3-.3h.1c.1 0 .1 0 .1.1h-.2zm.1 1zm.5-.3zm0-.2zm0-.4zm-.1-.6zm0-.7zm-.5.4zm-.1 1.6zm0 .4zM22.1 6zm.1.5zm0 .1zm.1-.2zm0-.1zm0-.4zm0-.3c.1-.1.1-.1 0 0zm0-.4zm-.1.7zm0-.3zm-.2-.3h.1a.1.1 0 0 0-.1.1zm-.1.8zm0 .5zm-.2.4zm-.3.3zm0-.3zm0-.8zm.1 2.8zm.2-1.4zm.1.6zm0-.6zm-.1-.8h.1c0 .1-.1.1-.1 0zm.2 2.3zm0-2.2h.1a.1.1 0 0 1-.1 0zm.1-1.4zm0 0zm0 .2zm.1 2zm0-.4zm.1-.3zm.1 1.2zm.1-.3h-.1c.1 0 .1 0 .1.1zm0 1.3zm.1-.7zm0-2.6zm0-.8zm.2 3.5zm0-1.7zm0-.2zm.1 1.7zm.1 2zm.1-.4zm0-2.4zm.1-.6zm0 .1zm.1.8zm.1.8zm0-1.3zm.1 0zm.1.8zm0-2.5zm.1 4.3zm0-.4zm.2-1.1zm0-2a.1.1 0 0 1 .1-.1h-.1c0-.1 0-.1.1-.2h-.1zm0 2.2zm.1.8zm.1 1.3h-.1a.1.1 0 0 0 .1-.1zm.1-2.9zm.2 2.3zm.1-1.4c0 .1.1.1.1.2zm0-.7zm.1 1.6zm.1 1.7zm.1-1.8zm.2.9zm0-.2h.1a.1.1 0 0 1-.1 0zm.2-1.2h-.2v-.2h.2zm0-1zm.2.3zm.1-.7zm0-.7h-.1c.1-.1.1 0 .1 0zm.1 1.3h.1s.1.1 0 .1h-.1zm.1 2.7zm0 0zm.2-1zm0-1.6zm.1-.4zm.1-.8zm0 1.6c.1 0 0 .1 0 .1zm.2.1zm0-3.1zm0-1zm0 2.1zm.6-.9zm0-.5zm-.1 3.8zm0-2.8zm0-1.4zm-.3.9zm.1.1zm.1-2zm.1-.2zm-.1.3zm0 .9zm-.2 2.1zm-.1-1.5zm0 .6zm.1 1.4zm.2-.2h-.1a.1.1 0 0 1 .1.1zm0 3.8s-.1 0 0-.1a.1.1 0 0 1 .1.1zm.2-1h-.1a.1.1 0 0 1-.1-.1h.1c.1 0 .1 0 .1.1zm0-1.7zm0-2.3c0-.1-.1-.1 0-.1zm.1.2zm0 2.6zm.1.6zm.1-2.3a.1.1 0 0 1-.1-.1h.1zm0-2.1zm-.1-.1zm.1-.4zm0 0zm.3 0zm.3 2.2zm-.1-.4h.1a.1.1 0 0 1-.1 0zm.1-.7h.1a.1.1 0 0 1-.1 0zm.2 4.1zm.5-.2zm-.2-1.2zm-.1-1.9zm-.1-.1zm0-2.3zm-.1.4zm0 1.6zm-.1-.5zm0-.6zm-.1-.9zm-.1 1.2zm.1.1zM27.6 9zm0-3.6zm0-2.9zm0 .8zm0 .5h.1a.1.1 0 0 1-.1.1h-.1c0-.1 0-.1.1-.1zm-.2-1.1zm0 5h-.1c.1-.1.1 0 .1 0zm-.1-1zm-.1 1.2c0-.1 0-.1.1-.1h-.1zm-.1-4.3zm0-.7H27a.1.1 0 0 1 .1-.1zm-.1-.4h-.1.1zM26.9 5zm0 .6a.1.1 0 0 1 .1.1h-.1zm0-.9h-.2a.1.1 0 0 1 .1-.1h.1zm-.1-.7zm0-.3h-.1a.1.1 0 0 1 .1.1zm-.1-.8zm-.1.3zm-.1-.5zM26.3 4a.1.1 0 0 1 .1-.1h-.1zm0 .8h.1c.1 0 .1 0 .1.1h-.2zm-.1-1.6zm0 1.8h.2c0 .1 0 .1-.1.1h-.1zm0-2h-.1a.1.1 0 0 1 .1 0zm-.2-.6zm0 .6zm-.2-.8zm.1.4zm-.1 0zm-.1-.6a.1.1 0 0 1 .1.1h-.2a.1.1 0 0 1 .1-.1zm-.2.3c.1 0 .1 0 .1.1h-.1zm0 .3zm-.2-.7h.1c-.1 0-.1 0-.1-.1zm-.1.8zm0-.7zm-.2.3h.1c.1 0 .1 0 .1.1s0 .1-.1.1H25zm-.1-.4zm-.1.3zm0 .1zm0 .4zm-.1-.7c.1 0 .1 0 .1.1h-.1zm0 .8zm-.1-.4zm0 .7zm-.2 0h-.1a.1.1 0 0 0 .1-.1h.1c0 .1 0 .1-.1.1zm0-.3zm0-.8zm-.1.3zm0 1.1zm-.2-1.7zm0 .7h.1c0 .1.1.1 0 .1h-.1zm-.1.4h-.1a.1.1 0 0 1 .1-.1zm-.1-1.3zm-.1.1zm-.1-.2zm-.1.3zm0 .3h.1a.1.1 0 0 1-.1.1h-.2a.1.1 0 0 1 .1-.1c0-.1 0-.1.1-.1zm-.2-.5a.1.1 0 0 1-.1-.1h.1zm-.2-.2zm0 1.1c0-.1 0-.1.1-.1h-.1zm-.1.4c-.1.1 0 0 0 0zm-.1.1h.1a.1.1 0 0 0-.1.1zm0-.7zm0-.6zm-.1-.4zm-.2.3h-.1a.1.1 0 0 0 .1 0zm-.2-.4zm-.2.4h.2c.1 0 .1 0 .1.1h-.1a.1.1 0 0 1 .1.1h-.3zm0 .6zm0 .3zm-.1.9H22c-.1 0-.1 0-.1-.1h.3zm-.1-1.6h.1c-.1.1-.1.1-.1 0zm-.2-.2zm-.1.9a.1.1 0 0 1-.1-.1.1.1 0 0 1 .1.1zm-.1-.6h.1a.1.1 0 0 1-.1 0zm0-.6zm-.2.1zm-.1 0zm-.2-.1h-.1a.1.1 0 0 1 .1 0zm-.1 1.3zm0-.2H21a.1.1 0 0 1-.1-.1h.2zm-.1-.4zm-.1-1zm0 .3zm-.2.5zm-.1.7h.1c0 .1 0 .1-.1.1zm0 .1zm-.2-1.4zm0 1zm0 .7a.1.1 0 0 1-.1.1h.1zm-.2-.4zm.1-.5c.1 0 0 .1 0 .1zm-.3-.3c.1 0 .1 0 .1.1H20zm0 .3h-.1c0-.1 0-.1.1-.1zm-.2-.2h.1a.1.1 0 0 1-.1-.1zm-.1.6h.1a.1.1 0 0 1 .1.1h-.1c-.1.1-.1 0-.1 0h-.2a.1.1 0 0 1 .1-.1zm-.1-.5h.1a.1.1 0 0 0-.1.1h-.1v-.1zm-.2-.9zm-.1.4zm-.1.8zm-.5-.5h.2c0-.1-.1 0-.1-.1h-.1zm-.2.5h.2a.1.1 0 0 1-.1.1h-.1zm0 1.1zm-.1-.6zm-.1-1.5h-.1c-.1 0 0-.1 0-.1zm-.4 0zm-.1.8zm-.1.5h-.1a.1.1 0 0 1 .1 0zm-.1.9zm-.1.8zm-.3-2.7h.1s-.1 0 0-.1h-.1zm0 1h.1c0 .1 0 .1-.1.2H17a.1.1 0 0 1 .1-.1h.1zm-.2-.7zm-.1.3h.2a.1.1 0 0 1-.1-.1h-.1zm-.3-.6h.1c.1 0 .1 0 .1.1h-.2zm-.1.8s-.1 0 0-.1zm.1 1.1zm-.2-.3zm-.2.7c.1-.1.1-.1.1 0h.1a.1.1 0 0 0-.1.1h-.1zm-.3-1.3zm-.1 2s-.1-.1 0-.1zm-.1-.4zm0 .3zm-.4-2.5h.3c.1 0 .1.1 0 .1h-.3zm-.4.5zm-.2 3.5h.1a.1.1 0 0 1-.1-.1zm-.2-2.6c.1-.1.1-.1.1 0s0 .1-.1 0zm-.3.7h.2c0 .1 0 .1-.1.1h-.1zm-.8 2.6zM12.8 5zM25 23.2zm-3.3 9.4a.1.1 0 0 1-.1-.1h.1zm.5-.5zm-.2.5zm0-.3zm.1-.1zm.2.1zm.1.5zm.1-.8zm.2.9a.1.1 0 0 0-.1.1.1.1 0 0 1 .1.1zm-2.5 14.3H20a.1.1 0 0 1 .1-.1h.1zm1.7-.4zm5.6-19.1zm-.2-1.8c0 .1 0 .1-.1.1h.1zm-.1 3.6zm0 3.9zm0-4.9zm0 4.1a.1.1 0 0 1-.1.1h.1zm-.4-1.9zm0-2.3zm0-2.6zm-.2 1.2a.1.1 0 0 1 .1.1h-.1zm0 3.6zm-.1-.5a.1.1 0 0 1 .1-.1h-.1zm.1 1.3h.1a.1.1 0 0 1-.1.1zm-.1-2.2zm-.1-.5h-.1a.1.1 0 0 1 .1-.1zm0 .7h.1c0 .1 0 .1-.1.1zm.1-1.1zm-.1-1.3zm-.1-2.2zm0 2.1h.1c0 .1-.1.1-.1 0zm0 2.7zm-.1 3.2zm.2.8zm-.3-5.5zm.1 3.5zm-.4 2.6zm0-1.3zm0 2.3zm-.1 0zm-.1 1.3zm-.1-1.3zm0 1zm-.5-3.5zm0-1h.2a.1.1 0 0 1-.1.1H25zm.1.3zm.4-2.6c.1 0 0 .1 0 .1zm0-.6zm0-.4zm-.1.5h.1a.1.1 0 0 1-.1.1zm0 1.1h-.1c.1-.1.1-.1.1 0zm-.1 1.9a.1.1 0 0 1-.1-.1h.1zm-.1.2zm0 .8h.1a.1.1 0 0 1 .1.1h-.1a.1.1 0 0 1-.1-.1zm.2-.4zm.1.8zm0-1zm.1-1.2zm0 4.1zm0 .8h.1a.1.1 0 0 1-.1 0zm0-2.1a.1.1 0 0 1 .1-.1.1.1 0 0 1 .1.1c-.1 0-.1 0-.1.1zm.2-3.5zm-.1.3zm.1.6zm-.1.5zm0-.2zm.1-.5zm-.1 1.9zm.1-.9c0-.1 0 0 .1 0h-.1zm.1-.3zm0-1.3zm0 .4zm.1.9zm.1 1.1zm-.1-3c-.1 0-.1-.1 0-.1zm0-.1h-.1c.1-.1.1-.1.1 0zm-.1 4zm.1.6zm0 1.7zm.1-1.9zm0-7zm-.1 1.7c-.1-.1 0-.1 0-.1zm0-.2zm-.2-2.7zm-.1 2.7h.1c.1 0 .1 0 0 .1h-.1zm0 .7zm-.1-.9zm0-.7h-.2c0-.1.1-.1.2 0zm-.1-2.8zm-.1 1.3zm0 .7zm0 .4h.2c-.1 0-.1.1-.1 0h-.1zm-.1.7zm-.1 1.3zm0 1.2zm-.1.2zm-.2-.3h.1c0-.1 0-.1.1 0h-.2zm-.1 3.1h-.1c0-.1 0-.1.1-.2zm0 .3c0 .1 0 .1-.1.1h.1zm0-.7zm.1-.9zm-.1-2.2zm0 1.3zm-.2-.2zm0 .7zm0 1.1zm-.1-.3zm0 .4zm-.1-2.4c-.1-.1-.1-.1 0-.2zm-.1 1.9zm.1.7zm-.4-2zm-.1.5zm.3 1.2c-.1 0-.1 0-.1.1h.1zm-.2-.6h.1c.1.1.1.2 0 .2H24zm-.3-1zm-.2 0zm-.2 1zm.1.5a.1.1 0 0 1 .1.1h-.1zm-.6-.7zm0 .2h.1c.1 0 .1 0 .1.1h-.2zm.3.9H23a.1.1 0 0 1-.1-.1.1.1 0 0 1 .2 0zm-.1-1s-.1 0 0-.1zm.2.4h.2a.1.1 0 0 1-.1.1h-.1zm.3 1h-.2v-.2h.1a.1.1 0 0 1 .1.1zm0-1.1zm0-.8zm.2.1zm-.1.9zm0-.1zm.2.4h-.1c-.1-.1 0-.1 0-.2h.1zm.2.7zm0-.6a.1.1 0 0 0-.1-.1h.1a.1.1 0 0 1 .1.1zm.1 1.1zm.1.3zm.1-.7zm0-.3c.1 0 .1-.1.1 0h.3c0 .1 0 .1-.1.1a.1.1 0 0 1-.1-.1h-.2zm.1.3c0 .1 0 .1.1.1h-.1zm0 .4zm.1.3zm.2.3c0 .1-.1 0-.1 0h.1zm.1 1zm-.1-.7c.1 0 .1 0 .1.1zm.2-.2zm.1-1c.1 0 .1 0 .1.1H25zm0 .5h.3a.2.2 0 0 1-.2.2H25zm.1.6zm.2 1zm0-.3H25c.1 0 .1 0 .1-.1h.2zm0-2.4zm.1.8c.1-.1.1-.1.2 0h-.1c0 .1-.1 0-.1 0zm.1 4a.1.1 0 0 1-.1-.1h.1zm.1.5h-.1a.1.1 0 0 1 .1-.1zm0-1.1c0 .1-.1 0-.1 0 0-.1 0-.1.1-.1zm0-.9zm.2.8zm0-1.2zm0-1.2h-.1c0-.1 0-.1.1-.1zm.1-.8zm.1 2.8a.1.1 0 0 1-.1.1h.1zm0-.6zm0 .8zm.2 1.7zm0-1.3zm0-2.6zm.1 3.4zm.1-3zm0-3zm.1-2.2c-.1 0-.1 0-.1-.1h.1zm0 1.3zm0 1.3c.1 0 .1 0 .1.1h-.1zm.1 3.1zm0-.9zm-.1 1.1a.1.1 0 0 0 .1-.1h-.1zm.1 1.1zm.1-2.9zm0-.6h-.1s-.1-.1 0-.1h.1zm0-3.1zm.1 3.5h-.1c0-.1 0-.1.1-.1zm0 4.8h.1c0 .1-.1.1-.1 0zm.1-3.4zm0-4.3c0-.1 0 0 .1 0h-.1zm.1-.3zm0 .8zm0 3zm0-1.4zm.1-3.9zm0 3.8zm0 .5zm.1 1.6zm0 1.6h.1s-.1.1-.1 0zm.1-.1zm.2-4.9a.1.1 0 0 1-.1.1h.1zm0-.8zm.1 3.3zm0-7c0 .1 0 .1-.1.1h.1zm.4 2.3zm.2 4.6zm-6.1 6.9zm-.1-1.4zm-.5.1zm-.4-1zm-.7-.3zm0 1.1zm-.1-1.4zm-4.5 9.9h-.2c.1 0 .1-.1.1 0h.1zm4.7 9.9zm-.1-.3zm-.8.9zm.1-.6zm.4.3zm0-.4zm.1-.3zm0-.5h-.1c.1 0 0-.1 0-.1h.1zm-.2-.5h.2v.2H20zm-.1 1.6h-.1a.1.1 0 0 1 .1.1zm-.1-1.1zm-.1-.2zm-.1 1.6zm0-.2a.1.1 0 0 1-.1.1h.1zm-.1-.5a.1.1 0 0 1 .1.1h-.1zm0-1.1h-.1a.1.1 0 0 1 .1 0zm-.1.3zm0-.4zm-2.7.2zm-.3 1.2zm-.5 2a.1.1 0 0 1-.1-.1h.1zm0 .4zm-.4-1.6h.1c0 .1 0 0-.1 0zm.1 1.2zm-.5-.6zm.1.3zm-.1-1.1zm0-2.3zm0 1zm0-.2zm0 .4zm.3-1.1c0-.1 0-.1.1-.1s.1.1 0 .1a.1.1 0 0 1-.1-.1zm.3.2a.1.1 0 0 1 .1.1h-.3a.1.1 0 0 1-.1-.1h.3zm.2-2.2zm.1.1zm-.2.6zm.2.2zm-.3 2.7h.1a.1.1 0 0 1-.1-.1zm0-.1zm.2-1.2h-.1a.1.1 0 0 1 .1-.1zm0 2h-.1a.1.1 0 0 1 .1 0zm.1-.3h-.1c-.1-.1 0-.1 0-.1h.1c.1.1 0 .1 0 .2zm0-.2zm0-1.5zm-.1-.8zm-.1 1.1zm-.2.3c-.1 0 0 0-.1-.1a.1.1 0 0 1-.1-.1h.2zm-.2-.3zm0 .9zm.2 1.8zm.1-.7a.1.1 0 0 1-.1-.1.1.1 0 0 0 .1-.1zm.1.2c-.1.2-.1.1 0 0zm.2.1h.2a.1.1 0 0 1-.1.1H16zm.4-3.5zm0 .4zm.1-1.4h-.3a.1.1 0 0 1-.1-.1h.4zm-.2 1.1zm-.1.3h-.1a.1.1 0 0 1 .1 0zm-.1 2.2zm0 1.1a.1.1 0 0 0-.1-.1h.1zm0 .2zm0 .7c.1 0 .1 0 .1-.1a9951643238316.5 9951643238316.5 0 0 1 .2.2h-.3zm.1-3.1a.1.1 0 1 1 0-.2zm.4-.5h-.3c-.1 0-.1 0-.1-.1h.4zm0-1.4zm0 .6zm.2.3zm.1.9zm-.1-1.6zm-.2-2h.1a.1.1 0 0 1-.1-.1zm0 .4h.1a.1.1 0 0 1 .1.1.1.1 0 0 1-.1.1h-.1zm.1-1.6h.1c-.1.1-.1.1-.1 0zm-.1.7h.1c-.1 0-.1 0-.1-.1zm0 1.7h.1v.2h-.1zm-.1-2.6zm-.2.1s-.1 0 0-.1zm0 1.3zm-.2.7h.1a.1.1 0 0 1-.1-.1zm0 1.3h.2a.1.1 0 0 0-.1.1h.1a.1.1 0 0 1-.1.1h-.1zm0-.8a.1.1 0 0 1-.1.1h.1zm-.1-1.8zm-.2-.3h.2a.1.1 0 0 0-.1.1h-.1zm.1.7zm-.2-.3zm-.1 2.1h.2a.1.1 0 0 1-.1.1h-.1zm0 .4h.3c.1 0 .1 0 0 .1h-.2a.1.1 0 0 0-.1.1h-.1a.1.1 0 0 0 .1-.1zm0-.1h-.2v-.2h.1c.1 0 .1 0 .1.1zm-.2-.3a.1.1 0 0 1 .1-.1h-.1zm0-1.5zm0 .2s-.1.1 0 0zm-.1 1.3a.1.1 0 0 1 .1-.1h-.1zm0 1.2zm0-.1zm-.2-.9zm0-.2zm0-.7zm-.1-.9zm-.1.6h.1c.1 0 0 0 0 .1a.1.1 0 0 1-.1-.1zm0 1.5c0-.1 0-.1.1-.2h-.1zm-.1 1.3h.3c0 .1-.1.1-.1.2h-.2zm-.2-2.8c.1-.1.2 0 .2.1h-.2zm.2 5.4zm0-.3c0 .1 0 .1.1.1zm0-1.2zm-.1-.6h.1a.1.1 0 0 1-.1 0zm-.1.5h.1c0 .1-.1 0-.1 0zm-.1.5zm.1 1.1zm-.5-2.5h.1a.1.1 0 0 1-.1 0zm.1.7c0 .1 0 .1-.1.1h.1zm-.1-1.5zm.1 2.1zm.1-1.6zm.1.9zm.1-.7zm0-.4zm.1.5zm.1-1.4zm-.2-.4zm.3 1.7zm-.3-2.3h.1c0 .1 0 .1-.1.1zm0 1.5zm-.1.1h.1c-.1.1-.1 0-.1 0zm0-.5zm0-.8zm-.2-.1zm-.1.3zm0 2.3zm0-.1a.1.1 0 0 1-.1-.1h.1zm-.1-1.3zm-.1 1.9zm0-1.4zm0 .3a.1.1 0 0 0-.1-.1zm-.4.5zm0-.2a.1.1 0 0 0-.1-.1h.2a.1.1 0 0 1-.1.1zm.1 2.4zm.1-2.2zm.1 1.5zm.1 1.3zm0-1h.1a.1.1 0 0 1-.1 0zm.1 0zm.1-.5zm0 1.2h.1a.1.1 0 0 1-.1.1zm.1.5a.1.1 0 0 1-.1-.1h.1zm.1-.5zm.1-1.2zm0-.5c.1-.1.1 0 0 0zm0-.3zm.1 1.9zm.1-1.1zm0 2.5zm.1.3zm0-2zm.1 1.4c.1-.1.1 0 0 0zm0-.7zm.1-.2zm0-2zm0-.3zm.1 3h-.1a.1.1 0 0 1 .1.1zm.1 1.1zm.1-.8zm0-.6c0-.1.1 0 .1 0h-.1zm.1 1.5a.1.1 0 0 1-.1-.1h.1zm0-1.2h-.1c0-.1 0-.1.1-.1zm.1-1.7h-.1s-.1.1-.1 0h.2zm-.1-.8zm.1-.3c-.1.1-.1.1-.1 0h.1zm0 .2zm.2 2.7h-.1c.1 0 .1 0 .1.1zm.1.7zm.1-.7h-.2a.1.1 0 0 1 .1-.1h.1zm0-.2zm.1 1.3zm.1.2zm.1-.9zm0-.5h.1s0 .1-.1 0zm.2 1zm0-.2a.1.1 0 0 1 .1.1h-.1zm.1-.3a.1.1 0 0 1-.1.1c0-.1.1-.1.1 0zm0-2.1zm0-1.4h-.1c-.1 0-.1 0 0-.1h.6a.1.1 0 0 0 .1.1h-.3c.1 0 .1.1 0 .2h-.3zm.6.7h-.1a.1.1 0 0 1 .1-.1zm0 1.2zm0 .3zm0-.8h-.1a.1.1 0 0 1 .1-.3zm-.2.5zm-.1-1.3s-.1.1-.1 0h.1zm0-.2zm-.2.5h.3a.1.1 0 0 1-.1.1.1.1 0 0 1-.1.1h-.1zm.1.4zm-.1.3zm0 .5zm.2 2.2zm0 .8zm.1-2.5zm0-.4zm.1 0zm.2 1.4H17c-.1 0-.1 0-.1-.1h.1a.1.1 0 0 1 .1.1zm0-1.1zm0-1zm.1-.4h-.1a.1.1 0 0 1-.1-.1h.2zm-.1-1.1zm.1 4.5zm.6-4.8zm0 0a.1.1 0 0 0 .1.1h-.1zm-.1.3h-.2c-.1 0-.1 0-.1-.1h.3zm-.3.9h.2s0 .1-.1 0h-.1zm0 .2zm-.1 2.2zm.1-2zm.1 1.6zm0 .4h.1s.1.1 0 .1h-.1zm.1-.6h.2a.1.1 0 0 1-.1.1h-.1zm.2-.4zm-.3-2.2zm-.2 2.2zm0 2.4zm.1-.9h.1s.1 0 0 .1h-.1zm.2.9zm.2 0h-.1c-.1 0-.1-.1 0-.2h.1zm.1-1.2zm0-.3zm0-1.3h-.1a.1.1 0 0 0-.1-.1h.1c-.1-.1 0-.1 0-.1h.1zm0-.4zm.1 1.4zm0-.7zm0-.3h.1a.1.1 0 0 1-.1 0zm.1.4zm.2 1.7zm0-1.1zm0-.2zm.1-1.3zm.1.5zm-.1-1.4zm0-.2zm0-.4zm.1 3.3zm.2.5h.1a.1.1 0 0 1-.1 0zm0-3.3zm0 .9zm.2 1.5zm0 .7h-.1a.1.1 0 0 0 .1 0zm0-1.8zm0-.7zm-.1 0zm-.1.1c0-.1 0-.1-.1-.1zm.1 3.5c0-.1 0-.1.1-.1h-.1zm.1.5zm.1.3zm.2-2zm.1-.7zm.1 1.2zm2 .3zm-.4-1.7c0 .1 0 .1.1.1H21c-.1 0-.1 0-.1-.1zm-.7.8zm0 1.6zm-.1-2.9c.1 0 .1 0 .1.1h-.1zm-.2 1.7zm-.2-2zm-.1 3.8h-.1c.1-.1.1-.1.1 0zm-.1-3.3zm-.1 0zm-.1-.5h.1a.1.1 0 0 1-.1-.1zm0 .1zm-.2-.4h.1c0 .1-.1 0-.1 0zm0 .2zm0 .4zm-.1-2.2zm0 3.5H19a.1.1 0 0 1 .1-.1zm-.1-1.3zm0-2.1h-.2c0-.1 0-.1.1-.1h.1zm-.3-.7zm0 .5h.1c-.1-.1-.1-.1 0-.1h-.1zm-.1-.5zm-.2-.2h-.1a.1.1 0 0 1 .1 0zm0 2zm-.1-.2zm0-1.6c-.1 0-.1 0-.1-.1zm0 .6zm-.2.6h.1c0 .1-.1 0-.1 0s-.1.1-.1 0h.1zm-.1-1.1zm0 .2zm-.3-.6zm-.1.4h.1a.1.1 0 0 1-.1.1zm-.1-.5h.1a.1.1 0 0 1-.1.1zm-.2.9zm-.2-.2zm-.1-1.3zm0 1.4zm.2-3.3H17c0-.1 0-.1.1-.2h.1zm0-1.3a.1.1 0 0 1-.1-.1.1.1 0 0 1 .1-.1zm0-.2zm.2.9a.1.1 0 0 1-.1.1h.1zm0-.3zm.1-.3zm1.6-1.5zm-1.9-2.1h-.1a.1.1 0 0 1-.1-.1h.2zm.5-.4h-.2c0-.1.1-.1.1-.2.1 0 .1 0 .1.1s.1.1 0 .1zm.8 1.4zm.4-1zm.1.8a.1.1 0 0 1 .1.1H19zm-1.2 2.1h-.1a.1.1 0 0 1 .1-.1zm.1.2zm.2-.1zm.1.1h.1a.1.1 0 0 0-.1 0zm0-.8a.1.1 0 0 1-.1-.1h.2a.1.1 0 0 1-.1.1zm.3 1.2zm.3-.3h-.1c0-.1 0-.1.1-.1zm.4-.9h-.3a.1.1 0 0 1 .1-.1h.2zm.2-.1h-.1a.1.1 0 0 1 .1.1zm.4.6h-.2a.1.1 0 0 1 .1-.1h.1zm.2-2.1zm.2 1.3h-.1c-.1 0-.1 0-.1-.1h.2zm.1-1.6zm.4 1.5a.1.1 0 0 1-.1.1h.1zm.6.3a.1.1 0 0 1-.1.1h.1zm.1-1.4zm.2-.4zm.2 1.6h-.1a.1.1 0 0 1-.1-.1v-.2h.3c0 .2-.1.2-.1.3zm.2-1.9h-.1c0-.1 0-.1.1-.1zm1 0zm.6 1.9h-.1c.1 0 .1 0 .1.1zm.3 0zm.2-1.4h.1a.1.1 0 0 1-.1 0zm.6.9zm0-1.4h-.1a.1.1 0 0 1-.1-.1h.1a.1.1 0 0 1 .1.1zm.3 1.8zm.7-.6h-.1c-.1 0-.1 0-.1-.1h.2zm1.5-.4a.1.1 0 0 1-.1.1h.1zm23-.6zm.2.8h-.1a.1.1 0 0 1 .1-.1zm0-.4h-.1a.1.1 0 0 0-.1-.1h.2s.1.1 0 .1zm-.1-2.4zm0 1.4s0 .1-.1 0h.1zm-.1 1.8a.1.1 0 0 1 .1.1zm.3-.2h-.2c0-.1.1-.1.2-.1zm0-1.9zm.4.7zm-.2-.4zm.1.3zm-.2-1.5zm.3.3zm0-.1zm0-.5h.1a.1.1 0 0 1-.1 0zm0-.4zm-.1.2zm.1 1.8zm0-.6h.1c-.1.1-.1.1-.1 0zM51 47zm.1 2zm-.1.8zm.1-.2zm.1-.7zm.2.8h-.1c-.1 0-.1 0-.1-.1h.2zm.2-.5h-.1c.1 0 .1 0 .1.1zm-.2-2.1zm-.1-.1zm.4 1.5zm0-.2h-.1s0-.1.1 0zm-.2-1.5zm.1 1.7zm.3 1.1h-.1a.1.1 0 0 1-.1.1h-.1a.1.1 0 0 1 .1-.1h.2zm.2-.3zm.1-4.2H52a.1.1 0 0 1 .2 0zM52 45a.1.1 0 0 0 .1-.1H52zm.2 2.1h-.1v-.2h.2a.1.1 0 0 1-.1.2zm0 1.2zm-.2-2.9zm-.1-.7zm0 2.8h.2c0 .1 0 .1-.1.1h-.1zm.3 1.4zm.1-.4h-.1c-.1 0-.1 0-.1-.1h.1a.1.1 0 0 1 .1.1zm0-1.3zm.2 1.3h-.1c0-.1 0-.1.1-.1zm.2-.3zm.4-4.7zm0-1.9zm-.1 2.5c.1-.1.1-.1 0 0zm0 2.7h-.3c0-.1 0-.1.1-.2h.2zm-.1.5zm-.2-1.1zm.1-3.6zm0 2.3zm.1.7h-.1a.1.1 0 0 1 .1 0zm-.1.2c.1 0 .1 0 .1.1h-.2c-.1 0-.1-.1 0-.1h.1zm-.1.8zm0 1.1zm-.1-4.1zm0 3.3c-.1 0-.1 0-.1-.1h.1zm.2 1zm.1-.4zm.1-.2zm.2 0H53a.1.1 0 0 1 .1-.1h.1zm-.2-1a.1.1 0 0 1 .1-.1H53zm.5.2zm0-.5zm.2-1.1zm.2-1.5zm-.1.6c.1.1 0 .1 0 .1zm0 .6zm-.3-1.2zm0 1.7s0-.1.1 0h-.1zm-.2.4zm0 .6zm-.1-.2zm0-.4H53a.1.1 0 0 1 .1-.1h.1zm-.2-5.9zm-.1 2.1h-.1s.1-.1.1 0zm-.1-2.8a.1.1 0 0 1 0-.2zm-.1 5.7zm-.3-3.5zm0 5.7zm0-.4zm-.1-3zm-.1-1.4zm-.1 1.1zm-.2-.3c-.1.1 0 .1 0 0zm-.1 1.4zm-.1 1.2zm.1 1zm0 .8zm-.1.1h.1s.1.1 0 .1h-.1zm-.1-3c0 .1 0 .1-.1.1h.1zm0 .7zm-.1-.9zm0 1.6zm0 .2zm-.1-.8h-.1a.1.1 0 0 1 .1 0zm-.1 1h.1a.1.1 0 0 1-.1-.1zm0 2.1h-.1V48h.1zm-.1-1.8zm-.1-4.5c.1 0 .1 0 0 .1zM51 46zm0-3.4zm-.1.9zm0 3.1h-.1a.1.1 0 0 0 .1.1zm-.2-1.3zm0 .2zm-.1 2zm0 .2zm0 2.4zm0-1.5h-.1c.1-.1 0-.1.1 0zm-.2-4.5c.1-.1.1-.1.1 0h-.1zm-.1.1zm0 1c0-.1.1 0 .1 0h-.1zm0 1.3zm-.2 0a.1.1 0 0 1 .2 0h-.2zm0-.7zm-.1.7zm-.1.8zm0 1.5zm0 0zm0-.1zm-.1-3.1zm0 1.9zm-.1 1.4zm-.1-3.4zm-.1 3zm0-.9a.1.1 0 0 1 .1-.1h-.1zm0 .4zm-.1.7zm0 .3zm.1.8zm.1-2.7zm0-.1zm-.1-3.5zm-.1 1.5zm-.1.7zm0 2.8zm0 .7zm-.1-.6zm0 1zm0 0h.1c0 .1 0 .1-.1.1zm0-1.8zm-.1.8zm-.1-.8zm-.1 1.9zm-1.4-16.1zm1.2 15.8zm0-.2zm-.2-1.9zm0 .9zm-.1-.3a.1.1 0 0 0 .1.1h-.2a.1.1 0 0 1 .1-.1zm-.2 3.3zm0-.4h.1a.1.1 0 0 1-.1.1zm.1-.2c.1 0 .1 0 .1.1h-.1zm0-.6zm0-1.1zm0-.5zm-.1-1.1zm-.1 2.1a.1.1 0 0 1-.1-.1zM46.6 33h.1a.1.1 0 0 0-.1.1zM48 48.9zm-.2-.4zm-.1.4zm0 .7c-.1.1 0 0 0 0zm-.2-1.4zm0 .5zm-1.4-15.5zm1.3 16.6zM46 33.5zm-.1-.3zm-.4 1.5zm-.5-2zm-.1 2.2zm-.1-1.6h.1c-.1 0-.1 0-.1-.1zm-.1.9zm.1-3.5h-.1a.1.1 0 0 1 .1.1zm-1 2zm-.4 2.7zm-.2-2.4h-.1c0-.1 0-.1.1-.1zm0-.4zm-.2-2.3zm0 1.3c-.1-.1 0-.1 0-.1zm-.3-3zm0-2zm.1 4zm0 1.2zm.1 2.3a.1.1 0 0 1-.1-.1zm.1-4.8zm0 .6zm-.1-1.4zm.2.1zm.1-.2a.1.1 0 0 0-.1-.1h.1zm.1.9zm-.2-1.7zm0 .6c0 .1-.1 0-.1 0h.1zm0-1.5zM43 16.5zm.1.4zm0-.2zm0-.9zm0-.8zm0 14.6v-.2zm.1 1.6V31zm.1-.9zm.1-1.6a.1.1 0 0 1 .1.1h-.2a.1.1 0 0 1 .1-.1zm0-.9zm.1 6.7h.1c-.1 0-.1 0-.1.1zm0-3.5zm.1-1.4zm0-12.4zm0-.7zm.1 5.3zm-.1-7.1c-.1-.1-.1-.1 0-.1zm0-.9zm.2 15.4zm-.2-2.2s.1 0 0 0zm0 .2c-.1-.1-.1-.1 0-.1zm.2-1.4zm-.1-2.4zm0 0zm0 4.5zm0 1.5c.1 0 .1 0 .1.1h-.1zm.3-.7h-.1c-.1 0 0-.1 0-.1h.1zm0-2.8zm0-10.2zm0-.9h-.1a.1.1 0 0 1 .1 0zm-.2-.2zm-.2 9.7c-.1-.1 0-.1 0-.1zm.1 6.9zm0 3.1a.1.1 0 0 1 .1.1h-.1zm.1-1.8a.1.1 0 0 1 0-.2h.1a.1.1 0 0 1 0 .2h-.1zm.1 1.2c.1-.1.1-.1.1 0h-.1zm.1-2.3zm-.1-.4zm.2-1.1H44c.1 0 .1 0 .1.1zm.6-11.3h-.1a.1.1 0 0 0 .1 0zm-.1-1.4h.1a.1.1 0 0 1-.1 0zm.2-1.6zm.5.6zm-.1-.6zm.3.4zm.1 3.5zm0-.3zm.1 1zm0 2.2zm-.1 4.8zm0-2.3zm.2 4h-.1a.1.1 0 0 1 .1.1zm0 .4zm-.2-1.2h-.1a.1.1 0 0 1 .1 0zm-.6 1.6zm0 .2zm-.1-1.9zm-.1 2.3h-.1a.1.1 0 0 0 .1.1zm-.4.3c0-.1.1-.1.1 0h-.1zm-.4-2.9h.2a.1.1 0 0 1-.1.1.1.1 0 0 1-.1-.1zm.1-7.5zm.2 5.6zm.1-.3a.1.1 0 0 1-.1-.1h.1zm.1 1.9zm0 1zm-.2-1.5zm.2.1zm0-.1zm0-.7zm0-1.3zm0 0zm-.1-3.8zm0-2.9zm-.1 5.8a.1.1 0 0 1 .1.1zm0 2.1zm-.2-1.1zm.1-4.4zm0 4.4zm0-7.6zm.1-.4zm-.1.1h-.1a.1.1 0 0 1 .1-.1zm0 3.4zm-.2 7.1zm.1.8zm.1.3zm0 .1zm0 .2c0-.1 0 0 .1 0h-.1zm.1 2.7zm0-2.7zm.1.7h.1a.1.1 0 0 0 .1-.1h.1a.1.1 0 0 1-.1.1h-.3a.1.1 0 0 1 .1 0zm.3-.3zm0-.2c-.1 0-.1 0-.1.1h.1zm0-2.2zm0 1.3zm0-2.2zm.1-3.4zm.1 1.1c0 .1 0 .1.1.1zm.1 1zm-.1-3.6zm-.1-1.5zm-.1 2.8h-.1a.1.1 0 0 1 .1-.1zm0 2.2zm.1 3.9zm.2-1.4c0-.1.1-.1.2 0H45zm0-8.2h.1a.1.1 0 0 1-.1 0zm0 .1zm.1 6.7zm.5-5.3zm0-.5c.1 0 .1.1 0 .1zm-.1-.7zm0 .1zm0 4.7zm-.1-2.7zm.1-.7zm0-.4zm0-2.5zm0-1zm-.1.7h-.1c0-.1 0-.1.1-.1zm-.1 3.8zm0 .7zm0 2.6c.1-.1 0-.1 0 0zm0-3.8zm-.1 2.7c.1 0 .1 0 .1.1h-.1zm.1 2.7zm0 0zm-.1.7zm0-2.9a.1.1 0 0 1-.1-.1h.1zm-.1-2.2zm0 .5zm0-3.8zm.1 4h-.1c0-.1 0-.1.1 0zm-.1 6.4zm.2-.7zm-.1-.1c0-.1.1 0 .1 0h-.1zm.1-.3a.1.1 0 0 1-.1-.1h.1c0-.1 0-.1.1 0a.1.1 0 0 1-.1.1zm.3-.6zm-.1 1.4zm-.1.6zm.2-3.4h-.4a.1.1 0 0 1 .1-.1c0 .1.1.1 0 .1h.3zm-.2-.5zm.2-.4zm-.1-.8zm.1-2.9c-.1-.1 0-.1 0-.1zm0-4zm-.4 2.9zm0-2.8zm-.2-.7c.1-.1.1-.1 0 0zm-.2 1.3c.1 0 .1.1 0 .1zm0 .6zm-.2 4.4c-.1 0-.1 0 0-.1zm.1.8h-.2c0-.1 0-.1.1-.1zm-.2-7.5zm0-.1zm-.1 1.6zm-.1-1zm-.1-.7c.1-.1.1-.1 0 0zm-.1-.5zm0 14.9zm.1 1.7c-.1.2 0 .1 0 0zm0 .4h.2v.2h-.1c-.1 0-.1 0-.1-.1zm.2-1.1zm.1.9h.1a.1.1 0 0 0-.1.1zm0 2zm0-.8zm.3-3zm0-1.6h-.2a.1.1 0 0 1 .1-.1h.1a.1.1 0 0 1 .1.1h-.1zm.1 1.3h.1c.1 0 .1 0 .1.1h-.2zm.1 1.9h-.1c0-.1 0-.1.1-.1h.1a.1.1 0 0 1-.1.1zm.1-3H45c.1 0 .1 0 .1.1zm.1.8zm.1 1.5h.1s0 .1-.1 0zm.2.2zm.2-.2zm0-.6zm.2.3zm-.2-.6h.1a.1.1 0 0 1-.1-.1zm0-.4zm.1-.1h.1a.1.1 0 0 1-.1 0zm0-4.4zm.1-9.5zm.3 2.8c0 .1-.1.1-.1 0h.1zm0-.1zm.1-.7zm0 .4h-.1a.1.1 0 0 1 .1 0zm0 .3zm.4 1.4c.1 0 .1 0 0 .1zm.5-1.9h-.1c0-.1 0-.1.1-.1zm.2 2.7h-.1a.1.1 0 0 1 .1 0zm0-1.5h.2a.1.1 0 0 1-.1.1h-.1zm.3.6zm.1-.4h.1a.1.1 0 0 1-.1 0zm.2 1.5zm-.1-.6zm-.1 4.7zm-.2.8a.1.1 0 0 1-.1-.1h.1zm-.7 2.3c0-.1 0-.1.1-.1s0 .1 0 .1h-.1zm-.1-3v-.2zm-.1 2.6h-.2c0-.1 0-.1.1-.1-.1 0 0-.1 0-.1h.1zm-.4 1.4h-.2s-.1.1-.1 0h.3c0 .1.1.1 0 .1zm0 .5h.1c0 .1 0 .1-.1.1zm0-.4zm-.3-2.9h-.1a.1.1 0 0 1 .1.1zm0-1.7zm-.1-7.2zm0 .6c-.1 0-.1 0 0-.1zm0 4.3zm.2-.2zm.2 1.3h-.1c0 .1 0 .1-.1.1h.2zm0-2.5zm0-1zm.1.2zm-.1-1.6zm.2.7zm.4 4.1zm0-4zm.3.1c0 .1 0 .1-.1.1h.1zm-.1 1.2h.1a.1.1 0 0 1-.1.1zm.6.6zm-.3 4zm0-.3zm.1-.7zm.1-.8c-.1 0-.1 0 0-.1zm-.1-1.1zm.2 1.3h.1c-.1 0-.1 0-.1-.1zm.1-.4zm0-.3a.1.1 0 0 1 .2 0h-.2zm.1.6zm0 .1h-.1c0 .1.1.1.1 0zm.1-1zm-.2-1h-.2a.1.1 0 0 1 .1-.1h.1zm-.3.3zm0-.7zm-.1.8zm-.1 3.1c-.1 0-.1 0-.1-.1zm-.1-.3zm.1-.9a.1.1 0 0 1-.1.1c0-.1 0-.1-.1-.1h.2zM47 26zm0-.3zm-.3.1zm0-1.5zm0 .4h.1c.1 0 .1 0 .1.1h-.2zm.2-.8zm0 .8h-.1a.1.1 0 0 1 .1 0zm.1-.2zm0-1zm0-1.7s-.1 0 0-.1zm0-1.2zm.1 1.7zm-.1.6zm.2-.1zm0-.5zm-.1 4.5zm.2-4.6zm-.2-2zm-.2.9zm-.1 3.2zm0-1zm-.1-2zm0-.7h-.1a.1.1 0 0 1 .1-.1zm0 2.7zm-.1 3.7zm0-.2zm-.1-.1zm-.3.8zm0 1.1zm.1-.7zm-.2-.6zm0-.5c.1 0 .1 0 .1.1h-.1zm0-.7v-.2h.1c.1 0 .1 0 .1.1h-.2zm.4-.1zm0-2a.1.1 0 0 0-.1-.1h.1zm.1-.2zm-.3-2h.1c.1.1 0 .1 0 .1h-.1zm.3-.2zm0 .4zm0-1.1zm0-.2zm-.3 3.6h.1a.1.1 0 0 1-.1.1zm0 1zm0-1zm-.2-1.7zm0 .8zm.1-3.3c-.1 0-.1-.1 0-.1zm0 .8zm-.2 2zm0 .6zm0 .8s.1.1 0 .1zm0 .8zm0 2.3zm0 .6h.1c.1 0 .1 0 .1.1H46zm.3.6zm.5-2.2zm.2.1zm.1.7h.2c0 .1 0 .1-.1.1h-.1zm.2.4zm0-.3zm0-.6zm.4-1c.1 0 .1 0 .1.1h-.1zm0-1.1zm0 1.7zm0 .2zm.2-1h-.1a.1.1 0 0 1 .1 0zm.1.9h-.1.1zm0-.3zm0-1.5h-.2c0 .1 0 .1-.1.1h.3a.1.1 0 0 1 .1.1H48zm.1-2.4zm-.7-.7zm-.1-2.7h-.2c0-.1.1-.1.1-.2h.1zm-.2.2zm-.1-.9c-.1 0-.1 0-.1-.1h.1zm-.1.6zm0 .1h-.1a.1.1 0 0 1-.1-.1h.2zm-.1.7h-.1.1zm-.1.3c0-.1 0-.1.1-.1a.1.1 0 0 1 .1.1h-.2zm-.1-1.2zm-.1-.8zm.2-.1c0 .1-.1.1-.1 0h.1zm-.1-.1zm0-.3zm0-.2zm-.1 1.1zm-.1-.2zm0 .9a.1.1 0 0 1-.1.1h.1zm-.1.8zm-.2-2.2zm0 .8zm-.1.7a.1.1 0 0 1 .1.1H46zm0-3.3zm-.1.2zm0 4.7zm-.1 1.6h.1c-.1 0-.1.1-.1 0zm.1 3.5s.1 0 0 .1zm0 3.1h-.1a.3.3 0 0 1 .1-.2zm0 1.5zm.1 1.1zm.3-.2h-.1a.1.1 0 0 1 .1.1zm.1-.3zm0-.7zm0-.5h-.1a.1.1 0 0 1 .1-.1zm.2 1.2h-.1c0-.1 0-.1.1-.1zm.2-.8h-.2a.1.1 0 0 1 .1-.1h.1c.1 0 0 .1 0 .1zm.1-1.5a.1.1 0 0 1 .1.1h-.1zm.2.3c-.1 0-.1 0-.1.1h.1zm0-1.3c-.1 0 0 0 0-.1h.1c.1.1 0 .1 0 .2zm.2 2.5zm0-1zm0-1.3h-.1a.1.1 0 0 1 .1-.1zm.1.7zm.2.3zm0-1.8h-.2a.1.1 0 0 1 .1.1h.1zm0-.6zm.1 1zm.1 1.7zm.1-1.1h-.1c-.1 0-.1 0-.1-.1h.2zm-.1-.5h.1a.1.1 0 0 1-.1 0zm.1-.4a.1.1 0 0 1 .1.1zm.1-.1zm.1.2zm0-.6zm.2.2c0 .1 0 .1-.1.1a.1.1 0 0 1 .1.1zm.1-1.2zm.1-.2zm-.2-.7zm-.1.3zm0-.3zm.1-1.7zm0-.5zm-.1-1.1zm0-.6h.1c0 .1 0 .1-.1.1zm-.2-.9zm-.2-.9h.1c-.1 0-.1 0-.1-.1zm-.1.3zm0 .6h-.2a.1.1 0 0 1-.1-.1h.3zm-.1-2zm-.1.9zm-.1-1.5zm-.2-.1zm-.1.4h.1c.1 0 .1 0 .1.1H47a.1.1 0 0 1 .1-.1zm-.2-.7h.1a.1.1 0 0 0-.1-.1zm-.1.5zm0 1.2zm-.3-2.5h.1a.1.1 0 0 1-.1.1zm0 .2zm-.2-.8h.2v.2h-.1zm.1 1.2h.1a.1.1 0 0 1 .1-.1h-.2zm-.2-.4zm-.1-1.2zM46 17zm-.2-2.2h.1c0-.1 0-.1.1-.1h-.2zm0 12.7a.1.1 0 0 1 .1.1h-.1zm0-2.8zm-.2-.9zm.2-.2zm-.1-6.5c.1.1 0 .1 0 .1zm-.2-2zm0 .4zm0-.8zm-.3-.4h.1c.1.1.1.1 0 .2h-.1zm-.1 1.5zm-.2-1.3zm0 .3zm0 .6zm-.2-1.6zm-.1.5zm-.3.9zm-.1-.7c.1 0 0 .1 0 .1zm-.1-.7h.1v.2zm-.2-.4zm-.1.2zm-.2-.6zm-.1 2.4h.1c.1.1.1.1 0 .1h-.1zm0 .5zm0-.2zm-.1-.1zm0 9.7zm0 2.1zm-.1-14.5zm-.1 14.5h.1c.1 0 .1 0 0 .1h-.1zm-.1-14.3zm0 1.3zm-.1.3zm0-.6zm-.1-.6zm-.1 3.8zm-.3-2.2zm0-.3zm0 .4c.1.1 0 .1 0 .1zm0 1.1zm.1-2.5zm-.2-.6zm0 2.4zm-.1-2.6zm-.1-.3zm-.4 1.6c0-.1 0-.1.1-.1h-.1zm.1 1.5zm-.1-1.4zm-.2 2h.1a.1.1 0 0 1-.1-.1zm-.6-.5zm-.1-3zm-.7 5.2s2.8.9 2.8 5.8c0 .5-.1.9-.1 1.2a5.3 5.3 0 0 1-.5 1.5 3.9 3.9 0 0 1-2.2 2.1zm2.1 10.1zm0-.3zm.2 4.1h-.1.1zm0-5.1zm0 .6zm.1 4.2zm0-1.9zm0-.2zm-.5-.4zm0 3.7zm-.4-2zm0-.2zm.1-.3zm.1-1zm0-1.1h.1c0-.1-.1 0-.1 0zm.1 4.8a.1.1 0 0 1 .1.1H42c0-.1-.1-.1 0-.1zm.1-5zm-.6.6zm0 2.7zm-.1 3.2a.1.1 0 0 1-.1-.1h.1zm-.2-2.8zm0 1zm-.1.8zm-.2-3.7zm-.1-.5zm-.2 1.4zm-.4 2.1h.1c0 .1 0 .1-.1.1zm2.6 17.5zm.1 1.6h-.1c0-.1 0-.1.1-.1zm0-1.3zm.8.3zm-3.5-2.9V36.8s5.8 0 5.8 5.6-5.8 5.7-5.8 5.7zm7 1.5zm0-1.6zm-.3 1.8zm0-.6zm-.3-.4zm.1 1zm-.1 1.7zm.1-.9a.1.1 0 0 1 .1.1zm-.6-1.4zm-.3.6zm0 .7zm.1-1.6zm0-.5zm.1-.4zm-.9.6zm0 2zm.1-1s.1-.1.1 0h-.1zm-.6-.4zm-.5-.6zm0 1.6zm0 2zm0-1.2a.1.1 0 0 1 .1-.1h-.1zm.1.6zm.2.4zm.2-.2zm.1-1.1zm.4.5zm0-.4zm.4 1.1a.1.1 0 0 0-.1.1h.1zm.1-.1zm0-.1h-.1c0-.1 0-.1.1-.1h.1a.1.1 0 0 1-.1.1zm.1-2.7zm.2 1.9a.1.1 0 0 0 .1.1h-.1zm.1 1zm.1.3H46c.1 0 .1 0 .1.1zm0-1.8zm.2.7h-.2a.1.1 0 0 1 .1-.1h.1zm.1 0zm.1-.6zm.3 1.3zm0-1.9h.1a.1.1 0 0 1-.1 0zm.3 1.5zm0-.2zm0-.5zm0-.8h.2c0 .1 0 .1-.1.1h-.1zm.1 1.4c0-.1.1-.1.1 0s0 .1-.1 0zm.1.2h.1a.1.1 0 0 1-.1 0zm.3.3c-.1 0-.1.1-.2 0h.2zm0-2.4zm.2 2.4zm.1-.1zm0-.2h-.1a.1.1 0 0 1-.1-.1h.2zm.1-1.2zm.1 1zm.3.4zm0-.7c-.1 0-.1 0-.1-.1h.1zm.2.5h.1a.1.1 0 0 0-.1 0zm.1-1.7zm0 .7a.1.1 0 0 1 .1.1zm.1 1.1h-.1c.1 0 .1 0 .1-.1zm.1-1.6h.1a.1.1 0 0 1 .1.1h-.2zm.1.3zm0 1.2h-.1c.1 0 .1 0 .1.1zm.1-.3zm.1-.4c-.1.1-.1.1-.1 0h.1zm0-.5zm0 .4zm.2.4zm0-.8h-.1c.1 0 .2 0 .2.1h-.1zm.2.7h-.1c-.1 0-.1-.1 0-.1h.1zm.1-.3h-.2s.1-.1.1 0h.2a.1.1 0 0 1-.1 0zm.2-.4zm.2-.6H50a.1.1 0 0 1 .1.1zm0-.3h.1a.1.1 0 0 1-.1.1s-.1 0 0-.1zm0 .3z"/></svg>
