<svg xmlns="http://www.w3.org/2000/svg" width="38.4" height="38.4" viewBox="0 0 31.7 32"><path fill="#231f20" d="M8.2 11.4l.3.3c.5.5.9 1.4-.1 1.7 1 .6 2.2-.3 1.6-1.3h-.1l.6.3h.9a2.2 2.2 0 0 0 1.4-3.5 2.3 2.3 0 0 0-3.8 0v.2h-.9l-.4-.3a1.6 1.6 0 0 1-.4-.7c0-.1-.1-.3-.1-.4l.7.3h.6a1.5 1.5 0 0 0 1.2-1.5c-.6.2-1.1.2-1.3 0h-.1a1.8 1.8 0 0 1-.6-1.4c0-2 2.2-2.9 4.7-2.9v-.6c-2.5 0-4 .2-5.4 1.5a4.1 4.1 0 0 0-1.3 2 4.8 4.8 0 0 0 2.5 6.3zm.6-3.8zm-.2.1zm.1-.1zm-.6.2zm.1-.1zm4.1 3.7zm-1 .4zm-1.7.6zm.3-.2zM7.6 6.6zm.9.2zm0 .4zm-.3.3zm.4-.3zm-.5.1zm-.6.3zM8 9.2zm.4.2zm1-1zm2.8.1zm.5.1zm-.3.4zm.4.2zm0 0zm-2.1 1.9zm1.5-.9zm-2.5 1.2zm.7-.5zm.5.1zm1.6-.8zm-2.2 1.1zm-.1.2zm.1.2zm1.1-.4c-.1 0-.1 0-.1-.1h.1zm-.2 0zm-.4.3zm2.1-1zm-.6.5zm-1 .4zm-.1 0zm-1.1.5zm.3-.1zm.7-.4zm-.3.1zm-.3.1zm-.4.2zm.5-.3zm.1 0zm1.6-1zm-1.7 1zm-1.4.7zm.4-.2zm.2-.1zm1.8-1.1zm-.5.2zm-1.5.7zM9 12zm.7-.5zm-.2.2zm-.5 0h.1c0 .1 0 .1-.1.1zm.2-.2zm.9-.4l-1 .4zm-.3 0zm-2.5-4zm.9 17.8a1.6 1.6 0 0 0-.6.8.1.1 0 0 0-.1.1 3 3 0 0 0-.4 1l-.2.3a3.3 3.3 0 0 0 2.1 4 2.7 2.7 0 0 0 1.2.3c2.9.4 5.3-2.2 2.8-5 .1 1.9-.9 2.7-2.2 2.2a1.3 1.3 0 0 0 .9-1 1.7 1.7 0 0 0 0-1.4c-.2.2-.3.4-.5.5s0 .1-.1 0-.1.2-.2.2l-.7.2a.1.1 0 0 1-.1-.1h-.6a1.2 1.2 0 0 1-.1-1.2.3.3 0 0 1 .1-.2h.1c.6-.7 1.9-1.8 4.7-1.8h2.8v-.6a24.4 24.4 0 0 1-5.9-.2c-2.7-.5-3.9-4-2.1-4.9s1.6 0 1.1.8a1.8 1.8 0 0 0 2.4-2.4c-.7-1.6-3.4-1.9-5.1-.5s-2 6.6 2.8 7.7l-.6.4-.8.5m3.7-7.6zm-.1-.9zm-.3.1zm-.2-.6zm-.5-.2zm0 .7zm-.1-.9z"/><path fill="none" d="M21.2 12.4h-.7v10.4H22c2.4 0 3-1.8 3-4.6v-1.7c0-2.5-.8-4.1-3.8-4.1zm3-4.6V6.3c0-2.9-.5-4.1-2.7-4.1h-1v9.6h.8c2.2 0 2.9-1.4 2.9-4z"/><path fill="#231f20" d="M25.2 11.9c3.3-.5 5.2-2.1 5.2-5.1s-3.2-5.1-8.7-5.1h-9.3v.6h1.1a.9.9 0 0 1 .9.9v18.7a.9.9 0 0 1-.9.9h-1.1v.6h9.1c5.9 0 10-1.2 10-6.1 0-3.3-2.3-4.9-6.3-5.4zm-4.7-9.7h1c2.2 0 2.7 1.2 2.7 4.1v1.5c0 2.6-.7 4-2.9 4h-.8zm4.5 16c0 2.8-.6 4.6-3 4.6h-1.5V12.4h.7c3 0 3.8 1.6 3.8 4.1zM7.6 23.4c-4.1-3.2-2-7-1.6-8.2-1 .4-1.4 1.4-1.7 2.7s-.1.1-.1 0C3.3 15.7 2 15.1.4 15.7c2.1.4 2.9 2.1 3.4 3.8a5.6 5.6 0 0 0 3.7 4c.1 0 .2-.1.1-.1zM4.7 4.3c-1.4 4.4.1 6.5 2.3 8.2h-.1a5.1 5.1 0 0 1-3.8-6.2H3c-.4.3-1.7 1.6-2.9 1.5 1.5-.6 2.2-1.9 3-3.4A6.6 6.6 0 0 1 9.6.7c.1 0 .1.2 0 .2a6 6 0 0 0-4.9 3.4z"/></svg>