<svg xmlns="http://www.w3.org/2000/svg" width="38.4" height="38.4" viewBox="0 0 31.7 32"><path d="M8.9 25.6c-3.2-2.4-1.5-5.4-1.3-6.2s-1.1 1-1.2 2-.1.1-.2 0c-.6-1.7-1.6-2.1-2.9-1.6 1.6.2 2.3 1.5 2.6 2.9a4.5 4.5 0 0 0 2.9 3c.1 0 .2 0 .1-.1zm-.5-14.5s-1.8.1-2.4 1.1c1-.7 2.3-.5 3.7-.3s2.4 1.2 2.5 2.2a4.5 4.5 0 0 1-.1 1.1l.3-.4a3.6 3.6 0 0 0 .4-.9c0-.1 0-.2.1-.2v-.2h-.1a3 3 0 0 0-2.5-2.5C6.6 10.1 6.1 7.8 6 5.6a4.1 4.1 0 0 0 2.4 5.5zm4.4 2.1zm-.6 1.5zm.1-.7zm.1-.2a.1.1 0 0 1-.1-.1h.1zm0 .3zm.2.1zm-.1-.3zm0 .6zm0-.2c-.1-.1-.1-.1 0-.1zm0 .4a.1.1 0 0 0-.1.1h.1zm-.1-.3zm0-1.3zm-.1-.6zm0 .5zm0 .5zm-.1-.3zm-.1.2zm-.1-1.3zm-.2.7z"/><path d="M26.5 25.5h.1l.5-.3.2-.2a1.8 1.8 0 0 0 .7-1h.1a1.9 1.9 0 0 0 .2-.8c.1-.2.1-.5.2-.7v-.8a2.2 2.2 0 0 0-.1-.9c-.3-3-2.9-4-4.6-4.2l.5-.3a1.3 1.3 0 0 0 .7-.6c.1 0 .1 0 .1-.1V15h.1v-.3a.4.4 0 0 0 .1-.3h.1a2.2 2.2 0 0 0 .1-.8V12h-.1v-2a6.4 6.4 0 0 0-.2-.7h-.1A.4.4 0 0 0 25 9h-.1l-.3-.6h-.2l-.3-.3-.2-.2h.1l-.3-.2C22.6 6.1 21 6 19.1 6c-4 0-5.1 2.4-8.8 1.5s-1.5-5.4-.1-4.2h.1a2.3 2.3 0 0 1 .5 1 1.4 1.4 0 0 0 .6-1.5l-.2-.5c-.2-.2-.3-.4-.5-.4l.4-.2h.8l.4.2h.2a.7.7 0 0 1 .1.5.1.1 0 0 0-.1.1c-.6.8-.7 3 1.4 3.2h1a2.1 2.1 0 0 0 1.2-2.5c-.1-.2-.1-.4-.2-.5a.3.3 0 0 1-.1-.2l-.5-.5h.1a1 1 0 0 0 .5-1.7c.1.9-.8 1-1.4.8h-.6l-.8-.4a.1.1 0 0 1-.1 0h-.4a.1.1 0 0 1-.1-.1h-1.1a4.3 4.3 0 0 0-3.2 1.1h-.1a4.5 4.5 0 0 0-1 1.8c-1.5 4.4 3.1 6.6 5.1 7.2s1.9.9 2 1.9V14a1.6 1.6 0 0 1-.3.9h-.1c0 .1-.1.2-.2.3l-.7.5-.5.2h-.2c-.1 0-.1.1 0 .2h.3c.1 0 .1 0 .1.1h.2l.3.3.3.2.2.2c.1.2.1.3.2.4l.2.4c0 .3.1.6.1.9a2.8 2.8 0 0 1 .1.9c0 2.1-1.6 2.6-2.8 2.8a.2.2 0 0 0-.2.2.4.4 0 0 1 0 .5l.2.2h6.9l.2-.2v-.5c0-.1 0-.2-.1-.2s-1.5-.5-1.6-1 .1-6.5.1-9.5c0-1.1 1.1-1.8 1.7-1.6-.5-1.5-1.6-1.4-2.1-1.6a10.2 10.2 0 0 1 3.5.3v5.9a7 7 0 0 0-1.4 1.5 4.9 4.9 0 0 0 1.4 1.2v7.2h-8.4c-2.2 0-3.1-2.7-1.7-3.4s1.2 0 .8.6a1.4 1.4 0 0 0 1.9-1.9c-.6-1.2-2.6-1.5-4-.4s-1.3 5 2.4 5.8l-.7.4-.6.4-.5.5c.1 0 .1.1 0 .1s-.1-.1 0-.1a1.8 1.8 0 0 0-.5.7 3 3 0 0 0-.4.8.4.4 0 0 1-.1.3 2.6 2.6 0 0 0 1.6 3l.9.3c0-.1 0-.1.1 0 2.2.3 4-1.8 2.1-3.9 0 1.4-.7 2-1.7 1.7a1.1 1.1 0 0 0 .7-.8 1.7 1.7 0 0 0 0-1l-.4.3h-1.3a.9.9 0 0 1-.1-1 .1.1 0 0 0-.1-.1h.1c.1-.1.1-.1.1-.2.1-.1.1-.1.1 0s1.5-1.1 3.6-1.1c4.1 0 5 .2 7.3.2a21.5 21.5 0 0 0 3.6 0 3.5 3.5 0 0 0 1.1-.3h.6zM11.4 3.1zm-.1-.2zm0 .1zm-.1-.5zm0 .1zm-.2.1zm.1.3zm-.1-.6zm4.9 1.9zm-.1-.9zm.2-1.6zm-.4-.2zm-.1.1zm0 .3zm-6.2-.4zm.3 0zm0 .4zm0 .6s0-.1.1 0h-.1zm.2 0zm.2-1.3zm0 1.3zm.1-.7zm0 .1s.1-.1 0 0zm.1.3zm.2-.1zm0 .4h.1a.1.1 0 0 1-.1.1zm0-.1zm.1 1zm0-1.3zm0-.2zm.1 1.2zm0-1.8zm.1 1.1zm.2.5zm0 .1zm-.1-1zm0 .6zm0-.4zm0-.2zm-.1-.2zm.3-.5zm-.1-.1zm.3.2zm.2 0zm.1-.1zm0-.1zm.4-.1zm.1 0zm0 .4zm.2.2zm0-.6zm0-.1zm0 0zm0 .2zm0 .5zm.1-.3zm0-.2zm0 .3zm.1.2zm.1-.1h.1a.1.1 0 0 1-.1.1zm.1-.2zm0-.2zm0 .8zm0 .7h-.1a.1.1 0 0 1 .1-.1zm.1-.7zm.2-.9zm0 .1zm-.1-.1h-.1a.1.1 0 0 0 .1-.1zm.2 1.4h.1a.1.1 0 0 0-.1.1zm.2-1.5zm0 0zm0 .3zm.1-.1zm.5.6h.1a.1.1 0 0 1-.1.1zm.2-.1zm.1.4zm.1-.1c0 .1 0 .1-.1 0h.1zm.1-.2zm0 .1zm0-.1zm.2 1.8zm0-.6zm0-.3zm0-.4zm-.3.1zm.1.1zm.1.1zm0 .4h-.1a.1.1 0 0 0 .1-.1s.1.1 0 .1zm-.1-.5zm-.1.3zm0 .2zm.1-.3zm0 .6zm0 .7zm0-.3zm.1 1.2zm0-1.2zm0-.3h.1a.1.1 0 0 0-.1.1zm0 .1c.1 0 .1 0 .1.1h-.1zm.1-1.4zm-.1-.3zm0-.3zm0 0zm-.1.8zm-.5 1.7zm0 0zm-.1-.4a.1.1 0 0 1 .1.1h-.1zm-.2.3zm0 .4zm0-.6zm0 0zm0 0zm.1-.7zm0-.1zm0-.7zm0 .1a.1.1 0 0 1-.1-.1zm0 .5zm.2 0zm.1-.8zm0 0zm.2.6zm0 .4zm0-.1zm-.1.4h-.2a.1.1 0 0 0 .1-.1h.1zm-.1.2zm0-.7zm0-.1zm0 .3zm-.1.2zm.2-.8zm-.1.1zm0-.2zm-.1-.1zm0 1.2zm-.1-.4zm0 .3h-.1a.1.1 0 0 1 .1-.1zm-.1.2zm0 .4zm.2-.4zm.1 0zm0 .4zm0 .7zm.1-.8zm0-.2a.1.1 0 0 1 .1.1zm0 .2zm.1-.6zm0-.9zm-.2-.6zm-.1.8h-.1c-.1-.1-.1-.1 0-.1h.1zm-.1-.2zm-.1-.1zm0-.4zm-.1.2h.1a.1.1 0 0 1-.1-.1zm0 .3zm-.3.8zm.1.2h-.1c.1 0 .1 0 .1.1zm-.1-.1a.1.1 0 0 1-.1.1h.1zm-.3-.4zm0 .2zm0-.1h.1a.1.1 0 0 1-.1.1zm.1 1.9zm0-1.8zm.1-.3zm.1-.4zm0-.4zm.2-.2zm0-.5zm0 .1zm0 .2zm0-.2zm-.1 1h.1a.1.1 0 0 1-.1-.1zm0-.1zm.1-.3c-.1 0-.1 0-.1-.1h.1zm-.1 0a.1.1 0 0 1 .1.1h-.1zm0-.1zm-.1.4zm-.1.5zm.1.1zm.1-.3zm0 .1zm.1.2zm0 .1zm.1-.4zm0-.6zm0-.5zm0-.3zm0 .1h-.1a.1.1 0 0 1 .1 0zm-.1-.1zm-.2.4zm-.1.6a.1.1 0 0 1 .1.1h-.1zm0 .1zm0 .3zm0-.6zm-.2-.2zm0 .4zm0-.3zm0 .2h-.1s0-.1.1 0zm-.2-.1zm.1.4zm.2-.1zm0-.1zm0-.2zm0-.3zm0-.4zm-.3.2zm0 .9c0-.1 0-.1.1 0h-.1zm0 .1h-.1a.1.1 0 0 1 .1 0zm-.1.7zm0 .2zm0 0h.1c-.1 0-.1 0-.1-.1zm.1 0zm0-.1zm0-.2zm0-.2zm0-.2zm-.1.4zm0-.2zm-.1-.1zm0 .4zm0 .2a.1.1 0 0 1-.1-.1zm-.1.2zm-.2.2zm0-.2zm0-.3zm.1 1.3zm.1-.6zm0 .2zm0-.3zm0-.3zm.1 1.1a.1.1 0 0 1-.1-.1h.1zm0-1.1zm0-.7zm0 0zm.1.1h-.1a.1.1 0 0 1 .1-.1zm0 1zm0-.2zm0-.2zm.1.7zm0-.2zm0 .6zm.1-.3zm0-1.3zm0-.4a.1.1 0 0 1 .1.1zm.1 1.7zm0-.8zm0-.1zm0 .8zm.1 1zm0-.2zm0-1.2zm.1-.2zm0 0zm0 .4zm.1.4zm0-.7zm0 0zm.1.5zm0-1.3zm0 2.2zm.1-.3zm0-.5zm0-1zm0 1.1zm.1.4zm0 .6zm.1-1.4zm.1 1.1zm0-.7zm0-.3c.1 0 .1 0 .1.1zm.1.8zm0 .8zm.1-.9zm.1.5zm0-.1zm.1-.6zm0-.5zm.1.1zm0-.3zm0-.3zm.1.6c0 .1.1.1 0 .1zm0 1.3zm0 0zm.1-.5zm0-.8zm.1-.2zm0-.4zm0 .8zm.1.1zm0-1.6zm0-.5zm0 1.1zm.3-.4zm0-.3zm0 1.9zm0-1.4zm0-.7zm-.2.4h.1c0 .1 0 .1-.1.1zm.1.1zm0-1zm.1-.1zm-.1.2c0 .1-.1.1-.1 0h.1zm0 .4zm-.1 1h.1c-.1 0-.1.1-.1 0zm0-.7zm0 .3zm0 .7zm.1-.1zm0 1.9s.1.1 0 .1zm.1-.5zm0-.9zm0-1.1zm.1.1zm0 1.3zm0 .3zm.1-1.2zm0-1zm-.1-.1zm.1-.2zm0 0zm.1 0zm.2 1.1zm-.1-.2h.1c-.1.1-.1.1-.1 0zm.1-.3zm.1 2.1zm.2-.2zm-.1-.6zm0-.9zm-.1-.1zm0-1.1zm0 .2zm0 .8zm-.1-.3zm0-.3zm-.1-.4zm0 .6zm.1 0zm-.1 1.8zm0-1.8zm0-1.5zm0 .4zm0 .2h.1a.1.1 0 0 1-.1.1zm-.1-.5zm0 2.5zm-.1-.5zm0 .6zm0-2.1zm0-.4zm-.1-.2zm0 1.3zm0 .2zm0-.4zm-.1-.3zm0-.2zm0-.4zm-.1.1zm0-.2zm-.1.6zm0 .4a.1.1 0 0 1 .1.1h-.1zm-.1-.7zm0 .9zm0-1zm-.1-.4zm0 .3zm-.1-.4h.1a.1.1 0 0 1-.1-.1zm.1.2zm-.1.1h.1c-.1 0-.1 0-.1-.1zm0-.3zm-.1.1zm0 .1zm-.1-.3zm-.1.4zm0-.3zm-.1.1zm0-.2zm-.1.1zm0 .1zm0 .2zm0-.4zm0 .5zm-.1-.3zm0 .4zm-.1 0zm0-.2zm0-.3zm0 .1zm0 .5zm-.1-.8zm0 .4zm-.1.2zm0-.7zm-.1 0zm0 0zm-.1.1zm0 .2zm-.1-.3zm0-.1zm-.1.5zm0 .3zm0 0zm-.1-.4zm0-.3zm0-.1zm-.1.1zm-.1-.2zm-.1.2h.1c-.1 0-.1 0-.1-.1zm0 .3zm0 .1zm0 .5zm-.1-.8h-.1a.1.1 0 0 1 .1-.1zm-.1-.1zm-.1.4zm0-.2zm0-.4zm-.1.1zm-.1 0zm-.1 0zm0 .6zm0-.1zm-.1-.2zm0-.5zm0 .2zm-.1.2zm-.1.4zm0 0zm-.1-.7zm0 .5h.1a.1.1 0 0 1-.1-.1zm0 .3zm-.1-.1zm.1-.3zm-.2-.2zm0 .2zm0-.1zm-.1.3zm0-.2h-.1c0-.1 0-.1.1 0zm-.2-.5zm0 .2zm-.1.4h.1a.1.1 0 0 1-.1-.1zm-.2-.3zm-.1.3zm0 .5c-.1-.1-.1-.1 0-.1zm0-.2zm-.1-.8zm-.2 0zm0 .4zm-.1.2zm-.1.5zm0 .4zM10.1.8zm0 .6zM10 1h.1a.1.1 0 0 1-.1 0zm0 .1zM9.8.9zm0 .4zm0 .5zm-.1-.2zm0 .4a.1.1 0 0 1-.1 0zm-.2-.6zm0 1zm-.1-.3zm0 .2h.1a.1.1 0 0 1-.1.1zm-.2-1.2zm-.2.2zM8.9 3H9c-.1 0-.1 0-.1-.1zm-.1-1.2zm-.1.3zm-.4 1.3a.1.1 0 0 1 .1.1h-.1zM8 2.6zm6 9.1zm-1.6 4.7zm.2-.3zm-.1.3zm.1-.2a.1.1 0 0 0-.1.1h.1zm0 0zm.1 0zm0 .3zm.1-.4zm.1.4zm-1.2 7.1zm.8-.2zm2.7-9.4zm0-1zm-.1 1.8zm0 2zm0-2.5zm0 2.1zm-.2-1zm0-1.1zm0-1.3zm-.1.6zm0 1.8zm0-.3zm0 .7zm0-1.1zm-.1-.2zm0 .3zm.1-.5zm-.1-.7zm0-1.1zm0 1zm0 1.4zm-.1 1.6zm.1.4zm-.1-2.8zm0 1.8zm-.2 1.2zm0-.6zm0 1.2zm0 0zm-.1.6zm0-.6zm0 .5zm-.3-1.8zm0-.5zm.1.2zm.2-1.3h-.1c0-.1 0-.1.1-.1zm0-.3zm0-.2zm-.1.2zm0 .6zm0 .9zm-.1.1zm0 .4zm.1-.2zm.1.4zm0-.5zm0-.6zm0 2.1zm0 .4zm0-1.1h.1c0 .1 0 0-.1 0zm.1-1.7zm0 .1zm0 .3h.1a.1.1 0 0 1-.1.1zm0 .3zm0-.1zm0-.3zm0 1zm0-.5zm.1-.1zm0-.6zm0 .1zm0 .5zm.1.5zm-.1-1.5zm0 0zm0 2zm0 .3zm0 .8zm.1-.9zm0-3.5zm-.1.8zm0-.1zm-.1-1.3zm0 1.3c.1 0 .1 0 0 .1zm0 .4zm-.1-.5zm0-.3zm0-1.4zm-.1.7zm0 .3zm0 .2zm0 .4zm-.1.6zm0 .6zm0 .1zm-.1-.2zm-.1 1.6zm0 .1zm0-.3zm.1-.5zm-.1-1.1zm0 .7zm-.1-.1zm0 .3zm0 .6zm0-.2zm0 .2zm-.1-1.2zm0 1zm0 .3zm-.2-1zm0 .3zm.1.6zm-.1-.3zm-.1-.5zm-.1 0zm-.1.5zm0 .2a.1.1 0 0 1 .1.1h-.1zm-.3-.3zm.1.1zm.1.4zm-.1-.5zm.1.2zm.2.5zm0-.5zm0-.4zm.1 0zm-.1.5zm0-.1zm.1.2zm.1.4zm0-.3zm.1.5zm0 .2zm.1-.4zm0-.1zm0 .1zm0 .2zm.1.2zm.1.1zm0 .5zm0-.3zm.1-.1zm0-.5zm0 .2h.2c0 .1 0 .1-.1.1H14zm.1.3zm.1.5zm0-.1h-.1a.1.1 0 0 0-.1-.1h.2zm0-1.2zm0 .4zm.1 2zm0 .2zm0-.5zm0-.5zm.1.4zm0-.6zm0-.6zm0-.4zm.1 1.4zm0-.3zm0 .4zm.1.9zm0-.7zm0-1.3zm.1 1.7zm0-1.5zm0-1.5zm0-1.1zm.1.7zm0 .6zm0 1.5zm0-.4zm0 .5zm0 .6zm.1-1.4zm0-.3zm0-1.6zm0 1.8zm0 2.4zm.1-1.7zm0-2.2zm0-.1zm0 .4zm0 1.5zm0-.7h.1a.1.1 0 0 1-.1 0zm0-2zm.1 1.9zm0 .3zm0 .8zm0 .8zm.1-.1zm.1-2.4zm0-.4zm0 1.6zm0-3.4zm.2 1.1zm.1 2.3h.1a.1.1 0 0 1-.1 0zm-3 3.4zm-.1-.7zm-.2.1zm-.2-.5zm-.3-.2zm0 .6zm-.1-.7zm-2.3 4.9c-.1 0-.1-.1 0-.1zm2.4 4.9zm-.1-.1zm-.4.4zm.1-.3zm.2.2zm0-.2zm.1-.2zm0-.2zm-.2-.3h.2a.1.1 0 0 0-.1.1h-.1zm0 .8zm0-.5zm-.1-.1zm0 .7zm-.1-.1zm0-.2zm0-.5zm0 .1zm-.1-.2zm-1.3.1zm-.2.6zm-.2 1a.1.1 0 0 1-.1-.1h.1zm0 .2zm-.2-.8zm0 .6zm-.2-.3zm0 .2zm0-.6zm0-1.1zm0 .5zm0-.1zm0 .2zm.1-.6a.1.1 0 0 1 .1-.1h-.1zm.2.1zm.1-1.1zm0 .1zm0 .3zm0 .1zm-.1 1.3zm0-.1zm.1-.5zm0 .9h.1a.1.1 0 0 0-.1.1zm0-.1zm.1-.1zm0-.7zm-.1-.4zm0 .5zm-.2.2zm-.1-.2zm.1.5zm.1.8c-.1.1-.1.1 0 0zm0-.3zm.1.1h-.1a.1.1 0 0 1 .1 0zm0 0zm.3-1.7zm0 .2zm0-.7zm-.1.6zm-.1.1zm0 1.1zm0 .6zm0 .1h.1c-.1 0-.1 0-.1-.1zm0 .3zm.1-1.5a.1.1 0 0 1-.1-.1h.2c0 .1 0 .1-.1.1zm.1-.3zm.1-.7h-.1a.1.1 0 0 1 .1.1zm0 .3c-.1 0 0 0 0 0zm0 .2a.1.1 0 0 1 .1-.1h-.1zm.1.4zm0-.8zm-.1-1zm0 .2zm0-.7zm-.1.3zm0 .8zm0-1.3zm-.1.1zm0 .6zm-.1.4zm0 .6zm0-.4c0 .1 0 .1-.1.1h.1zm0-.9zm-.1-.1c0 .1 0 .1.1.1zm0 .3zm-.1-.1zm0 1zm0 .2zm-.1 0c0-.1-.1-.1 0-.1s0 0 0 .1zm0-.2zm0-.7h-.1a.1.1 0 0 1 .1 0zm-.1.1zm0 .6zm0 .6zm0 0zm-.1-.5zm0-.1zm0-.3zm-.1-.5zm0 .3zm0 .8zm0 .6zm-.2-1.4zm.2 2.7zm0-.2zm0-.5zm-.1-.4zm-.1.3zm0 .2zm0 .6zm-.2-1.2zm0 .3zm0-.7zm.1 1zm0-.8zm0 .5zm.1-.4zm0-.2zm.1.3zm0-.7zm-.1-.2zm.1.8zm-.1-1.1zm0 .7zm0 .1zm-.1-.3a.1.1 0 0 1 .1.1h-.1zm0-.4zm0 0zm-.1.1zm0 1.2zm0-.1zm-.1-.6zm0 .9zm0-.7zm0 .2zm-.2.2zm0-.1zm.1 1.2zm0-1.1zm0 .8zm.1.6zm0-.5zm.1 0zm0-.2h-.1a.1.1 0 0 1 .1-.1zm0 .5zm.1.3zm0-.2zm0-.6zm.1-.3zm0-.2zm0 1zm0-.6zm.1 1.3zm0 .2zm0-1zm.1.6zm0-.3zm0-.1zm0-1zm0-.1zm0 1.5zm.1.5zm0-.4zm0-.3zm.1.8zm0-.6zm0-.9zm0-.4zm0-.1zm0 .1zm.1 1.3zm.1.3zm0-.3h-.1a.1.1 0 0 1 .1-.1zm.1-.1zm0 .7zm.1 0zm0-.4zm0-.2c.1.1.1.1 0 .1zm.1.5h-.1a.1.1 0 0 1 .1-.1zm0-.1zm0-.2zm.1-1zm0-.8zm.2.4zm.1.6zm0 .2zm0-.5zm-.2.3zm0-.6zm0-.1zm-.1.2zm.1.2zm-.1.2zm0 .2zm.1 1.1zm0 .4h-.1a.1.1 0 0 1 .1-.1zm0-1.2zm0-.3c0-.1 0-.1.1-.1h-.1zm.1.1h.1c0 .1 0 .1-.1.1zm.1.7zm0-.6zm0-.5zm0-.2a.1.1 0 0 1 .1.1zm0-.5zm.1 2.2zm.2-2.4zm.1 0zm-.1.2a.1.1 0 0 1-.1-.1s-.1 0 0-.1h.1zm-.1.4zm-.1.1zm0 1.1zm.1-1h-.1a.1.1 0 0 1 .1-.1zm0 .8zm0 .2zm0-.3h.1c.1 0 .1.1 0 .1h-.1zm.1-.2h-.1c0-.1 0-.1.1-.1zm-.1-1.1zm-.1 1.1zm0 1.2zm.1-.4zm.1.4zm.1 0h-.1c-.1 0 0 0 0-.1h.1zm0-.6zm0-.1zm0-.7zm0-.2zm.1.7zm0-.3zm0-.2zm0 .2zm.1.8zm0-.5zm0-.1zm0-.6zm.1.2zm-.1-.7zm0-.1c.1 0 .1.1 0 .1zm.1-.2zm0 1.7zm.1.2h-.1a.1.1 0 0 1 .1-.1c.1 0 .1 0 .1.1h-.1zm0-1.6zm0 .4zm.1.8zm0 .3zm0-.9zm0-.3zm0 0zm-.1 0zm.1 1.8a.1.1 0 0 1-.1-.1h.1zm0 .2zm.1.1zm.1-.9zm0-.4zm0 .6zm1 .2zm-.2-.9zm-.3.4zm0 .8zm-.1-1.4zm-.1.8zm-.1-1zm0 1.9zm-.1-1.6zm0-.1zm0-.2zm-.1 0zm-.1-.2zm0 .2zm0 .2zm0-1.1zm0 1.7zm0-.6zm-.1-1.1zm-.1-.3zm0 .2zm-.1-.2a.1.1 0 0 1 .1.1h-.1zm-.1-.1zm0 1zm0-.1zm0-.8zm0 .2zm-.1.4zm-.1-.6zm0 .1zm-.1-.3zm0 .2zm-.1-.2zm-.1.4zm-.1-.1zm-.1-.6zm0 .7zm.2-1.7zm0-.6zm-.1-.1zm.1.4zm.1-.1zm0-.2zm.8-.7zm-1-1.1a.1.1 0 0 1-.1-.1zm.3-.2a.1.1 0 0 1-.1-.1c0-.1 0-.1.1-.1zm.4.7zm.2-.5zm0 .4zm-.5 1.1zm0 .1zm.1-.1zm.1.1zm0-.4zm.1.6zm.1-.2zm.2-.4zm.1-.1zm.2.3zm.1-1zm.1.6zm.1-.7zm.2.7zm.3.1zm0-.7zm.1-.2zm.1.8zm.1-.9zm.5 0zm.3.9zm.2 0c-.1.1-.1 0-.1 0h.1zm.1-.7zm.3.5zm0-.7zm.1.9zm.4-.3zm.7-.2zm11.5-.3zm0 .4zm.1-.2zm-.1-1.2zm0 .7zm0 .9zm.1-.1zm0-1zm.2.4zm-.1-.2zm0 .1zm0-.7zm.1.1zm0 0zm0-.3zm0-.2zm0 .1zm0 .9zm0-.2zm.1-.9c.1.1 0 .1 0 .1zm0 1zm0 .5a.1.1 0 0 0-.1-.1h.1zm0-.2zm.1-.3zm0 .4zm.1-.3zm-.1-1zm0 0zm.2.7zm0-.1zm-.1-.8zm.1.9zm.1.5zm.1-.1zm0-2.1zm0-.1zm.1 1.1zm0 .6zm-.1-1.5h-.1.1zm-.1-.3zm0 1.4h.1a.1.1 0 0 1-.1-.1zm.1.7zm.1-.2h-.2c.1 0 .1 0 .1.1h.1zm0-.7zm.1.7zm.1-.2zm.2-2.3zm0-.9zm0 1.2zm0 1.3zm-.1.3zm-.1-.6zm.1-1.8zm0 1.2zm0 .4zm-.1.1zm0 .3zm0 .6zm0-2.1zm-.1 1.7zm.2.5zm0-.2zm0-.1zm.1 0zm0-.5zm.2.1zm0-.3zm.1-.5zm.1-.7zm-.1.2zm0 .3zm-.1-.6zm0 .9zm-.1.2zm0 .3zm0-.1zm0-.2zm-.1-2.9zm-.1 1zm-.1-1.4zm0 2.8zm-.1-1.7zm0 2.9zm-.1-.2zm0-1.5zm0-.7zm-.1.5zm-.1-.1h.1a.1.1 0 0 1-.1.1zm-.1.7zm0 .5zm0 .5zm0 .4c.1 0 0 .1 0 .1zm0 .1c.1 0 .1 0 .1.1h-.1zm0-1.5zm0 .3a.1.1 0 0 1-.1.1h.1zm-.1-.4zm0 .8zm0 .1zm-.1-.4zm0 .5c0-.1 0-.1.1-.1h-.1zm0 1.1h.1a.1.1 0 0 0-.1.1s-.1-.1 0-.1zm0-.9zM27 21zm0 2zm-.1-1.7zm0 .5zm0 1.5zm-.1-.6zm0 .1zm0 1zm0 .1zm0 1.2zm-.1-.8zm0-2.2zm-.1 0zm0 .5zm0 .7zm-.1 0zm0-.4zm0 .4zm-.1.4zm0 .8zm0-.1zm0 0zm0-1.6zm-.1 1zm0 .7zm0-1.7zm-.1 1.5zm0-.5zm0 .2zm0 .4zm0 .1s-.1 0 0-.1zm0 .5zm.1-1.4zm0-.1h-.1a.1.1 0 0 0 .1 0zm-.1-1.7zm0 .8zm-.1.3zm0 1.4zm0 .3zm0-.3zm0 .5zm0 0zm0-.8zm-.1.3zm0-.4h-.1a.1.1 0 0 1 .1 0zm-.1 1zm-.7-8zm.6 7.8zm0-.1zm-.1-.9zm0 .5zm0-.2c0-.1 0-.1-.1-.1h.1zm-.1 1.6zm0-.2s-.1 0 0 0zm0-.1zm0-.3zm0-.5zm0-.3zm0-.5zm-.1 1zm-.7-8.1zm.7 7.9zm-.1-.2zm-.1.2zm0 .3zm-.1-.6zm0 .2zm-.7-7.7zm.7 8.2zm-.7-8.1zm-.1-.1zm-.2.7zm-.2-1zm-.1 1.1zm0-.8zm-.1.5zm.1-1.8zm-.5 1zm-.2 1.4zm-.1-1.2H23c0-.1 0-.1.1-.1zm0-.2zm-.1-1.2zm0 .7zm-.1-1.5zm-.1-1zm.1 2zm0 .6zm0 1.1zm.1-2.4zm0 .3zm-.1-.7zm.1.1zm.1-.1zm0 .5zm-.1-.9zm0 .3zm0-.8zm0-5zm0 .2zm.1-.1zM23 8zm0-.4zm0 7.3zm.1.8zm.1-.5zm0-.8zm0-.4zm0 3.3zm0-1.7zm.1-.7zm0-6.2zm0-.4zm.1 2.7zm-.1-3.5zm0-.5zm.1 7.7zm-.1-1.1zm0 .1zm.1-.7zm0-1.2zm-.1 0zm0 2.3zm.1.7zm.1-.4zm0-1.4zm0-5zm0-.5zm-.1-.1zm-.1 4.9zm0 3.4zm0 1.5zm.1-.9zm0 .6zm.1-1.1zm-.1-.2zm.1-.5zm.3-5.7zm0-.7zm.1-.8zm.2.3zm0-.3zm.1.2zm.1 1.7zm0-.1zm0 .5zm0 1.1zm0 2.4zm0-1.1zm.1 1.9zm0 .3zm-.1-.7zm-.3.8zm0 .1zm-.1-.9zm0 1.1c0 .1 0 .1-.1.1h.1zm-.2.2zm-.2-1.4zm0-3.8zm.1 2.8zm.1-.1zm0 .9s-.1 0 0-.1zm0 .5zm-.1-.7zm.1 0zm0 0zm0-.4zm0-.6zm0 0zm0-1.9zm0-1.5zm0 2.9zm-.1 1.1zm-.1-.6zm.1-2.2zm0 2.2zm0-3.8zm0-.2zm0 .1zm0 1.7zm-.1 3.5zm0 .4zm.1.1zm0 .1zm0 .1zm0 1.3zm0-1.3zm.1.3zm.1-.1zm0-.1zm0-1.1zm0 .6zm0-1.1zm.1-1.7zm.1.6zm0 .5zm-.1-1.8zm0-.8zm-.1 1.4zm0 1.2zm.1 1.9zm.1-.7zm0-4.1zm0 0zm0 3.4zm.3-2.6zm0-.3zm-.1-.4zm0 .1zm0 2.4zm0-1.4zm0-.4zm0-.2zm0-1.2zm0-.5zm0 .4zm-.1 1.9zm0 .3zm0 1.3c.1-.1.1 0 0 0zm0-1.9zm0 1.4zm0 1.3zm0 0zm0 .3zm0-1.4zM24 11zm.1.3zM24 9.4zm.1 1.9zm-.1 3.2zm.1-.3zm0-.1zm0-.1zm.2-.3zm-.1.7zm0 .3zm.1-1.7zm-.1-.3zm.1-.2zm-.1-.4zm.1-1.4zm0-2zm-.2 1.5zm0-1.5a.1.1 0 0 0-.1.1h.1zm-.1-.3zm-.1.7zm0 .2c-.1 0 0-.1 0-.1zm-.1 2.3zm0 .4zm-.1-3.8zm0 0zm0 .7zm-.1-.4zm0-.4zm0-.2zm-.1 7.4zm.1.8zm0 .2zm.1-.5s-.1 0 0-.1zm0 .4h.1a.1.1 0 0 0-.1.1zm0 1zm0-.4zm.2-1.4zm0-.9zm0 .7h.1a.1.1 0 0 1-.1-.1zm.1.9zm0-1.5zm.1.4zm0 .8zm.1.1zm.1-.1h-.1a.1.1 0 0 1 .1-.1zm0-.3zm.1.1zm-.1-.2zm0-.3zm.1 0zm0-2.2zm0-4.7zm.2 1.4zm0-.1zm0-.4zm0 .2zm0 .2zm.2.7zm.3-.9zm.1 1.3zm0-.8zm.1.3zm.1-.1zm.1.7zm-.1-.3zm0 2.4zm-.1.3zm-.4 1.2zm0-1.5zm-.1 1.3c-.1-.1-.1-.1 0-.1zm-.2.7s.1 0 0 .1zm0 .3zm0-.3zm-.1-1.4zm0-.9zm-.1-3.6zm0 .3zm0 2.2zm.1-.1zm.1.6zm0-1.2zm0-.5zm.1.1zm-.1-.8zm.1.3zm.2 2.1zm0-2zm.2 0zm-.1.6zm.3.3zm-.1 2zm0-.1zm0-.4zm0-.3zm0-.6zm.1.6zm.1-.1zm0-.2zm0 .3c.1 0 0 0 0 0zm0 .1zm.1-.6zm-.1-.5zm-.2.2zm0-.4zm0 .5zm-.1 1.5zm0-.1zm0-.5zm-.1.9zm0-.2zm-.2.1zm0-.7zm0 .1zm.1-.3zm0 .4zm.1-.1zm0-.6zm0-.8zm0-.6zm0 .8zm0 .4zm.1-.1zm0-.3zm-.1 2.3zm.1-2.3zm-.1-1zm-.1.4zm0 1.6zm0-.5zm-.1-.9zm0-.4zm0 1.3zm0 1.9zm0-.1zm-.1-.1zm-.1.4zm0 .6zm0-.4zm-.1-.2zm0-.3zm0-.4zm.2 0zm0-1zm.1-.1zm-.2-1zm.2-.1zm0 .2zm0-.5zm0-.2zm-.2 1.9zm0 .4zm0-.5c0 .1-.1 0-.1 0h.1zm-.1-.8zm0 .4zm.1-1.6zm0 .3zm-.1 1zm0 .3zm0 .5zm0 .4zm0 1.1zm0 .3zm.1.3zm.3-1.1zm.1 0zm0 .4zm.1.2zm0-.1zm0-.3zm.2-.6zm0-.5zm0 .8zm0 .1c.1 0 .1 0 0 .1zm.1-.5zm0 .5zm.1-.2zm0-.7zm0-1.2zm-.4-.4c.1 0 .1.1 0 .1zm0-1.3zm-.1.1zm0-.5zm-.1.3zm0 .1zm0 .4zm-.1.1zm0-.6zm-.1-.4zm.1 0zm0-.1zm0-.1zm0-.1zm-.1.5zm0-.1zm0 .5zm-.1.4zm-.1-1.1zm0 .4zm0 .3zm0-1.6zm-.1.1zm0 2.3zm0 .8zm0 1.7zm0 1.6zm0 .7zm.1.6zm.1-.1zm.1-.1zm0-.4zm0-.3zm.1.6zm.1-.4zm0-.7zm.1.1zm0-.6zm.1 1.2zm0-.5zm0-.6zm.1.3zm.1.2zm0-.9zm0-.3zm0 .5zm.1.8zm0-.5zm0-.3zm0-.2zm.1 0zm0 .1zm0-.3zm.1.1zm0-.6zm.1-.1zm-.1-.3zm0 .1zm0-.1zm0-.9zm0-.2zm0-.6zm0-.3zm-.2-.4zm0-.5zm-.1.2zm0 .2zm0-.9zm-.1.4zm0-.7zm-.1-.1zm-.1.2zm-.1-.3zm0 .2zm0 .6zm-.2-1.2zm0 0zm-.1-.3zm.1.6zm-.1-.3zm-.1-.6zm0 1zm-.1-1.1zm0 6.3zm0-1.3zm-.1-.5zm.1-.1zm-.1-3.2zm-.1-1zm0 .2c0-.1 0-.1.1-.1h-.1zm0-.4zm-.1-.2c.1.1.1.1 0 .1zM24 8zm-.1-.6zm0 .1zm0 .3zm-.1-.8zm0 .3zm-.2.4zm0-.3zm-.1-.4zm-.1-.2zm0 .1zm-.1-.3zm-.1 1.2zm0 .3zm0-.1zm0-.1zm0 4.9zm0 1zm-.1-7.2zm0 7.2zM23 6.7zm0 .6zm0 .2zm0-.3zm-.1-.3zm0 1.9zm-.2-1.1zm0-.2zm0 .2c.1.1.1.1 0 .1zm0 .6zm.1-1.3zm-.1-.3zm0 1.2zm-.1-1.3zm0-.1zm-.2.7zm0 .8zm0-.7zm-.1 1zm-.3-.2zm-.1-1.5zm-.3 2.6s1.4.4 1.4 2.9a1.3 1.3 0 0 1-.1.6 2.4 2.4 0 0 1-.2.8 2 2 0 0 1-1.1 1zm1 5zm0-.2zm.1 2.1zm0-2.6zm0 .3zm.1 2.1zm0-.9zm0-.1zm-.3-.2zm0 1.8zm-.2-1zm0-.1zm.1-.1zm0-.5zm0-.6zm.1 2.4zm.1-2.5zm-.4.3zm0 1.4s.1-.1.1 0h-.1zm0 1.6zm-.1-1.4zm0 .5H22c0-.1 0-.1.1-.1zm-.1.4zm-.1-1.9zm0-.2zm-.1.7zm-.2 1zm1.3 8.7zm0 .8zm0-.6zm.4.1zm-1.7-1.4v-5.6s2.9 0 2.9 2.8a2.7 2.7 0 0 1-2.9 2.8zm3.5.8zm0-.9zm-.2 1a.1.1 0 0 1 .1-.1h-.1zm0-.3zm-.1-.2h-.1a.1.1 0 0 1 .1-.1zm0 .5zm0 .8zm0-.4zm-.3-.7zm-.1.3zm0 .3zm0-.8zm0-.3zm.1-.2zm-.5.3zm0 1zm.1-.5zm-.3-.1zm-.3-.3zm0 .7zm0 1zm0-.6zm.1.3zm.1.2c0 .1 0 .1-.1.1h.1zm.1 0a.1.1 0 0 1-.1-.1h.1zm0-.6zm.2.2zm.1-.1zm.1.5zm.1-.1zm0 0zm0-1.4zm.1 1zm.1.5zm0 .1zm0-.9zm.1.4zm.1 0zm0-.3c.1 0 0 .1 0 .1zm.2.6zm0-.9zm.1.7zm0-.1zm0-.2zm0-.4zm.1.7zm0 .1zm.2.1c-.1 0-.1.1-.1 0h.1zm0-1.2zm.1 1.2zm0 0zm0-.1a.1.1 0 0 1-.1-.1h.1zm.1-.6zm0 .5zm.1.2zm0-.3zm.2.2zm0-.9zm0 .4zm.1.5zm0-.8zm.1.2zm0 .6h-.1a.1.1 0 0 1 .1.1zm0-.1zm0-.2h.1a.1.1 0 0 1-.1 0zm0-.3zm.1.2zm0 .2zm.1-.4zm0 .3zm.1-.1zm.1-.2zm.1-.3zm0-.2s.1 0 0 .1zm0 .2z"/></svg>