<svg xmlns="http://www.w3.org/2000/svg" width="2.8in" height="1.6in" viewBox="0 0 204.9 111.6"><path fill="#f0f0f0" d="M128 31.7c-.2-.7 1.9-2.3 2.9-2.8s.1-.2 0-.2a13.5 13.5 0 0 0-10 7.7c-.1.2-.3.3-.4.1a7 7 0 0 0-9.4-1.7c4-.5 8.9 2.9 9.1 7.1a3.9 3.9 0 0 0 .1.9c5.4-14.1 26.7-12 31.6-4.2-1.3-10.1-19.9-9.3-23.9-6.9zm-39.6 5.1c.7.2 2.4-1.7 3-2.7s.2 0 .2.1a13.3 13.3 0 0 1-8.4 9.3c-.2.1-.3.4-.1.4 3.1 1.1 5.3 6.9.9 9.5.9-3.9-2.2-9-6.4-9.6h-.8c14.4-4.4 12.4-20.7 5-26.1 9.9 2 9.3 15.3 6.6 19.1zM16.7 69.7c-9.2-7.2-4.4-15.7-3.6-18.2-2.2.8-3.2 3-3.7 5.9-.1.2-.4.3-.4.1-1.9-4.9-4.8-6.2-8.4-4.8 4.6.8 6.5 4.5 7.5 8.4s3.6 7.6 8.3 8.9c.2 0 .5-.2.3-.3zM18.1 43l.7.6c1 1.2 1.9 3.1-.1 3.9 2.1 1.3 4.7-.7 3.4-3H22v-.2a2.4 2.4 0 0 0 1.4.5h2c3.7-.5 5.1-4.8 3.1-7.9S21 35 20 37.6h-.1c0 .1-.1.3-.1.4a2.2 2.2 0 0 1-1.1.2c0 .1 0 .1-.1 0a.1.1 0 0 0-.1.1h-.2a.1.1 0 0 1-.1.1H18a2.1 2.1 0 0 1-.8-.6H17a3 3 0 0 1-.8-1.6h-.1a3.4 3.4 0 0 1-.1-1 3.5 3.5 0 0 0 1.4.6.1.1 0 0 1 .1-.1h1.3c-.1 0-.1 0-.1-.1h.1a3.6 3.6 0 0 0 2.8-3c-1.5.6-2.5.5-3.1 0h-.1A3.8 3.8 0 0 1 17 29c0-4.6 5-6.5 10.5-6.5v-1.4c-5.5 0-8.8.6-12.1 3.3a9.2 9.2 0 0 0-2.9 4.6c-1.6 4.6-1.1 10.7 5.6 14zm1.4-8.5c.1 0 .1 0 .1.1h-.1zm-.5.3zm.3-.3zm-1.4.4zm.3-.2zm9 8.2zm-2.1 1s.1-.1.1 0h-.1zm-3.9 1.3zm.6-.3zm-5.1-12.6zm2.1.5zm-.1.8a.1.1 0 0 1-.1-.1h.1zm-.5.7zm.8-.8h.1a.1.1 0 0 1-.1.1s-.1 0 0-.1zm-1.1.3c.1 0 .1 0 .1.1h-.1zm-1.4.6c.1 0 .1 0 .1.1h-.1zm1.1 3.6zm1 .4zm2.5 4H21m-.1-6zm6.3.2c-.1 0-.1-.1 0-.1zm1 .3zm-.8.9s-.1-.1 0-.1c.1-.1 0-.1 0 0zm.9.4zm.1.1zm-4.7 4zm3.5-1.9zm-5.7 2.8h-.1a.1.1 0 0 0 .1-.1zm1.5-1.3zm1.2.1zm3.6-1.7zm-5 2.6zm-.3.3zm.2.4c.1.1.1.1 0 .1s-.1-.1 0-.1zm2.5-.9c-.1 0-.1 0-.1-.1h.1zm-.3.1zm-.9.6zm4.6-2.2c-.1-.1 0-.1 0-.1zm-1.4 1.1zm-2.1.9zm-.2.1zm-2.4 1.1c-.1 0-.1 0 0 0zm.4-.3c.1 0 .1 0 .1.1h-.1zm1.7-.9zm-.6.2zm-.7.3c-.1 0 0 0 0-.1a.1.1 0 0 0 .1.1zm-.9.4zm1.2-.7zm.1-.1c-.1.1-.1.1 0 0zm3.6-2h.1c.1 0 0 0 0 .1h-.1zm-3.9 2.1c0-.1 0-.1.1-.1h-.1zm-3 1.7zm.8-.5zm.5-.3zm4-2.4zm-1 .4zm-3.4 1.6h.1a.1.1 0 0 1-.1.1zm-1.3.4a.1.1 0 0 1 .1.1H20zm1.5-1zm-.4.3c0-.1 0-.1-.1-.1h.1c.1 0 .1 0 0 .1zm-1.1.1c-.1.1 0 0 0 0zm.3-.5zm2.1-.9l-2.3.9zm-.6 0zm-3.3-9.9zM202 43.8a8.7 8.7 0 0 0-2.8-4c-3.1-2.6-6.3-3.2-11.5-3.1v1.1c5.3 0 10 .7 10 5.9a3.4 3.4 0 0 1-1.3 2.9h-.1c-.6.4-1.5.5-2.9-.1a3.4 3.4 0 0 0 2.6 2.9h1.3l1.4-.5a5.1 5.1 0 0 1-.2.9 5.3 5.3 0 0 1-.8 1.5h-.1l-.8.6h-.1a.1.1 0 0 0-.1-.1h-.5l-1-.2c0-.2 0-.3-.1-.4h-.1c-.9-2.5-5.9-3.9-8.1-.6s-.5 7 3 7.5h1.9a2.5 2.5 0 0 0 1.3-.5c0 .1 0 .1-.1.2-1.3 2.2 1.2 4.1 3.2 2.9-1.9-.8-1.1-2.7-.1-3.8l.6-.6c6.4-2.3 6.9-8.1 5.4-12.5zm-6.7 5.3zm.6.2zm-.4-.2h-.1c0-.1 0-.1.1-.1zm1.4.3zm-.3-.2zm-8.6 7.9a.1.1 0 0 1-.1-.1h.1zm2 .9zm3.7 1.3zm-.6-.3zm4.8-12.1zm-1.9.5zm0 .7h.1s.1 0 0 .1h-.1zm.6.7h.1a.1.1 0 0 1-.1.1zm-.8-.6zm1 .2zm1.3.5h.1c-.1.1-.1.1-.1 0zm-1 3.4zm-.9.4zm-2.3 3.8h-.1m.2-5.8zm-6.1.2h.1c0 .1-.1.1-.1 0zm-.9.3zm.7.8c.1-.1.1 0 .1 0h-.1zm-.9.4zm0 .1zm4.5 3.9zm-3.3-1.9zm5.4 2.7zm-1.5-1.1zm-1.1.1zm-3.4-1.6c0-.1 0-.1.1-.1h-.1zm4.7 2.5zm.3.2c.1.1 0 .1.1.1h-.1zm-.1.4zm-2.4-.9zm.4.1zm.7.5zm-4.4-2zm1.4 1.1zm2 .8a.1.1 0 0 1-.1.1h.1zm.1.1zm2.4 1.1c-.1 0-.1 0-.1-.1h.1zm-.4-.3zm-1.7-.9zm.7.2zm.6.4zm1 .3zm-1.3-.6zm-.1-.1zm-3.5-1.9zm3.7 1.9a.1.1 0 0 1 .1.1h-.1zm3 1.6zm-.8-.4h-.1c.1-.1.1-.1.1 0zm-.5-.3a.1.1 0 0 1-.1-.1h.1zm-3.9-2.3zm1.1.4c0 .1-.1 0-.1 0h.1zm3.2 1.5a.1.1 0 0 1-.1-.1h.1zm1.3.5h-.1c.1-.1.1-.1.1 0zm-1.5-1.1zm.4.3a.1.1 0 0 1-.1-.1h.1zm1.1.2h-.1a.1.1 0 0 1 .1 0zm-.4-.5zm-1.9-.9l2.2.9h-.1c.1-.1.1-.1.1 0zm.6 0zm3-9.5zM52 83.3v8h-3v-12h-.2l-.4.5-2.1 2.9h-3.2a7.1 7.1 0 0 0-.7-.9c-.6-.7-1-1.4-1.5-2.1a1.3 1.3 0 0 1-.5-.6h-.1v12.3H40a11.7 11.7 0 0 1-2.7-.1v-17h3a3.1 3.1 0 0 1 .7.9l1 1.3 1.4 1.9a17.1 17.1 0 0 1 1.1 1.4.1.1 0 0 0 .2 0l4.1-5.4a.1.1 0 0 1 .1-.1h2.9c.2 0 .2 0 .2.2v8.8zm-14.1 4.5h-.1a.1.1 0 0 0 .1.1zm.2-10.5c-.1 0-.1 0-.1.1l.2.2v-.2h-.1zm.1 5.5h-.1v.2h.1a.1.1 0 0 0 0-.2zm0 1.7zm0-7.8c.1 0 .1 0 .1-.1h-.1zm.7 4.5h-.5l.3.3c.1 0 .1 0 0 .1h.2v-.3zm-.6-1zm.4.6c0-.1 0-.2-.1-.2h-.3c-.1 0-.1 0-.1.1h.2a.1.1 0 0 1 .1.1h.2zm-.4 5.1h.1c0-.1 0-.1-.1-.1h-.1a.1.1 0 0 0 .1.1zm0 2v-.2h-.1zm3.7-9.5v-.2h-.4V78l-.2-.2v-.2l-.2-.2h-.5a.6.6 0 0 1 .1-.4h-.1v-.2h-.1c-.1.1-.2.1-.2.2h-.5l-.3.2h-.7c0 .1.1.1.2.2h-.3a.1.1 0 0 1-.1-.1h-.1V77c.1 0 .1.1 0 .1s0 .2.1.2v.2h.6c.1 0 .1.1 0 .1s0 .1-.1.1a.1.1 0 0 1-.1-.1H39a.1.1 0 0 1-.1.1h.1c-.1 0-.1-.1 0-.1 0-.1-.1-.1-.2-.1h-.1c-.1 0-.1 0 0 .1h-.2c0 .1 0 .2.1.2V79a.4.4 0 0 1 .1.3.1.1 0 0 0 .1.1v.3h-.2v.3h.3c.1.1.1.1 0 .2h-.2c.1.1 0 .1.1.2v.2h.1v-.4a.1.1 0 0 0 .1-.1h-.1c0-.1-.1-.1-.1-.2h.1c0-.1 0-.1.1 0h.2c0 .1 0 .1.1.1.1-.1.1-.2 0-.2h-.2v-.2h-.2c-.1 0-.1-.1-.1-.2h.2c.1 0 .1.1.2 0h.5c0-.1.1-.2.2-.4h.3c.2-.1.2-.1.1-.3h-.1c0-.1-.1-.1-.1-.2h.2c.1 0 .1.1 0 .1h-.1l.2.3h.3v.2h-.1v.2h.2c0-.1 0-.2.1-.2v-.4h.1c.2-.1.2-.1.2.1h-.1c-.1 0-.1.1 0 .1h.3v.2c0 .1 0 .1.1.2s.2.3.2 0h.2c.1 0 .1 0 .1-.1zm-3.5 9.9h-.2a.1.1 0 0 1 .1.1zm-.2-11.2zm.1 6.5zm0 2zm0-2.6a.1.1 0 0 1 .1.1h-.1zm.2 5.7zm-.1-6.9v.2c.1-.1.1-.1 0-.2zm.1 4.7a.4.4 0 0 0-.1.3.2.2 0 0 0 .3 0c.1 0 .1-.1 0-.1zm0-2.5zm0 .6zm0-8.3v.2h.1zm0 5.9h.1c.1 0 .1-.1.1-.3h-.2zm0-6.8h.2a.1.1 0 0 0-.1-.1zm.6 10.4c-.1.1-.1 0-.1 0H39a.1.1 0 0 0-.1-.1h-.1a.1.1 0 0 1-.1.1h-.1l.2.2a.4.4 0 0 0 .1.3h.3zm-.6 2.6h.1c.1 0 .2 0 .2-.1a.1.1 0 0 0-.1-.1h-.1zm.4-5l-.2-.2h-.1c-.1.1-.1.1 0 .2h.3zm-.1 5.9v-.2c.1 0 .1-.1 0-.2s-.1-.1-.1 0h-.1v.2c0 .1 0 .1.1.1a.1.1 0 0 0 .1.1zm-.2-12.6zm.1 10.7zm0-3.2zm0 .7h.1a.1.1 0 0 0-.1-.1zm0-1zm0-6.5zm.1 3.2h.1c.1 0 .1 0 .1-.1h-.2zm.1 9c-.1 0-.1 0-.1.1h.1zm-.1-12.5zM39 81zm.1-5.5H39a.4.4 0 0 0 .1.3.1.1 0 0 0 .1.1h.1c.1.1.2 0 .2-.1h.1c0-.1-.1-.2-.2-.1h-.3zm0 6.4H39a.2.2 0 0 1 0 .3h.2c.1 0 .1-.1 0-.1zm0 2.9v-.2c-.1.1-.1.1 0 .2zm.1-8.4c.1 0 .1 0 .1.1zm-.1 3.9zm0 3.4zm1.1-6.7l-.2.2h-.5c-.1-.1-.1 0-.1.1h-.3V77h.5c0 .1.1.1.2 0h.2c.1-.1.1-.1 0-.2a.4.4 0 0 1 .1-.3h.1a.4.4 0 0 0 .1.3zm-.8.6zm-.1 7.7h-.2c0 .1.1.1.1.2s.1-.1.1-.2zm0-4.1zm.1-.5zm0 7.1h-.1c-.1 0-.1 0-.1.1h.1a.1.1 0 0 0 .1-.1zm-.2-12zm.1 7.6zm.1-4.6zm0 7.4h-.1v.2c.1 0 .1 0 .1-.1s.1 0 0-.1zm-.1-10c.1 0 .1 0 .1-.1h-.1zm.2 4.1h-.1c-.1.1-.1.1-.1.2h.1a.1.1 0 0 0 .1-.2zm-.1-3.9zm.3 1.8h-.1a.1.1 0 0 1-.1-.1zm0 10.6h-.2a.1.1 0 0 0 .1.1zm-.1-9.7zm.1-3.6c.1-.1.1-.1 0-.1s-.1 0 0 .1zm0 2zm.1 8.8h-.1a.1.1 0 0 0 .1 0zm0-9.9a.1.1 0 0 1-.1-.1h.1zm.2 2.4zm0-3.2a.1.1 0 0 1 .1.1H40zm.2 1.9zm.2-.2c0 .1.1.2.1.3l-.2-.2v-.2h.1zm0-.4c-.1-.1-.1-.1 0-.1h.1c0 .1 0 .1-.1.1zm.3.5zm0-1zm.3 1.4a.1.1 0 0 1-.1.1h.1zm.1-.5h.1a.4.4 0 0 0-.1.3zm.3 1.8l-.3-.3v-.2h-.2c.1 0 .1.1.1.2s.1.1.2.2h.2zm0-.7h.2a.2.2 0 0 1 .2.2h-.4zm.2-.7c-.1 0-.1 0-.1.1zm.4 2.1zm.1-.9zm.1-.4zm.2 1.3h-.1a.1.1 0 0 0 .1 0zm.1-.5zm.1 1c-.1 0-.1 0 0 .1zm.1-.6h-.1v.2h.1zm.7.7c-.2 0-.3 0-.4-.2h-.1c-.1.1-.1.2.1.3h.4zm-.2.2c-.1 0 0 0-.1.1h.1s.1-.1 0-.1zm0 .4zm.1-1.3zm0 1.7zm.2-.6h.1c0-.1 0-.1-.1-.1s-.1.1 0 .2zm.1.4zm.2 1h-.2a.1.1 0 0 0 .1.1h.1c.1 0 .1-.1 0-.1zm.8-.6l-.2-.3h-.3c0-.1-.1 0-.1 0h-.1c0 .1 0 .2.1.2h.2a.1.1 0 0 0 .1.1c.1.1.2.1.3-.1zm-.6-.7h.2c0-.1 0-.1-.1-.1H44zm.1-.3H44zm.2 1.4zm.2-.5zm.2-.5zm-.1-.3a.1.1 0 0 0 .1-.1h-.1zm.3.4h-.1c-.1.1-.1.1-.1.2h.1a.3.3 0 0 0 .1-.2zm.2.7a.4.4 0 0 0-.1-.3.2.2 0 0 0 0 .3h.1zm.6-1.2v-.2h-.1c0-.1 0-.1-.1 0h-.2v-.2h-.1c0 .1.1 0 .1-.1h.1c0-.1.1-.1.1 0s.2.6.2.5zm-.1-.7a.1.1 0 0 0 .1-.1h-.2a.1.1 0 0 0 .1.1zm0 1.5c0-.1 0-.1-.1-.1h.1zm.2.2c-.1 0-.1 0-.1.1h.1zm.2-1.5zm.3.4h-.2c-.1 0-.1.1 0 .1h.2c.1 0 .1-.1 0-.1zm0-1zm.3.3h-.2c0 .1.1.2 0 .3h.2v-.2zm0-.3zm.2-.3c0-.1 0-.1-.1-.1a.1.1 0 0 0-.1.1h.2zm.5-.5h-.2c-.1 0-.1.1 0 .2h.2zm-.1-.5zm.3.9c.1 0 .1 0 0 0zm.2-.6v-.2h-.1v.3h.2zm1.6.2v.3h.2l.2.2c.1-.2.2-.2.2-.2.1 0 .2 0 .1-.2s0-.1.2-.1c0 .1 0 .1.1.1h-.2c-.1 0-.1 0 0 .1h.3v.1h-.2a.2.2 0 0 0 .2.2c.1 0 .1 0 .1-.1v-.2h.1c.1 0 .1-.1 0-.1v-.2h.4c.1-.1.1-.1 0-.2s-.1-.1-.1-.2h-.4a.1.1 0 0 1 .1.1h.2a.1.1 0 0 1 .1-.1h-.4c-.1 0-.2 0-.2-.1h.2v-.2h.1l.2.2h.1l.2-.2v-.2h-.2c.1 0 .1-.1 0-.2h-.1c0-.1 0-.1-.1-.2h-.1l-.5.2.2-.2v-.2s-.1-.1-.1 0h-.3c0-.1 0-.1.1-.1a.4.4 0 0 1 .1-.3l-.2-.2H49l-.3.2a.1.1 0 0 1 .1.1h.3c0 .1.1.1.1.2h.1a.1.1 0 0 0 .1-.1h.1c.1 0 .1.1.1.2h-.2v.2h.3v.4h-.1c0-.1-.1-.1-.1-.2l-.2-.2h-.4a.1.1 0 0 0-.1-.1c0-.1-.1-.1-.1-.2h-.1a.1.1 0 0 0-.1.1c-.1 0-.1 0-.1-.1h-.1c0 .1-.2.2-.2.3h-.5a.1.1 0 0 0-.1.1h.6c-.1 0-.2.1-.3 0 .2.1.1.1.2 0h.1v.2h-.2a.1.1 0 0 1-.1.1h.2c0 .1.1.1 0 .1h.1l.4-.2h-.1v-.2h.1c.1.1.2.1.2.2h.4c.1 0 .1 0 .1.1.1.9.1.9.1 1zm-1.5.1h-.1c0-.1-.1 0-.1 0h.2zm-.1.4c-.1.1-.1.1 0 .1zm0-2.1h.1c0-.1 0-.1.1-.2h-.2zm.5 1.1a.4.4 0 0 1 .1.3h-.2a.2.2 0 0 1 0-.3c.1 0 .1 0 .1.1zm1.1-.9c-.1 0-.2 0-.2.1s0 .2.1.2v.2H49v-.2h-.1c-.1.1 0 .1.1.1h.3zm-1-.9h.1c.1 0 .1-.1 0-.1h-.1zm.2.7zm.1-.8a.1.1 0 0 0 .1.1h-.1zm.1 2.4zm.1-2.2h.2c0 .1.1.1.1 0v-.2h-.4zm.2 2.1zm.2-.6c.1 0 .1.1 0 .1h-.1V78zm.1-.5zm.1 1.8a.4.4 0 0 0-.1-.3v.3h.1zm-.1-1.5zm.2.5c0 .1 0 .1-.1.1h.1zm-.1 9.9h.1a.1.1 0 0 0-.1.1zm.1-3.4zm.1-4.2h.1c-.1 0 0-.1-.1-.1h-.1c0-.1.1 0 .1.1zm.2-4.4zm0 12.3zm0-10.6c-.1-.2-.2-.3-.1-.3l.2-.3c-.1.2-.1.3 0 .4h-.1zm1 2.5c-.1-.1-.1-.1-.1-.2V80h-.4a.1.1 0 0 1-.1.1.4.4 0 0 1-.1.3.1.1 0 0 1-.2 0h-.2c-.2-.1.1.3 0 .4h.1c0 .1 0 .1.1.1h.5c0 .1 0 .1.1.1zm-.8-1.2c0-.1.1-.1.1-.2h-.3c-.1 0-.1 0-.1.1h.1a.9.9 0 0 1 .1.5h.3c-.1 0-.1-.1 0-.2h-.1a.3.3 0 0 0-.1-.2zm-.3 2.7l.3.2.3.2-.2.3h.2c0-.1.1-.1.1 0h.2c-.1 0-.1-.1-.1-.2a.1.1 0 0 1-.1.1H50a.1.1 0 0 0-.1-.1zm.1 2.6zm.1.3zm0 3.8a.1.1 0 0 0-.1.1h.1zM49.8 75v.2h.1V75zm.6 12.5h-.1v-.2a.1.1 0 0 0-.1-.1h-.3v.2h.1c0-.1 0-.1.1-.1h.4zm-.5-10.8c0-.1.1 0 .1 0h-.1zm0 5.8zm.8 2v-.2h-.1c-.1 0-.1 0-.1-.1s-.1-.1-.1-.2v-.3h-.1v.5h.4zm-.8-3.3c-.1 0 0 .1 0 .1zm.1 6.9h.1c0-.1 0-.1-.1-.1zm.2-2.8c-.2 0-.3.1-.3.2h.2l.2-.2c0-.1 0-.1-.1-.1zm-.2-4.4h.2l-.2-.3h-.1c0 .1.1.2.1.3zm.1 4.2h-.2c0 .1.1.1.2 0zm.1 1.2a.4.4 0 0 1 .1-.3h-.2c0 .1 0 .2-.1.2h-.1c0 .1 0 .2.1.2h.1c0-.1 0-.1.1-.1zm-.3-1.7zm.1-9.2v.3h.2v-.2a.1.1 0 0 1 .1-.1h-.1a.2.2 0 0 0-.2 0zm.5 1.3h-.2a.1.1 0 0 1 .1-.1.1.1 0 0 0 .1.1zm-.5.1zm.2 8.1zm.6-3.8h-.5v.2h-.1c.3 0 0 .1 0 .2v.2h.2a.1.1 0 0 1 .1-.1h.1c-.1-.4.1-.2.2-.5zm-.1 8.1c0-.1-.1-.2-.1-.3a.1.1 0 0 0-.1-.1h.1c.1.5.2.5.1.4zm-.2-5.7h.1c.1-.1.1-.1 0-.2l-.2-.2h-.1a.1.1 0 0 0-.1.1v.2h.1c.1 0 0 0 .1-.1a.1.1 0 0 1 .1.1zm-.2-7.5zm.6 11.4c0-.1-.1-.1-.1-.2s-.1-.2-.2-.1c0-.1 0-.2-.1-.2s0-.1-.1 0c.1 0 .1.1.1.2s0 .1.1.1.2.1.2.2h.1zm-.5-6.7c-.1 0-.1 0 0 0zm.1 9zm-.1-1.8a.4.4 0 0 1 .1.3h.1V88zm0-2h.2c0-.1-.1-.1-.1-.3a.1.1 0 0 0 .1-.1h-.1c0 .1 0 .2-.1.2zm0-3.9zm.1-6.3c-.1 0 0 0 0 .1h.2v-.2h-.1zm0-.8zm.1 12.9zm.1-4zm0-1.4zm-.1 2.8h.1c0-.1-.1-.1-.1 0zm.4-5.8v-.2l-.2-.2v.2h.2zm.1 1.7c0-.1 0-.2-.1-.2s-.1 0-.1-.1v-.2h-.1v.2l.2.2h.1zm-.1 3.8h-.1c-.1.1-.1.1 0 .2zm0 3.2zm0-4.2zm-.1.5h.1c0-.1-.1-.1-.1 0zm.2-6.1zm.1-1.7h-.1v.2c.1 0 .1 0 .1-.1.1-.1.1-.1 0-.1zm0 4.1zm30.9 10.7c.1.1.1.1 0 .1H79l-.3-.6a2.5 2.5 0 0 0-.2-.7l-.3-1c0-.1-.1-.2-.1-.4l-.3-.7a1.9 1.9 0 0 0-.2-.7.1.1 0 0 0-.1-.1h-5.1c-.1.1 0 .2-.1.3s-.1.5-.2.7l-.3.9-.3.7a1.4 1.4 0 0 1-.2.7c-.1.2 0 .3-.1.5a.4.4 0 0 0-.1.3H68c-.2 0-.1 0-.1-.2l.2-.5c1.6-5.1 3.3-10.2 5.1-15.9a6.4 6.4 0 0 1 .2-.7h3.2a6.6 6.6 0 0 1 .5 1.5c.5 1.6 1 3.1 1.6 4.7s1.1 3.8 1.8 5.8.5 1.6.8 2.5.6 1.7.8 2.5zm-12.6-1.6zm.3-.7h-.1c0 .1-.1.2 0 .2h.1c-.1 0 0-.1 0-.2zm.6.9l-.3-.2H70c0 .1-.1.2-.1.3h.1V90c.1 0 .1.1.2.2a.1.1 0 0 0 .1-.1zm-.5-3.7zm.1 1.5c0 .1 0 0-.1.1h.1v-.2zm0 .7c.1 0 .1 0 0-.1zm0 1.2c.1 0 .2 0 .2-.1H70zm0-2.8c.1 0 .1 0 .1-.1H70zm.2 1.6h.1c0-.1 0-.2-.1-.2h.1V88h-.1a.4.4 0 0 0-.1.3h.1zm-.1-1.7h.1c.1.1.1 0 .1 0h-.2zm.2.7c-.1.1-.1.1 0 .1zm0 .4c.1 0 .1 0 .1-.1h-.1zm.2 1.5c.1.1 0 .1 0 0zm2.9-3.3v-.2c0-.2-.1-.2-.2-.2v.2a.4.4 0 0 1-.1.3.1.1 0 0 1-.1-.1c.1 0 .1-.1 0-.2a.2.2 0 0 1 0-.3c0-.1 0-.1.1-.1h.2c0-.1 0-.1.1-.2s0-.1.1-.1a.1.1 0 0 1 .1-.1h-.7a.4.4 0 0 1 .1-.3.1.1 0 0 0 0-.2h-.1c0-.1-.1-.1-.1-.2h-.2V84h-.2c-.1-.1-.2-.1-.2-.2h.4a.4.4 0 0 1-.1-.3H72v.2h-.1a.1.1 0 0 0-.1.1s-.1.1 0 .1a.1.1 0 0 1 0 .2h-.2c-.1 0-.1.1 0 .1h.3c.1 0 .1.1 0 .1h-.1c-.2.1-.3-.1-.3-.2v-.3h-.1c-.1.1-.1 0-.2 0v.3c.1 0 .1.1 0 .1 0 .1 0 .1.1.1s0-.1.1 0 .1.1.1.2h-.8a.1.1 0 0 1-.1.1.3.3 0 0 0-.1.2h.1v-.2h.4V86h-.3l-.2.2h.6c-.1.1 0 .1 0 .1h.6v-.2h.3c0 .1.1.1.1.2v-.2l.2-.2h.1l.2-.2h-.1v-.2h.1c.1.1 0 .1 0 .2h.1a.1.1 0 0 1 .1-.1.1.1 0 0 0 .1.1c.1 0 .1 0 .1-.1h.2zm-3 2.9zm.1-2zm0 .1zm-.1.5a.1.1 0 0 1 .1.1h-.1zm.1.8h.1v-.2zm.1.5h.1v-.2h-.1zm0-.6zm.7-.5c0-.1-.1-.1-.1-.2s.1 0 0-.1h-.4c-.1 0-.1.1 0 .1h.1c.1.1.1.2 0 .2a.1.1 0 0 0 0 .2h-.1s-.1.1 0 .1h.1c0-.1 0-.1.1-.2h.1c0-.1 0-.1.1-.1h.1zm-.7-2.6zm.2 4.5c0-.1-.1-.1-.2 0h.2zm.4-1.4h-.1c-.2 0-.2.1-.3.2h-.1c0 .1 0 .1.1.1a.1.1 0 0 0 .1-.1h.2c.1 0 .1 0 .1-.1zm-.4-1.3h.2c.2-.1.2-.1.3 0h.1c.1 0 .2 0 .2-.1h-.7c0-.1 0-.1-.1 0s-.1.1 0 .1zm0-2.4h.2v-.2h-.3c0 .1 0 .2.1.2zm.1-1.2zm.2 2.7a.4.4 0 0 1-.1-.3zm.1-2.7h.2c-.1-.1-.1-.1-.2 0zm.5 4.1c0-.1.1-.1.1-.2h-.3c-.1 0 0 0-.1.1s-.2.1-.1.2h.4zm-.3-3.6zm0 .3h-.1v.2h.1c.1 0 .1-.1 0-.1zm0 2.3zm.2-.5h-.2a.3.3 0 0 0 .1-.2.1.1 0 0 1 .1.1s.1 0 0 .1zm-.2-2.3zm.1-.5h.3c0 .1-.1.2 0 .2h.2v-.2h-.6zm.1 1zm.4 1.3h-.1c-.1.1-.1.1-.2 0v-.2h.3zm-.1 1.5zm-.2-4.1h.2l-.2-.2zm.1-2.5h.1c-.1-.1-.1-.1-.1 0zm.2 2.4c.1.2.1.2.3.2H72zm.4 3.1h-.2l-.2-.2h.4zm-.4-4.4a.3.3 0 0 1 .1.2c-.1.1-.1.1 0 .1v.3h.3c0-.1 0-.1-.1-.2H72zm0 2.5h.2c.1.1.1.1 0 .1H72zm.3.6h-.1v.2h-.1v-.2H72a.3.3 0 0 1 .1-.2h.2zm0 .5h-.1a.1.1 0 0 1-.1-.1zm0-5zm.1 1c0 .1-.1.1-.1.3a.1.1 0 0 0 .1-.1h.1zm0-.3h-.1a.1.1 0 0 0 .1.1zm.1 1.7v-.2zm0 2c-.1 0-.1-.1-.1-.2h.1zm.5-3.2h-.6l.2.2h.4zm-.3 4.1c0 .1-.1.2-.1.3v-.2h.2zm0-.4h-.2a.3.3 0 0 1 .1-.2zm-.1-4.5a.2.2 0 0 0 0 .3.1.1 0 0 1 .1.1c-.1.1 0 .1 0 .1h.2a.1.1 0 0 1 .1-.1h.2c0-.1-.1-.1-.2-.1 0 .1-.1.1-.1 0h-.3zm0-1c0 .2.1.2.1.1h-.1zm0-1zm.1 1.4zm0 3.1zm0-3.7h.3v.2h.1c.1-.1.1-.1.1-.2h.1c0 .1.1.1.1.2a.1.1 0 0 1-.1.1H73c.1.1.1.2.2.2h.3c0-.1.1-.1.1-.2h-.1c-.1 0 0-.1 0-.1h.7a.1.1 0 0 1 .1-.1c.1 0 .1.1.2 0s-.1-.1-.1-.2h-1.7zm.1 2.7zm-.1 1.5zm.2 1.3zm-.1-6h.7c-.1 0-.1-.1 0-.1h.2c.1.1.1.1 0 .1v.2c-.1.1 0 .1.1.1h.1v-.5h.1v.2a.5.5 0 0 0 .1.3h.2v-.2l.2-.2c.1 0 .1 0 .1.1h-.1v.3c0 .1 0 .1.1.2h.4c.1 0 .2 0 .2-.1h.1c.1 0 0 0 0-.1h.3c.1-.1.1-.1 0-.2s0-.1 0-.1h.2v-.2h.2c.1.1 0 .2 0 .3h.6c.1 0 .1.1 0 .1v.2h-.2c.1.1 0 .1 0 .2H76c-.1.1-.1.1-.1.2h.1c0-.1.1-.1.2 0h.1c0-.1.1 0 .1 0h.1a.2.2 0 0 0 0-.3h.2c0-.1.1-.1.1-.2s0-.1.1-.1.1-.1 0-.1v-.2h-.1c-.1.1.1.2 0 .3h-.1l-.2-.2h-.3v-.2a.1.1 0 0 1 .1-.1h.3V77c.1-.1 0-.1 0-.2h-.2l-.2.2h-.1c-.1 0-.1-.1 0-.1H76c-.1-.1-.1-.1-.1-.2s0-.1-.1-.2h-.1v-.2h.1c.1 0 .1 0 0-.1h-.4v.2h-.3v.2h.1s.2.1.1.1h-.2c0-.1-.1-.1-.2-.1h-.5a.1.1 0 0 0-.1.1h-.5c-.1.1-.1.1 0 .1h.3c-.1 0-.1 0-.1-.1h.1c0 .1.1.1.1 0h.2a.1.1 0 0 1 .1.1h-.7c-.1 0-.1 0-.1-.1h-.1l.2.2h.1c0 .1 0 .2.1.2h-.2c0-.1-.2-.2-.1-.2 0 .1 0 .1-.1.1h-.1v1h-.1a.1.1 0 0 1-.1.1c0-.1 0-.2-.1-.2h-.1v.2h-.3v.2zm0-.6zm0 2h.1c.1.1-.1-.1-.1 0zm.1 2zm-.1 1.9zm.2-3.7zm.3.4h-.2a.1.1 0 0 1-.1.1h.1zm-.3.7zm0 2.8c0 .1 0 .1.1.1H73zm.3-7.5c-.1.1 0 .1 0 .2s-.2.1-.1.2h.1c.1.1.2 0 .2-.1v-.2zm0 .6zm.1 2.9h-.1c0 .1 0 .1.1.1zm0 5.4h-.1c0-.1 0 0 .1 0zm0 .7zm3.1-2.2h.1c-.3-1-1-3-1.3-4.1l-.3-.9a3.1 3.1 0 0 0-.2.8c-.5 1.4-.9 2.7-1.4 4.2h3.1zm-2.9 2.5zm-.1-10.5a.1.1 0 0 0 .1-.1.1.1 0 0 0-.1.1zm0 4.5h.1c0-.1.1-.1.1-.2v-.2h-.1c-.1 0-.1.1-.1.2zm.1 5.1c-.1 0-.1 0-.1.1h.1zm.7.5l-.2-.2c-.1 0-.1-.1-.1-.2h-.1v.4h.4zM73.7 76h.3v-.2h-.3zm.1 3.3zm-.1.5c0 .1 0 .1.1 0h-.1zm.2 5.7c-.2 0-.2 0-.2.2h.2l.2-.2h-.2zm-.2-7.3V78h.1a.4.4 0 0 0 .1.3h-.2zm.1 7.1zm.1-9.3zm0 1.7c0-.1.1-.1.1 0h-.1zm0 2.5a.1.1 0 0 0 .1-.1c.1-.1 0-.1 0-.1h-.1zm.1 6.1zm0-8.4zm.2-2.2zm-.1 3.9zm.2 5.7v-.2h-.1v.2c0 .1 0 .1.1 0zm-.1-8.2v-.2h.3v.2zm.2.2c0 .1.1.1.2 0s-.1.2-.1.3h-.1zm.1 8.4c0-.1-.1 0-.2 0s0-.1.1-.1h-.2v.3h.2c0-.1.1-.1.1-.2zm-.3-.9zm0-6.2zm.1-.7zm.1 8.2zm0-8.9h.2V77c.1-.1 0-.1.1-.2h.3v.2l-.2.2h-.1c0-.1-.1-.1-.2 0h-.2zm.1-1.1c.1 0 .1 0 0 .1zm.3 9.2zm0 .9h-.1zm.2.1v-.2h-.2c0 .1.1.1.2.2zm-.4-10v-.2a.1.1 0 0 1 .1.1h-.2zm.2 1.7h-.2v-.2h.1c0 .1.1.1.1.2h-.1zm-.1 8.6h-.1c0 .1.1.1.1 0zm.1-10.8zm0-.4h.1c-.1 0-.1.1-.1.2h-.1a.1.1 0 0 0 .1-.2zm0 9.8c.1-.1.1-.1.1-.2s.1 0 0-.1h-.1zm0-10.5h.1c0-.1 0-.1-.1-.1zm0 1.7v-.2a.1.1 0 0 1 .1-.1.4.4 0 0 1 .1.3h-.2zm0 9h.2c.1-.1 0-.1-.1-.2h-.1zm.1-6.8c-.1-.1 0 0 0-.1zm0 6.2c.1 0 .1 0 .1-.1h-.1zm.3-6.4H75v-.2h.2a.1.1 0 0 0 0 .2zm.1 8.2h-.2a.1.1 0 0 1 .1.1.1.1 0 0 0 .1-.1zm3.3.9c.1 0 .1-.1.1-.2V87h.3v.2h.3c.1 0 .1 0 .1-.1h-.2c-.1-.1-.1-.1-.1 0h-.2c-.1 0 0 0 0-.1h.5c.1-.2.1-.2 0-.4h-.7V86c0-.1-.1-.1-.1-.2h.1l.2.2c0 .1 0 .2.1.2h.4c0-.1 0-.1.1-.2h-.2a.2.2 0 0 1 0-.3.2.2 0 0 0-.2-.2s-.1-.1 0-.1v-.2s-.1-.1-.1 0h-.2c0-.1-.1-.1-.1 0h-.5c-.1 0-.1 0 0-.1h.6c.1-.1.2-.1.1-.2s-.2.1-.2 0 0-.1-.1-.2a.2.2 0 0 1-.3 0h.6c0-.1.1-.1.1-.2s.1-.1 0-.1h-.5c.1-.1.1-.1.2 0h.1c0-.1 0-.2-.1-.2h-.1c.1 0 .1-.1.1-.2h-.2a.1.1 0 0 0-.1.1h-.2v.2l.2.2h-.3v.2a.1.1 0 0 0-.1-.1h-.1c0 .1 0 .1.1.1h.1c.1 0 .1 0 0 .1h-.3v-.2a.2.2 0 0 0 0-.3h-.2a.1.1 0 0 0-.1.1h-.2l.2.3h.4v.3h.1c0 .1 0 .1-.1.1a.2.2 0 0 0-.2.2h-.1c0-.1 0-.1.1-.1h-.1V85h-.2c-.1 0-.1 0-.1-.1v-.2c0 .1 0 .2-.1.2h-.1l-.3.2v.2h-.1l-.2-.3h-.1v.4H76v.2c.1.1.1.1 0 .2h-.1v-.4h-.3v.6h-.1c-.1 0-.1 0-.1.1h-.1v-.2h-.1v.2H75c0 .1 0 .2.1.2v.2c.1.1.1-.1.2 0 .1 0 .1.1.2.2v-.2h.1c.1 0 .1-.2.2-.2h.4v-.2c-.1 0-.1-.1-.1-.2h.5a.1.1 0 0 0 .1-.1c-.1 0 0 0 0-.1h.3v.4h.3v.2h-.4c-.1.1-.2.1-.2.2h-.1a.6.6 0 0 0 .1.4h.1c.1 0 .1 0 .1.1h.3v-.2h-.4V86h.7c.1 0 .1 0 .1-.1h.1a.4.4 0 0 1-.2.5h-.1c-.1.1-.1.1-.1.2h.1c0-.1 0-.1.1-.1s0 .1 0 .2h.7v.2h.1v-.2h-.2c-.1 0-.1 0-.1-.1h.4c0 .1 0 .1.1.1s-.1.2-.1.4v.2c.1.1.1.1 0 .1h-.5c.2.1.2.1.4-.1s.1.1.1.2h.2zm-3.5-11h.4c0-.1 0-.1-.1-.2h.2a.3.3 0 0 0 .1.2.1.1 0 0 1 .1.1h-.7zm0 2zm.2 6.7h-.1c-.1 0-.1.1 0 .1h.1zm.4-7.6h-.5v-.3h.5zm-.5-.9zm0-1.4zm.1 1.7zm0 9.3h-.1a.1.1 0 0 0 .1.1h.1a.1.1 0 0 0-.1-.1zm.2-8.1c.1.1 0 .1 0 .1h-.2c-.1-.1-.1-.1 0-.1zm.4-1.5v.2h-.1c0-.3 0-.3.1-.2zm0 .4h.3c-.1 0-.1.1-.1.2h.2c-.1-.1-.1-.1 0-.1V77h.1a.4.4 0 0 0 .1.3h-.1c0 .1-.1.1 0 .2s0 .2-.1.2h-.2c0-.1 0-.1-.1-.2h-.3c0-.1 0-.1.1-.1zm.1 9.5h-.2a.1.1 0 0 1 .1.1.1.1 0 0 0 .1-.1zm.3-7.7zm-.3.2zm0 .3a.1.1 0 0 0 .1-.1H76zm0-3.3v.2h.3V76c0-.1 0-.2-.1-.2H76zm.2 10.3zm-.1-6.1zm.2-.2h.1c.1 0 .1-.1 0-.1zm.1-4.5zm.1 6.5v.2zm.2-4.2c0 .1.1.1.1 0h-.1zm.1 2.8zm-.1-.9zm0-2.6h.1a.1.1 0 0 0-.1 0zm.1 3.6zm.1-3.3zm0 2.8zm0 2.5v.2h.2v-.2h-.2zm.1 3.1zm-.1-3.5h.1a.1.1 0 0 0 .1-.1H77a.1.1 0 0 0-.1.1zm.3-2.6v-.4H77c-.1.1 0 .2.1.2v.2c.1.1.1.1.1 0zm0 .9a.1.1 0 0 0-.1-.1H77c0 .1.1.1.2.2zm-.1-1.9zm.2 1.3c-.1.1-.1.1-.2 0h.1c.1.1.1.1 0 .2h.2v-.2h-.1zm-.1 1zm.3.3h-.2c0 .1 0 .2-.1.2s-.1.1 0 .2c0-.1.1-.1.2-.1v-.2zm.1.7h.1v-.2h-.2c-.1-.1-.1-.1-.1 0a.3.3 0 0 0-.1.2h.3l-.2.2c0 .1.1.1.1.2l.4.2s.1-.1 0-.1h-.3a.1.1 0 0 1 0-.5zm.2 1h.4c0-.2 0-.3-.1-.3h-.3l-.2.2h-.1v-.2h-.2v.2c.1.1 0 .1 0 .2h.1V83h.2v.2a.1.1 0 0 0-.1.1l-.2.2h.4a.1.1 0 0 0 .1.1h.1c.1 0 .1-.1 0-.1h-.2l.3-.2a.1.1 0 0 1 .1-.1c0-.1 0-.2-.1-.2h-.2zm-.5 2.6zm0-4.8zm.2.2c.2 0 .3 0 .3.1a.1.1 0 0 0 .1-.1h-.4zm0-.8h.1c.1 0 .1-.1.1-.2h-.2zm.2 6.4zm.2-.1zm0-1.1h.1c-.1 0-.3 0-.2-.1h.1zm-.1-3.4c0 .1.1 0 .1.1h-.1zm.2 2.7h.1c-.1 0-.1 0-.1.1zm.5.6v.2h-.3c0-.1 0-.1.1-.1h.2a.2.2 0 0 0 .3 0h.1a.1.1 0 0 1 .1.1v.2h-.2c-.1-.4-.1-.4-.3-.4zm-.1.4a.1.1 0 0 1 .1.1h-.1zm.2 2.5h-.2c0 .1 0 .1.1.1a.1.1 0 0 0 .1-.1zm.1-1.5c-.1-.1-.1-.1-.1-.2h.1zm.3 1v-.2h-.2c0 .1-.1.1-.1.2s.2 0 .3 0zm0-.4a.1.1 0 1 0-.2 0h.2zm0-.8zm0 2.3c-.1.1-.1.1 0 .1zm1-1a.1.1 0 0 1-.1-.1h-.1c0-.1 0-.2-.1-.2h-.1v.2h-.4a.5.5 0 0 0-.2.4h.2c.1-.1 0-.1 0-.2h.4v.2h-.1c0 .1.1.1.1.2h.2v-.2h.2zM79 84h.1c.1 0 .1 0 0-.1H79zm0 .9zm0 2.6zm0 1zm.3 1.5l-.2.2h.2zm-.1-.9h-.1v.2h.2a.1.1 0 0 1 0-.2zm.1-3.8zm.1 3.1c.1-.1.1-.2 0-.2s-.1.1-.1.2zm0-3.6h-.1a.3.3 0 0 0 .1.2zm.2 2.1h.1c-.1-.1-.1-.1-.1 0zm-.1 3zm0-1.2c0 .1.1.1 0 0zm.2.3zm.1.6c.1 0 .1 0 0-.1v-.2h-.2a.3.3 0 0 0 .1.2c0 .2 0 .2.1.1zm-.2-3.3zm.3.9h-.2a.3.3 0 0 0 .1.2c.1-.1.1-.1.1-.2zm-.1 1.5h.1c.1 0 .1 0 .1-.1h-.3v.2zm.4 1.3H80c0-.1-.1-.2-.2-.1a.1.1 0 0 0 .1.1h.3zm-.4-1h.1a.1.1 0 0 1 .1.1h.1c0-.1-.1-.2-.1-.3h-.2zm.2 1.1h-.1c.1.1.1.1.1 0zm0-2.4h.2l-.2-.2a.1.1 0 0 0 0 .2zm.2 1h-.1c0 .1 0 .1.1.1.1-.1.1-.2 0-.2zm.2.9h-.1a.1.1 0 0 0-.1.1h.1c.1 0 .1 0 .1-.1zm.1-.4c0-.1 0-.1-.1-.1h.1zm.1 1.3zm29.2-10.8a6.5 6.5 0 0 1-.4 1.9 3.7 3.7 0 0 1-1 1.7l-.3.4.5.7c.1.3.3.7.4 1.1a5.9 5.9 0 0 1 .2 1.4v4.4h-3v-4.1a3.6 3.6 0 0 0-.2-1.1c-.3-.3-.4-.6-.8-.8h-.1l-.5-.2H101v6.1c0 .2 0 .3-.1.3h-3V74.3h7.2a5.5 5.5 0 0 1 2.5.7 5.8 5.8 0 0 1 2.2 4.7zm-11.2 8.1zm.1-10.4h.1v-.2a.1.1 0 0 1-.1.1zm2.6 6.2c0-.1-.1-.2-.1-.3s.1-.2.3-.3h-.3a.1.1 0 0 0-.1-.1h-.1a.3.3 0 0 1-.3.3h-.1c0-.1 0-.2-.1-.2 0-.2 0-.2-.2-.2s-.3 0-.3.3h-.2c0 .1-.1.1-.1.2h-.1a.1.1 0 0 1 .1-.1h.1c0-.1.1-.1.1-.2h.2a.1.1 0 0 0-.1.1v.2h-.1v-.2c0-.1.1-.1.2-.1a.3.3 0 0 0 .1-.2h-.1v-.2h-.2a.1.1 0 0 1-.1.1h-.5a.1.1 0 0 0-.1.1l.2.2c.1.1.1.1 0 .2v.2h.3l-.2.2c-.1 0-.1 0-.1-.1h-.1v-.2H99v.2a.1.1 0 0 1 .1.1h-.2c0 .1.1 0 0 .1v.3h.2v-1H99a.2.2 0 0 0 .2.2l-.2.3c0 .1 0 .1.1.1h.1c.1-.1.1-.1.2 0h-.2c-.1 0-.1.1 0 .1h.8c0-.1.1-.1.1-.2v-.2c0-.1-.1-.1-.2-.1a.1.1 0 0 1 .1-.1c.1-.1.2 0 .2.1a1.1 1.1 0 0 1 .1.5v.3h.2a.1.1 0 1 1 .2 0l.2-.2h.3zm-2.5 2.5zm0-1.7h.1v-.2h.1a.1.1 0 0 1 .1-.1h-.2c-.1-.1-.1 0-.1.1zm.1-7.8zm.5 4.8c0 .1.1.1.1.2h.2v-.2h-.3l-.3-.3H99v.2a.1.1 0 0 0 .1.1h.1c.1.1.1.1.1.2s-.1 0 0 .1h.2zm-.5 4.5zm.3-5.3zm-.2 4.5zm0 2.8zm0-7.5c-.1 0-.1 0 0 .1zm.1 7.9H99a.1.1 0 0 0 .1.1zm0-2.9v.2c.1.1.1.1.2 0h.1v.4h.2l.3-.2h-.3a.1.1 0 0 0-.1-.1c.1 0 .1-.1.1-.2H99zm.1-.7zm.1 4zm-.2-8.7h.2v.2h.1V80l.2-.2c0-.1 0-.1-.1-.2l-.4-.2a.1.1 0 0 0-.1.1zm1 4.6h-.1v-.2c.1-.1 0-.1 0-.2h-.3a.1.1 0 0 1-.1.1h-.2l-.3.4c0 .1.1.1.1.2h.1c0-.2 0-.2.1-.2h.2c.1.1.1.2.1.4h.3c.1-.4.2-.4.1-.5zm-1-6zm.4 8h-.3a.2.2 0 0 0 .3 0zm-.3-6.3zm0-3.8zm.1 1.2c-.1 0-.1 0-.1-.1h.1zm0 1h-.1c0 .1 0 .2.1.2h.2l.2.2h.1c.1 0 .1-.1 0-.2a.1.1 0 0 1-.1-.1h-.4zm.1-.2a.4.4 0 0 0-.1-.3h-.1a.4.4 0 0 0 .1.3zm-.1-1.5v.2c.1.1.2.1.1.2h.1c.1-.1.1-.1.1-.3h-.2zm.1-1.6zm.2 4.2a.1.1 0 0 1 .1.1.1.1 0 0 0 .1-.1l-.3-.3h-.2v.2c.2.1.2.2.3.1zm-.3 8.8h.3c0-.1 0-.2-.1-.2a.1.1 0 0 0-.1.1v.2zm.4-12.6h-.3v.2c.1 0 .1.1.2.2h.1v.2h.3v-.2h-.2c-.1 0-.1 0-.1-.1v-.2h.1zm-.2 3.9zm0 9.6h.1V89c0-.1-.1-.1-.2 0v.4c.1 0 .1 0 .1-.1zm-.1-4.5c0 .1 0 .2.1.2h.1a.2.2 0 0 0-.2-.2zm.1-1.8zm.1 4.5zm-.1-6.7zm.2-2.9c-.1 0-.1-.1-.2 0h.2zm-.1 4.5zm-.1 2.2c.1 0 .1 0 0-.1zm.2-1zm.1-3c.1.1.1.1 0 0zm-.1 9.1c0-.1 0-.1-.1-.1h.1zm.2-12.8c0-.1-.1-.1-.1-.2h-.2v.3h.2c0-.1 0-.2.1-.2zm-.3.4h.1v-.2h-.1zm.2 3.6h-.1zm-.1-5.3c0 .1 0 .1.1.2h.4v-.2c.1-.1 0-.2-.1-.1h-.4zm.1 4.7h-.1c0 .1 0 .1.1.1zm-.1 4.8l.2.3h.1c.1 0 .1-.1.1-.2h-.1a.1.1 0 0 0-.1-.1h-.2zm.1-6.4zm.1 5.8zm.1-3.4h-.2v.2h.1zm-.1-5a.1.1 0 0 0-.1.1h.2c0-.1 0-.1-.1-.1zm.1 3.8c-.1 0-.2.1-.1.1h.1zm-.1.9zm.1-3h-.1a.1.1 0 0 1 .1.1zm.1 8.4s.1.1 0 0zm-.1 1.6zm.1-7.4a.1.1 0 0 1 .1-.1h-.1zm-.1 3.7zm.7-8h-.4c0 .1 0 .2-.1.2h-.1c-.1 0-.1 0 0 .1h.6a.3.3 0 0 0 .1-.2h-.1zm-.5 1.1c0-.1 0-.1-.1-.1h.1zm0 5c.1 0 .1 0 .1-.1s.1-.1 0-.1h-.1c-.1.1-.1.2 0 .2zm0-3.6zm0 5.8zm.2-7.6c.1 0 .1-.1 0-.1zm-.1 12zm0-8.2zm0 2.3zm0-7.5h.1c0-.1-.1 0-.1 0zm.2 10.9zm0-3.1c.1.1 0 .2 0 .3h-.1v-.3h.1zm.2 1.2a.1.1 0 1 0-.2 0h.2zm-.1-9.4v.2h.1l.2-.2h-.2zm.3.7c0-.1 0-.2-.1-.2h-.2a.2.2 0 0 1 .2.2zm.2.3a.5.5 0 0 0-.2.4h.1a.1.1 0 0 1 .1-.1h.2V76zm3.9 1.2h-4v3.4c-.1.2 0 .3 0 .5v.5h3.8l.9-.2a1.5 1.5 0 0 0 .6-.5 3.3 3.3 0 0 0 .3-.6c.3-1 .3-2.6-.9-3.2zm-3.9-1.3zm0 8.1c.1 0 .1-.1 0-.1s-.1.1 0 .1zm.1-8.6v.2h.1v-.2a.1.1 0 0 0-.1-.1h-.2zm.8 8.6h.2c0-.1-.1-.1-.1-.2h-.1c-.1 0-.2.1-.2 0h-.2c-.1 0-.1 0-.1.1v.2a.3.3 0 0 1-.1.2h.5c0-.1.1-.1.1 0zm-.5-7.9zm0-.3c0 .1 0 .1.1.1h.1l.3-.4h.1c.1.1.1.1.1 0s0-.2-.1-.2h-.3v.2h-.1zm.3 8.3c-.1 0-.1 0 0 .1zm.8-1.1h-.2a.4.4 0 0 1-.1.3l-.2.3a.3.3 0 0 0 .1.2h.2v-.4c.1-.1.2-.1.2-.2s.1-.2 0-.2zm-.4-7.1c-.1.2 0 .2.2 0s0-.1.1-.1h.2l.3-.2h-.1c-.1 0-.1.1-.2 0h-.3v.2c-.1 0-.2 0-.2.1zm.2.4zm.3-.1a.1.1 0 0 0 .1-.1h-.1zm.2 7.4v-.2h.1zm.3-.3h-.2s-.1 0 0-.1h-.1c-.1 0-.1.1-.1.2l.2.2h.2zm-.1-7.2h.3v-.2c.1 0 .1-.1.1-.2h-.4v.2a.4.4 0 0 0 0 .2zm-.1.2zm.2 7.3zm0-8.3c0 .1.1 0 0 0zm.2 9.2zm.4-.9h-.1a.1.1 0 0 0 .1 0zm.4-.4a.1.1 0 0 1-.1-.1h-.4c-.1.1 0 .1.1.1h.4zm-.5-7.3h.1c.1-.1.1 0 .1-.1-.2-.1-.2 0-.2.1zm.5-.3v.2h.1c0-.1 0-.1.1-.2-.1-.2-.2-.2-.3-.2zm.1 7.2a.1.1 0 0 0-.1.1.2.2 0 0 0 .2-.2h-.1zm0-.5c.1.1.1.1.1 0h-.1zm0 1.1zm.4.4l-.2-.2c-.1 0-.1 0-.1.1h-.1a.1.1 0 0 0 .1.1h.3zm-.2.6zm0-9zm.4.8l-.3-.2.2.3h.1zm1.8 8.6h-.7v-.2h.2c.1-.1.1-.1.1 0-.1 0-.1 0-.1.1h.3c0-.1.1-.1.1 0h.3l-.2-.3h.4c-.1 0-.1-.1 0-.2a.1.1 0 0 0 .1-.1c.1 0 .1-.1 0-.1h-.2v.2h-.2c-.1.1-.1.1-.2-.1V83c0-.1-.1-.1-.1-.2h-.2a.1.1 0 0 1-.1.1h-.2v-.3h-.3a.1.1 0 0 0-.1.1h-.2l-.2.2h-.2l-.2.2h.1a.1.1 0 0 1 .1-.1h.4c-.2.1-.2.3-.3.5s-.1.1-.1.2h.1c0 .1 0 .1.1.1s.2 0 .2-.1.1 0 0-.1h1c.1-.1.1 0 .2 0 0 .1 0 .1-.1.2h-.2c-.1 0-.2 0-.1.1V85h.1zm-1.7-.5zm.1-8.8h.3c0-.1 0-.1-.1-.1h-.2zm.2 9.1h-.1c0 .1 0 .2.1.2h.1a.1.1 0 0 0-.1-.2zm-.1-8.3zm.2-.7v-.2zm.1 7.5zm.3 1.4h-.3a.1.1 0 0 0 .1.1h.2zm.2-.9h-.4c-.1.2 0-.1 0-.1a.3.3 0 0 0 .1-.2V83h.1l.2.2s0-.1-.1 0-.1.1-.1.2h.2zm-.3-7.3zm.1-.3zm.1 7.8zm.2 1h-.1c0-.1-.1-.1-.2-.1h.3zm-.1-9.2c-.2-.1-.2-.1 0 0zm.5 6.7h-.1c-.1 0-.1.1-.2 0h.3zm-.4-5.8h.2c.1 0 .1 0 .1-.1h-.2s-.1 0-.1.1zm.2-.8zm.6 9.9h.3c0 .1 0 .1.1 0-.1.1-.1.1-.1-.1l.3.2h.1a.1.1 0 0 1-.1-.1h-.5l-.2.2c0 .1 0 .1-.1.1h-.1c0 .1.1 0 .1 0s.2 0 .2.1zm0-3.2c-.1-.1-.1 0-.2 0v.2h-.3c0 .1.1.1 0 .2h.3v.2h.1a.4.4 0 0 0 .1-.3h.3v-.3c-.1 0-.1-.1 0-.2h-.5zm-.3-6.3a.1.1 0 0 0 .1-.1zm.1.3zm.1.1c0 .1 0 .1.1.1v-.2zm.1 9.8zm0-4.2zm.1 4.9zm.2-3h-.1v.2h.2zm-.1-7.7h.1s.1-.1 0-.1 0-.1-.1-.1zm.1 10.2h-.1c0 .2.4.3.1 0zm.3-4.7h.1v-.2h-.3c-.1.1-.1.2 0 .2zm-.1.2zm0 5.4c0-.1 0-.1-.1-.1s-.1 0-.1.1h.2zm-.1.8zm-.1-3.6zm0-7.8a.1.1 0 0 0 .1.1.1.1 0 0 0 .1-.1h-.2zm.1 12.1zm.1-5.5zm0 1zm0 4.1zm0-9.2zm0 2.9zm0 4.1h.1a.1.1 0 0 0-.1 0zm.3 1.3h-.2s-.1.1 0 .3c.1-.2.2-.2.2-.3zm-.2-1.6zm0-3.4zm0-4.9h.2v-.2h-.1v.2zm.1 3.2zm.1 1zm-.1.5zm.1 6.2a.1.1 0 0 0 .1.1h-.1zm.1-8.5a.1.1 0 0 0-.1.1c.1.1.1 0 .1-.1zm-.1-3.1zm.1 9.4zm-.1-7.6zm.1 10.5h.1c-.1 0-.2 0-.2.1h.1zm.1.3h-.1c-.1.1-.1.1 0 .1h.1zm-.1-7.5zm0-.5c.1 0 .1 0 .1-.1zm0-3.5zm.1 8zm.1-5.8h-.1c0 .1 0 .1.1 0zm0 7.9c-.1-.1-.1 0-.1 0h.1zm-.1-11zm0 3.7h.1c-.1 0-.1 0-.1.1zm.2 6.4h-.1v.2h.2v-.2zm-.1-1.5zm.1-8.4a.4.4 0 0 0-.1.3h.1c0-.1 0-.2.2-.2h.1c0-.1 0-.1-.1-.1s-.2-.1-.2 0zm0 2.4zm.2 1.4h-.1a.3.3 0 0 0-.1.2h.1v-.3zm.2-1.9h-.3a.1.1 0 0 0-.1.1h.4zm-.4.2h.1v-.2h-.1zm.1 8.9c0-.1 0-.1-.1-.1h.1zm.2-7.7zm-.3 7.4zm.2-9.6zm0 7.5c.1-.1.1-.1 0-.1s-.1.1 0 .1zm.2-7.2h-.2a.1.1 0 0 1 .1.1h.1zm-.1 2.9zm0-4.6zm.3 3.1c0-.1-.1.1 0 .1zm.5.2zm27.9 11.1h-3.6l-.2-.4a2.1 2.1 0 0 1-.4-.6l-.4-.5c-.1-.3-.3-.5-.4-.8l-.7-.9c0-.1 0-.2-.1-.2v-.2h-.1l-.4-.6-.4-.6a2.8 2.8 0 0 0-.6-.9c0-.1 0-.1-.1-.2h-.1c-.1 0-.1-.1-.1-.2h-.2l-.4.5v5.8h-.2c-1.3 0-3.4.4-2.9-.7v-8.6c0-.1.1-.2.1-.3h-.1v-7.7h3.1v6.2h.1l1.7-2.5 1.7-2.4a12.5 12.5 0 0 1 .8-1.2h3.8c-.1.2-.3.3-.3.5s-.3.5-.6.7l-1.9 2.3-.4.6-.5.7c-.6 1-1.3 1.8-1.9 2.7l-.2.4.2.3.2.3.4.6.6.9.2.3c.1.2.2.3.2.4l.5.6.6 1 .6.9.3.4a.8.8 0 0 0 .2.4 2.1 2.1 0 0 1 .4.6v.2c.1.1 0 .1.1.2l.3.4a5.6 5.6 0 0 1 .5.8l.3.3.2.4zm-10.8-11.4zm.1 4.7zm0-3.8zm4.5 4.3h.1c0-.1.1 0 .1 0h.4v-.4c0-.1-.1-.2-.1-.3a.1.1 0 0 0-.1.1c.1.2-.1.1-.1.3h-.1v-.2c.1 0 0-.1-.1-.2l-.3-.2a.4.4 0 0 0-.1.3h-.1v-.2h.1a.1.1 0 0 0 .1-.1v-.2h.2c0-.1 0-.1.1-.1 0-.1-.1-.1 0-.2-.1 0-.1 0-.1-.1h-.2c0 .1-.1.1-.1 0a.1.1 0 0 0 .1-.1l-.2.3s0 .1-.1 0-.1-.2-.1-.3h-.6c0-.1 0-.1-.1-.2h.2c0 .1 0 .1.1.1s.1.1.1.2h.4v-.2h-.4c0-.1.1-.1 0-.2h.4c.1 0 .1 0 0-.1h.3v-.2h-.1v-.2h.2l.2-.2c-.1 0-.2 0-.2-.1h.1a.1.1 0 0 1 .1-.1h-.1c0 .1 0 .1-.1 0h-.1a.3.3 0 0 1-.1-.2h-.6a.1.1 0 0 1-.1.1.1.1 0 0 0-.1-.1h-.3v.2c.1 0 .1 0 .1.1h.1c-.1 0-.1 0 0-.1h.6a.3.3 0 0 0 .1.2c0 .1 0 .2.1.2a.3.3 0 0 0-.1.2h-.1v-.2h-.3c0 .1-.1.1-.1 0h.3v-.3h-.6c-.1.1-.1.2 0 .2h.1c0 .1-.1.1-.1.2h-1.1a.2.2 0 0 0 0-.3h-.2v.2h.1c.1 0 .1.1.1.2h-.5c-.1.1-.2.3-.4.3h.1v-.2h-.1a.1.1 0 0 1 .1.1h-.4c-.1 0-.1-.1 0-.1h.3l.2-.2v-.2c-.1 0-.1-.1-.1-.2h-.2c-.1-.1 0-.1 0-.2s.3-.2-.1-.4.1-.1 0-.2c0 .1 0 .1.1.1h.2a.3.3 0 0 0 .1-.2h-.8c0 .3 0 .2-.1.3h-.1a.1.1 0 0 0-.1.1v.2h.2c0-.1 0-.1.1-.2s.1 0 .2.1.1 0 .2.1a.4.4 0 0 0 0 .5c.1.1.1.1 0 .2h-.2v.2c-.1 0-.2 0-.2-.1h.1c0-.1.1-.1.1-.2h-.2c-.1 0-.2.1-.2.3h.1c-.1.1-.2.1-.2.2h.1c.2.1.2.2.2.3h-.1a.5.5 0 0 0 0 .5h.2v.2h.1a.1.1 0 0 1 .1-.1h.1c0 .1.1.1 0 .1h-.4l-.2-.2h-.1c0-.1 0-.1-.1-.1-.1.1-.1.1 0 .2s0 .1.1.1a.1.1 0 0 0-.1.1.1.1 0 0 1-.1.1c.1.1.1.1.2 0h.2v.2h-.2a.1.1 0 0 1-.1.1h-.1c-.1.1-.2.1-.2.3h.7v.2h-.2c-.1 0-.1.1 0 .1h.1c0 .1.2.1.1.3h.2a.3.3 0 0 0 .1.2c.1.1.1.1 0 .1s0 .1-.1.1h-.5c-.1 0-.1-.1-.1-.2h-.1a.1.1 0 0 0 .1.1h.1a.1.1 0 0 1 .1.1h.5c0-.1.1-.1.1 0h.2V86c.1 0 .1.1.2 0 0 .1 0 .2-.1.2h.2c0-.1.1-.1.1-.2h.1l-.2-.2v-.2l-.2-.2a.1.1 0 0 1 .2 0c.1.1.1.2 0 .2a.3.3 0 0 1 .1.2.4.4 0 0 0 .1.3h.1a.1.1 0 0 0 .1.1V86h.2a.4.4 0 0 0 .1.3c.1-.1.1-.2.2-.2h.2c.1 0 .1-.1.1-.2h-.2v-.3h-.1c-.1 0-.1-.1 0-.1s.2.2.2.1h.2v.2h.4c0-.2.1-.2.2-.4h.3c0 .1.1.1 0 .2h-.2c-.1 0 0 .1 0 .2h-.1v.2h.1a.1.1 0 0 1 .1.1c.1 0 0 .1-.1.2h-.1c.1.1.1.2.2.2h.3c0 .1-.1.1 0 .2h.1c-.1.1-.1.1 0 .2h.5l.3-.2h.1c.1 0 .1 0 .1.1h-.4c0 .2-.1.2-.2.2h-.2c0 .1 0 .2.1.2 0-.1.1-.2.1-.3zm-4.5-7.4h.3c0-.1 0-.1-.1-.1h-.2zm0 6.5zm.4 3.5a.1.1 0 0 1 .1-.1l-.2-.2h.1zm-.2-8.2c0-.1.1-.1.1-.2zm0 2.2h.1c0-.1 0-.1-.1-.1zm.1-1v-.2h.1zm-.1 2zm-.1 3.6zm0-2.8h.1a.1.1 0 0 0 .1-.1h-.2zm.2 4.5a.1.1 0 0 0-.2 0c.1.1.1.1.2 0zm0-6.6h-.2c0 .1 0 .2.1.2.1-.1.1-.1.1-.2zm-.2-5a.1.1 0 1 0 .2 0h-.2zm.1 7.8zm0-7c0 .1 0 .2.1.2h.4a.1.1 0 0 0 .1-.1c-.1 0 0-.2-.2-.2h-.1c-.1-.1-.1-.1-.1-.3h-.2zm.1 8.9c0 .1 0 .1.1.1v-.2h-.1c-.1 0-.1.1 0 .1zm0-2.2zm.4-5.6h-.2c0 .1 0 .2-.2.2h.1c.1-.1.1-.1.1-.2h.1s.1-.1.1 0zm-.3-2.4zm0 .2h-.1a.1.1 0 0 0 .1.1h.1a.1.1 0 0 0-.1-.1zm.6 1.6h.2c0-.1-.2-.1-.3-.1a.1.1 0 0 1-.1.1h-.3c0-.1-.1 0-.2 0h.3v-.2h.1c.1 0 .1 0 .1-.1h.2zm-.5 11.3a.1.1 0 0 0 .1-.1h-.1v.2h.1zm.2-.8c.1 0 .1 0 .1-.1s.1-.1.1-.2h.3v-.2h-.7a.1.1 0 0 1 .1.1h-.2a.1.1 0 0 0 .1.1c.1 0 .1.1 0 .1v.2h.2v-.2zm.1-1.6l-.2-.2h-.2c.1.1.2 0 .2.1v.5h.3c.1.1.1.1.1 0s.2-.1.1-.2h-.2v-.2zm.1-3.9h-.2a.1.1 0 0 1-.1-.1h.3zm-.1 7.2zm-.2-8.9c0 .1.1.1 0 .2v-.2zm.1-4.6zm0 5.5zm.1 2zm-.1 1.9zm0 1.5h.2v-.2a.1.1 0 0 0-.1.1zm0-11.4a.1.1 0 0 1 .1.1.1.1 0 0 0 .1-.1c.1-.1 0-.1 0-.1zm.1 8.8h-.1c.1-.1.1-.1.1 0zm.1-5.3v-.2h-.2c.1.3.2.3.2.2zm0 .5h-.1c0 .1-.1.1-.1.2h.2zm.1 9.5v-.2h-.3l.2.2v.2h.1zm-.2-3.4zm0 .4zm.5 2.5h-.1c.1.1.1.1.1 0zm-.3.8h-.1a.1.1 0 0 0-.1.1v.2h.2c.1-.2 0-.3 0-.3zm.4-12.9h-.2c-.1-.1-.1-.2-.2-.2s-.1 0-.1.1v.2a.2.2 0 0 0 .2.2v.2h.2c0-.2 0-.3-.2-.3l-.2-.2h.3a.3.3 0 0 1 .2 0zm-.5 6.3zm.1-1.5zm0 4.6a.1.1 0 0 0-.1-.1h.1zm.2-10c-.1 0-.2 0-.2-.1h.2zm-.1 5.6zm-.1 4.9h-.1c0 .1 0 .1.1.1zm-.1-11.1h.1c.1-.1.1-.1 0-.1zm.3 7.4c-.1 0-.1 0-.1-.1h.1zm0 3.3h-.1a.1.1 0 0 0 .1.1v.4h.3c.1-.1 0-.2-.1-.2s-.1 0-.1-.1v-.2h.1c.1 0 .1-.1.1-.2h-.4c0 .1 0 .1.1.2zm0-3.7h-.1c.1-.1.1-.1.2 0zm0 2.1zm0-8.1zm.2 7h-.1c-.1 0-.1 0 0-.1zm0 3.8h-.1c-.1 0-.1.1 0 .1zm-.1-5.8zm.3.9h-.3v-.2c0-.1 0-.2.1-.2V82h.2l-.2.2c0 .1.1.1.1.2h.1c0 .1 0 .2.1.2h-.1zm-.1 5.2zm0 .6zm.1-7.6c-.1-.1-.1 0-.2 0h.2c.1 0 0 0 0 0zm-.1 2.6zm0 6.5zm-.1.2zm.8-6.8h.2v.3h-.3v.3h-.2c.1-.1.1-.1 0-.1h-.1a.1.1 0 0 1-.1.1s-.1.1 0 .1v.2h.1c-.1.1-.1.2-.1.4s-.1 0-.1-.1v-.2h-.3v-.2a.1.1 0 0 0 .1-.1h.1a.1.1 0 0 0 .1-.1s.1 0 0-.1h.4zm-.7 6.2zm.2-11.5zm-.1 1.1zm.1 1.1c.1-.1 0-.1 0-.2v.2zm0 6.5zm0 1.3s-.1 0 0 .1a.1.1 0 0 1 .1-.1zm0-4.9h.1v.2h-.1zm.1-1.7zm.1.6h-.1zm.1-1.7c-.2 0-.2.1-.1.2l.2-.2zm.1 4.3h-.1c-.1 0-.1 0-.1-.1h.1c.1 0 .1 0 .1.1zm0-2.2zm.1-.8h.1c0-.1 0 0 .1 0h-.2zm.6 1.5h-.6a.1.1 0 0 1 .1-.1h.2v.2h.3c.1 0 0 .1 0 .2zm-.4-1.1h-.1a.1.1 0 0 1 .1 0zm-.1-.9zm.1 2.1zm.3-.7h-.1v-.2zm-.2-1.1c.1 0 .1-.1 0-.1l.4.2h-.2a.1.1 0 0 1-.1.1zm.4 2.8h-.2c0 .1 0 .1.1.1a.1.1 0 0 0 .1-.1zm0-.8zm-.1-1.1a.1.1 0 0 0 .1-.1h.1v.2h-.2zm.1.8zm.1-.4a.1.1 0 0 1-.1-.1zm0 1.7zm.1-.3zm-.1-2.8zm.1.1c.1.1.1.1.1.2h-.1c-.1-.1-.1-.1 0-.2zm.1.7h-.1a.1.1 0 0 1 .1 0zm-.1.4h.1c-.1.1-.1.1-.1 0zm.2.7h-.2c0-.1.1-.1.1 0zm-.1 1.4h-.1zm.3-1.7zm-.2-1.1h.1a.3.3 0 0 0 .1.2v.2h-.2zm.2-1.9zm.2 4zm-.1-.8h-.1a.1.1 0 0 1 .1-.1zm0-1.8zm.1 2c.1 0 .1.1 0 .2zm0-3.3a.1.1 0 0 1 .1.1c.1 0 0-.1 0-.2h-.1zm.1 1.4zm.3 2.4zm-.2-1.9zm-.1 1.1zm.2 1.2v.2h-.1c0-.2 0-.2.1-.2zm0-.9c-.1 0-.1 0-.1-.1h.1zm.1-3.2h.1c.1-.1 0-.1 0-.2h-.1zm0-.7zm.2 5.3a.1.1 0 0 1-.1.1h.1zm0-4.6zm.2 4.2h-.2v-.2h.1zm-.1-4.3l.3.2.2-.2v-.2h.4c0 .1 0 .1.1.1s.1 0 .1-.1h-.3c-.1.1-.1.1-.2 0h-.2c.1 0 0 .1 0 .1h-.1l-.2.2h-.1c0 .1.1.1.1.2h.1c.1-.1.1-.1.1-.2h.1v.2h-.4zm0 .3zm.3.5a.1.1 0 0 1 .1-.1h-.1zm-.1.6zm0 3.9h.1a.1.1 0 0 0-.1-.1zm.2.5l-.2.3c0 .1.1.1.2.1zm-.1-2.1zm.1.4zm.1 1.5zm-.1-7.4zm.2.4zm.1 1.8v-.2c-.1 0-.1 0-.1.1s-.1.2-.1.3h.1v-.2zm0 6.1zm-.1-.8zm.2-.4h-.2c0 .1 0 .1.1.1zm.1-5.7zm-.1 6h.1a.1.1 0 0 1 .1-.1h-.2zm0-7h.2c-.1-.1-.1-.1-.2 0zm.1-.2c.1 0 .1-.1 0-.1s-.1 0 0 .1zm.1 8h.6c.1.1.1.1.1.3h.1v-.4h-.4c-.1 0-.1-.1-.2-.2h-.2v.2h.1a.1.1 0 0 0-.1.1c0-.1 0-.1-.1-.1-.1.1 0 .2.1.2zm-.1-1.3zm0 2.1zm.1-9.2zm.1 1.9zm.3-2.2h.1v-.2h-.1zm0 9.1a.1.1 0 0 1 .1-.1h-.1zm.1-8.8c-.1 0-.2 0-.2.1h-.2l.2.2c0-.1.1-.1.2-.2zm-.2 7.2zm0-6.5c-.1 0-.1.1 0 .1zm.2-.3h-.1zm-.2 6.3zm.1 1h-.1c0 .1.1.1.1 0zm.1-6.6zm.3 8.9h-.3a.2.2 0 0 0 .3.1zm-.4-2zm0-6.7zm.5 8.3c-.1-.1-.1-.1-.2 0h-.1a.1.1 0 0 0-.1-.1v.2c.1 0 .2 0 .2-.1zm-.2-.5h.3c0-.1 0-.1-.1-.2h-.3v.2zm0-9.3h.1v.1zm.2.9zm0-.3zm.3 10.1h-.3v.3h.3zm-.3-10.8h.1l.2-.2c0-.1 0-.2-.1-.1h-.1c0 .1-.1.1-.1.2zm0 8.3zm.1.4zm.2-7.7a.1.1 0 0 0-.1.1.1.1 0 0 0 .1-.1zm.2 8.8zm-.2-.5v.2h.1c0-.1.1-.1.1-.2l.2-.2c-.3 0-.3.1-.4.2zm-.1-9.9h.1c-.1-.1-.1-.1-.1 0zm.3 10.9h-.1v.2c0 .1 0 .2.1.2a.1.1 0 0 0 .2 0c-.1-.3-.1-.4-.2-.4zm-.1.7zm.2-12.5h-.2a.1.1 0 0 0 .2 0zm.1 1.1s.1.1 0 0zm-.2-1.7h.2c-.1 0-.1 0-.1.1zm.3 1.3c0-.1-.1-.2-.2-.1h.2zm-.2-1zm.1 13c.1-.1 0-.1.1-.2h-.1c0 .1-.1.1-.1.2zm.1-12.4h-.1a.1.1 0 0 0 .1.1zm.1 12.6h.1c.1-.1 0-.1 0-.2h.1c-.1 0-.1 0-.1.1h-.2a.1.1 0 0 1 .1.1zm-.1-1.4zm0-12.4zm.1 2.5zm0 10.5v-.2h-.1a.1.1 0 0 0 .1.2zm.2 1h-.1c.1.2.1.1.1 0zm-.2-2.2zm.9 2.7h-.3c0-.1 0-.1-.1-.1h-.2a.1.1 0 0 0-.1.1h.4c-.1 0-.1.1-.1.2h.4zm-.5-13.7a.1.1 0 0 0 0-.2c-.1 0-.1 0-.1.1v.2c0-.1 0 0 .1-.1zm-.1 13.2h.1c0-.1 0-.1-.1-.2zm0-.5h.5c-.1-.2-.2-.2-.3-.1h-.1a.1.1 0 0 1-.1.1zm.3-13.9zm.1.5zm.5 14h-.2zm0-14.2a.1.1 0 0 1 .1-.1zm.1 14.5zm.1-14.7h-.1zm28.3 0v2.2h-7.7v3.9h6.5v2.9h-6.4c-.1 0-.1 0-.1.1v4.1h7.7v2.9h-10.5c-.3 0-.2-.4-.2-.7V74.2h10.7v.8zm-10.2 5zm.2.9c.1.1 0 0 0 0zm-.1-3.2h.5v.4h.1V78h.6c.1-.1.1-.1.1-.2h-.4c0 .1 0 .1-.1.1h-.5c0-.1 0-.1-.1-.1h-.3zm0 7.7h.1c.1 0 .1 0 .1.1h.4c.1-.1.1-.1.2 0h.1a.1.1 0 0 1 .1-.1c.1 0 .1 0 .1.1h.1c.1-.1.1-.1 0-.2h-1.2zm0-1.1h.1a.1.1 0 0 0-.1 0zm2.3 5.1l-.2-.3h-.1V89c.1 0 0 0 0-.1h-.2v-.2h-.1c-.1 0 0-.1-.1-.1h-.1a.1.1 0 0 1-.1-.1h.1l-.2.2h-.5c0-.1 0-.2.1-.2v-.2c0-.1.1-.1.1-.2h.2c.1-.1.1-.1.1-.2v-.2h-.6v-.5.2h-.2c-.1 0-.1.1 0 .1s0 .1.1.1h.2v.5c-.1.1 0 .2 0 .3h.1l.2-.3h-.2c0-.1 0-.1.1-.2h.1a.1.1 0 0 0 .1.1h-.4v.2h.1a.3.3 0 0 0-.1.2h-.1c-.1 0-.2 0-.2.1v.2c.1.1.2-.1.2 0h.5c.1 0 .1 0 .1.1h.2a.1.1 0 0 1 .1.1.1.1 0 0 0 .1-.1h-.1a.4.4 0 0 1-.1-.3h.1c0-.1 0-.1-.1-.1h.2v.2h.2c.1 0 .1 0 .1-.1h.6c.1 0 .1 0 .1-.1h.7c0 .1.1.1.1.2s.1.1.1 0h.1v.2l.2-.2h.1v.2h.1v-.2c0-.1.1-.1.2-.1a.1.1 0 0 1-.1-.1c-.1 0-.2-.2-.1-.2h.1l.2.2h-.1c-.1 0-.1.1 0 .1a.3.3 0 0 1 .1.2c.1 0 .1 0 .1-.1h.5v-.3c-.1.1-.1.2-.2.1h-.1a.1.1 0 0 0-.1-.1h.5c0 .1-.1.1-.1.2h.4c0 .1-.1.1-.1.2h.3c.1-.1 0-.2 0-.3h.2v-.2a.3.3 0 0 0-.1-.2l-.3.2h-.1c-.1 0-.2 0-.2-.1h-.3c0-.1 0-.2-.1-.2h.2c.1-.1-.1-.1 0-.2h-.8v.2h.2c-.1 0-.1 0-.1.1h-.4v.2h-.3v-.4h-.6v.2h-.3zM153.3 77zm0-1zm0 5.9h.3a.1.1 0 0 1-.1-.1zm.2-2.2h-.1c-.1 0-.2.1 0 .2zm0 1.2c-.1-.1-.1-.2-.2-.2v.2zm1.9.9h-.1c.1 0 .1-.1.1-.2h-.7v-.2h-.3l-.2.2c.1-.1 0-.1.1-.2h.5c-.1-.1-.1-.1 0-.2h-.1v.2h-.3c.1 0 .1 0 0 .1h-.4a.1.1 0 0 0 .1.1c0 .1-.1.1-.1.2s0 .1-.1.1h-.1a.4.4 0 0 0 .1.3h.4c-.1 0-.1.2-.2.2l-.2-.2h-.1a.1.1 0 0 0-.1-.1c0 .1-.1.1-.1.2a.2.2 0 0 0 .2.2c.1 0-.1.2-.2.2s.1.1 0 .1c-.1.1 0 .1 0 .2h.1a.1.1 0 0 0 .1-.1c.1 0 .1 0 .1.1h-.1c0 .1 0 .1-.1.1h-.2a.3.3 0 0 0 0 .4h.6a.3.3 0 0 0 .1.2v.2c-.1 0-.1-.1-.2-.2h.1c.1 0 .1 0 .1.1h-.2c.1 0 .1.1.1.2v.2h.3V84c-.1 0-.1-.1 0-.1s.2-.1.1-.2-.1-.1 0-.1h.3c.1-.1 0-.1.1-.2s0-.2.1-.3v-.2h.2v.2h.2c.1-.1.1-.1.2 0h.2c0 .1 0 .1.1.2h.1v-.2h-.1a.4.4 0 0 0-.1-.3h-.2c0-.1 0-.1.1-.1h.1a.3.3 0 0 1 .1.2h.3v.2h.4c.1 0 .1 0 0 .1s0 .1.1.1h.1c0-.1 0-.2.1-.2h.2c-.1.1-.1.2-.2.2a.1.1 0 0 0 .1.1h.2v.2h.1v-.2c0-.1 0-.2.1-.1h.5v-.2c.1-.1.1-.1 0-.2h.2a.1.1 0 0 0 0-.2c0 .1 0 .1-.1.1h-.2a.1.1 0 0 1-.1-.1h-.2c-.2 0-.2-.1-.2-.2h-.4c0 .1 0 .1.1.1h.5v.2c0 .1 0 .1.1.1h.1v.2c0 .1 0 .1-.1.1h-.2c0-.1-.1-.2-.1-.3h-1.1v-.2h.2a.1.1 0 0 0-.1-.1h.1c.1-.1.1-.1.1-.2h-.1a.1.1 0 0 1-.1.1h-.1a.2.2 0 0 1-.2.2h-.4c.1-.1.1 0 .1-.1h-.2zm-2 1.1h-.1a.1.1 0 0 0 .1 0zm0 3.6zm.1-4.9h-.1c-.1.1 0 .1 0 .2h.1zm-.1 2h.1a.1.1 0 0 0 .1-.1h-.2zm.2-7.2v-.2h.2v-.3h-.2a.1.1 0 0 1-.1.1c-.1 0-.1.1 0 .1a.1.1 0 0 0 .1.3zm1.2 0c-.2 0-.1.1-.1.2h-.7l-.2-.2c0 .1 0 .2-.1.2a.1.1 0 0 0 0 .2h.4a.1.1 0 0 1 .1.1v.2h-.2c-.1 0-.1 0-.1-.1h-.3l-.2.2c0 .1 0 .2.1.2h.5a.4.4 0 0 0-.1-.3h.5v.2a.2.2 0 0 1 .2.2h.2c-.1 0-.1-.1-.1-.2h.3c.1-.1.1-.1 0-.2s-.1-.1 0-.2v-.2zm-1.3 10.4zm.1-2.8zm0 2.4h-.1a.1.1 0 0 0 .1 0zm-.1 2.2c.1.1.1.1.1 0h-.1zm0-12.8zm.2 3.2h.1c0-.1 0-.1.1-.1h-.1a.1.1 0 0 0-.1.1h-.1c-.1 0-.1 0 0 .1zm0 2.3h.1V81h-.2s-.1.1 0 .1zm0-6.2zm.4 3.9c.1-.1.2-.2.2-.1h.4v-.2h-.7v.2h-.2a.4.4 0 0 1-.1.3h.1l.2-.2h.2c.1 0 .1 0 .1.1h.1a.3.3 0 0 0-.1.2v.2a.1.1 0 0 0 .2 0v-.4a.1.1 0 0 0 .1-.1h-.4zm-.4 10.6zm0-2.5zm.3-6.5h-.2a.4.4 0 0 0-.1.3l.3-.2zm-.2 4.6h.2c-.1-.1 0-.2 0-.3h-.2c-.1 0-.1 0-.1.1zm.3 2.1c-.1.1-.2.2-.1.3h.2c.1.1 0 .2.1.2h.3a.1.1 0 0 0 .1-.1h-.3l-.2-.2h-.1c0-.1 0-.1.1-.1l-.2-.2a.1.1 0 0 1-.1-.1h-.2c0 .1 0 .1.1.1h.1v.5h.2zm-.2.9zm2.3-11.8h-.3l.2-.2c0-.1 0 0-.1-.1h-.1v-.2a.2.2 0 0 0 0-.3c.1-.1 0-.2.1-.3s0 0 0-.1h-.2v.2c-.1-.1-.2-.1-.2 0h-.7l.2-.2h.2l.3-.2h-.4c0 .1.1.1 0 .2h-.2V75h-.2v.4h-.1c0 .1 0 .2-.1.1l-.2-.2h-.4c-.1 0-.2-.1-.1-.1s.1-.1 0-.1h-.2c.1 0 .1.1 0 .2h.1v.7h.2c0 .1 0 .2.1.2h.5V76h.5c.1.1.1.1 0 .2s-.2.1-.1.2h.5c0-.1-.1-.2 0-.3h.3c0 .1 0 .2.1.2h-.1c0 .1.1.1.1.2h.2a.1.1 0 0 1 0-.2zm-2.4 14.1zm.1-7.6c-.1 0-.1-.1-.1-.2s.2.3.1.2zm0-1.1zm.1.3zm.1 1.9a.2.2 0 0 1 .2.2h-.1c-.1 0-.1 0-.1-.1zm0 6.7a.1.1 0 0 0-.1-.1h.1zm0-11.3c-.1 0-.1.1-.1.3h.2c0-.2 0-.3-.1-.3zm0 .9h.1a.1.1 0 1 0-.2 0zm0 6.3zm.1 2.6zm.2 1c-.1 0-.1.1 0 .1h-.3l.2-.2h.1zm-.2-7zm.1 7.9h-.1c-.1 0-.1 0-.1.1h.1a.1.1 0 0 0 .1-.1zm-.1-10.2zm0 .9zm0 4.6zm.1-8.9zm.1 4.6zm-.2 4.7zm0-11.3zm0 2.9h.1c.1 0 .1 0 0-.1h-.1zm.2-2h-.1c0-.4.2-.3.1 0zm0 6.8c-.1 0-.1 0-.1-.1h.2c0 .1 0 .1-.1.1zm.3 3.5v.2h-.1v-.3h-.3c0 .1.1.1.2.2v.2h.3v-.2zm-.4 3.2zm.1-14.7c.1 0 .1 0 .1-.1s0-.2-.1-.2c-.1.1 0 .2 0 .3zm.1 11h-.1c-.1.1 0 .1.1.1h.2v-.2h-.3zm-.1-3.5a.1.1 0 0 1 .1-.1h-.1zm.3 1.1zm-.3 7zm.2-.5c0 .1 0 .2-.1.1h.1zm0-8.5zm.4.9h-.4v-.2h.1V82h.1c0 .2.1.2.1.2s.1.1.1.2zm.1 6.6c-.1 0-.1 0-.1-.1h-.4s.2.1.1.2h-.1v-.3l.2-.2v-.2c.1 0 0 .1.1.2v.2c.1.1.1 0 .1.1h.2zm-.5-1.2h.1a.4.4 0 0 0 .1-.3h-.1a.4.4 0 0 0-.1.3zm.2-2.6zm-.1-1h.1c-.1.2-.1.2 0 .2h.1v-.2h-.2zm.2-6.3V78zm-.1-2.1a.1.1 0 0 0 .1.1h-.1zm.1.6zm.1 11.5V88h-.1a.1.1 0 0 0-.1.1v.2h.1l.1-.1zm0-8.9zm-.1 1zm0 6.4zm.3-2.6l-.2-.2c.1.3.2.3.2.2zm-.1 5.6h-.1a.3.3 0 0 1-.1-.2h.2zm.3-12.7v-.3h-.2c-.1 0-.1.1-.1.2zm-.2 5.2h-.1V82h.2c0 .2 0 .2-.1.2zm.3 7.9h-.2v-.2h.3zm-.2-1.6zm.1.3zm-.1-6.4zm.1 1.6h.1v-.2c0 .1-.1.1-.1.2zm.1 5.8zm.1-.6h-.1a.1.1 0 0 1 .1.1zm.2-13.7h-.1c-.1 0 0 0 0-.1zM156 91l-.2-.2v.2zm-.2-8.4h.1a.1.1 0 0 1-.1 0zm.3.8h-.2c-.1-.1-.1-.1-.1 0a.3.3 0 0 0 .1.2h.1v-.2zm-.2 6.8c-.1 0-.1-.1 0-.1h.3c0-.1 0-.1-.1-.2h.2c.1 0 .1.1.1.2h-.1c-.1.1-.2.2-.2.3zm.1-7.9h.1c-.1 0-.1 0-.1.1zm.7-6.8h-.4a.2.2 0 0 0-.2.2h.1c.1 0 .1.1.1.2h.4zm-.6-.5h.1c.1 0 .1 0 .1.1s.1 0 .1-.1h-.3zm.3 7.8h-.3a.1.1 0 0 0 .1.1c.1 0 .2 0 .2-.1zm-.2 8c.1.1.1.1.2 0zm.2-7.3c0-.1 0-.2-.1-.2-.1.1-.1.1 0 .2h.1zm0-7.1h-.1c0 .1-.1.1 0 .2h.1zm.1-.4h-.1v.3a.1.1 0 0 0 .1-.1.3.3 0 0 0 .1-.2zm-.1 13zm.2 2h-.1c-.1 0 0 0 0 .1zm-.1-8.8h.2c0 .1 0 .1.1.1h.1a.1.1 0 0 1-.1-.1h.4c0-.1-.1-.1-.2-.1h.1c-.1-.1-.2 0-.3 0h-.1c0 .1 0 .1-.1 0zm0 .9h.2c.1 0 .1.1 0 .1h-.2zm.1-8.3zm.1 14.8zm0-13.9h.3v-.2h.5a.1.1 0 0 1 .1-.1h-.5a.1.1 0 0 1-.1-.1c.1 0 0 0 .1-.1h-.2v.4h-.2zm0 14.4v-.2h.2c0 .1.1.1.1.2a.1.1 0 0 0-.1-.1h-.1c-.1.3-.1.2-.1.1zm.1-8.3h.1c.1 0 .1-.1 0-.1h-.1zm.6-5.6h.1c0-.1-.1-.1-.2-.1h.5v-.2c0-.1-.2 0-.3-.1h-.6c-.1 0-.1 0 0 .1 0 .1.1.1.1.2h.1a.1.1 0 0 0 .1-.1zm-.4 14.3zm0-7.4h.1v.2a.1.1 0 0 1-.1-.2zm0-8.2zm.2 15.3zm0-6.8h.1v.2zm.1.3zm0 5.5zm.9-12.6h-.6v.2c-.1 0 0 .1 0 .1h.2c0 .1.1.1.2.1s.1-.1.2-.1zm-.7 12.5zm.1-6.8h.2a.1.1 0 0 0-.1.1h.1c0 .1.1.1.1 0h.4c0 .1-.1.2 0 .3h-.1v.2h.2c.1 0 .1 0 .1.1s0 .2.1.2h.1l.2-.2h.4c-.1.1-.1.1 0 .2h.1c-.1-.1-.1-.1 0-.1h.2V83h-.5c.1 0 .1 0 .1-.1s0-.2-.1-.2H158v-.2c-.1 0-.1 0-.1-.1h-.3c-.1-.2-.1-.2 0-.1zm1.2-6.5h.1c.1-.1.1-.1 0-.1s0-.1-.1-.1h-.9c.1 0 0 .1.1.1h.1a.1.1 0 0 0-.1.1c.1.1.1.1 0 .2h.2c.1-.1.2-.1.2-.2a.1.1 0 0 1 .1.1c0 .1 0 .2.1.2h.1a.1.1 0 0 1-.1-.1l.2-.2zm-1 13.4h.1a.1.1 0 0 1 .1-.1h-.1c-.1 0-.1 0-.1.1zm.1-13.9zm.3 8.6c-.1-.1-.1-.1-.2 0h.2zm-.1-7.9zm.1 13.2zm.1-13.4zm.1 6.4h.2l-.2-.2s-.1.2 0 .2zm.1 7V89h-.1a.1.1 0 0 1 .1.2zm.3-.1h-.3c0 .1-.1.2 0 .3h.7l.3-.2h-.4V89l-.2-.2v-.2zm-.3-13.9h.1c.1-.1.1-.1 0-.1h-.1zm.5 15.5c-.1-.1-.2 0-.3 0h.3zm-.3-7.7h.1v-.2h.1v.2h-.3zm.1 6.3h.1c0 .1 0 .1-.1.1a.1.1 0 0 1-.1-.1zm0-13.8zm1.3.8l-.2-.2h-.4c0 .1-.1.1-.1 0v-.2c-.1 0-.1 0-.1.1h.4v.2c.1.1.1.1.2 0h.1c0 .1 0 .1.1.1s.1.1 0 0zm-.9 13.7zm.1-14zm-.1 6.3h.1c0 .1.1.1.1.2h-.1c0 .1 0 .1.1.1h.3a.1.1 0 0 0 .1.1h.2a.1.1 0 0 1 .1-.1h.2a.1.1 0 0 1 .1.1h.1a.1.1 0 0 1-.1-.1h-.1c-.1.1-.2.1-.2 0s0-.1.1-.2 0-.1-.1-.2h-.1c0 .1.1 0 .1.1h-.3a.1.1 0 0 1-.1-.1h-.5zm.1-7.2c-.1 0-.1 0-.1.1h.1zm.1 15.6c0-.1 0-.1-.1 0h.1zm0-.8h.2c0-.1.1-.1.1-.2h-.3zm.2-.4h.2c0 .1-.1.2 0 .3v.2c0 .1-.1.1 0 .2h-.2V90h-.1c-.1 0-.1 0-.1.1v.2h.5l.2-.3h-.2a.4.4 0 0 0 .1-.3h.1v.3h.1a.1.1 0 0 1-.1.1h.2a.3.3 0 0 1 .1.2c-.1 0 0-.1 0-.2h.6v.2h-.2v.2h.4a.1.1 0 0 1 .1.1v-.2h-.2a.1.1 0 0 1-.1-.1h.3l.2-.2h-.1c0-.1 0-.1.1-.1h-.2v-.2h-.5c0-.1-.1-.1-.1-.2s0 .1-.1.2h-.3a.1.1 0 0 1-.1-.1h-.1v.2h-.1v-.2h-.1c0 .1-.1.1-.2 0h-.1zm-.2-13.1c.1.1.1 0 0 0zm0-1.1h.3a.1.1 0 0 0 .1-.1h-.3c-.1 0-.1.1-.1.2zm.2 15.6h-.1c-.1 0-.1 0 0 .1h.1zm-.1-16.2h.1c-.1-.1-.1-.1-.1 0zm.2 16.1zm0-1.6zm.1-6.6h.2a.1.1 0 0 0-.1.1c-.1 0-.1 0-.1-.1zm.8-7.3h-.4c0 .1.1.1.1.2h-.3a.1.1 0 0 0-.1.1h.6c.1-.2.1-.2.1-.3zm-.7 7.8zm.2.4zm.3-7.4v-.2h-.1zm-.1 14.3zm.1.4h-.1c0 .1.1.1 0 .2h.1v-.2c.2 0 .1 0 0 0zm-.1-8.8zm.2-5.7zm.1 7h-.1c0 .1 0 .1.1.1s.1 0 .1-.1zm.1 6.8c.1-.1.1-.1 0-.2zm.1.4zm.1-14.4v-.3h-.2v.2c0 .1-.1.1-.1.2s.3 0 .3-.1zm.4-.6h-.3c0-.1.1 0 .1 0h.2zm-.4-.6zm.1 1.3zm0-1zm.1.9zm.1 6.2zm.5-6.7h-.4c0 .1 0 .1.1.1h.1c0-.1 0-.1.1-.1h.1zm-.3.6c.1.1 0 0 0 0zm.1 14.3zm0-15.4zm.3.2h-.2c.1.1.2.1.2 0zm0 14.8h-.1a.1.1 0 0 1-.1.1h.3a.1.1 0 0 1-.1-.1zm0 .4zm0-15.5zm.5.8c0-.1-.1-.1-.1 0h-.2zm-.3 13.4zm0 .6h.2c0-.2-.1-.2-.2-.2zm.4-.5zm29-12.4v.3h-4.3c-.4 0-.4 0-.4.4v13.5c0 .5.1.4-.4.4h-2.6v-4.4c0-.2 0-.3.1-.4-.1 0-.1-.2-.1-.4v-9h-4.5c-.1 0-.1 0-.1-.1v-2.8h12c.3 0 .3 0 .3.3zM181 75.7c0-.1 0-.1.1-.1h-.2a.1.1 0 0 1 .1.1zm.3.2c.1-.1.1-.2 0-.2q-.3.2 0 .3zm.5-.8c.1 0 .1 0 .1-.1h-.1zm0 1.2zm.1.2zm.1-.9h-.1a.1.1 0 0 0 .1.1zm.5.5h-.1c-.1.1-.2.1-.2.2h.3zm.1-.7c0-.1 0-.2-.1-.1a.1.1 0 0 0-.1.1h.1zm.7.2c.1.1.1.1.1 0v-.2h-.2a.1.1 0 0 1-.1-.1h-.2v.2h-.1c-.1.1-.1.1 0 .2l.4-.4h.1zm2.9 5.8h-.4c-.1 0-.1 0 0 .1s.1 0 .1.1h-.1l-.2-.2h-.1c0-.1 0-.1-.1-.1h.3c.1 0 0-.1-.1-.2h-.1c-.1 0-.1 0-.1-.1h.1c-.1 0-.1-.1-.1-.2h-.1c-.1-.1-.2 0-.2-.2h.1l.3-.2c0-.2.1-.2.2-.2h.2V80h-.2c-.1 0-.1 0 0-.1h-.1c-.1-.1-.1-.1-.1-.2h.1l.2.2h.1a.1.1 0 0 1-.1.1h-.1c-.1-.1-.1-.5-.2-.4 0 .1 0 .1-.1.1h-.1v.2h-.1c0-.2 0-.3.1-.4a.1.1 0 0 0-.1-.1h.2v-.2l.3-.2h.3c0-.1-.1-.2-.1-.3h-.3l-.3-.2h.1c0-.1 0-.1.1-.1h.5a.1.1 0 0 0 .1.1c.1 0 .1-.1.1-.2h-.1v-.2c0 .1-.1.1-.1 0 .1 0 .1 0 .1-.1v-.2h.1v-.2c-.1 0-.1-.1-.1-.2h-.1c0 .1 0 .2-.1.2-.1.1-.1.1-.1 0v-.2h-.2v.2h-.6c.1 0 .2-.1.2-.3h-.1a.1.1 0 0 0-.1.1c-.2.2-.2.1-.3-.1v-.2h-.1c-.1.1 0 .1-.1.2h-.2v.2h-.8v.2c0 .1 0 .1-.1.1 0 .1-.1.1 0 .1h.2c0-.1 0-.1.1-.1h.1v.2c-.1 0 0 .1 0 .1h.4a.1.1 0 0 0 .1.1h.6c0 .1.1.1.1.2-.1 0-.1 0-.1.1s-.1.1 0 .1-.1.2 0 .3h.6a.1.1 0 0 1-.1.1c-.1 0-.1 0-.1-.1a.1.1 0 0 0-.1.1h-.1c0-.1 0-.1-.1-.2s0-.1-.1 0h-.1c0 .1 0 .1.1.1s.1.1 0 .1h-.1l-.2.2h.3c0 .1 0 .1.1.2h.2a.1.1 0 0 0 .1.1.1.1 0 0 1 .1-.1v.2h-.3c0-.1 0-.1-.1-.1 0 .1-.1.1-.2.1v.4a.3.3 0 0 0-.1.2h.2v.2h-.1c0 .1 0 .1.1 0h.2c0 .1-.1 0-.1.1h-.2v.2h.7c.1 0 .2 0 .2.1.2 0 .2-.2.3-.3zm-2.6-4.9h-.2c0 .1-.1.1 0 .1h.2zm.2-1.2zm.4 1.2zm.2 2.7zm-.1 5.9zm.1-8.3v-.2h-.1v.2zm0 .2c-.1 0-.1 0 0 .1v.2h.3c.1 0 .1-.1.1-.2h-.4zm0 7.5l.2.2v-.2h-.2zm.1 2.8zm0-1.1v.2h.1a.1.1 0 0 0 .1-.1h.2c.1 0 .1.1.1.2h-.2c.1.1.1.3.3.3h.4c0-.2 0-.2-.1-.3 0-.1-.1-.3-.1-.4h-.3V86h.3c.1 0 0 .1.1.1l.2-.2h.3c-.1 0-.1 0-.1-.1h-.2v.2h-.9a.3.3 0 0 0-.1.2zm.1-6.5h-.1c-.1.1-.1.1 0 .1s.1 0 .1-.1zm-.1-.4s-.1.1 0 .1zm.3 2.8v-.2h-.1v.2h.1a.1.1 0 0 0 .1.1h.1zm-.3 5.1zm.4-.3h-.3l.3.2zm-.3-10.3zm.2-.7c.1.1.1.1 0 .2h-.1a.1.1 0 0 1-.1-.1v-.2c.1 0 .1 0 .2.1zm.2 6.3h-.2l.4-.2.3.2c0 .2-.1.3-.2.3h-.1c-.1 0-.1 0-.1-.1h-.2v.2h-.2c0 .1.1.1.1.2l-.2.3h.4v-.2h.5v.2c-.1.1-.1.1 0 .2l.2.2a.1.1 0 0 1 .1-.1c-.1 0-.1-.1-.1-.2a.3.3 0 0 1-.1-.2h-.1c0-.1-.1-.1 0-.2s.1-.1.1-.3h.3c.1 0 0 0 0-.1h-.6c-.1.1-.1.1-.1 0v-.2h-.2c0-.1-.1 0-.1 0h.1zm-.3 2.8h-.1c.1.1 0 .1.1.2s.1 0 .1-.1h.1v-.2zm.1 2.8zm-.1 1.7zm.5-5.3l-.2-.2h-.1a.4.4 0 0 1-.1.3c-.1 0-.1 0 0 .1h.3c0-.1-.1-.1-.1-.2zm.5 3.7h-.1c-.1-.1-.1-.1 0-.1h.1c.1 0 .1-.1.1-.2a.1.1 0 0 0-.1-.1h-.3a.1.1 0 0 0-.1.1.4.4 0 0 1 .1.3c0 .1 0 .1-.1.1a.1.1 0 0 1-.1-.1h-.2c0 .1 0 .1-.1.1v.2c.1 0 0 .1 0 .1h-.2a.3.3 0 0 0 .1.2.1.1 0 0 0 .1.1h.1c.1 0 .1.1.1.2h.2c-.1 0-.1-.1-.2-.2h.6zm-.8-.6a.1.1 0 0 1-.1.1c-.1 0-.1.1 0 .2h.3c0-.1-.1-.1-.2-.1zm.3 1.8v-.3h-.2c0 .1.1.2.2.3zm-.3-7.4zm0 3.3h.5c.1-.1.5-.2.1-.3h-.7a.3.3 0 0 0 .1.3zm.1 4h-.2c.1 0 .1 0 .1.1s.1 0 .1-.1zm-.1.3zm.2-9.1c.1-.1.1 0 0 0zm0-3.9a.1.1 0 0 1-.1.1h-.1l.2-.2h.3c.1 0 .1 0 0 .1s-.1.1-.1 0h-.2zm-.1 11.8zm.1-12.3h.1c0-.1.1 0 .2 0-.1 0-.1.1 0 .2l-.3-.2zm.1 4.7s.1 0 0 0zm0 2.2a.1.1 0 0 0 .1-.1h-.1zm0 5.6zm.1-11.6c-.1 0-.1 0-.1-.1h.3c0-.1 0-.1.1 0v.2a.1.1 0 0 1 .1.1c.1 0 .1.1 0 .1a.1.1 0 0 0-.1.1h-.4zm-.1 5.1zm0 7.6zm.5-4.9h.1v-.2h-.3l-.2.2h.5zm-.4-1.4zm.1-1.8c0 .1 0 .1-.1.1h.1zm0-6.1c-.1 0 0 .1 0 0zm.2 14.6c-.1 0-.1-.1-.1-.2h-.1a.1.1 0 0 1 .1.1zm-.1-9.8zm0 8.8zm.3-2c0 .1 0 .1.1 0v-.4h-.2c0 .1 0 .2.1.2h.1c0 .1.1.1.1.3zm-.2-6.7a.1.1 0 0 1-.1.1h.2a.1.1 0 0 0-.1-.1zm.2 8.6c0-.1 0-.1-.1-.1s-.1 0-.1.1.1.2.2 0zm-.2-12.9h.4v.2h-.2zm0 3.9a.3.3 0 0 1 .1.2h.2c0-.1 0-.1-.1-.1v-.2h-.1zm.1 9.6c-.1 0 0 0 0 .1.1-.1.1-.1 0-.1zm.4-3.2h-.3c-.1 0-.1 0-.1.1h.4zm-.4-5.2h.3c.1 0 .1-.1 0-.1h-.3zm.1-.6v.2h.1v-.2h-.2zm.1 1.8zm.2 2.2h-.1c-.1 0-.2 0-.1.1s.1 0 0 .1h.2zm0 4c0-.1 0-.1-.1-.1h-.1c0 .1.1.1.1.2zM186 87h-.1a.1.1 0 0 0 .1.1.1.1 0 0 0 .1-.1zm.1-11.8zm0 2.6h.3c0-.1 0-.1-.1-.1h-.2v.2zm.1 7.3zm.5-9.4c-.1-.1-.1-.1 0-.1h.1v-.2a.1.1 0 0 0-.1.1h-.1a.1.1 0 0 0-.1-.1h-.1c-.1 0-.1 0-.1.1v.2h.5zm-.4-.6zm.2 1.2V76h-.1a.4.4 0 0 1-.1.3h.1c.1.1.1.1.1 0zm-.1 8.4zm.8-8.7h-.1l-.2-.2h.1c-.1 0-.1 0-.1.1h.1l.2-.2zm.1-.4v-.2l-.3.2v.2h.1a.2.2 0 0 0 .2-.2zm.1.9zm.2-.2h-.1a.1.1 0 0 1 .1-.1zm.1-.5v-.3h-.1c-.1.1-.1.1 0 .1h.2zm0-.7zm.1 0zm0 1zm.5-.6zm.2.6z"/><path fill="#f0f0f0" d="M84.5 27.1v39.5a2 2 0 0 0 2 2h1.9v1.2H67.7v-1.2h1.9a2 2 0 0 0 2-2V21.4a2.5 2.5 0 0 0-2.5-2.5h-1.6v-1.2h7.6a9.4 9.4 0 0 1 9.4 9.4z"/><path fill="#f0f0f0" d="M105.3 53.5v-5.4c0-8.8-.8-11.1-3.6-11.1-1.2 0-3.2.6-3.2 2.8a2.1 2.1 0 0 0 2.1 2 7.1 7.1 0 0 1 .6 3.1c0 3.3-2.7 5.5-6.1 5.5s-6-2.4-6-5.8c0-5.9 5.1-8.6 14.5-8.6 10.9 0 14.6 3.1 14.6 13.2v14.1c0 2.8.8 3.6 2 3.6s2.5-1.3 2.8-7.2h1.1c-.4 8.4-3 10.7-8.9 10.7s-8.8-1.7-9.6-5.1c-1.2 3.3-3.2 5.1-8 5.1S87.3 69 87.3 62s6-8.6 16-8.6zm0 7.6v-6.5h-.5c-2.9 0-4.3 2.1-4.3 6.3V62c0 5.1.5 5.7 1.8 5.7s3-2.2 3-6.6z"/><path fill="#f0f0f0" d="M133.7 51.7v3.6c0 8.9 2.6 12.9 8 12.9s8.1-5.3 8.1-9.1h1.8c.6 4.3-1.4 11.3-13.7 11.3-10.7 0-17.6-6-17.6-16.8S127.4 36 138.9 36c8.5 0 12.7 3.6 12.7 8.9s-2.3 6.5-5.8 6.5-6.1-1.9-6.1-5.8a8.4 8.4 0 0 1 .3-2.5h.6a2.2 2.2 0 0 0 2.2-1.9v-.6c0-2.3-1.4-3.3-3.4-3.3-4 0-5.7 4-5.7 14.4z"/><path fill="#f0f0f0" d="M172.5 68.6a2.1 2.1 0 0 0 1.8-2.9l-6.5-13.3-1.3.4v13.8a2 2 0 0 0 2 2h1.2v1.2h-20v-1.2h1.8a2 2 0 0 0 2-2V21.4a2.5 2.5 0 0 0-2.4-2.5h-1.7v-1.2h7.9a9.2 9.2 0 0 1 9.2 9.1v24.6l1.1-.4 15.6-13h-4.6v-1.3h11.8v1.2h-4.9l-8.2 7 11.4 22.5a2.1 2.1 0 0 0 1.8 1.1h1.3v1.2h-19.3zM18.1 73.1a11 11 0 0 0-1.4 1.8v.2a8.8 8.8 0 0 0-1 2.2l-.3.8c-.8 3.4.5 6.9 4.6 8.7a9.6 9.6 0 0 0 2.6.8h.2c6.4.9 11.6-5.1 6.2-11.3h-.1c.2 4.1-1.9 5.9-4.9 4.9a3.1 3.1 0 0 0 2-2 4.4 4.4 0 0 0-.1-3 5.7 5.7 0 0 1-1.1 1.1h-.1l-.6.4-1.6.3h-.2a1.8 1.8 0 0 1-1.1-.4h-.1a2.5 2.5 0 0 1-.3-2.8v-.2l.3-.5s.1-.2.2-.2c1.2-1.6 4.3-3.9 10.5-3.9H38v-1.6c-3.4 0-8.1.7-13.1-.3s-8.7-9-4.8-11.1c1.8-.9 3.6 0 2.5 1.8 2.9 1.4 7.1-1.1 5.3-5.3s-7.6-4.3-11.4-1.1-4.5 14.8 6.4 17.1a10.2 10.2 0 0 0-1.5.8s.1 0 0 .1a10.9 10.9 0 0 0-1.7 1.3h-.1m8.4-16zm-.2-2.1zm-.7.3h.1c0 .1 0 .1-.1.1a.1.1 0 0 1-.1-.1h.1zm-.5-1.5a.1.1 0 0 1-.1-.1zm-1-.4zm0 1.5s-.1.1-.1 0h.1zm-.2-2c.1 0 .1 0 .1.1h-.1z"/><path fill="#f0f0f0" d="M56.1 44.1c7.3-1.2 11.5-4.8 11.5-11.4 0-8.7-7.1-11.4-19.3-11.4H27.5v1.3H30a2 2 0 0 1 2 2v42a2 2 0 0 1-2 2h-2.5v1.3h20.4C61 69.8 70 67 70 56.2c0-7.3-5.1-11-13.9-12.1zM45.5 22.5h2.3c4.8 0 6 2.5 6 9.2V35c0 5.7-1.4 8.9-6.5 8.9h-1.8zm10.2 35.6c0 6.4-1.5 10.4-6.9 10.4h-3.3V45.2h1.6c6.8 0 8.6 3.5 8.6 9.2zM10.2 27.2c-3.1 9.8.2 14.3 5.1 18.3 0 .1 0 .2-.1.2-10.3-3-9.1-12.2-8.7-14.2 0-.1-.1-.1-.2-.1S2.7 35.1 0 35c3.2-1.4 4.9-4.2 6.7-7.7s5.2-8.8 14.3-8.2c.3 0 .3.4.1.4-7.2 1-10.1 5.5-10.9 7.7zm159.1 3.4c.3-10.2-4.3-13.8-10.1-16.3-.1-.1-.1-.2.1-.2 10.7.1 11.9 9.3 12 11.4 0 .1.2.1.2 0s2.6-4.5 5.2-5.1c-2.7 2.2-4.6 7-5.1 10.2s-1 6.9-2.2 12.7c0 .2-.4.1-.4-.1 0-7.2.3-10.3.3-12.6zm-19 32.2c.1-.4.3-.5.3-1l.2-.7.3-.8c0-.1.4-.4.5-.5a2.3 2.3 0 0 0-.1-1.2 5.1 5.1 0 0 0-.7-1.7l-.3-.4c-1.3-1.7-4.8-2.5-7.3-1.3l-1.4.9c0 .1 0 .1-.1.1-3 2.7-2 7.9 3.1 7.8-2-1.6-2-3.3-.4-4.3a2.2 2.2 0 0 0 0 2.1h.1a2.4 2.4 0 0 0 1.6.9 6.1 6.1 0 0 1-.3-1.1c0-.1.1-.2.1-.4a2.2 2.2 0 0 1 .5-.8h.1a1.3 1.3 0 0 1 .8-.3h.1a1.9 1.9 0 0 1 1.7.9h.1c.8.9-1.4 4.4 1.1 1.8zm35.9-26.1v1.2c1.7 0 7.6 0 9.5-.3 10.8-2.4 10.8-13.3 6.3-17.1s-9.9-1.9-11.3 2 2.4 6.7 5.2 5.3a1.9 1.9 0 0 1 2.6-2.7c3.9 2.1 1.5 10.8-4.8 11.3a69.5 69.5 0 0 1-7.5.3z"/></svg>
