<svg xmlns="http://www.w3.org/2000/svg" width="19.2" height="19.2" viewBox="0 0 15.8 16"><path d="M13.3 12.8h.3c-.1-.1 0-.1 0-.1h.1l.4-.5c0-.2.1-.3.1-.5 0-.1.1-.2.1-.3v-.9a2.7 2.7 0 0 0-2.4-2.2h.3l.3-.3h.2a.3.3 0 0 0 .1-.2.6.6 0 0 0 .1-.4V5.5h-.1c0-.2-.1-.3-.1-.4v-.8l-.2-.3c0-.1 0-.1-.1-.1a.1.1 0 0 1-.1-.1.1.1 0 0 1-.1-.1H12a5.3 5.3 0 0 0-2.3-.4c-2.1 0-2.7 1.2-4.5.8S4.3 1 5 1.6h.1a.8.8 0 0 1 .2.5.7.7 0 0 0 .3-.8c0-.1 0-.2-.1-.2L5.3.8h.2c.1-.1.2-.1.4 0h.3V1a1 1 0 0 0 .7 1.6h.5a1 1 0 0 0 .6-1c0-.1-.1-.2-.1-.3a.1.1 0 0 0-.1-.1.2.2 0 0 0-.2-.2h.1a.5.5 0 0 0 .2-.9c0 .4-.4.5-.7.4H5.6A2.2 2.2 0 0 0 4 .8a3.5 3.5 0 0 0-.6.9C2.7 3.9 5 5 6 5.3s1 .5 1 1v.8a.6.6 0 0 1-.1.4.1.1 0 0 0-.1.1h-.1l-.3.4h.1v.2h.1v.2h.1v.2a.6.6 0 0 1 .1.4H7v.5c0 1.1-.8 1.3-1.4 1.4s-.1 0 0 .1v.3c-.1 0 0 .1 0 .1h3.5c.1 0 .2-.1.1-.2V11c.1 0 0-.1 0-.1s-.8-.3-.8-.5V5.6a.8.8 0 0 1 .9-.8A1 1 0 0 0 8.2 4a4.8 4.8 0 0 1 1.8.4v3a4.3 4.3 0 0 0-.7.7 1.5 1.5 0 0 0 .7.6v3.7H4.7c-1.1 0-1.5-1.4-.8-1.8s.6 0 .4.3 1.2-.1.9-.9-1.3-.7-2-.2a1.9 1.9 0 0 0 1.3 3l-.4.2-.3.2-.3.2a.5.5 0 0 0-.2.4h-.1c0 .1-.1.2-.1.4H3a1.3 1.3 0 0 0 .8 1.5l.5.2c1.1.1 2-.9 1.1-2 0 .7-.4 1.1-.9.9s.3-.2.4-.4V14h-.8a.1.1 0 0 1-.1.1.4.4 0 0 1 0-.5h.1a2.5 2.5 0 0 1 1.8-.6h7.4zM5.6 1.5zm0-.1zm0 0zm-.1-.3zm0 .1zm-.1.1zm.1.1zm-.1-.3zm2.5 1zm0-.5zM8 .8zM7.8.7zm-.1 0zm0 .2zM4.6.7zm.1 0zm0 .2zm0 .3zm.1 0zm.1-.6zm0 .6zM5 .9zm0 0zm.1.2zm0-.1zm0 .2h.1a.1.1 0 0 1-.1.1zm0 0zm.1.4zm0-.6zm0-.1zm0 .6zm0-.9zm.1.6zm.1.2zm0 .1zM5.3.9zm0 .4zm0-.2zm0-.1zm0-.1zm.1-.3zm0 0zm.1.1zm.1 0zm.1-.1zm0 0zm.2-.1zm0 0zm0 .2zm.1.1zm0-.3zm0 0zm0 0zm0 .1zm.1.2zm0-.1zm0-.1zm0 .1zm0 .1zm.1 0zm0-.2zm0-.1zm0 .4zm.1.4zm0-.3zm.1-.5zm0 .1zM6.3.5zm.2.7zm.1-.7zm-.1 0zm.1.1zm0 0zm.2.3zm.1-.1zM7 1zm0-.1zm.1-.1zm0 .1zm0 0zm.1.9zm0-.3zm0-.2zm0-.2zm-.1.1zm0 0zm.1.1zm0 .2zm-.1-.3zm-.1.2zm.1.1zm0-.2zm0 .3zm0 .4zm0-.2zm0 .6zm0-.6zm0-.1zm.1 0zm0-.7zm0-.1zM7.1.7zm0 0zm0 .4zm-.2.9zm-.1 0zm0-.2zm-.1.1zm0 .2zm0-.3zm0 0zm0 0zm0-.3zm0-.1zm0-.3zm0 0zm0 .2zm.2.1zm0-.5zm0 .1zm.1.3zm0 .2zm0-.1zm-.1.2zm0 .1zm0-.3zm0-.1zm0 .2s-.1 0 0-.1zm0 .1zm.1-.5zm-.1.1zm0-.1zm0 0zm-.1.6zm0-.2zm0 .1zm0 .1zm-.1.2zm.2-.2zm0 0zm0 .2zm0 .4zm0-.4zm0-.1zm0 .1zm.1-.3zm0-.5zM6.9.8zm-.1.4zm0-.1zm0 0h-.1c.1 0 .1 0 .1.1zm0-.3zm-.1.1zm0 .2zm-.1.4zm0 .1zm-.1 0a.1.1 0 0 1-.1-.1h.1zm-.1-.2zm0 .1zm0-.1zm0 1zm0-.9zm.1-.2zm0-.2zm0-.2zm.1-.1zm.1-.2zm0 0zm0 .1zm0-.1zm-.1.5zm0-.1zm.1-.1zm-.1 0zm0 0zm0 .1zm-.1.3zm.1 0zm0-.1zm0 .1zm.1 0zm-.1.1zm.1-.2zm0-.3zm0-.3zm0-.1zm0 .1zm0-.1zm-.2.2a.1.1 0 0 1 .1.1h-.1zm0 .3zm0 .1zm0 .1zm0-.3zM6.4.8zm0 .2zm0-.1zm0 .1zM6.3.9zm0 .2zm.2 0zm0-.1zm0-.1zM6.4.7zm0-.1zm-.1.1zm0 .4zm0 .1zm-.1.3zm0 .1zm.1 0zm0 0zm0 0zm0-.1zm0-.1zm0-.1zm0 .2zm-.1-.1zm0-.1zm0 .2zm0 .1zm-.1.1zm-.1.1zm.1-.1zm0-.1zm0 .6zm0-.3zm0 .1zm.1-.1zm-.1-.2zm.1.6zm0-.6zm0-.3zm0 0zm0 0zm0 .5zm0-.1zm0-.1zm.1.4zm0-.1zm0 .3zm0-.2zm0-.6zm0-.2zm.1.8zm0-.4zm0 0zm0 .4zm0 .5zm.1-.1zm0-.6zm0-.1zm0 0zm0 .2zm0 .2zm0-.4zm.1 0zm0 .3zm0-.7zm0 1.1zm0-.1zm.1-.3zm0-.5zm0 .6zm0 .2zm0 .3zm0-.7zm.1.5zm0-.3zm0-.2zm0 .4zm.1.5zm0-.5zm0 .2zm0 0zm.1-.3zM7 2zm0 .1zm.1-.2zm0-.1zm0 .3zm0 .7zm0 0zm.1-.3zm0-.4zm0-.1zm0-.2zm0 .4zm.1 0zm0-.8zm0-.2zm0 .5zm.1-.2zm0-.1zm0 .9zm0-.7zm0-.3zm-.1.2zm0 0zm.1-.5zm0 0zm0 0zm0 .3zm-.1.5zm0-.4zm0 .2zm0 .3zm.1 0zm0 .9zm0-.2zm0-.5zm0-.5zm0 0zm0 .7zm.1.1zm0-.6zm0-.5zm0 0zm0-.1zm0 0zm.1 0zm0 .5zm0-.1zm.1-.1zm0 1zm.1 0zm0-.4zm-.1-.4zm0-.1zm0-.5zm0 .1zm0 .4zm0-.2zm0-.1zm-.1-.2zm0 .3zm0 0zm0 .9zm0-.9zm0-.8zm0 .2zm0 .1zm0-.3zm0 1.3zm-.1-.2zm0 .3zm0-1.1zm0-.2zm0-.1zm-.1.6zm0 .2zm0-.2zm0-.2zm0-.1zm0-.2zm0 .1zM7.3.7zm0 .3zm0 .2zm0-.4zm0 .4zm0-.5c-.1 0 0 0 0 0zM7.2.6zm0 .1zm0-.2zm0 .1zm0 0zM7.1.5zm0 .1zm0 0zM7 .5zm0 .2zm0-.2zm0 .1zM6.9.5zm0 0zm0 .1zm0 .1zm0-.2zm0 .2zm0-.1zm0 .2zm-.1 0zm0-.1zm0-.2zm0 .1zm0 .2zM6.7.4zm0 .2zm0 .1zm0-.3zm0 0zM6.6.3zm0 .1zm0 .1zm0-.1zM6.5.3zm0 .3zm0 .1zm0 0zm0-.2zm0-.1zM6.4.3zm0 .1zM6.3.3zm0 .1a.1.1 0 0 1 .1.1h-.1zm0 .1zm0 .1zm0 .2zM6.2.4zm0 0zm0 .2zM6.1.4zm0-.1zm0 0zm0 0zM6 .3zm0 .3zm0 0zm0-.1zM5.9.2zm0 .1zm0 .1zm0 .2zm0 0zM5.8.3zm0 .2zm0 .2zM5.7.6zm.1-.1zM5.7.4zm0 0zm0 0zm-.1.2zm0-.2zM5.5.2zm0 .1zm0 .2zM5.4.4zm-.1.1zm0 .3zm0-.2zm0-.3zM5.2.2zm0 .3zm-.1.1zm0 .2zm0 .2zM5 .3zm0 .3zM4.9.4zm0 .1zM4.8.3zm0 .2zm0 .3zm0-.1zm0 .2zM4.7.6zm0 .5zM4.6 1zm0 .1zM4.5.4zm-.1.2zm0 .8zM4.3.8zm0 .2zm-.2.6zm-.2-.4zM7 5.8zm-.9 2.4zm.2-.1zm-.1.1zm0-.1zm0 0zm.1 0zm0 .1zm0-.2zm.1.3h-.1c0-.1 0-.1.1-.1zm-.6 3.6zm.4-.1zM7.6 7zm-.1-.5zm0 .9zm0 1zm0-1.2zm0 1zm-.1-.5zm0-.6zm0-.6zm0 .3zm0 .9zm0-.1zm0 .3zm0-.6zm-.1-.1zm0 .2zm0-.3zm0-.3zm0-.6zm0 .6zm0 .6zm0 .8zm0 .2zm-.1-1.3zm.1.8zm-.1.7zm0-.3zm0 .6zm-.1 0zm0 .3zm0-.3zm0 .2zM7 8.2zM7 8zm0 0zm.1-.6zm0-.2zm0-.1zm0 .2zm0 .2zM7 8zm0 .1zm0 .2zm.1-.1zm0 .2zm0-.3zm0-.3zm0 1.1zm0 .2zm0-.6zm.1-.9zm-.1.1zm.1.2zm-.1.1zm0-.1zm.1-.1zm-.1.5zm.1-.2zm0-.1zm0-.3zm0 .1zm0 .2zm0 .3zm0-.8zm0 0zm0 1zm0 .2zm0 .4zm0-.5zm0-1.8zm0 .5zm0-.1zm0-.7zm-.1.7zm0 .2zm0-.3zm0-.1zm0-.7zm0 .3zm0 .2zm0 .1zm-.1.2zm0 .3zm0 .3zm0 0zm-.1 0zm0 .8zm0 0zm0-.1zm0-.3zm0-.5zm0 .3zm0 0zm0 .1zm0 .3zm-.1-.1zm0 .1zm0-.6zm0 .5zm0 .2zm-.1-.5zm0 .1zm.1.3zm-.1-.2zm-.1-.2zm0 0zm-.1.2zm.1.2zm-.2-.2zm0 0zm.1.3zm0-.3zm0 .1zm.1.3zm0-.3zm0-.2zm0 0zm0 .2zm0 0zm.1.1zm0 .2zm0-.2zm0 .3zm.1.1zm0-.2zm0-.1zm0 .1zm0 .1zm0 .1zm.1.1zm0 .2zm0-.2zm0 0zm.1-.3zm0 .2zm0 .1zm0 .3zM7 9zm0-.6zm.1.2zm0 1zm0 .1zm0-.2zm0-.3zm.1.2zm0-.3zm0-.3zm0-.2zm0 .7zm0-.1zm0 .2zm.1.4zm0-.3zm0-.7zm0 .9zm0-.8zm0-.7zm0-.6zm0 .3zm0 .4zm.1.7zm0-.2zm-.1.3zm.1.3zm0-.8zm0-.1zm0-.8zm0 .9zm0 1.2zm0-.9zm.1-1zm0-.1zm0 .2zm0 .8zm0-.4zm0-1zm0 1zm0 .1zm0 .4zm0 .4zm0 0zm.1-1.2zm0-.3zm0 .9zm0-1.8zm.1.6zm.1 1.1zm-2.6 1.8zm0-.4zm-.1.1zM5 9.8zm-.2-.1zm0 .3zm0-.3zm-1.2 2.4zm1.2 2.5zm0 0zm-.2.2zm0-.2zm.1.1zm0-.1zm.1-.1zm0-.1zm-.1-.1zm0 .4zm0-.3zm-.1 0zm0 .4zm0-.1zm0-.1zm0-.3zm0 .1zm-.1-.1zm-.6 0zm-.1.3zm-.1.5zm0 .2zm-.1-.5zm0 .4zm-.1-.2zm0 .1zm0-.3zm0-.6zm0 .3zm0-.1zm0 .1zm0-.3zm.1.1zm.1-.6zm0 .1zm0 .1zm0 .1zm-.1.6zm0 0zm.1-.3zm0 .5zm0-.1zm0 0zm0-.4zm0-.2zm0 .3zm-.1.1zm-.1-.1zm0 .2zm.1.5zm0-.2zm0 .1zm.1 0zm.1-.9zm0 .1zm0-.4zm0 .3zm-.1.1zm0 .6c.1 0 .1.1 0 .1zm0 .2zm0 .1zm0 .2zm.1-.8zm0-.2zm.1-.3zm0 .1c-.1.1 0 0 0 0zm0 .1zm0 .2zm0-.4zm0-.5zm0 .1zm0-.4zm-.1.2zm0 .4zm0-.6zm0 0zm0 .3zm-.1.2h.1c-.1 0-.1 0-.1-.1zm0 .3zm0-.2zm0-.4zm0-.1zm0 .2zm-.1-.1zm0 .5zm0 .1zm0 0zm0-.1zm0-.3zm-.1 0zm0 .3zm0 .4zm0-.1zm0-.2zm0-.1zm0-.1zm-.1-.3zm0 .2zm0 .4zm0 .3zm-.1-.7zm.1 1.3zm0 0zm0-.3zm0-.2zm-.1.1zm0 .2zm0 .2zm-.1-.6zm0 .2zm0-.4zm.1.5zm0-.4zm0 .3zm0-.2zm0-.1zm0 .1zm.1-.3zm-.1-.1zm.1.4zm-.1-.6zm0 .4zm0 0zm0-.1zm0-.2zm-.1 0zm0 0zm0 .6zm0 0zm0-.3zm0 .4zm0-.3zm0 .1zm-.1.1zm0-.1zm0 .7zm0-.6zm0 .4zm.1.3zm0-.3zm0 .1zm0-.2zm0 .3zm0 .1zm.1-.1zm0-.3zm0-.1zm0-.1zm0 .5zm0-.3zm.1.6zm0 .1zm0-.5zm0 .4zm0-.2zm0-.1zm0-.5zm0 0zm0 .7zm.1.3zm0-.2zm0-.2zm0 .4zm0-.3zm0-.4zm0-.2zm0-.1zm0 .1zm.1.6zm0 .2zm0-.2zm.1 0zm0 .3zm0 .1zm0-.3zm0-.1zm.1.3zm0-.1zm0 0zm0-.6zm0-.3zm.1.1zm.1.3zm0 .1zm0-.2zm-.1.2zm0-.4zm0 0zm-.1.1zm.1.1zm-.1.1zm0 .1zm.1.5zm0 .2zm0-.6zm0-.1zm0 0zm.1.4zm0-.3zm0-.2zm0-.2zm0-.2zm0 1.1zm.2-1.2zm0 0zm-.1.1zm0 .2zm-.1 0zm0 .6zm.1-.5zm0 .4zm0 .1zm0-.1zm0-.2zm0-.5zm-.1.6zm0 .5zm.1-.2zm0 .3zm.1-.1zm0-.3zm0 0zm0-.3zm0-.2zm0 .4zm0-.2zm0 0zm0 .1zm.1.4zm0-.3zm0-.1zm0-.3zm0 .2zm0-.4zm0 0zm0-.2zm0 .9zm.1.1zm0-.8zm0 .2zm0 .4zm0 .1zm0-.4zm0-.2zm0 0zm0 .1zm0 .8zm0 .1zm.1.1zm0-.5zm0-.2zm0 .3zm.6.1zm-.2-.4zm-.1.2zm0 .4zm-.1-.7zm0 .4zm0-.5zm-.1.9zm0-.8zm0 0zm0-.1zm0 0zm-.1-.1zm0 .1zm0 .1zm0-.6zm0 .9zm0-.3zm-.1-.6zm0-.1zm0 .1zm-.1-.1zm0-.1zm0 .5zm0 0zm0-.4zm0 .1zm-.1.2zm0-.3zm0 0zm-.1-.1zm0 .1zm0-.1zm-.1.2zm0-.1zm-.1-.3zm0 .4zm.1-.9zm0-.3zm0 0zm0 .2zm.1-.1zm0-.1zm.4-.3zm-.5-.6zm.1-.1zm.2.4zm.1-.3zm0 .2zm-.2.5zm0 .1zm0 0zm.1 0zm0-.2zm0 .3zm.1-.1zm.1-.2zm.1 0zm.1.1zm0-.5zm.1.3zm0-.4zm.1.4zm.1.1zm.1-.4zm0-.1zm.1.4zm0-.5zm.3 0zm.1.5zm.1 0zm0-.3zm.2.2zm0-.3zm.1.4zm.1-.2zm.4 0zm6.8-.2zm.1.2zm0-.1zm-.1-.6zm0 .3zm0 .5zm.1-.1zm0-.4zm.1.1zm-.1-.1zm.1.1zm-.1-.3zm.1 0zm0 0zm0-.1zm0-.1zm0 0zm0 .5zm0-.2zm0-.4zm0 .5zm0 .2zm0 0zm.1-.2zm0 .2zm.1-.1zm-.1-.6zm0 0zm.1.4zm0 0zm0-.4zm0 .4zm.1.3zm0-.1zm0-1.1zm0 0zm0 .5zm0 .3zm0-.7zm-.1-.1h.1a.1.1 0 0 0-.1 0zm.1.6zm0 .4zm0-.1zm.1-.3zm0 .3zm.1-.1zm0-1.2zm0-.4zm0 .6zm0 .7zm0 .1zm-.1-.3zm.1-.9zm0 .6zm0 .2zm0 0zm-.1.2zm0 .3zm0-1zm0 .8zm.1.2zm0-.1zm0 0zm.1 0zm-.1-.3zm.1.1zm0-.1zm.1-.3zm0-.4zm0 .2zm0 .1zm0-.3zm-.1.4zm0 .1zm0 .2zm0-.1zm0-.1zM14 10zm0 .5zm0-.7zm0 1.4zm-.1-.9zm0 1.5zm0-.1zm-.1-.8zm0-.3zm0 .2zm-.1 0zm0 .3zm0 .3zm0 .3zm0 .2zm0 0zm0-.8zm0 .2zm-.1-.2zm0 .4zm0 0zm0-.2zm0 .3zm0 .5zm0-.4zm-.1-1.2zm0 1.1zm0-.9zm0 .2zm0 .8zm0-.3zm0 0zm-.1.6zm0 0zm0 .6zm0-.4zm0-1.1zm-.1 0zm0 .3zm0 .3zm0 0zm0-.2zm0 .2zm-.1.2zm0 .4zm0 0zm0-.1zm0-.7zm0 .4zm0 .4zm0-.9zm-.1.8zm0-.2zm0 .1zm0 .2zm0 0zm0 .2zm.1-.6zm0-.1zm-.1-.9zm0 .4zm0 .2zm0 .7zm0 .2zm0-.2zm0 .3zm0 0zm0-.5zm-.1.2zm0-.2zm0 .5zm-.4-4.1zm.3 4zm0 0zm0-.5zm0 .2zm0 0zm-.1.8zm0-.1zm0-.1zm0-.1zm0-.3zm0-.1zm0-.3zm0 .5zm-.4-4.1zm.4 4zm-.1-.1zm0 .1zm0 .2zm-.1-.4zm0 .2zm-.3-4zm.3 4.2zm-.3-4.1zm-.1 0zm-.1.3zm-.1-.5zm0 .6zm-.1-.4zm0 .2zm.1-.9zm-.3.5zm-.1.7zm-.1-.6zm.1-.1zm-.1-.6zm0 .3zm-.1-.7zm0-.5zm0 1zm.1.3zm0 .6zm0-1.2zm0 .1zm0-.3zm0 0zm.1-.1zm0 .3zm-.1-.5zm0 .2zm0-.4zm0-2.6zm0 .1zm0 0zm0-.2zm0-.2zm0 3.6zm.1.4zm0-.2zm0-.4zm0-.2zm0 1.7zm0-.9zm.1-.4zm0-3.1zm0-.2zm0 1.4zm0-1.8zm-.1-.2c0-.1 0-.1.1-.1h-.1zm.1 3.8zm0-.5zm0 0s-.1.1-.1 0h.1zm0-.3zm0-.6zm0 0zm0 1.1zm0 .4zm0-.2zm0-.7zm0-2.6zm0-.2zm0-.1zm0 2.5zm0 1.8zm0 .7zm0-.4zm0 .3zm.1-.6zm-.1-.1zm.1-.3zm.1-2.8zm0-.4zm.1-.4zm.1.2zm0-.2zm0 .1zm.1.9zm0-.1zm0 .3zm0 .5zm0 1.2zm0-.5zm0 1zm0 .1zm0-.3zm-.2.4zm0 0zm0-.5zm-.1.6zm-.1.1zm0-.7zm0-1.9zm0 1.4zm0-.1zm.1.5h-.1a.1.1 0 0 1 .1-.1zm0 .2zm-.1-.3zm.1 0zm0 0zm0-.2zm0-.3zm0 0zm0-1zm0-.7zM11.8 6zm0 .6zm0-.3zm0-1.1zm0 1.1zm0-1.9zm0-.1zm0 0zm0 .9zm0 1.7zm0 .2zm0 .1zm0 0zm0 .1zm0 .7zm0-.7zm.1.2zm0-.1zm0-.1zm0-.5zm0 .3zm0-.6zm.1-.8zm0 .3zm0 .2zm0-.9zm-.1-.4zm0 .7zm0 .6zm0 1zm.1-.4zm0-2zm0 0zm0 1.7zm.1-1.4a.1.1 0 0 0 .1.1h-.1zm0-.1zm0-.2zm0 .1zm0 1.2zm0-.7zm0-.2zm0-.1zm0-.6zm0-.3zm0 .2zm0 .9zm0 .2zm0 .7zm0-1zm0 .7zm0 .7zm0 0zm0 .1zm0-.7zm-.1-.5zm0 .1zm0-1zm0 1zm0 1.7zm.1-.2zm0 0zm0-.1zm0-.2zm0 .4zm0 .1zm0-.8zm0-.1zm0-.1zm0-.3zm0-.7zm0-1zm0 .7zm0-.7zm-.1-.1zm0 .3zm-.1.1zm0 1.2zm0 .2zm0-1.9zm0-.1zm0 .4zm-.1-.2zm0-.2zm0-.1zm0 3.7zm0 .5zm0 .1zm.1-.3zm0 .2zm0 .5zm0-.2zm.1-.7zm0-.4zm0 .3zm0 .5zm0-.8zm0 .2zm.1.4zm0 0zm.1 0zm0-.2zm0 .1zm0-.1zm0-.1zm0-.1zm0-1.1zm0-2.4zm.1.8zm0-.1zm0-.2zm0 .1zm0 .1zm.1.4zm.2-.5zm0 .7zm0-.4zm.1.1zm0-.1zm.1.4a.1.1 0 0 1-.1-.1h.1zm-.1-.1a.1.1 0 0 0 .1-.1h-.1zm0 1.2zm0 .2zm-.2.5zm0-.7zm-.1.6zm-.1.4zm0 .1zm0-.1zm-.1-.7zm0-.5zm0-1.8zm0 .2zm0 1.1zm.1-.1zm0 .3zm0-.6zm0-.2zm0 0zm0-.4zm.1.2zm.1 1zm0-1zm.1 0zm-.1.3zm.2.2zm-.1 1zm0-.1zm0-.2zm0-.1zm0-.3zm.1.3zm0-.1zm0-.1zm0 .2c.1 0 0 0 0 0zm0 0zm.1-.3zm-.1-.2zm-.1.1zm0-.2zm0 .2zm0 .8zm0-.1zm0-.2zm-.1.4zm0-.1zm-.1.1zm0-.4zm0 .1zm.1-.2zm0 .2zm0 0zm0-.3zm0-.4zm0-.3zm0 .4zm0 .2zm.1-.1zm0-.1zm-.1 1.1zm.1-1.1zm-.1-.5zm0 .2zm0 .8zm0-.3zm-.1-.5zm0-.1zm0 .6zm0 1zm0-.1zm0 0zm-.1.2zm0 .3zm0-.2zm0-.1zm0-.2zm0-.2zm.1 0zm0-.5zm0 0zm-.1-.5zm.1-.1zm0 .1zm0-.2zm0-.1zm-.1.9zm0 .3zm0-.3zm0-.4zm0 .2zm0-.9zm0 .2zm0 .5zm0 .2zm-.1.2zm.1.2zm0 .6zm0 .1zm0 .2zm.1-.6zm.1 0zm0 .2zm.1.1zm0 0zm0-.2zm.1-.2zm0-.3zm0 .4zm0 0zm0-.2zm0 .2zm.1 0zm0-.4zm0-.6zm-.2-.2zm0-.7zm-.1.1zm0-.3zm0 .2zm0 0zm-.1.2zm0 .1zm0-.3zm0-.2zm0-.1zm0 0zm0-.1zm0 0zm0 .3zm0-.1zm-.1.2zm0 .2zm0-.5zm0 .2zm0 .2zm-.1-.9zm0 .1zm0 1.2zm0 .4zm0 .8zm0 .8zm0 .4zm.1.3zm0-.1zm.1 0zm-.1-.2zm.1-.1zm0 .3zm.1-.2zm0-.4zm0 .1zm0-.4zm.1.7zm0-.3zm0-.3zm0 .1zm.1.1zm0-.4zm0-.2zm0 .3zm0 .4zm0-.3zm0-.1zm0-.1zm.1 0zm0 0zm0-.1zm0 0zm0-.3zm.1 0zm-.1-.2zm0 .1zm0-.1zm0-.4zm0-.2zm0-.2zm0-.2zm-.1-.2zm0-.2zm0 0zm0 .2zm-.1-.5zm0 .2zm0-.4zm0 0zm-.1.1zm0-.2zm0 .2zm0 .3zm-.1-.7zm0 .1zm-.1-.2zm0 .3zm0-.1zm0-.3zm0 .5zm-.1-.6zm0 3.2zm0-.7zm0-.2zm0-.1zm0-1.6zm-.1-.5zm0 .1zm0-.2zm-.1-.1zm0 .4zm0-.4zm0 .1zm0 .2zm-.1-.4zm0 .1zm-.1.2zm0-.2zm0-.2zm-.1-.1zm0 .1zm-.1-.1zm0 .5zm0 .2zm0-.1zm0 0zm0 2.5zm0 .5zm0-3.7zm0 3.7zm-.1-3.6zm0 .3zm0 .1zm0-.2zm0-.1zm0 .9zm-.1-.5zm0-.1zm0 .1zm0 .3zm0-.6zm0-.2zm-.1.6zm0-.6zm0-.1zm-.1.4zm0 .4zm0-.4zm0 .5zM11 4zm0-.8zm-.2 1.3s.7.3.7 1.5v.3a.8.8 0 0 0-.1.4h-.1a1 1 0 0 1-.5.6zm.5 2.6zm0-.1zm.1 1zm0-1.2zm0 .1zm0 1.1zm0-.5zm0-.1zm-.1-.1zm0 1zm-.1-.5zm0-.1zm0-.1zm0-.2zm0-.3zm0 1.2zm.1-1.3zm-.2.2zm0 .7zm0 .8zM11 8zm0 .2zm0 .2zm0-.9zm-.1-.1zm0 .3zm-.1.6zm.6 4.4zm.1.4zm0-.4zm.2.1zm-.9-.7V9.2a1.5 1.5 0 0 1 1.5 1.5c0 1.4-1.5 1.4-1.5 1.4zm1.8.4zm0-.4zm-.1.4zm0-.1zm-.1-.1zm0 .2zm0 .5zm0-.3zm-.1-.3zm-.1.1zm0 .2zm0-.4zm0-.1zm.1-.1zm-.3.1zm0 .5zm.1-.2zm-.2-.1zm-.1-.2zm0 .4zm0 .5zm0-.3zm0 .2zm0 .1zm.1-.1zm0-.2zm.1.1zm0-.1zm.1.3zm.1-.1zm0 0zm0-.7zm0 .5zm.1.3zm0 0zm0-.4zm0 .2zm.1-.1zm0-.1zm.1.3zm0-.4zm0 .3zm0 0zm0-.1zm0-.3zm.1.4zm0 .1zm.1 0zm0-.6zm0 .6zm0 0zm0 0zm.1-.3zm0 .2zm0 .1zm0-.2zm.1.1zm0-.4zm0 .2zm.1.3zm0-.4zm0 .1zm0 .2zm0 0zm.1-.1zm0-.1zm0 .1zm0 .1zm0-.2zm.1.1zm0-.1c-.1 0-.1 0-.1-.1h.1zm0-.1zm.1-.1zm0-.1zm0 .1z"/></svg>