<svg xmlns="http://www.w3.org/2000/svg" width="19.2" height="19.2" viewBox="0 0 15.8 16"><path fill="#231f20" d="M4.1 5.7v.2c.3.2.5.6 0 .8s1.1-.1.8-.6h.7a1.1 1.1 0 0 0 .7-1.8 1.1 1.1 0 0 0-1.9.2h-.3l-.2-.2h-.1c0-.1-.1-.2-.1-.3h-.1v-.2h.6a.9.9 0 0 0 .7-.6c-.4.1-.6.1-.7 0h-.1c-.2-.2-.2-.5-.3-.7S5 1.1 6.2 1.1V.8a3.8 3.8 0 0 0-2.7.7 2.3 2.3 0 0 0-.7 1.1 2.4 2.4 0 0 0 1.3 3.1zm.3-1.9zm-.1.1zm.1-.1zm-.3.1zm0 0zm2 1.8zm-.4.2zm-.9.3zm.1-.1zM3.8 3.3zm.4.1zm0 .2zm-.1.2zm.2-.2zm-.2.1zm-.4.1zm.3.8zm.2.1zm.6.9h-.1m0-1.4zm1.4.1zm.2 0zm-.1.2zm.2.1zm0 0zm-1.1 1zm.8-.5zm-1.2.6zm.3-.2zm.3 0zm.8-.4zm-1.2.6zm0 .1zm0 .1zm.6-.2zm-.1 0zm-.2.1zm1-.5zm-.3.3zm-.4.2zm-.1 0zm-.5.2zm.1 0zm.4-.2zm-.2 0zm-.2.1zm-.1.1zm.2-.2zm0 0zm.9-.5zm-.9.5zm-.7.4zm.2-.1zm.1-.1zm.9-.5zm-.2.1zm-.8.3zm-.3.1zm.4-.2zm-.1 0zm-.3.1zm.1-.1zm-.1 0zm-.1 0zm-.7-2.2zm.4 8.9l-.3.4h-.1c0 .2-.1.3-.2.5v.2a1.6 1.6 0 0 0 1 2h.6c1.5.2 2.6-1.1 1.4-2.5 0 1-.4 1.4-1.1 1.1s.4-.2.5-.5a1.7 1.7 0 0 0-.1-.7l-.2.3h-.9q-.2-.2 0-.6c0-.1 0-.1.1-.1a3.2 3.2 0 0 1 2.4-.9h1.3v-.3a9.8 9.8 0 0 1-2.9-.1c-1.4-.2-1.9-2-1.1-2.4s.8 0 .6.4a.9.9 0 0 0 1.2-1.2 1.8 1.8 0 0 0-2.6-.3c-1 .9-1 3.3 1.5 3.9h-.4l-.4.2m1.9-3.4zm0-.4zm-.2 0zM6 7.8zm-.2-.1zm0 .4zm-.1-.5z"/><path fill="none" d="M10.6 6.2h-.4v5.2h.8c1.2 0 1.5-.9 1.5-2.3v-.8c0-1.3-.4-2.1-1.9-2.1zm1.5-2.3v-.7c0-1.5-.3-2.1-1.4-2.1h-.5v4.8h.4c1.2 0 1.5-.7 1.5-2z"/><path fill="#231f20" d="M12.6 6c1.6-.2 2.6-1 2.6-2.5S13.6.8 10.8.8H6.2v.3h.5a.5.5 0 0 1 .5.5V11a.5.5 0 0 1-.5.4h-.5v.3h4.6c2.9 0 4.9-.6 4.9-3S14.6 6.2 12.6 6zm-2.4-4.9h.5c1.1 0 1.4.6 1.4 2.1v.7c0 1.3-.3 2-1.5 2h-.4zm2.3 8c0 1.4-.3 2.3-1.5 2.3h-.8V6.2h.4c1.5 0 1.9.8 1.9 2.1zm-8.7 2.6c-2.1-1.6-1-3.5-.8-4.1s-.7.7-.8 1.4h-.1C1.6 7.9 1 7.6.2 7.9c1 .2 1.4 1 1.7 1.9a2.9 2.9 0 0 0 1.8 2 .1.1 0 0 0 .1-.1zM2.3 2.2c-.6 2.2.1 3.2 1.2 4.1a2.5 2.5 0 0 1-2-3.1c-.2.2-.8.9-1.4.8a3.2 3.2 0 0 0 1.5-1.8A3 3 0 0 1 4.8.4a3 3 0 0 0-2.5 1.8z"/></svg>