<svg xmlns="http://www.w3.org/2000/svg" width="2.8in" height="1.6in" viewBox="0 0 204.9 111.6"><path d="M139.9 84.8c0 .1.1.2 0 .3v5h-2v-8h-.1l-.2.3-1.5 1.9h-2c-.1 0-.1 0-.1-.1l-.5-.6a11.3 11.3 0 0 1-1-1.3l-.3-.4h-.1v8h-.2a10.8 10.8 0 0 1-1.8 0V79h1.9c.1 0 .1 0 .1.1l.5.5.7.9.9 1.3.7.9h.1c1-1.2 1.9-2.4 2.8-3.7h2c.1 0 .1 0 .1.1v2.3c.1.2 0 .3 0 .6zm-9.4 3.1zm.1-7zm.1 3.7s.1 0 0 0zm0 1zm0-5.2zm.5 3.1h-.2a.1.1 0 0 1-.1-.1v.2h.2v-.2zm-.4-.7zm.2.4zm-.2 3.4zm0 1.3a.1.1 0 0 0-.1.1zm2.4-6.3h-.3c-.1 0-.1-.1-.1-.2h-.5a.4.4 0 0 1 .1-.3h-1.3c0 .1.1.1.1.2h-.3v.2c.1 0 .1 0 0 .1h.1v.2c-.1 0 0 .1 0 .1h.2c.1 0 .2 0 .2.1h-.2a.1.1 0 0 1 .1.1c.1 0 .2 0 .2-.1a.1.1 0 0 1 .1.1h-.6V82c.1.1.1.1.1.2.1.1.1.1 0 .1h-.1v.2h.2c-.1.1-.1 0-.1 0h-.1c.1.1 0 .1.1.2h.2s.1 0 0-.1a.1.1 0 0 0-.1-.1h.2v.2h-.3c-.1-.1-.1-.1 0-.2h.3c0 .1.1.1.1 0h.2a.3.3 0 0 1 .1-.2c.1 0 .1 0 .1.1h.1c.1 0 .1-.1 0-.1 0-.1 0-.1.1 0h-.1a.3.3 0 0 0 .1.2h.2c0-.1 0-.1.1-.1h.1v-.2a.1.1 0 0 0 .1-.1c.1 0 .1 0 .1.1h.1v.2h.4zm-2.3 6.6a.1.1 0 0 0-.1-.1c0 .1-.1.1 0 .1h.1zm-.1-7.5zm0 4.4h.1s-.1 0 0 .1zm.1 1.3c-.1-.1-.1 0 0 0zm0-1.7zm.1 3.8zm-.1-4.6c.1 0 .1-.1 0-.1zm.1 3.1a.3.3 0 0 0-.1.2h.2c.1-.1.1-.1 0-.1zm0-1.7zm0 .4s0-.1-.1 0h.1zm0-5.5zm0 3.9c.1 0 .1-.1.1-.2h-.1zm0-4.5a.1.1 0 0 0 .1-.1h-.1zm.4 7h-.2s-.1-.1-.1 0h-.1v.4h.2zm-.4 1.6zm.2-3.2a.1.1 0 0 1-.1-.1h.1zm0 3.9v-.2h-.1s-.1 0 0 .1c-.1 0-.1 0-.1.1h.2zm-.2-8.4zm.1 7.1c-.1 0-.1.1 0 .1zm0-2.1zm0 .4zm0-.6zm0-4.4zm.1 2.2zm0 6zm0-8.4zm0 2.7a.1.1 0 0 0 .1-.1h-.1zm.1-3.8h-.1c.1.1.1.1.1.2h.2a.1.1 0 0 1-.1-.1zm0 4.4c-.1 0-.1.1 0 .1a.1.1 0 0 0 .1-.1h-.1zm0 1.9zm.1-5.7zm-.1 2.6zm0 2.4zm.7-4.5h-.6a.1.1 0 0 1 .1-.1c.1 0 .1 0 .1.1h.3c.1-.1.1-.1 0-.2h.2c-.1.1-.1.2 0 .2h-.1zm-.5.4zm0 5.1zm-.1-2.7zm.1-.3a.1.1 0 0 0-.1.1h.1zm0 4.7zm-.1-8.1zm.1 5.1zm0-3.1h-.1c0-.1 0-.1.1-.1zm0 5c.1.1.1 0 0 0zm0-6.6zm.1 2.7c0-.1 0-.1-.1-.1h.1zm-.1-2.6zm.2 1.2zm0 7.1zm0-6.5zm0-2.5c.1-.1.1-.1 0-.1zm0 1.4zm.1 5.9zm0-6.7zm.1 1.7zm0-2.2zm.1 1.3zm.2-.1v.2h-.1zm0-.3c-.1-.1-.1-.1 0-.1zm.2.3zm0-.6zm.2.9zm.1-.4zm.1 1.2c-.1 0-.1-.1-.1-.2h.1zm0-.4h.2c.1.1.1.1.1.2h-.3zm.2-.5zm.2 1.4zm.1-.5zm.1-.3zm.1.8zm.1-.3zm0 .7zm.1-.4zm.5.4h-.4c0 .1 0 .2.1.2h.3zm-.1.2h-.2a.1.1 0 0 0 .1.1h.1zm0 .2h-.1c.1 0 0 .1.1.1zm0-.8zm0 1.1zm.2-.4h-.1v.2zm0 .3zm.2.7zm.5-.5h-.2c.1.1.1.1.2-.1zm-.4-.4zm0-.3zm.2 1zm.1-.3zm.1-.4zm0-.2zm.2.3zm.1.5c0-.1 0-.2-.1-.2v.2zm.4-.8zm-.1-.5zm0 1zm.2.1zm.1-1h.2a.1.1 0 0 0-.1.1zm.2.3c0 .1.1 0 .1 0zm0-.6zm.2.2h-.1c0 .1.1.1 0 .2h.1zm.1-.2zm.1-.3h-.1c-.1 0-.1.1 0 .1h.1zm.3-.3h-.1a.1.1 0 0 0-.1.1h.3a.1.1 0 0 0-.1-.1zm-.1-.4zm.3.7zm0-.4v-.2h-.1c0 .1 0 .1.1.1zm1.1.1c0 .1 0 .1.1.2h.2c.1-.1.1-.1.1-.2.1 0 .1-.1.1-.2h.1c0 .1.1.1 0 .1h.1c.1 0 .1.1 0 .1h.5v-.2h-.3c-.1 0-.1-.1 0-.1h-.1c.1-.1.1-.1 0-.2h.3a.1.1 0 0 1 .1-.1V81h-.2c.1-.1.1-.1 0-.2h-.5c.1 0 .1-.1.1-.2v-.2h-.2a.3.3 0 0 0-.1-.2h-.5v.2h.3a.1.1 0 0 1 .1.1h-.3c-.1 0 0 .1 0 .1l.1.1h.2a.1.1 0 0 0-.1.1h.1c0 .1 0 .1.1.2-.1 0-.1 0-.1-.1l-.2-.2h-.4v.2h-.1c-.1.1-.1.1-.1.2h-.3a.1.1 0 0 1-.1.1c0 .1 0 .1.1.1h.1c-.1.1 0 .1 0 .1h.1c0 .1-.1 0 0 .1a.1.1 0 0 1 .1-.1h.2a.1.1 0 0 1 0-.2h.5zm-1 .1h-.1c0 .1 0 .1.1.1zm0 .2zm0-1.3zm.3.7a.3.3 0 0 1 .1.2h-.2v-.2h.1zm.7-.6h-.1v.2a.1.1 0 0 1 .1.1h-.2V81h-.3c0-.1.1-.1.1 0a.1.1 0 1 0 .2 0h.1zm-.6-.6zm.1.4zm0-.5zm.1 1.6h.1a.1.1 0 0 0-.1 0zm.1-1.5a.1.1 0 0 0 .1.1h-.1zm.1 1.4zm.2-.4h-.1c0-.1 0-.1.1-.1zm.1-.3zm0 1.2V82h-.1v.2zm0-1zm.1.3zm-.1 6.7zm.1-2.3zm0-2.9zm.1-2.9zm0 8.2zm0-7.1V81h.1v.2h-.1zm.7 1.8h-.1c.1 0 .1 0 .1-.1h-.6c-.2 0 0 .2 0 .3h.6zm-.5-.9h-.2c.1 0 .2.1.1.3h.1zm-.2 1.8h.2a.2.2 0 0 0 .2.2c-.1 0-.1.1-.2.2h.4v-.2h.1a.1.1 0 0 1 .1-.1h-.7zm0 1.7c.1 0 .1 0 .1.1h-.1zm.1.3a.1.1 0 0 1-.1.1zm0 2.5c-.1 0-.1 0 0 .1zm0-9c.1 0 0 0 0-.1zm.3 8.3zm-.3-7.3zm.1 3.9zm.5 1.4v-.2h-.2v-.2h-.1v.2s0 .1-.1 0h.1c0 .1 0 .1.1.1a.1.1 0 0 1 .1.1h.1zm-.6-2.2zm.1 4.5zm.1-1.8h-.2c0 .1 0 .1.1.1l.2-.2h-.1zm-.1-2.9h.1c-.1 0 0-.1-.1-.1h-.1zm.1 2.8zm.1.7s-.1 0 0-.1 0-.1-.1-.1h-.1c.1.1 0 .1 0 .1h.2zm-.2-1.1zm0-6.1v.2zm.3.9zm-.3 0zm.1 5.4zm.4-2.5c-.1 0-.1 0-.1.1h-.1a.1.1 0 0 1-.1-.1c.1 0 0 .1-.1.2h.3c-.1-.1.1 0 .1-.2zm0 5.4c-.1 0-.1-.1-.1-.2.1.3.1.3.1.2zm-.2-3.8h.1c0-.1-.1-.1-.2-.2h-.1a.1.1 0 0 0 .1.1h.1zm-.1-5zm.4 7.6h-.1c0-.1 0-.1-.1-.1h-.1c-.1 0-.1 0-.1.1h.3c.1.1.1.1.1 0zm-.3-4.4h-.1a.1.1 0 0 0 .1 0zm0 5.9zm0-1.2h-.1c.1.1.1.1.1.2h.1zm0-1.3h.1c-.1 0-.1 0-.1.1-.1-.2 0-.1 0-.1zm0-2.6zm0-4.2zm0-.5zm.1 8.6c0-.1.1-.1 0-.1zm0-2.7zm.1-.9zm-.1 1.8zm.2-3.8h-.1c-.1 0-.1.1 0 .1h.1zm.1 1.1zm0 2.5zm-.1 2.1zm.1-2.7zm-.1.3zm.1-4.1zm.1-1.1zm0 2.7zm11.3 7.2h-2.1c-.1-.1-.1-.2-.2-.4s-.1-.3-.1-.4a2.5 2.5 0 0 1-.2-.7v-.3c-.1-.1-.1-.3-.2-.4s-.1-.3-.1-.5h-3.5c-.1.1 0 .1-.1.2s-.1.3-.1.5a1.4 1.4 0 0 0-.2.6l-.2.5a4.3 4.3 0 0 0-.1.5.4.4 0 0 0-.1.3c-.1 0-.1.1-.1.2h-2c-.2 0-.1 0-.1-.1s.1-.2.1-.4c1.1-3.3 2.2-6.7 3.4-10.6.1-.1.1-.3.2-.4h2a10.4 10.4 0 0 0 .4 1c.3 1.1.6 2.1 1 3.2l1.2 3.9a7.5 7.5 0 0 1 .5 1.6 11.5 11.5 0 0 1 .6 1.7zm-8.5-1.1zm.3-.4h-.1c0 .1-.1.1 0 .2a.1.1 0 0 1 .1-.2zm.3.5h-.2v.2h.1a.3.3 0 0 0 .1-.2.1.1 0 0 0 .1.1zm-.3-2.4zm.1 1s.1-.1 0-.1zm0 .4zm0 .8zm0-1.8zm.1 1a.1.1 0 0 1 .1.1c0-.1 0-.2-.1-.2v.2zm0-1.1h.1a.1.1 0 0 0-.1-.1zm.1.5zm0 .3zm.1.9c.1.1 0 .1 0 0zm2-2.2a.1.1 0 0 0-.1-.1h-.1v.2h-.1a.2.2 0 0 1 0-.3c.1.1.1 0 .1 0h.3a.1.1 0 0 1-.1-.1h-.4c0-.1 0-.2.1-.2h-.3V86h-.2c0-.1 0 0 .1 0h.1v-.2h-.2a.1.1 0 0 0-.1.1h-.3c0 .1 0 .1.1.1s-.1 0 0 .1h-.1c-.1.1-.1.1 0 .1h.1a.2.2 0 0 1-.2-.2v-.2a.1.1 0 0 0-.1.1h-.6s.1.1.1 0h.3c-.1.1-.1 0-.2 0a.1.1 0 0 1-.1.1h.4c-.1.1 0 .1 0 .1h.3a.1.1 0 0 0 .1-.1v-.2a.1.1 0 0 0 .1.1.1.1 0 0 0 .1-.1v-.2h.1c0-.1 0-.1.1-.1-.1 0-.1 0-.1-.1-.1 0-.1.1 0 .1h.6zm-2 2zm0-1.4zm0 .1zm0 .4zm0 .5zm.1.3v.2zm0-.4c0 .1 0 .1-.1.1zm.5-.4h-.1c-.1 0-.1 0-.1-.1h-.1v.2s-.1 0 0 .1c0-.1 0-.1.1-.2h.2zm-.5-1.7zm.1 3.1zm.3-1zm-.3-.8h.5a.1.1 0 0 0-.1-.1h-.4zm0-1.6zm.1-.8c-.1-.1-.1-.1 0 0zm.1 1.8zm.1-1.9zm.3 2.7h-.2c-.1 0-.1 0-.1.1h.3zm-.2-2.3zm0 .2c.1 0 .1 0 0-.1zm0 1.5zm.2-.3h-.1c-.1 0-.1 0-.1-.1h.2zm-.2-1.6zm.1-.3h.2c0 .1-.1.1 0 .1h.1c0-.1 0-.1.1-.1h-.3s-.1-.1-.1 0zm.1.7zm.2.8h-.2a.1.1 0 0 0 .1-.1h.1zm0 1.1zm-.2-2.8zm.1-1.7zm.1 1.7h.3c0-.1 0-.1-.1-.1h-.2zm.3 2a.1.1 0 0 0-.1.1h.1zm-.3-2.9h.1c-.1 0-.1.1 0 .1v.2h.1a.1.1 0 0 0-.1-.1h-.1zm0 1.7zm.2.4c0 .1-.1.1 0 .1h-.1a.1.1 0 0 1-.1-.1h.2zm0 .3zm0-3.3zm.1.6v.2h.1c0-.1 0-.2-.1-.2zm0-.2zm.1 1.1h-.1a.1.1 0 0 0-.1.1h.2zm0 1.4zm.3-2.2h-.4c0 .1 0 .1.1.2a.1.1 0 0 1 .1-.1h.2zm-.2 2.8a.1.1 0 0 1-.1.1h.1zm0-.3zm-.1-3v.2h.1c-.1.1 0 .1 0 .1h-.1zm0-.6h.1c-.1-.1-.1-.1-.1 0zm0-.7zm.1.9h-.1c0 .1 0 .1.1.2h.1c-.1-.2-.1-.1-.1-.2zm0 2.1h.1s-.1-.1-.1 0zm0-2.5h.4l-.2.2h.1v-.2h.1c.1.1 0 .1 0 .1h.2c.1 0 .1 0 .1-.1h.5a.1.1 0 0 1-.1-.1h-.1a.1.1 0 0 1-.1-.1h-.9zm.1 1.8zm-.1 1zm.1.9h-.1a.1.1 0 0 1 .1-.1zm-.1-4.1h.5a.1.1 0 0 0 .1-.1h-.1c.1 0 .1 0 .1-.1h.1a.1.1 0 0 0-.1.1h.2c0-.1 0-.2.1-.2s-.1-.1 0-.1a.4.4 0 0 0 .1.3c.1 0 .1 0 .1-.1h.2a.1.1 0 0 0-.1.1h.8c.1-.1.1-.1 0-.1h.2c.1.1 0 .1 0 .1h.2c.1 0 0 0 0 .1h-.1a.1.1 0 0 0-.1.1h.3c0-.1.1-.1.1 0h.4a.1.1 0 0 1-.1-.1h-.1c.1 0 .1 0 0-.1h-.1c0 .1.1.1 0 .2h-.2a.1.1 0 0 1-.1-.1h.2v-.2c.1-.1 0-.1 0-.2h-.7a.1.1 0 0 0 .1-.1h-.2c.1.1.1.1.1.2h-.2c0 .1-.1.1-.1.2h-.4c0 .1 0 .1-.1.1h-.3c-.1 0-.1 0-.1.1.1 0 .1 0 .1.1h.4c-.1 0-.1 0-.1-.1h-.9c0 .1 0 .1.1.1h.3c0 .1 0 .1.1.1 0-.1-.1-.1 0-.2h-.3a.1.1 0 0 1 .1.1h-.1c.1-.1 0-.1 0-.1h-.3a.1.1 0 0 0 .1.1.1.1 0 0 0-.1.1h-.1zm.1-.3zm0 1.3c.1 0 0-.1 0 0zm0 1.3zm0 1.3zm.1-2.5zm.2.3c0-.1 0-.1-.1-.1h.1zm-.2.5zm0 1.9zm.2-5c-.1 0 0 0 0 .1zm0 .4zm.1 1.9zm0 3.5a.1.1 0 0 0-.1.1zm-.1.5zm2.1-1.4h.1c-.2-.7-.7-2-.9-2.8a.8.8 0 0 0-.2-.5c0 .2-.1.3-.1.5l-.9 2.7c-.1.1-.1.1 0 .1h2zm-1.9 1.6h-.1a.1.1 0 0 0 .1 0zm-.1-7zm0 3zm.1 3.4zm.4.3h-.2c0 .1 0 .2-.1.2h.3zm-.3-6.8h.2v-.2h-.2c0 .1-.1.1 0 .2zm0 2.2zm0 .4zm.1 3.7a.1.1 0 0 0-.1.1h-.1zm-.1-4.8v-.2c0 .1 0 .1.1.1h-.1zm0 4.7h.1a.1.1 0 0 0-.1.1zm.1-6.2zm0 1.2zm0 1.6zm.1 4.1zm0-5.6a.1.1 0 0 1-.1-.1zm.1-1.5zm-.1 2.6zm.1 3.8zm0-5.5zm.1.2zm.1 5.6h.1c-.1 0-.1 0-.1-.1h-.2v.2h.2zm-.2-.6zm0-4.1zm.1-.5zm0 5.4zm0-5.9h.2c-.1 0-.1 0-.1-.1h.4v.2h-.4zm.1-.7zm.2 6.1zm0 .6zm.1.1a.1.1 0 0 0 .1-.1h-.1c-.1 0-.1 0-.1-.1 0 .1.1.1.1.2zm-.2-6.7a.1.1 0 0 1 .1-.1c0 .1 0 .1-.1.1zm.1 1.1h-.1c.1-.1.1-.1.1 0zm0 5.8zm0-7.2a.1.1 0 0 1-.1-.1h.1zm0-.3c-.1-.1 0 0 0 0zm0 6.6a.1.1 0 0 0 .1-.1h-.1zm0-7.1zm0 1.2v-.2zm0 6h.1c.1 0 .1-.1 0-.1h-.1zm.1-4.5c-.1-.1 0-.1 0-.1zm0 4.1zm.1-4.3v-.2h.1zm.1 5.4zm2.3.7v-.2h.5V87h-.4a.1.1 0 0 0-.1-.1c.1.1.1.1.1.2h.3c-.1-.1-.1-.1 0-.2h-.1s-.1 0 0-.1a.1.1 0 0 0-.1-.1h-.5c-.1 0-.1 0 0-.1h.5a.1.1 0 0 0-.2 0c0-.1 0-.1-.1-.1h.3c.1-.1.1-.1 0-.1h-.5c0-.1.1-.1.1 0-.1 0-.1 0-.1.1h-.1c-.1 0-.1 0 0 .1v.2h-.1v.2h-.2c.1 0 .1-.1.1-.2h-.4a.1.1 0 0 1 .1.1h.4a.1.1 0 0 1-.1.1h-.2v-1a.1.1 0 0 1-.1-.1h-.1a.1.1 0 0 0-.1-.1h-.1c0 .1-.1.1-.2.1v.2l-.2-.2h-.1v.2c0 .1 0 .1-.1.1v.2h-.1c.1 0 0 0 0-.1h-.1c-.1.1-.1.1-.1.2h-.1c-.1 0-.1-.1 0-.1h-.2a.1.1 0 0 0 .1-.1h-.1v.2c-.1.1 0 .1 0 .2h.4c-.1 0-.1 0-.1-.1h.5a.1.1 0 0 1-.1-.1h.4c.1 0 0 0 0-.1h.2c0 .1.1 0 .1 0h.1a.1.1 0 0 0-.1.1h-.3c0 .1-.1.1-.1.2a.2.2 0 0 0 0 .3h.3c.1-.1 0-.1 0-.1h.1c0 .1.1.1.1 0h.2a.2.2 0 0 1-.1.3h-.1a.1.1 0 0 0-.1.1h.1c.1 0 0 0 0 .1h.1a.1.1 0 0 1 .1-.1h.3v.2h.1c0-.1 0-.1.1-.2 0-.1-.1-.1-.1-.2h.2a.3.3 0 0 1-.1.2c.1 0 .1.1 0 .1v.2h.1zm-2.4-7.4h.3v-.2h-.3zm0 1.4zm.1 4.4c-.1 0-.1 0-.1.1h.1zm.3-5h-.3v-.2h.4zm-.3-.6zm0-1zm0 1.2c0-.1.1 0 0 0zm0 6.2zm.2-5.4zm.2-1.1zm0 .3h.2c-.1.1-.1.1 0 .2h.2s-.1.1 0 .1v.2h-.3zm.1 6.3zm.2-5.1a.1.1 0 0 0-.1-.1h.1zm-.2.2zm0 .2zm0-2.2h.2c.1 0 0-.1 0-.1h-.1s0-.1-.1 0zm.1 6.8zm0-4zm.1-.1zm.1-3.1zm.1 4.4c-.1 0-.1 0-.1.1h.1zm.1-2.8h-.1c0 .1 0 .1.1.1zm0 1.8zm0-.6zm0-1.7c.1 0 .1 0 0-.1zm0 2.4zm.1-2.2s-.1 0 0 .1zm0 1.8zm0 1.7h.1a.1.1 0 0 0 .1.1c0-.1 0-.1-.1-.2h-.1zm.1 2.1h-.1c.1.1.1.1.1 0zm-.1-2.4zm.2-1.7a.1.1 0 0 1-.1-.1.1.1 0 0 0 0 .2h.1zm0 .6h-.1a.1.1 0 0 0 .1.1zm-.1-1.3a.1.1 0 0 0 .1-.1zm.2 1h-.2c.1 0 .1 0 .1.1s.1.1 0 .1h.1c.1 0 .1-.1 0-.1zm-.1.6zm.2.2h-.2v.2h.2zm.1.5h-.2V84h.4s0-.1-.1 0a.1.1 0 0 1-.1-.1zm.1.6c0-.1 0-.1.1-.1h.1a.1.1 0 0 0 .1-.1h-.5v-.2a.1.1 0 0 1-.1.1v.4h.2c-.1.1-.1.1-.1.2h.3c-.1 0-.1 0-.1.1h.2c0-.1 0-.2-.1-.2h-.1zm-.3 1.8zm0-3.3zm.1.2h.2s-.1.1-.1 0-.1-.1-.1 0zm0-.6c0 .1.1.1.1.2v-.2h-.1zm.1 4.3a.1.1 0 0 0-.1.1h.1zm.2-.1zm0-.7c.1 0 .1.1 0 .1s-.2-.1-.1-.1h.1zm-.1-2.2h.1c.1.1.1.1.2 0h-.3zm.2 1.8zm.3.4h.2c0 .1.1.1.1.2h-.3zm-.1.3zm.1 1.6zm.1-1zm.2.7h-.1a.1.1 0 0 0-.1.1zm0-.3h-.1a.1.1 0 0 0 .1-.1zm0-.5zm0 1.5zm.7-.7h-.2v-.2h-.3a.2.2 0 0 0-.2.2c0 .1 0 .1.1.1s0-.1 0-.1h.3a.1.1 0 0 1 .1.1h.2zm-.7-2.6zm0 .7zm0 1.7zm0 .7zm.2.9a.1.1 0 0 1-.1.1h.1zm0-.6c0-.1-.1-.1 0-.1zm0-2.5h.1a.1.1 0 0 0-.1-.1zm.1 2v.2zm0-2.3zm.1 1.3h-.1a.1.1 0 0 0 .1-.1zm-.1 2.1zm.1-.8zm.1.2h-.1.1zm0 .4zm-.1-2.2h.1s0-.1-.1 0zm.2.6zm0 1zm.2.8h-.1a.1.1 0 0 0 .1.1zm-.2-.6h.1v-.2h-.1zm.1.7zm0-1.6c-.1-.1 0 0 0 0zm.1.7c.1 0 .1-.1 0-.1zm.1.6h-.1a.1.1 0 0 0 .1.1zm.1-.3zm.1.8zm10.1-7.1a5 5 0 0 1-.2 1.2 3.5 3.5 0 0 1-.7 1.2c-.1.1-.1.2-.2.2l.3.4.3.8a2.8 2.8 0 0 1 .1.9v3h-2v-2.8a1.9 1.9 0 0 0-.2-.7 1 1 0 0 0-.4-.5.1.1 0 0 1-.1-.1h-2.8v4.3h-2V79c0-.1 0-.1.1-.1h4.7a3 3 0 0 1 1.6.5 3.6 3.6 0 0 1 1.5 3.1zm-7.5 5.4zm.1-6.9zm1.7 4a.2.2 0 0 1 .2-.2.1.1 0 0 0-.1-.1h-.4a.1.1 0 0 1 .1.1h.1l-.3.2h-.6c0-.1.1-.1.1-.2h-.1v-.2h.1v-.2h-.2c-.1 0-.1.1-.1.2h-.4v.2h-.1v.2h.4c-.1 0-.1.1-.2.2h.7c0-.1 0-.1.1-.2a.4.4 0 0 1 .1.3c.1 0 .1 0 .1-.1h.5c.1-.1.1-.1 0-.2zm-1.7 1.8zm0-1.2a.1.1 0 0 0 .1.1c0-.1 0-.2.1-.2h-.2zm.1-5.2zm.3 3.2h.1c-.1 0-.2 0-.2-.1h-.1a.1.1 0 0 0-.1.1h.3zm-.2 3c-.1 0-.1 0 0 0zm.1-3.5zm-.1 2.9zm0 1.9a.1.1 0 0 0 .1-.1h-.1zm0-5zm.1 5.3c-.1-.1-.1-.1-.1 0h.1zm0-1.9c-.1 0-.1 0-.1.1h.2v.2h.1c.1 0 .2 0 .2-.1h-.1c.1-.1.1-.1 0-.2h-.3zm0-.5zm.1 2.7zm-.1-5.9h.3v-.2c.1 0 .1-.1 0-.1zm.7 3.1a.1.1 0 0 1-.1-.1v-.2h-.4c-.1.1-.2.2-.2.3h.1c0-.1 0-.2.1-.1h.1v.2c-.1.1 0 .1 0 .1h.2zm-.7-4zm.2 5.3h-.1v.2h.2zm-.2-4.2zm0-2.5zm.1.8zm0 .7h.3c.1-.1.1-.1 0-.2h-.3zm.1-.2h-.1c-.1.1 0 .1 0 .2h.1zm-.1-1v.4h.1v-.2a.1.1 0 0 1-.1-.2zm0-1c.1.1.1.1.1 0h-.1zm.2 2.8h.1v-.2h-.1c-.1.2-.1.2 0 .2zm-.2 5.9h.2c0-.1 0-.1-.1-.1h-.1zm.2-8.4h-.1v.2c.1 0 .1 0 .1.1h.2V80h-.2a.1.1 0 0 0-.1-.1zm-.1 2.6zm.1 6.4c0-.1-.1-.1 0-.1v-.2h-.1v.2h.1zm-.1-3.1h.1zm0-1.1zm.1 2.9zm-.1-4.4zm.2-1.9zm-.1 3zm-.1 1.5zm.2-.8zm0-1.9h-.1a.1.1 0 0 1 .1-.1zm-.1 6zm.2-8.5h-.2v.2h.2zm-.2.3h.1a.1.1 0 0 0-.1-.1zm.1 2.4h-.1c0 .1 0 .1.1.1zm0-3.6v.2h.1a.1.1 0 0 0-.1-.1zm0 3.2zm0 3.2zm.1-4.3zm0 3.9zm.1-2.3c-.1.1 0 .1 0 0zm-.1-3.3a.1.1 0 0 0 .1-.1zm.1 2.5zm-.1.6h.1c-.1 0-.1 0-.1.1zm.1-2c0-.1 0-.1-.1 0h.1zm.1 5.6h-.1a.1.1 0 0 0 .1 0zm-.1 1.1zm0-5zm0 2.5a.1.1 0 0 0 .1-.1h-.1zm.4-5.3h-.2c0 .1 0 .1-.1.1h.3a.1.1 0 0 0 .1-.1h-.1zm-.3.7zm0 3.3c.1.1.1.1.1 0h-.1zm0-2.4zm0 3.9zm.2-5.1zm-.1 8.1zm0-5.5zm0 1.5c0 .1-.1.1-.1 0zm0-5a.1.1 0 0 0 .1-.1h-.1zm.1 7.3zm0-2.1c.1.1 0 .1 0 .2v-.2c0-.1 0-.1.1-.1zm.1.8zm0-6.2zm.2.4h-.1c0 .1 0 .1.1 0zm.1.2c0 .1-.1.1-.1.2h.2c0-.1 0-.1.1-.2zm2.6.8H154c-.1 0-.1 0-.1.1v2.9h3.1a1 1 0 0 0 .5-.4.4.4 0 0 0 .1-.3 1.7 1.7 0 0 0-.5-2.2zm-2.6-.9zm0 5.5zm0-5.8v.2h.1v-.2h-.1zm.6 5.8a.1.1 0 0 0 .1-.1.1.1 0 0 0-.1-.1h-.2a.1.1 0 0 0-.1-.1c0 .1-.1.1-.1.2h.3c.1 0 .1 0 .1.1zm-.3-5.3zm0-.2h.1l.2-.2h.2a.1.1 0 0 0-.1-.1h-.2c-.1.1-.1.1-.1.2h-.1zm.2 5.5zm.5-.7a.1.1 0 0 1-.1-.1.3.3 0 0 0-.1.2v.2h.1v-.3a.1.1 0 0 0 .1-.1h.1zm-.2-4.8c-.1.2-.1.2 0 .1h.1c.1-.1.1-.1.1 0h.1a.1.1 0 0 0 .1-.1h-.4zm0 .3zm.3-.1zm.1 5v-.2h.1zm.2-.2h-.1c-.1 0-.1-.1 0-.1a.1.1 0 0 0-.1-.1v.2h.3zm-.1-4.8h.2a.1.1 0 0 1 .1-.1h-.3v.2c-.1-.2 0-.2 0-.1zm0 .1zm.1 4.9zm0-5.5s.1-.1 0-.1zm.1 6zm.3-.5zm.3-.3zm-.3-4.9h.1c-.1-.1-.2 0-.1 0zm.3-.2v.2h.1v-.2h-.1zm0 4.8a.1.1 0 0 0 .1-.1h-.1zm.1-.3zm0 .8zm.2.2c-.1-.1-.1 0-.1-.1h.1zm-.1.4zm0-6zm.2.5h-.2l.2.2zm1.2 5.8c.1 0 .1 0 .1-.1h.1c.1-.1.1 0 .1 0h-.6s-.1-.1-.1 0h.2c0 .1 0 .1-.1.1h.2a.1.1 0 0 0 .1.1h.2v-.2h.2V85h-.4s.1-.1 0-.1v-.2h-.2c0 .1-.1.1-.1 0v-.2h-.7c0 .1-.1.1-.1.2h.2c.1 0 .1 0 .1.1l-.2.3a.1.1 0 0 0 .1.1h.3a.1.1 0 0 1 .1.1h.3c0 .1 0 .1.1.2h.2zm-1.1-.3zm.1-6a.1.1 0 0 0 .2 0h-.2zm.1 6.2zm0-5.6zm0-.5zm.1 5.1zm.2.9c.1 0 .1-.1 0-.1zm.1-.7h-.2c-.1.1 0-.1 0-.1v-.2h.1v-.2h.1a.1.1 0 0 0 .1.1h-.1c0 .1-.1.1 0 .1h.1c.1 0 .1 0 0 .1h-.1zm-.1-4.8a.1.1 0 0 1-.1.1zm0-.2zm.1 5.2zm.1.7h-.2c.1 0 .1 0 .1.1zm-.1-6.1h.1zm.4 4.4h-.3s.1.1.1 0h.2zm-.2-3.9c.1 0 .1 0 .1-.1a.1.1 0 0 0-.1.1zm.1-.5zm.4 6.6h.4s-.1-.1-.1 0-.1 0-.1-.1h-.1c.1 0 .2 0 .2.1h-.5c-.1 0-.1 0-.1.1h.3zm0-2.2h-.2a.1.1 0 0 0-.1-.1h.3c0 .1 0 .1-.1.1h.2V84h.1c.1 0 .1 0 .1-.1h-.3zm-.2-4.1zm.1.2zm0 0h.1v-.2zm.1 6.6c0-.1 0-.1-.1-.1h.1zm0-2.8zm.1 3.3c-.1 0-.1 0-.1.1h.1zm.1-2zm-.1-5.2zm0 6.8zm.2-3.1h.1a.1.1 0 0 0-.2 0h.1zm0 .1zm0 3.6h-.1c.1.1.1.1.1 0zm-.1.5zm0-2.4zm0-5.2zm0 8.1c.1 0 .1 0 0 0zm.1-3.7zm0 .7zm0 2.7zm0-6.1zm0 1.9zm0 2.8zm.2.8a.1.1 0 0 0-.1.1h.1zm-.1-1.1zm0-2.2zm0-3.3c0 .1.1 0 .1 0h-.1zm0 2.2zm.1.6zm0 .4zm0 4.1zm.1-5.6zm-.1-2.1zm.1 6.3zm-.1-5.1zm.1 7c0-.1 0-.1.1-.1h-.1zm.1.2h-.1c0 .1 0 .1.1 0zm-.1-5zm0-.4zm0-2.3zm.1 5.3zm0-3.8zm0 5.2h-.1c0 .1 0 .1.1.1zm0-7.3zm0 2.5zm.1 4.2v-.2zm-.1-.9zm0-5.7v.2zm.1 1.6zm.1 1zm.1-1.3a.1.1 0 0 0-.1-.1h.1zm-.2.1h.1c0-.1 0-.1-.1-.1zm.1 5.9zm.1-5.1h-.1c.1 0 .1 0 .1-.1zm-.2 5zm.1-6.4zm0 4.9zm.1-4.8h-.1a.1.1 0 0 0 .1.1zm0 2zm0-3.1zm.2 2.1s-.1.1 0 .1zm.3.2zm9.4 7.3h-2.5v-.2l-.3-.4-.2-.4-.3-.5-.5-.6h-.2l-.2-.4-.3-.5-.4-.5v-.2h-.2l-.3.4v3.7h-.1c-.9 0-2.3.3-2-.4V79.2h2.1v4l1.2-1.6c.4-.5.7-1.1 1.1-1.7l.6-.8h2.5l-.2.3-.4.5-1.2 1.7-.3.5-.3.4-1.5 1.5a.4.4 0 0 1-.1.3v.2h.1l.3.5.4.6c.1.1.1.1.1.2l.2.2.3.5.4.6.4.6.2.3.2.2a1.3 1.3 0 0 0 .3.5h.1c0 .1.1.1.1.2l.4.6.2.2a.4.4 0 0 0 .1.3zm-7.3-7.6zm.1 3.2h-.1.1zm0-2.6a.1.1 0 0 0-.1.1h.1zm3 2.9a.1.1 0 0 1 .1-.1h.3v-.4c0 .1-.1.1-.1.2h-.1c.1-.1 0-.1 0-.2h-.1a.1.1 0 0 0-.1-.1c-.1 0-.1-.1 0-.1h.2c0-.1 0-.1-.1-.1a.1.1 0 0 0-.1.1h-.3v-.2h-.3c.1 0 .1 0 .1.1h.4c-.1 0-.2 0-.2-.1h.1a.1.1 0 0 1 .1-.1h-.8v.2h.6v.2a.1.1 0 0 0 .1.1v.2h-.1c-.1 0-.1 0-.1.1h-.3c-.1 0-.1 0 0 .1h-.7c0-.1 0-.2-.1-.2a.1.1 0 0 0-.1.1c-.1 0-.1 0 0 .1h-.2a.2.2 0 0 1-.2.2c-.1 0-.1-.1 0-.1h.1c-.1 0-.1 0-.1-.1h.1v-.2c-.1 0 0 .1-.1.1s0-.1 0-.1.2-.2-.1-.2.1-.1 0-.2h.3c0-.1 0-.1-.1-.1h-.7c.1.1 0 .1 0 .2h-.1c0 .1 0 .1-.1.2h.1v-.2h.3a.4.4 0 0 0-.1.3h.2c0 .1 0 .1-.1.1h-.2a.1.1 0 0 0 .1-.1h-.1a.1.1 0 0 0-.1.1v.2h-.1c-.1.1 0 .2 0 .4h.3c.1-.1.1-.1.1 0s.1.1 0 .1h-.1a.1.1 0 0 1-.1.1h-.3c-.1 0-.1.1 0 .1h-.1a.1.1 0 0 0-.1.1h.5c-.1 0-.1 0-.1.1h-.1c-.1.1-.1.1 0 .1 0 .1.1.1.1.3h-.1c0-.1.1 0 .1 0h.1c0 .1.1.1.1.2h-.4c-.1 0-.1 0-.1-.1h.8v.2h.1v-.2c-.1 0-.1 0-.1-.1h-.1v-.2c0-.1 0-.1.1-.1s.1.1 0 .1c0 .1.1.1.1.2s0 .1.1.2h.2c0 .1-.1.1 0 .1h.2a.1.1 0 0 1 .1-.1h.1c0-.1 0-.1-.1-.1-.1.1-.1.1-.1 0v-.2h.4l.2-.3h.2a.1.1 0 0 1-.1.1h.1c0 .1 0 .2-.1.2h-.1l.2.2h.2c0 .1-.1.1 0 .2h.2V86h.2l.2-.2h-.2a.1.1 0 0 1-.1.1c0-.1-.1-.1-.1 0h.1a.1.1 0 0 0 .1.1v-.2zm-3-4.9a.1.1 0 0 1 .1.1c0-.1 0-.1.1-.1h-.2zm0 4.3zm.2 2.3zm-.1-5.5zm0 1.6zm.1-.8zm-.1 1.4zm-.1 2.4zm.1-1.8zm.1 3a.1.1 0 0 0-.1-.1h.1zm0-4.4h-.1v.2h.1zm-.1-3.4zm0 5.2zm0-4.7h.4c0-.1 0-.2-.1-.2h-.1v-.2c-.1 0-.1 0-.1.1zm.1 6c-.1-.1-.1-.1 0 0zm0-1.5zm.2-3.7h-.1c0 .1 0 .2-.1.2h.2zm-.1-1.6zm-.1.1zm.5 1.1h-.1.1zm-.4 7.5h.1c0-.1 0-.1-.1-.1zm.2-.5h-.2c.1 0 .1 0 0 .1h.2c-.1-.1 0-.1 0-.1zm0-1.1c0-.1 0 0-.1-.1h-.1a.1.1 0 0 1 .1.1v.2h.3c0-.1.1-.2 0-.2h-.1a.1.1 0 0 1-.1-.1zm.1-2.6zm-.1 4.8a.1.1 0 0 0-.1.1h.1zm-.1-5.9v-.2zm.1-3.1zm0 3.6zm0 1.4zm0 1.3zm-.1 1h.2c0-.1 0-.1-.1-.1s-.1 0-.1.1zm.1-7.7zm0 5.9zm.1-3.5zm0 .4h-.1c0 .1 0 .1.1.1zm.1 6.3h-.1a.1.1 0 0 0-.1.1h.2zm-.2-2.3zm0 .3zm.3 1.7h-.1a.1.1 0 0 0 .1.1zm-.1.5h-.1a.1.1 0 0 0 .1-.1zm.2-8.7c-.1.1 0 .1-.1.1s-.1-.2-.2-.2v.2h.2c0-.1 0-.2-.1-.2h.1zm-.3 4.2zm0-.9zm0 3zm.2-6.6zm-.1 3.7zm0 3.3zm-.1-7.4zm.2 4.9zm0 2.2h.1c.1 0 .1 0 .1-.1h-.2zm0-2.5c.1 0 0 0 0 0zm0 1.4zm0-5.4zm.1 4.7zm0 2.5c0-.1 0-.1-.1 0h.1zm-.1-3.8zm.3.6c-.1.1 0 .1-.1.2h.1zm-.1 3.4zm0 .4zm.1-5.1h-.2c.1 0 .1 0 .1.1s.1 0 .1-.1zm-.1 1.8zm0 4.3zm-.1.2zm.6-4.6h.1v.2h-.3c-.1 0-.1 0 0-.1a.4.4 0 0 0-.1.3h-.1c0-.1.1 0 .1-.1h.3zm-.5 4.2zm.1-7.7zm0 .7a.1.1 0 0 0-.1.1h.1zm0 .7c-.1 0 0 0-.1.1s.1 0 .1-.1zm0 4.4zm0 .9zm0-3.3zm.1-1.1zm.1.4h-.1.1zm0-1.2v-.2zm.1 2.9zm0-1.5zm.1-.5zm.3 1c0-.1 0-.1.1-.1v.2zm-.2-.7h.1a.1.1 0 0 0-.1.1c-.1 0-.1 0-.1-.1zm-.1-.6zm.1 1.3zm.2-.4zm-.1-.7zm.2 1.8zm0-.5zm0-.7h.1a.1.1 0 0 1-.1.1zm0 .5zm.1-.3zm0 1.1zm.1-.1zm-.1-1.9h.1c-.1.1-.1.1-.1 0zm.1.1zm0 .4zm0 .3zm.1.4zm-.1 1zm.2-1.1zm-.1-.8h.1v.2h-.1zm.1-1.3zm.1 2.8a.1.1 0 0 1-.1-.1h.1zm0-.6zm0-1.2zm0 1.3zm.1-2.2c.1 0 0 0 0-.1zm0 .9zm.2 1.7zm-.1-1.3zm-.1.8zm.1.7c.1.1 0 .1 0 .2zm0-.5zm.1-2.2zm0-.5zm.2 3.6h-.1a.1.1 0 0 1 .1 0zm-.1-3.1zm.2 2.8h-.1c0-.1 0-.1-.1-.2h.2zm-.1-2.9h.2c.1 0 .1 0 .1.1h-.1a.1.1 0 0 0-.1.1v-.2h-.2zm0 .2zm.2.4h.1c0-.1 0-.1-.1-.1a.1.1 0 0 1-.1.1h.1zm-.1.4zm.1 2.6zm.1.3c-.1.1-.1.1-.1.2h.1zm-.1-1.4h.1c0-.1 0-.1.1-.1zm.1.3zm.1.9zm-.1-4.9zm.1.3zm.1 1.2v-.2h-.1v.2zm0 4.1zm-.1-.5zm.2-.4zm0-3.7zm0 4h.2a.1.1 0 0 1-.1-.1h-.1c-.1 0-.1 0 0 .1zm0-4.7a.1.1 0 0 0 .1.1h-.1zm0-.2c.1 0 .1-.1 0-.1zm.1 5.4h.4v.2h-.4zm-.1-.8zm0 1.4zm.1-6.2zm0 1.3zm.3-1.5zm0 6zm0-5.8zm-.1 4.8zm0-4.3zm.1-.2c-.1 0-.1 0-.1.1h.1zm-.1 4.2zm.1.6zm0-4.3h-.1a.1.1 0 0 0 .1.1zm.2 5.9h-.2c0 .1.1.1.2 0zm-.2-1.4zm0-4.4zm.3 5.5h-.3c0 .1 0 .1.1.1h.1a.1.1 0 0 1 .1-.1zm-.1-.4h.2v-.2a.1.1 0 0 1-.1.1zm-.1-6.1a.1.1 0 0 0 .1.1h-.1zm.2.6zm0-.2zm.2 6.7zm-.2-7.2h.1c-.1.1-.1.1-.1.2zm0 5.5zm.1.3zm.1-5.1zm.1 5.8zm-.1-.3h.1a.1.1 0 0 1 .1-.1c-.1 0-.2 0-.2.1zm-.1-6.6zm.2 7.3h-.1a.1.1 0 0 0 .1.1h.1c0-.1 0-.1-.1-.1zm0 .4zm.1-8.3zm.1.8zm-.2-1.2zm.2.8h-.1c-.1.1-.1.1 0 .1h.1zm-.1-.6zm0 8.7zm.1-8.3zm.1 8.4a.1.1 0 0 1-.1.1h.1zm-.1-1zm0-8.2zm.1 1.7zm0 7c0 .1 0 .1-.1.1zm.1.7zm-.1-1.6zm.6 1.8h-.4c-.1 0-.1 0-.1.1s0-.1.1-.1h.2c-.1 0-.1 0-.1.1h.3zm-.4-9.1h.1c-.1 0-.1 0 0-.1h-.1v.2zm0 8.8h.1v-.2zm0-.3h.1c.1 0 .2 0 .2-.1h-.3zm.2-9.3zm0 .4zm.4 9.3zm0-9.4zm.1 9.6zm0-9.8h-.1s.1-.1.1 0zm9.8 0v1.3H172v2.4h4.3v1.7H172v2.6h5.1v2h-7c-.2 0-.1-.2-.1-.4v-9.8h7.1v.5zm-6.8 3.3h.6c0-.1 0-.1-.1-.1h-.2a.1.1 0 0 1-.1.1h-.2zm.1.6c.1.1 0 0 0 0zm0-2.1h.1c0 .1 0 .1.1 0s.1 0 .1.1v.2h.3c0-.1 0-.1.1-.1h-.7zm0 5.1a.1.1 0 0 0 .1.1h.1a.1.1 0 0 1-.1-.1h-.1zm0-.7zm1.5 3.4c-.1-.1-.1-.1-.1-.2h-.1c.1 0 0 0 0-.1a.1.1 0 0 0-.1.1h-.2c-.1 0-.1 0-.1.1s-.1.1 0 .1h-.4a.1.1 0 0 1 .1-.1h.2c.1 0 .1-.1 0-.1h-.4v-.2h-.4c0 .1 0 .1.1.1h.2v.2c-.1.1 0 .1 0 .2h.1c0-.1.1-.1.1-.2a.1.1 0 0 0-.1-.1h.2s.1.1 0 .1-.1 0-.1.1h.1a.1.1 0 0 0-.1.1c.1 0 .1 0 .1.1h-.1c.1 0 .1 0 .1.1h.4c.1 0 .1 0 .1-.1h.1v.2h.2c0-.1 0-.1.1 0s.1.1.1 0h.7c0 .1.1.1.1.2a.1.1 0 0 0 .1-.1c0 .1 0 .1.1.1a.1.1 0 0 0 .1-.1h.3c-.1 0-.1-.1-.1-.2h.1a.1.1 0 0 0 .1.1h.4v-.2h-.1a.1.1 0 0 0-.1-.1h.2c.1.1.1.1.2 0a.1.1 0 0 0 .1.1h.1c.1 0 0-.1 0-.1h-.1a.1.1 0 0 1-.1-.1h-.6v-.2h.1c0-.1-.1-.1 0-.1 0-.1-.1-.1-.1 0h-.5c-.1 0-.1 0-.1-.1h-.1c0 .1 0 .1-.1.1h-.2c0 .1 0 .1-.1.1s-.1-.1-.2-.1h-.3zm-1.4-8.4h-.1a.1.1 0 0 0 .1.1zm-.1-.6zm0 4zm.2-1.6h-.1c-.1.1-.1.1 0 .2zm0 .8a.1.1 0 0 1-.1-.1c-.1.1 0 .1 0 .2h.1zm1.2.7h.1a.1.1 0 0 1-.1-.1h-.3a.1.1 0 0 1-.1.1h-.1a.1.1 0 0 0-.1.1h.2c-.1-.1-.1-.1 0-.2-.1 0-.1 0-.1.1h-.2c.1.1.1.1 0 .1h-.2a.1.1 0 0 0-.1.1.1.1 0 0 0-.1.1.4.4 0 0 0 .1.3.1.1 0 0 1 .1-.1h.3c-.1.1-.1 0-.2 0s0 .1-.1.2a.1.1 0 0 0-.1-.1h-.2c0 .1 0 .2.1.2s0 .1-.1.1 0 .1 0 .1h-.1c0 .1-.1.1 0 .2h.4c0 .1.1.1.1.2h-.1c.1 0 .1 0 .1.1h.2c0-.1-.1-.1-.1-.2h.1a.1.1 0 0 0 .1-.1h-.1c-.1-.1-.1-.1 0-.1s.1-.1 0-.2h.2c.1-.1 0-.2.1-.2s0-.1.1-.2a.1.1 0 0 1-.1-.1h.1c.1.1 0 .1 0 .1h.4a.1.1 0 0 0 .1.1v-.2h.2c.1-.1.1-.1.1 0h.3c-.1.1 0 .1 0 .1h.1a.1.1 0 0 1 .1-.1h.1v.2h.7c.1-.1.1-.1 0-.2h.1a.1.1 0 0 0 .1-.1h-.8a.1.1 0 0 1-.1.1h.5v.2h-.1c0-.1 0-.1-.1-.1h-.9a.1.1 0 0 0-.1.1h-.3zm-1.3.7zm0 2.4zm.1-3.2zm-.1 1.3c0 .1.1.1.1 0h-.1zm.1-4.8h.2v-.2h-.2c-.1.1-.1.1 0 .1zm.8-.1a.1.1 0 0 0 0 .2h-.6a.1.1 0 0 1-.1.1h-.1c0 .1 0 .1-.1.1v.2h.1a.1.1 0 0 1 .1-.1.1.1 0 0 0 .1.1h.7c-.1 0-.1-.1 0-.1h-.1zm-.8 7zm0-1.9c0 .1 0 .1.1.1h-.1zm0 1.6zm0 1.5c.1 0 .1 0 0-.1zm0-8.6zm.1 2.2zm0 1.5h.1v-.2h-.1zm0-4.1zm.3 2.6h-.3v.2c.1-.1.1-.1.1-.2h.1c0 .1 0 .1.1.1h.1v.2h-.1zm-.3 7zm0-1.6zm.2-4.3h-.1a.1.1 0 0 0-.1.1h.2zm-.1 3.1h.1V86h-.2a.1.1 0 0 0 .1.2zm.2 1.3a.4.4 0 0 0-.1.3h.1c.1.1 0 .2.1.2h.3c-.1-.1-.1 0-.2 0h-.3a.1.1 0 0 0-.1-.1v.3h.2zm-.1.7zm1.5-7.9h-.2c.1 0 .1 0 .1-.1h-.1V80c0-.1 0-.2.1-.2h-.4c-.1 0-.1 0-.1.1h-.3c-.1 0-.1 0-.1-.1h.2c0-.1 0-.1.1-.1h.2c-.1-.1-.2-.1-.2 0v.1h-.5v-.2h-.2c-.1 0-.1-.1-.1-.2h-.1c.1.1.1.1 0 .2h.2c0 .1 0 .1.1.1h.6c.1.1.1.1 0 .1s-.1.1 0 .1h-.1c.1 0 .2 0 .2-.1h.2c0-.1-.1-.1 0-.2h.2a.1.1 0 0 0 .1.1h.2zm-1.6 9.4zm0-5.1c.1-.1.1.1 0 0zm.1-.7h-.1c0-.1.1-.1.1 0zm0 .2zm.1 1.2v.2zm0 4.5zm0-7.5c-.1 0-.1 0-.1.1h.1zm0 .6h-.1a.1.1 0 0 0 .1 0zm0 4.1zm0 1.8zm.2.6c-.1.1-.1.1 0 .2zm-.2-4.6zm.1 5.3zm-.1-6.8zm0 .6zm0 3zm.1-5.9zm.1 3.1zm-.1 3.1zm0-7.6zm0 2zm.1-1.4h-.1c0-.2.1-.1.1 0zm0 4.6zm.2 2.4h-.1V87h-.2a.1.1 0 0 1 .1.1c.1 0 .1.1.2 0h.1c-.1.1-.1 0-.1.1zm-.3 2zm.1-9.8c-.1 0 0 0 0 0zm0 7.4c-.1 0 0 .1 0 .1zm0-2.4zm.2.8h-.1a.1.1 0 0 1-.1.1h.2zm-.2 4.7zm.1-.4zm0-5.6zm.3.6h-.3a.1.1 0 0 0 .1-.1h.1c.1 0 .1 0 .1.1zm0 4.3a.1.1 0 0 1 .1.1h-.4c0 .1.1.1.1.2h-.1v-.2h.2a.1.1 0 0 1-.1.1h.2zm-.3-.8h.2c-.1-.1-.1-.1-.1 0zm.1-1.6c0-.1 0-.1-.1 0zm0-.8a.1.1 0 0 0 .1.1c-.1.2-.1.1 0 .2h-.1zm.1-4.2a.1.1 0 0 0-.1.1h.1zm-.1-1.3zm.1.4zm.1 7.6h-.1c-.1.1 0 .1 0 .2h.1c-.1-.1-.1-.1 0-.2zm0-5.9zm-.1.7zm0 4.2zm.2-1.7zm-.1 3.7a.1.1 0 0 1-.1-.1h.1zm.2-8.4c.1-.1.1-.1 0-.2zm-.1 3.5zm.2 5.2zm-.1-1.1zm0 .2zm0-4.2zm0 1zm.1 3.9zm.1-.4zm.1-9.1h-.1a.1.1 0 0 1 .1-.1zm.2 10.3zm-.2-5.6zm.2.5h-.1v-.2zm-.1 4.6c-.1-.1-.1-.1 0-.1h.2v-.2h.1c.1 0 .1 0 .1.1h-.1c0 .1-.1.1-.1.2zm0-5.3zm.5-4.6h-.3a.1.1 0 0 0-.1.1h.1a.1.1 0 0 0-.1.1h.4zm-.4-.3zm.2 5.2zm-.1 5.4h.1c-.1 0-.1-.1-.1 0zm.1-4.9zm0-4.7zm.1-.3h-.1v.2h.1V80zm-.1 8.7zm.2 1.3h-.1c-.1 0 0 0 0 .1zm-.1-5.9h.2s0-.1.1 0h-.3zm0 .6c0-.1 0-.1.1-.1s.1.1 0 .1h-.1zm0-5.5zm.1 9.9zm0-9.3h.1c.1.1.1.1.1.2h-.2zm0 9.6c.1 0 .1 0 .1-.1s.1 0 .1.1h-.2zm.1-5.5zm.4-3.7h.2c.1 0 .1 0 0-.1h-.2zm-.3 9.5zm0-5zm0-5.4zm.1 10.2zm0-4.6zm.1.3a.1.1 0 0 0 .1-.1h-.1zm0 3.6zm.6-8.4c0-.1-.1-.1-.1-.2h.1zm-.4 8.3zm0-4.5h.1c.1.1.1.1 0 .1h.4c0 .1-.1.1 0 .2h-.1a.1.1 0 0 0-.1.1c.1 0 .1 0 .1-.1h.4a.1.1 0 0 0 .1-.1h.3c-.1-.1 0-.1 0-.1h-.1c0-.1 0-.1-.1-.2h-1zm.8-4.3a.1.1 0 0 0 .1-.1h-.6a.1.1 0 0 1-.1-.1h.1a.1.1 0 0 1 .1.1.1.1 0 0 0 .1-.1c.1 0 .1 0 .1.1h.1v-.2zm-.7 8.9zm.1-9.2zm.2 5.7zm0-5.3zm0 8.8zm.1-9zm0 4.4h.1c-.1-.1-.1-.1-.1 0zm.1 4.6zm.2-.1h-.2v.3h.4a.1.1 0 0 1 .1-.1h-.1a.3.3 0 0 0-.1-.2.1.1 0 0 1-.1-.1c-.1 0-.1 0-.1.1zm-.2-9.3zm.3 10.4h-.2c.1 0 .2 0 .2-.1zm-.1-5.2c-.1.1-.1.1 0 0zm0 4.2zm0-9.1zm.9.5h-.2c0-.1-.1-.1-.1-.2h-.3a.1.1 0 0 1-.1.1h-.1c-.1.1-.1.1 0 .1s.2.1.2 0h.6zm-.6 9.1zm0-9.3zm0 4.2h.4c.1.1.1 0 .1 0h.1a.1.1 0 0 0-.1-.1h.3c0-.1-.1-.1-.1 0h-.1c-.1-.1 0-.1.1-.1h-.6c0 .1 0 .1-.1.1zm0-4.8zm.1 10.4c-.1 0-.1 0-.1.1a.1.1 0 0 0 .1-.1zm0-.6c0 .1 0 .1-.1.1zm.2-.2h.1a.1.1 0 0 0 0 .2h-.3v.2h.3a.3.3 0 0 1 .1-.2h-.1V89h.1c.1.1.1 0 .1 0v.2h.8a.1.1 0 0 1 .1-.1h.1c-.1-.1 0-.1-.1-.1h-1 .3a.1.1 0 0 0-.1.1h-.1c0-.1 0-.1.1-.1h-.4zm-.2-8.7zm0-.7zm.1 10.3zm0-10.8zm.1 10.8c0-.1 0-.1-.1-.1h.1zm0-1.1zm.1-4.4c0-.1.1 0 .1 0zm.5-4.9h-.4c-.1 0-.1 0 0 .1h.2a.1.1 0 0 1 .1-.1h.1zm-.4 5.3zm.1.2zm.2-4.9v-.2zm-.1 9.5zm.1.2h-.1s.1 0 0 .1h.1c.1 0 .1 0 0-.1zm-.1-5.8zm.2-3.8a.1.1 0 0 0-.1-.1h.1zm0 4.6zm.1 4.6zm0 .3zm.1-9.6v-.3h-.1v.2a.1.1 0 0 0 .1.1zm.3-.4h-.1c0-.1-.1 0-.2.1h.3zm-.3-.4zm.1.8a.1.1 0 0 0-.1.1h.1zm0-.6zm.1.6zm0 4.1zm.3-4.5a.1.1 0 0 1 .1-.1zm-.2.5zm.1 9.5zm0-10.3h.1a.1.1 0 0 0-.1-.1zm.2.1zm0 9.9zm0 .2zm0-10.2h.1c.1 0 .1 0 .1-.1h-.2zm.4.5a.1.1 0 0 1-.1-.1h.1zm-.3 8.9zm0 .4h.1c.1 0 .1 0 .1-.1a.2.2 0 0 0-.2-.2zm.3-.3zm10.5-8.3v.2h-2.9c-.2 0-.2 0-.2.3v9c0 .3 0 .2-.3.2h-1.7v-9.4c0-.1 0-.1-.1-.1h-3V79c0-.1 0-.1.1-.1h7.9c.2 0 .2 0 .2.2zm-6.9-.8zm.2.1zm.3-.5h.1c-.1-.1-.1-.1-.1 0zm0 .8zm.1.1zm.1-.5zm.2.2c-.1 0-.1.1-.1.2h.1zm.1-.4zm.5.1h-.3l.2-.2zm1.9 3.9c.1 0 0 0 0-.1h-.2c-.1 0-.1 0 0 .1h-.4a.1.1 0 0 1 .1-.1h.2v-.2h-.2c.1 0 .1 0 0-.1s-.2 0-.2-.2h.2c0-.1.1-.2.2-.1h.1c0-.1 0-.1-.1-.1h-.1s-.1-.1 0-.1h.1v-.2h-.2c0 .1.1.1 0 .1h-.1a.4.4 0 0 0 .1-.3h.5c0-.1 0-.2-.1-.2h-.2a.1.1 0 0 1-.1-.1h.5s-.1-.1 0-.1h-.1c-.1 0-.1 0-.1-.1h.2c.1 0 .1-.1 0-.1v-.2h-.2v-.2h-.1c-.1.1-.1.1 0 .1h-.3c-.1-.1-.1-.1-.1 0h-.1v-.2h-.1c-.1.2-.1.1-.1-.1h-.1c-.1.1 0 .1-.1.2h-.7a.1.1 0 0 0-.1.1h.3c.1.1.1.1 0 .2h.6c.1 0 .1 0 .1.1h.1c.1.1.1.1 0 .1h-.1c.1.1 0 .1 0 .1h-.1a.1.1 0 0 0 .1-.1h.4a.1.1 0 0 0 .1.1h-.3c0-.1-.1-.1-.2 0 0 .1-.1.1-.1.2h.3c-.1 0-.1 0-.1.1h.3c.1-.1.1-.1.1 0h.1a.1.1 0 0 0 .1.1c.1 0 .1-.2.2-.2zm-1.7-3.3c-.1-.1-.1-.1-.1 0s-.1 0 0 .1h.1zm.2-.8zm.2.8h-.2c0 .1 0 .1.1.1h.1zm.1 1.9zm0 3.8zm0-5.5v.2zm0 .2v.2h.2c-.1-.1-.1 0-.1-.1h.1c.1 0 .1 0 0-.1h-.2zm0 5h.1c.1-.1.1-.1.1-.2h-.2zm.1 1.8zm0-.7h.2c.1-.1.1 0 .2 0h-.1l.2.2h.2a.1.1 0 0 0-.1-.1v-.2h-.3a.1.1 0 0 1 0-.2h.2c-.1 0-.1 0 0 .1h-.2a.1.1 0 0 1 .2 0h-.5zm0-4.3zm0-.3zm.2 1.9h-.1c0 .1 0 .1.1.1zm-.2 3.4zm.3-.2h-.3c.1 0 .2 0 .2.1a.1.1 0 0 0 .1-.1zm-.2-6.9zm.1-.5v.2c-.1.1-.1 0-.1 0v-.2zm.1 4.2h-.1c.1 0 .2 0 .2-.1h.3l-.2.2h-.2c0 .1 0 .1-.1 0h-.1a.1.1 0 0 1 .1.1c.1 0 .1 0 .1-.1s.1-.1 0-.1h.4c0 .1 0 .1.1.1-.1 0-.1-.1 0-.1h.1v.9h-.3v-.2h.3c0-.1 0-.1-.1-.1h-.6zm-.2 1.9c0 .1 0 .1.1.1h-.1zm.1 1.9a.1.1 0 0 0-.1-.1c0 .1 0 .1.1.1zm-.1 1.1zm.4-3.5h-.4a.1.1 0 0 1 .1.1h.1c0 .1 0 .2-.1.2h.3zm.3 2.5h.1a.1.1 0 0 0-.1-.1h-.2s-.1.1 0 .1c0-.1.1-.1.2-.1h-.1c-.1 0-.1 0-.1-.1h.2zm-.5-.5h.2a.1.1 0 0 1-.1-.1h-.2c.1 0 0 .1 0 .1h.1zm.2 1.2h-.2zm-.3-4.9zm.1 2.2h.3c.1 0 .3-.1.1-.1h-.4zm0 2.7zm-.1.2zm.2-6.1zm0-2.6h-.1a.1.1 0 0 1 .1-.1h.1l-.1.1zm-.1 7.9zm.1-8.2h.2c-.1.1-.1.1 0 .2h-.2zm.1 3.1zm-.1 1.4h.1c0-.1 0-.1-.1 0zm0 3.8zm.2-7.7c0 .1.1 0 .1 0h-.1zm-.1 3.4zm0 5zm.3-3.2zm-.2-1zm0-1.1zm0-4.1zm.1 9.7zm0-6.5c0-.1-.1-.1-.1 0h.1zm-.1 5.8zm.3-1.3h-.1a.1.1 0 0 0-.1.1h.1v.2zm-.2-4.4zm.2 5.6zm-.1-8.5zm0 2.5v.2c0 .1 0 .1.1 0h-.1zm0 6.4c.1.1.1 0 0 0zm.3-2.1zm-.3-3.4h.2c.1-.1.1-.1 0-.1-.1-.1-.1-.1-.1 0h-.1zm.1-.4zm0 1.1zm.2 1.6h-.2a.1.1 0 0 0 .1.1h.1zm-.1 2.6h-.1a.1.1 0 0 0 .1.1zm0-.8c-.1 0-.1 0 0 .1zm.1-8c-.1.1-.1.1 0 .1zm0 1.8c.1 0 .1 0 .1-.1h-.1zm0 4.9zm.4-6.3h-.1v-.2h-.3a.1.1 0 0 1 .1.1zm-.3-.4zm.2.8c0-.1-.1-.1-.1-.2 0 .1-.1.1-.1.2h.2zm-.1 5.6zm.5-5.8h-.1c0-.1 0-.1.1-.1zm0-.2v-.2h-.1zm.2.6a.1.1 0 0 0-.1-.1h.1zm.1-.2zm0-.4h-.1c-.1.1-.1.1 0 .1h.1zm0-.4zm.1 0c.1.1 0 0 0 0zm0 .7zm.3-.5h-.1a.1.1 0 0 1 .1.1zm.2.4zM86.9 29a7 7 0 0 1 8.2-4.4c-4.7-4-8.2.7-8.2.7s-4.3-4.9-8.5-.7c4.5-1 6.5 1.1 8.5 4.4zm7-4.9a.1.1 0 0 1 .2 0 .1.1 0 0 1-.1.1h-.1z"/><path d="M112.2 64.2h-.3c-1.1 2.4-.5 4.2.7 5.3l1.2.9h.4a4.4 4.4 0 0 0 1.5.5h.1a.1.1 0 0 0 .1.1h.8a.1.1 0 0 1 .1.1l.5-.2h.1a6.2 6.2 0 0 1-1.1 3.2h.1c0 .1-.1.1-.2.1-.2.2-.3.4-.5.5h-.1c-.1.1-.2.1-.2.2h-.4a4.7 4.7 0 0 0-2.3-2.5h-.2a.1.1 0 0 0-.1-.1.1.1 0 0 0 .1.1h-.2L111 72h-.1a5 5 0 0 0-1.7.1 4.5 4.5 0 0 1 1.4 2.7 4.8 4.8 0 0 1-.7 2.9c-10.6 2-11.8-5.1-12-9.3s0-6.3-.2-8.3h-5s-.6-2.1 1.1-2.1a4.8 4.8 0 0 0 2.5-1.5c-1.9-1.8-5.1-2.1-5.2-4.4a83.3 83.3 0 0 1 .2-9l.3-3h.1a23.4 23.4 0 0 1 .5-3h.1c1.6-6.4 4.6-7.2 7-8l-.5-.6h-.2a7.7 7.7 0 0 0-6.1-1.3h.1v.2h-.1a.1.1 0 0 1-.1-.1 8.5 8.5 0 0 0-5.5 4.6c-3.2-5.9-8.9-6-12.6-2.3l2 .7a.1.1 0 0 0 .1-.1h.1a10.3 10.3 0 0 1 4.5 4.5h.1c3.7 6.9 1 18.2-.1 20.9s-3.8 3.1-4.8 3.5a.2.2 0 0 0-.1.3l.6.9c0 .1.2.2.3.2l3.6-.4c3.1-.4 10 .1 9.8 3.6a10.9 10.9 0 0 0-.1 1.8h.3s.1 0 0 .1h-.3a26.2 26.2 0 0 0 1.2 6.8h.2c0 .1 0 .1-.1.2a1.4 1.4 0 0 1 .2.6h.3v.2h-.2c2.4 5.7 7.3 10.2 14.8 10.5 13.7.5 17.7-6.4 17.7-14.5s-9.9-9.2-12.2-5.2zm-.4 3.3zm0-.2a.1.1 0 0 0 .1.1h-.1zm-1.7 6.1zm.5-.8zM96.3 28.4zm0 .6h.3c0 .1 0 .1-.1.2h-.2zm-.1 1.2h-.1a.1.1 0 0 1 .1 0zm-.5.5h.3c0 .1 0 .2-.1.2zM94.2 29h.3a.1.1 0 0 1-.1.1h-.2zm0 2.6H94c.1 0 .1-.1.2 0zm-.6-2.5h.3c0 .1-.1.1-.1.2h-.2v-.2h-.1c0 .1 0 0 .1 0zm-1.2 4.8zm-.6 5.3zm-.1.2zm-.3-3.6zm-16.8-6.4zm.7-.6a.1.1 0 0 0 .1.1zm.2.9zm.5-1.2c-.1 0-.1 0-.1-.1h.1zm.4 1.3h-.1a.1.1 0 0 1 .1-.1zm.2-1.1c0 .1 0 .1-.1 0h.1zm1.1 1.1h-.1a.1.1 0 0 1 .1.1zm.1-.8zm.2.2h.1a.1.1 0 0 1-.1.1zm.1 1.2zm.2.2c.1 0 .1 0 .1.1zm.9 1.3zm.4-.3zm9 25.6l-1.3-1.5V35.6l1.3 1.6zM90.1 30zm.1 11.9a.1.1 0 0 1-.1-.1h.1zm.2 4.4zm0-3.9zm0-3.7zm.2-7.5a.3.3 0 0 1-.1-.2h.3v.2h-.2zm.2 9zm.1 2.5zm.7 27h-.3v-.2h.3zm2.1.3h.1a.1.1 0 0 1 .2 0h-.3zm-.9-2.5zm.7 5.8c0-.1 0-.1.1-.1h.1c.1 0 .1.1.1.2-.1 0-.1 0-.1.1zm.4 1.8h-.2v-.2h.3zm.2-.5h-.3a.1.1 0 0 1 .1-.1h.2zm.5-3.5h-.3a.1.1 0 0 1 .2 0h.1zm.5-3.7H95c.1-.2.1-.1.1 0zm14 13.5zm.6-2.1zm.3-.1zm.5 1.3s.1 0 0 0zm3.6-5.5c.1 0 .1 0 .1.1-.1 0-.1.1-.2 0h.1zm-.4-.6h-.1c0 .1 0 0 .1 0zm-.1 2.1h.3a.1.1 0 0 1-.2 0h-.1zm0 .4zm-.3-1.2zm-.3-1.6h.2c.1 0 .1 0 0 .1h-.2zm0 2.1zm-.2-1.2zm-.4-1.2zm-.1.2zm-.2.3zm-.1.2h.6a.1.1 0 0 1-.1.1h-.5zm.3 2.4zm-.9-3c0-.1.1-.1.1 0h-.1zm.1 1.6c0 .1 0 .2.1.2h-.2c0-.1 0-.1.1-.2zm-.2-2.1v-.2zm0 1.1h.1s.1 0 0 .1a.1.1 0 0 1-.1.1zm-.2.3h-.1v-.2h.2zm.2 7.5zm.1-4zm.2-1.8h-.3a.2.2 0 0 1 .3 0zm0-3.2c-.1 0-.1-.1 0-.2h.1s.1.1 0 .1h-.1zm0 .3h.2c.1.1 0 .1 0 .2h-.2zm.1 2.4c0-.1 0-.1.1-.1h.1a.1.1 0 0 1 .1.1h-.3zm.2 4.2zm.2-2zm.1-2zm0 2.7zm.2 1.5zm.3-1.9h-.1c-.1 0-.1-.2 0-.2h.3c0 .1-.1.1-.1.2zm.4.6h.1v.2zm.3.1zm0-2.9h-.2a.3.3 0 0 1 .1-.2h.1zm.3 1.6zm0-.3zm.2 4.4zm.3-4.7zm0-1.4zm0 .1zm.3 1.8c0 .1 0 .1-.1.1h-.1a.1.1 0 0 1 .1-.1h.1zm.1-1.7zm.2 3.9h-.2a.1.1 0 0 1 .1-.1h.1zm.1 2zm.1-3.7h-.3a.2.2 0 0 1 0-.3h.3zm.1 2.3h.1c0 .1 0 .1-.1.1s-.1 0-.1-.1h.1c-.1 0-.1-.1 0-.1zm0-3.5h-.1a.2.2 0 0 1 0-.3h.4v.2zm.2 2.2c0-.1.1-.1.1 0h-.1zm.1-2.9h.1zm.1.8zm.2 2.6zm.2-.8zm0-2.5zm.3 4.7zm.1-1.6zm0-2.5h-.2c-.1-.1-.1-.1 0-.1h.2v.2h-.1zm.2.5h-.1.1zm-.1 2.3zm.2-1.7zm0-2.3zm.1-1.3h.1c.1 0 .2 0 .2.1h-.3zm.3.8zm-.1 1zm0 .2zm0 .2h.1c-.1.1-.1.1-.1 0zm.2 4.3zm.1-3.2zm.2-3zm3.8-10.8zm0 3.4zm-.1.8h.1a.3.3 0 0 1-.1-.2zm-.1-1zm-.4-2.4c0-.2.1-.2.1-.2h.2v.2h-.3zm-.3 8.3zm0-4.1h.2c.1 0 .1.1 0 .1a.1.1 0 0 1-.1.1h-.1zm.1 1.9s-.1-.1 0-.1zm.1-.2h-.1v-.2h.1zm0-3.4h.2a.1.1 0 0 1-.1.1h-.1zm-.2-3.5h.2a.1.1 0 0 1 .1.1h-.2a.3.3 0 0 1-.1-.2zm0 .2c-.1 0-.1 0-.1-.1zM120 72h.1a.1.1 0 0 0 .1.1h-.2zm-.1-5.4zm0-2.5c-.1 0-.1 0-.1-.1h.1zm-.1-1.3c.1 0 .1 0 .1.1h-.1zm-.6 4.4zm.5 3.5zm-.4-2.1a.1.1 0 0 1 .1.1h-.1c-.1 0 0 0 0-.1zm0-.6zm0 1.8c.1 0 .1.1.1.2h-.1zm.1.8h-.1a.1.1 0 0 1 .1 0zm-.3-4.8h.1v.2h-.3v-.2c0-.1 0-.2.1-.2a.1.1 0 0 1 .1.1h.1zm-.4 6.1zm0 3zm-.3-5.6h-.1a.1.1 0 0 0 .1 0zm-.1-.7zm.1 1.1h.2a.1.1 0 0 1-.1.1h-.1zm.3-.6zm.2-1.2s-.1.1 0 0zm-.3-4.2h.1c.1-.1.1 0 .1 0h.1c0 .1 0 .1-.1.1h.2v.2c0 .1 0 .1-.1.1a.1.1 0 0 0-.1-.1h-.3c0-.2 0-.2.1-.3zm-.1 3.7a.1.1 0 0 1 .1-.1h-.1zm0 .1zm-.2-3.8h.1a.1.1 0 0 1 .1.1h-.2zm0 1.6zm0 6.9zm0 1.1h-.1c-.1 0-.1 0-.1-.1h.2zm-.1-5.9zm-.1-2h.1l-.2.2h.1zm-.7 3.7h.1c.1 0 .1.1.1.2h-.2c-.1 0-.1-.1-.1-.2zm-.1-2.9c.1-.1 0 0 0 0zm.7 4.3h-.1s0-.1.1 0zm-.1-.7h-.1a.1.1 0 0 1-.1-.1h.2zm-.2-2.3h-.3v-.2h.2zm-.2.8h.2c-.1 0-.2 0-.2-.1-.1 0-.1 0-.1-.1h.1zm.1 3.2h.3c-.1.1-.2 0-.3-.1zm.3 1.4zm0 2.4zm-.2-12.5h.3c0 .1 0 .1-.1.1h-.2zm0 3.7zm0-.7zm-.4-1.8h-.1c0 .1 0 .1.1 0zm-.1.9h.3c.1.1.1.1.1.2h-.4zm-.3.9zm-.1-3.4zm0 1.6c.1 0 .1 0 .1.1h-.1zm-.2.3h.2c0 .1 0 .1-.1.1h-.1zm0 3.4zm.1.8h-.3c0-.1.1 0 .1 0h.3c0-.1 0-.1-.1 0zm.1.4zm-.8-1.4zm0 .9h-.1c.1-.1.1-.1.1 0zm-.3-2.5zm.1-.3s.1 0 .1.2h-.1zm.5.1h.1a.1.1 0 0 1 .1.1h-.2zm0-.8h.2c.1 0 .1.1 0 .1h-.2zm-.2 2.1zm-.4-4.6h.3v.2h-.3zm-.2-.1a.1.1 0 0 1 .1.1h-.2a.1.1 0 0 1 .1-.1zm-.2 1.3h.5a.1.1 0 0 1 .1.1h-.1a.1.1 0 0 1-.1-.1c0 .1 0 .1-.1.2h-.2c0-.1-.1-.1-.1-.2h-.1c0 .1.1.1.1 0zm.2 3.3zm0-1.6zm-1 5.2h.3c0 .1 0 .2-.1.2h-.2zm-.1-1h.1s.1.1 0 .1h-.1zm0 .3zm.3-.9h.1s-.1.2-.1 0zm.2-2.2zm.2.3h.1c.1.1.1.1.1.2h-.3c0-.1 0-.1.1-.2zm-.2-2.7h.2c0 .1 0 .1-.1.1a.1.1 0 0 1-.1-.1zm0 .9h.1c-.1 0-.1-.1-.1-.2zm-.2.8h.2c.1 0 .1.1.1.2h-.2c-.1 0-.1-.1-.1-.2s-.1 0 0 0zm-.1 1.4zm-.1-1.1h-.1a.1.1 0 0 1-.1-.1h.1c.1 0 .2 0 .2.1zm-.2.6h-.2c-.1-.1 0-.1 0-.1h.2zm0-3h.1a.1.1 0 0 1 .1.1h-.2zm-.1 1.7h.1c.1 0 .1.1.1.2h-.3zm-1 .4zm.6 1.1l-.2-.2h.2zm-.1-1.2h.1c.1 0 .1.1 0 .1zm-.1 1h-.2a.1.1 0 0 1 .2 0zm-.1.6h-.1a.1.1 0 0 1-.1-.1h.2zm-.3-.2zm-.1-3.8h.1a.1.1 0 0 1-.1.1zm-.1.8h-.1a.1.1 0 0 1 .1 0zm-.8 1.5zm.1.6zm-.3-.7zm.3 3.5c-.1.1-.2 0-.2-.1h.2zm.2.5zm0-.2zm.1-4.1zm.2 2.7zm.1-1.3zm.1 2.2h.2a.1.1 0 0 0 .1.1v.2h-.3zm.3.4h.1c0-.1 0 0-.1 0zm.2-.8zm.3.7h-.1c-.1-.1-.2-.1-.1-.2h.2a.1.1 0 0 1 .1.1zm.1-5.2h-.1l-.2-.2h.3zm.1 2.3h-.1v-.2h.3a.1.1 0 0 1-.1.1h-.1zm0 1.3zm.1.5c-.1 0 0-.1 0-.1h.2c-.1 0-.1 0-.1-.1h-.1zm.2 1h.1c0 .1 0 .1-.1.1zm.4 1.7h-.4a.2.2 0 0 1 .2-.2h.2zm.2.2zm.2-.2h-.2c0-.1-.1-.2 0-.3h.1a.2.2 0 0 1 .2.2zm0-2.7h.3v.2h-.3zm.3 1.8zm-.2 1zm.4.2h-.1a.1.1 0 0 1 .1.1zm-.1-.6zm.3-1.7zm0-1.1h.1c.1 0 .1 0 .1.1h-.2zm.4 2.6h-.3v-.2h.3c.1.1.1.2 0 .2zm.1-.4c-.1-.1-.1-.1-.1-.2h-.4a.3.3 0 0 1 .1-.2h.5v.2h.1c0 .1.1.2 0 .2h-.2zm.5.4h-.4a.1.1 0 0 1 .1-.1h.2c.1 0 .1 0 .1.1zm.1.3h-.1a.1.1 0 0 0 .1-.1zm.2-.7zm0-2.6h-.2a.3.3 0 0 1-.1-.2h.4v.2h-.1zm.1 2c.1 0 .1.1 0 .1zm.3.7zm0 2zm.2.6h.1v.2h-.2zm.1 1.8zm0 1.3h.1a.1.1 0 0 1-.1-.1zm0 2.1zm.1 2.9s-.1-.1 0-.1zm.1-2.5c0-.1.1 0 .1 0h-.1zm.2 1.2zm0-5.3zm.1 2.8zm.2-2.3zm0-3.4zm0 2.4c.1 0 .1 0 .1.1h-.1zm.2 2.4c.1.1 0 .1 0 .1zm.1 1zm.1-3.1zm0-.6zm.2 2.4zm.2-3.6zm.1 3.1zm.1-3.6zm.2 3.9zm0-9.2zm0 .7zm.3 5.8zm.1.7zm0 2.1a.1.1 0 0 1 .1-.1h.1a.1.1 0 0 1-.1.1h-.1zm.2 2.4zm.1-5zm0 1.3zm.2 2.5zm.2-1.8zm.1-5.7h-.2c-.1 0-.1-.1-.1-.2h.2a.1.1 0 0 1 .1.1zm.1 1.8h-.1a.1.1 0 0 1 .1-.1zm.1-1.9zm.3 3.5zm.1-2.4h-.3a.3.3 0 0 1 .1-.2h.2zm.2-.7h-.1c.1 0 .1 0 .1.1zm.3-2.3c.1-.1.1 0 0 0zm.2-1.6h-.2c0-.1.1 0 .1 0zm.3 6.3h-.2c0-.1-.1-.2 0-.3h.1c.1 0 .1 0 .1.2zm.1-2.5h-.2v-.2h.2zm.3 3h-.1a.1.1 0 0 1 .1-.1zm.6 2.2h-.3a.3.3 0 0 1 .1-.2h.1c.1.1.1.1.1.2zm0-6.8h-.2c-.1 0-.1-.1-.1-.2h.3z"/><path fill="#020202" d="M92.7 60.7h13.5s.9-1.9-.7-1.9-1.8-2.2-1.8-3 .5-8.2 4-8.2h1.7c2.2 0 3.1 7.3 3.2 8.2s1 3-1.1 3-.7 1.9-.7 1.9h15s.6-2.1-1.2-2.1-4.1-2.9-5.3-6.1a1.9 1.9 0 0 1-.2-.8h-.1c0-.1 0-.1.1-.1a42.4 42.4 0 0 1-1.7-7.6c-.6-4-.9-7.9-1.4-10.5-1.3-6.9-4.1-6.3-10-6.3s-7.7 5.1-5.5 7.7h.2s.8-3.4 3.4-1.5-.9 6.8-4.8 9.4h-.1l-.7.3c.1 0 .1 0 .1.1h-.5a1.5 1.5 0 0 1-.7.3.4.4 0 0 0-.1.6h.3c.1-.1.1 0 .2 0v.2l.9 1a.1.1 0 0 1 .1-.1h-.1c.1.2.2.3.2.5h.1l.3.7c1 3.2-.8 7.6-3 10a4.8 4.8 0 0 1-2.5 1.5c-1.7.7-1.1 2.8-1.1 2.8zm18.3-1.5h-.1a.3.3 0 0 1 .1.2zm1 .7h-.2a.1.1 0 0 1-.1-.1h.3zm10-.5zm-.9-2.9h.1c-.1 0-.1 0-.1-.1s-.1-.1 0-.1zm-.1 1zm-1.3-2zm-.4-1.9a.1.1 0 0 0 .1-.1h.1c-.1.1-.1 0-.1 0h-.1zm-18.8-21.4h-.2V32h.1c.1 0 .1 0 .1.1s.1 0 0 .1zm.7 1.4a.1.1 0 0 1-.1.1h.1zm0-2.8zm.4 2.6h-.2v-.2h.2a.1.1 0 0 1 0 .2zm.2-4.4zm1 .6h.2c.1 0 .1.1 0 .2h-.2zm.6 1.6h-.5a.1.1 0 0 1 .1-.1h.1c.1 0 .1-.1.2 0zm.5.9h-.1a.1.1 0 0 1 .1.1zm9.8 28.2h-.2v-.2h.2c.1 0 .1.1 0 .1zm.1-.7a.1.1 0 0 1-.1.1h-.2a.1.1 0 0 1 .1-.1c.1 0 .1 0 .1.1h.1zm.7-.7h-.2c-.1-.1 0-.1 0-.1s.1-.1.1 0h.2a.1.1 0 0 1-.1.1zm.9-2c.1 0 .2 0 .2.1h-.2zm.3 1.5h-.1c.1 0 .1.1.1.2zm1.6.8h-.2a.3.3 0 0 1 .1-.2h.2a.3.3 0 0 1-.1.2zm1.7-4.5zm-.2-2.5zm-.1 4.2c-.1 0-.1 0 0-.1zm-.5-6.4h.1c0 .1-.1.1-.1 0zm-.2-.1c.1 0 .1 0 .1.1h-.1zm-.1 2.5zm-.3-6.1h.1c0 .1 0 .1-.1.1zm-.4-1.5zm-.4-3.5zm-3.3-6.4c.7 2.9 3.6 22.3 4 22.3l-1.7-1.5-3.6-20.4a5.8 5.8 0 0 0-1.3-2.7s1.9-.6 2.6 2.3zm-4.3.7h.9l.8 7.3h-4.2zm-3.4-8.3h.2a.2.2 0 0 1-.2-.2zm-.2 5.9h.1a.1.1 0 0 1 .1.1h.1c0 .1 0 .2-.1.2h-.2zm-1.5 6.3h.1a.1.1 0 0 1 .1.1h.1c0 .1-.1.1-.2.1h-.1zm-5.6 5.3h.1c0 .1 0 .1-.1.1h-.1c0-.1 0-.1.1-.1zm.2.7h-.1c0 .1-.1 0-.1 0s-.1 0-.1-.1h.1c.1 0 .2 0 .2.2zm.4-1.7zm2.2 3.3zm1.9 13.1h.2c0 .1-.1.1-.2.1h-.1a.3.3 0 0 1 .1-.1zm-.9-16.3a.1.1 0 0 0 .1-.1h-.1zm-.2 2.4zm-.1-2.1zm-.6-2.8zm-.1.7h.1v.2zm-.1 1.3zm-.1 4.1zm-.3-2.4zm-.1-.2h.1a.1.1 0 0 1-.1.1zm-.1-2.1zm-.2 2.6h.2c-.1.1-.1.1-.1 0h-.1zm-.3-2.1zm0 .3zm-.2 0zm0 2.5zm-.5-.7a.1.1 0 0 1-.1-.1h.1zm.2 1.9z"/><path d="M143.9 64a19.9 19.9 0 0 1-17.3-1.1c2.1 7.2 1.5 13.8-3.1 17.2-.2.2 0 .5.2.4 7.8-3.8 5.9-10.8 5.9-14a17.8 17.8 0 0 0 14.5-1.7c.4-.3.3-1-.2-.8zm2-12.7c-.8-.9-2.5-1.3-2.8 0a5.5 5.5 0 0 1-8.5 3.4V32s8.7-1.7 6.1 3.1c-4.4 1.6.7 7.8 4.4 4.1s1.5-8.3-1.4-10.3-14.4-3.6-16.6 3.6c-.5 1.7-.9 3.5-1.4 5.1h.1a.1.1 0 0 1-.1.1 21.2 21.2 0 0 1-1.7 4.5h-.1a7.7 7.7 0 0 1-1.2 1.3h-.3c0 .1 0 .1-.1.1a.2.2 0 0 0 .1.4 4.9 4.9 0 0 1 1.4 1.1h.2c0 .1 0 .2.1.2l.3.5c.1.1.1.1.1.2a6.4 6.4 0 0 1 .2.7 7.5 7.5 0 0 1 .4 1.6h.1a5.1 5.1 0 0 1 .2 1.3 6.4 6.4 0 0 1 .2.7 12 12 0 0 0 3 6.3h.1a10.5 10.5 0 0 0 6.3 2.7 15.7 15.7 0 0 0 7.3-.7c3.5-1.5 5.6-5.4 4.7-7.5zM140 35.9h-.2a.1.1 0 0 1-.1-.1h.3zm.3 3.2c0 .1-.1.1-.2.1s-.1 0-.1-.1h.1c.1-.1.1-.1.2 0h.1c0-.1 0 0-.1 0zm.2-.5h-.2a.1.1 0 0 1-.1-.1h.1a.2.2 0 0 1 .2.2zm.9-.5h.1a.3.3 0 0 1-.1 0zm-18.2 5.7zm-.2.3h-.1c.1-.2.2-.1.1 0zm.3.1zm.1-.6zm.2 1a.1.1 0 0 1-.1.1h-.1a.1.1 0 0 1 .1-.1h.1zm0-1.1h.1a.1.1 0 0 1-.1 0zm10.5-6.9c.1 0 .1.1 0 .2h-.2c-.1-.1-.1-.1 0-.2h.2zm-.3-2.2h.1c-.1 0-.1 0-.1-.1zm-4.3 7.2h.1c.1-.1.1 0 .2 0h-.3v-.2zm-.2.9zm-.6 6.6zm0-2.3c.1.1 0 .1 0 .1zm-.1-3.2zm-.2-4.7zm-.1 1.4h.1a.1.1 0 0 1-.1.1zm.1 9.8h-.2a.1.1 0 0 1 .1-.1.1.1 0 0 1 .1.1zm-.2-7.9c-.1 0-.1 0 0-.1zm0 5zm-.1-.6zM128 39a.1.1 0 0 1-.1-.1h.1zm0 4.8a.1.1 0 0 1-.1-.1h.1zm-.1 1.1zm-.1-7.1zm.1 3.8zm-.1 8.3a.1.1 0 0 1 .1.1h-.1zm-.1-8h-.1.1zm-.1.8h.1a.1.1 0 0 1-.1.1.1.1 0 0 1-.1-.1zm-.3 2a.1.1 0 0 1 .2 0h-.2zm-.1 1.5zm0 2.2c.1 0 .1 0 .1.1h-.1zm-.1-3.2zm0 6.7h.1c0 .1-.1 0-.1 0zm.1-9.2zm-.1-2.8zm-.2-3.4h.1c0 .1 0 .1-.1.1zm0 5h.1a.1.1 0 0 1-.1.1zm.1.5h-.2a.1.1 0 0 1 .1-.1h.1zm-.3-2.5h.2a.1.1 0 0 1-.1.1h-.1zm-1.1 5.1zm-.1-1.3zm.1.6h.2a.1.1 0 0 0-.1.1h-.1zm.3-4.2zm.1 5.6a.1.1 0 0 1-.1-.1h.1zm-.1-1zm.2 1.7h-.4a.1.1 0 0 1 .1-.1c.1.1.2 0 .3.1zm0 2.4h.2v.2h-.2zm0-.8zm.2-.4zm-.1-2.1c0-.1.1-.1.1 0h-.1zm-.5 3.5zm.2-.6h.1a.1.1 0 0 1-.1-.1zm.2 1.1zm.1.5h.1c.1 0 0 .1 0 .1h-.1c-.1-.1 0-.1 0-.1zm0 1.2zm.2-4a.1.1 0 0 1 .1.1h-.1zm.1-1.6h.1c-.1.1-.1 0-.1 0zm0-1.6h.1c-.1.1-.1 0-.1 0zm.1 3.4zm.1.5h-.1c-.1 0-.1 0-.1-.1s-.1 0 0-.1a.1.1 0 0 1 .1-.1c.1.2.1.2.1.3zm0-2.4c.1-.1 0 0 0 0zm-.1-.8v-.2zm-.1 1.2h-.1a.1.1 0 0 1 .1 0zm-.1-3.3c.1-.1 0 0 0 0zm0 6.6zm.1-.3zm.1 2.4h.2a.1.1 0 0 1-.1.1h-.1zm.2-6.1h-.1c-.1 0-.1-.1 0-.1h.1zm0-2.7h-.2a.1.1 0 0 0-.1-.1h.3zm-.2-4.3zm-.1 2.4zm-.1-1.1h-.1zm-.2 1.9h.1a.1.1 0 0 1 .1-.1c0 .1 0 .1-.1.1h-.2a.1.1 0 0 1 .1 0zm-.1 2.5h-.1c0-.1 0-.1.1-.1zm-.1-1zm0-4.1h-.1a.1.1 0 1 1 0-.2h.1zm-.2-1zm-.2.5zm-.2 1.9a.1.1 0 0 1 .2 0h.1c-.1 0-.1 0-.1.1h-.2zm-.1 1.9h.1c.1 0 .1 0 .1.1h-.2a.1.1 0 0 1 0-.1zm0 1.7c.1 0 .1 0 .1.1h-.1zm-.1.6zm.1.5zm0 .7zm0-2.7zm-.3 3.6h-.1c.1 0 .1 0 .1.1zm-.1-4.8zm0 2.2zm-.4-1.7zm.2 3.3h-.1a.1.1 0 0 0 .1-.1zm-.4-2.8zm-.4 1.9h.1a.1.1 0 0 1 .1.1h-.2zm.3.8h-.1c0 .1-.1.1-.1 0h.1a.1.1 0 0 0 .1.1zm-.1-2c0-.1-.1-.1-.1-.2h.3a.1.1 0 0 1 .1-.1h.2a.1.1 0 0 1 .1.1.3.3 0 0 1-.1.2h-.5zm.4.9a.1.1 0 0 1-.1.1h-.1a.1.1 0 0 1-.1-.1h.2a.3.3 0 0 1 .1 0zm-.3.8h.1c0 .1 0 .1-.1.1zm0 .3h.2a.1.1 0 0 1 .1.1h-.2a.1.1 0 0 0-.1-.1zm.4 1.9h.1c.1-.1 0 0-.1 0zm.2-1h-.3a.1.1 0 0 1-.1-.1h.2a.1.1 0 0 1 .1.1h.1zm-.1-5.3c0-.1 0-.2.2-.2a.1.1 0 0 1 .1-.1h.1c.1 0 .1 0 .1.1h-.5zm.1 6.9zm.1-.5h.1l.2.2h-.3zm.2 2.1s0 .1-.1 0zm.1-1.9zm.2 2.6zm.2-2.3s-.1.1-.1 0h-.2v-.2h.3c.1 0 .1 0 .1.1zm.1 4zm.3-.7zm-.1-.2h.1c0 .1 0 0-.1 0zm.1-.2h-.2c0-.1 0-.1-.1-.1v-.2h.1c.1 0 .2 0 .2.1zm0-.4a.1.1 0 0 1-.1-.1h.2a.1.1 0 0 1-.1.1zm.5 3.2h-.3c-.1 0-.1 0-.1-.1.1 0 .2-.1.3 0h.1zm-.3-1.4zm.4 1.8zm.2 1zm0-6.8c0-.1 0-.1.1-.1h-.1zm.1.5zm.1 1.9zm0-1.2zm0 3.6zm.3.7zm.1-3.5zm0-2.8v-.2zm.2 8.1zm.1-4.6v-.2zm.3 1.5c-.1 0-.1 0-.1.1s-.1 0-.1-.1.1-.1.1 0h.1zm0-5.2zm.1 7.9zm0-4.4zm.1 3.7zm.2-1.4h-.1a.1.1 0 0 1 .1.1zm0-8.8zm.1 4.6a.1.1 0 0 0 .1-.1h.1c-.1 0-.1.1-.2 0zm.2 7.3zm.1-4.1c-.1.1-.1.1-.1 0s-.1 0-.1-.1h.2zm0-.8zm.1.7zm.1-6.2zm.2 3.3zm0-8.4zm.1 6a.3.3 0 0 1-.1-.2.1.1 0 0 1 .1-.1h.2v.2a.1.1 0 0 0-.1.1h-.1zm.1 4.3zm.1 2.2h-.1a.1.1 0 0 1 .1-.1zm.3-3.8a.1.1 0 0 1-.2 0h.2zm.3 3.1c-.1 0-.1 0-.1-.1h.1V42c0-.1-.1-.1-.1-.2h.1v-5.1a5.4 5.4 0 0 1 1.4-2.8v19.8a3 3 0 0 1-1.4-1.7zm2.3-13.1zm.3 2.3zm.1 2.7h.1a.1.1 0 0 1 .1.1c-.1-.1-.2 0-.2-.1zm.4 3.2zm.1-6.8h-.2v-.2h.3a.3.3 0 0 1-.1.2zm.2 2.1zm.3 5.2h-.2c0-.1 0-.1.1-.1h.1zm.3-2.2zm0-5.6h.2a.1.1 0 0 1 .1.1h-.3zm.3 9.2z"/><path d="M147.9 31.2c-1.4-10.9-14.2-10.4-18-7.5-.2-1 1.8-2.6 2.7-3.1-6.8 1.6-9.9 9.4-9.1 16.1 3.7-16.9 19.8-14.9 24.4-5.5z"/><path d="M161.8 42.2a10 10 0 0 1 7 2.2h.1l.9.8h.1a4.8 4.8 0 0 1 .9 1.1h.2c-.1 0-.1 0-.1.1h.1a20.1 20.1 0 0 1 3.5 10.1c.6 6.8 3.6 10.6 11 11.8s13.6-4.6 9.9-9.5c.1 1.1-1.2 4-3.3 3.2 4.7-3.4.6-11.7-5-9.4l.6.3h.1c5.4 3 .6 7-.2 7.4h-.1v.7h-.7v.2h-.2a5.2 5.2 0 0 1-4.6-1.6h-.1a9.3 9.3 0 0 1-.5-1h-.1c0-.1 0-.1.1-.1a.1.1 0 0 0-.1-.1l-.3-1.3v-2.5h-.3a.1.1 0 0 1-.1-.1h.1a.1.1 0 0 1 .1-.1h.2a5.7 5.7 0 0 1-.1-1.3 36.9 36.9 0 0 0-.5-3.7h-.2c0-.1 0-.1.1-.2-.1-.5-.3-1.1-.4-1.6h-.2c0-.1 0-.1.1-.1l-.9-2.3h-.1c-.1 0-.1 0-.1-.1h.1c0-.1-.1-.2-.1-.3h-.1l-.8-1.3h-.1l-.7-1h-.1l-.9-1h-.1l-.8-.7c-.1 0-.1 0-.1-.1l-.3-.2h-.1c0-.1-.1-.1-.2-.2h-.1l-1.3-.9c0 .1-.1.1-.2.1h-.2L171 37h-.2l-.9-.2h-1.4a45.4 45.4 0 0 0 5.4-9.1c1.1-2.6 2.3-4.5 6.4-5.1-3.6-3.6-7.3-.9-8.4.8a5.1 5.1 0 0 0-1.6-3.2h-.2l-.6-.5h-.2a4.3 4.3 0 0 0-3.2-.4l.6 2c3.3 13.8-7.4 19.1-7.4 19.1s.3-9.5.2-17.4v-2.3h-.1c0-.1 0-.1.1-.2 0-2.3-.1-4.3-.2-5.7-.5-6.7-8.2-6.8-11-3.3 4.6 0 5.7.6 6.2 3-5.4-4.3-9.6 0-10.1 1.2s-1.1 4.9 2.7 5.5c0-4.5 5.2-3.3 5.2.2v14.2a8.5 8.5 0 0 1-5.5 8.3.3.3 0 0 0 .1.6c1.9.3 4 .8 4 3.8 0 5.3-.3 6.9-.3 8.5s-1 1.2-3 1.2c-1 3.1 1.4 2.7 1.4 2.7h7.7c.1.1.1.1.1.2h4a2 2 0 0 0 .5-1.5h-.1a.1.1 0 0 1 .1.1l-.3-1.2a1.7 1.7 0 0 1-1.8-2s-1.1-10 0-12.2c4.9 3.2 7.6 6.2 8.6 13.1.1 1 .1 2.1.1 3h.2c0 .1 0 .1-.1.2h-.1a12.3 12.3 0 0 1-1.8 6.5h-.1a3.6 3.6 0 0 1-2.6 1.6c-1.4 0-2.1-.7-2.1-1.7h-.2a.1.1 0 0 1 0-.2h.1a9.9 9.9 0 0 1 .6-2.5l-1.8.5h-.2a4.8 4.8 0 0 0-2.5 5.8h.2a.1.1 0 0 1-.1.1 6 6 0 0 0 5.8 4.2c6.2 0 9-6.1 9-13.1s-4.3-15.7-10.4-19.4zm30.5 22.2zm-3-11.1zm2.6 8.6zm-.1-4.7zm-.1.5zm-.1 9zm-.9-6.8zm-.1.7zm0 4.8h-.1s.1-.1.1 0zm-.1-6.7zm-9.4 2.8h.1a.1.1 0 0 1-.1-.1zm.2 2.2h-.2c.1 0 .1 0 .1-.1h.1zm.5 1.7a.1.1 0 0 1-.1-.1h.1zm.2.8zm0-4.1h-.1c-.1 0-.1 0-.1-.1h.3l-.1.1zm1.2 3.9zm1.8-1.3zm.1 1.8zm.3-1.7zm.1 3.7zm.4-5.5h.2c.1.1 0 .1 0 .1h-.2zm.3 4.2zm.7-1.1zm-.2-2.7zm.9 3.1zm.6-2.9a.1.1 0 0 1-.1.1.1.1 0 0 1 .1-.1zm.2 1.3h-.1a.1.1 0 0 1-.1-.1h.2zm.2 3.8zm.4-5.1h-.1a.1.1 0 0 1 .1-.1.1.1 0 0 0 .1.1zm.4-1.7zm.1 4.4zm.7-4.4zm0 1.6zm-.4 1.1h.1a.1.1 0 0 1-.1-.1zm-.1-3.4a.1.1 0 0 1-.1.1h.1zm-.2-1.5zm0 .7h-.1s-.1-.1 0-.1h.1zm-.1-1c-.1 0-.1.1-.2 0h.2zm-.3.9c-.1 0-.1 0-.1-.1h.1zm-.3 1.6zm0 .9zm-.1-2.1zm-.2-.4h.1a.1.1 0 0 1-.1-.1zm-.1 3.1h-.1c0 .1-.1.1-.2 0h.3zm-.1-.7c0 .1 0 .1-.1.1h.1zm-.1-1.5zm-.1.1a.1.1 0 0 1 .1.1c-.1.1-.1 0-.1 0s-.1 0-.1-.1a.1.1 0 0 0 .1 0zm-.8.3h.1a.1.1 0 0 1 .2 0v.2h-.3zm-.1 2.2zm0 1.7zM187 68zm-.1-5.5a.1.1 0 0 1-.1.1h.1zm-.3-1c.1 0 .1 0 .1.1h.2c0 .2 0 .2-.1.2s0 .1-.1.1h-.1v-.2zm-.1 3.2h-.1c-.1-.1 0-.2 0-.3zm-.3-2.9h.2a.1.1 0 0 1 .1.1h-.3zm-.5-.8h.1c0-.1 0-.1.1-.1h-.1a.1.1 0 0 1-.1-.1zm-.2.6h.2v.2c-.1 0-.1 0-.1.1h-.2c0-.1-.1-.1-.1-.2zm-.2 1.5h.4v.2h-.4zm-.3-.7h.2c0 .1 0 .1.1.2h-.3a.2.2 0 0 1 0-.2zm-.1 2.9h-.2c0-.1 0-.1.1-.1h.1zm-.2-4.2h.1c0-.1 0-.1.1-.1h-.2zm0 .5c0-.1.1-.1.1 0h-.1c-.1 0-.1 0-.1-.1zm-.1 1.1h-.2a.1.1 0 0 1 .1-.1h.1zm-.1-1.1h.1a.1.1 0 0 1-.1 0zm-.3.2zm0 4.8c.1 0 .1 0 .1.1h-.1zm-.1-2.2zm-.2-.5zm-.1-1.2h-.1a.1.1 0 0 0 .1.1zm-.4-1.8zm.1.2h-.3c0 .1.1 0 .3 0zm-.3 2.2zm0 1.6c.1.1.1.1 0 .1zm-.5-1.9c0-.1-.1-.1-.1-.2zm-.1-2.5zm0 2a.1.1 0 0 1 .1.1h-.1a.1.1 0 0 1-.1-.1h.1zm-.2-2.6zm-.1 1.4zm0 .6a.1.1 0 0 1 .1.1.1.1 0 0 1-.1-.1zm-.1 2h.1c.1.1 0 .1 0 .1h-.1zm-.4-3.7h.3a.1.1 0 0 1-.1-.1h-.2zm-.1 4.1zm-.3-1.9zm-.1-1.6h-.1a.1.1 0 0 1 .1.1zm-.1-.4zm-.1-1.7c.1.1.1.1.1.2h-.1zm-10.8-15.1h.1a.1.1 0 0 1-.1.1zm-.1-.6zm.2 1.4a.1.1 0 0 1-.1-.1h.2c-.1 0-.1 0-.1.1zm.1-2.6c0 .1-.1 0-.1 0-.1 0-.1-.1 0-.1 0-.1.1 0 .1 0zm-.3-.9h.3c0 .1 0 .2-.1.2h-.2zm.4.3zm.1.7zm.1.8c-.1 0-.1 0-.1-.1h.2c0 .1 0 .1-.1.1zm.1 1.3h.2a.1.1 0 0 0-.1.1zm.2.3h-.1c.1 0 .1 0 .1.1zm0-.9a.1.1 0 0 1-.1.1.1.1 0 0 0-.1-.1h.2zm.1-1h-.3c-.1-.1 0-.2.1-.2h.2zm.3-3.2h-.1v.2a.1.1 0 0 0 .1-.2zm.2.5h-.1c-.1 0-.2 0-.2-.1h.3zm-.1-.1h.2c.1.1 0 .1 0 .1h-.2zm-.3 4.7zm0-4h-.1c-.1-.1 0-.1 0-.2.1 0 .1 0 .1.1zm.3.3c-.1 0-.2 0-.2-.2h.6c0 .1 0 .1-.1.2h-.3zm.4.6zm0-.9c0-.1.1-.1.1 0h-.1zm.1-.5zm-.4 5.2h-.1c.1 0 .1 0 .1.1zm0-.8h-.1a.1.1 0 0 0 .1-.1.1.1 0 0 1 0 .2zm.2 1.2s0 .1-.1 0c.1 0 .1 0 .1.1zm0-2.9h-.1a.1.1 0 0 1-.1-.1h.2zm.2 2.4zm.1-2.1zm0-.3a.1.1 0 0 1-.1-.1h.2v.2h-.1zm.1-.3zm.1 3.6zm.1-1.1zm0 1zm.1.9h-.2a.1.1 0 0 1 .1-.1h.1zm.1-3.4h-.3c-.1 0-.1 0-.1-.1h.4zm.5-2.5zm.1 1.1h-.1s-.1 0-.2-.2h.3zm-.3.5h.2v.2h-.2c-.1-.1-.1-.1-.1-.2h.1zm0-1zm-.2-1.5zm0 5.3c.1 0 .1 0 .1.1h-.1zm.1 3.9c-.1-.1 0-.1 0-.1s.1 0 0 .1zm.1-5.6h-.3c-.1-.1 0-.2.1-.3h.2zm.2.4zm.2 1.4c-.1 0-.1 0-.1-.1s-.1 0 0-.1a.1.1 0 0 1 .1.1zm0-3.7zm.3-.6h.1c.1.1.1.1.1.2h-.2v-.2h.1zm-.1-.4zm-.1 9.6c-.1 0-.1 0 0-.1zm.1-1.3zm0-6.5h.2c0 .1.1.1 0 .2h-.1a.1.1 0 0 1-.1-.1zm0 1.3a.1.1 0 0 1 .1-.1c.1-.1.1 0 .1 0h.2l-.2.2h-.2zm.3.8s.1-.1 0 0zm-.2-.3zm.2 3.4h-.1a.1.1 0 0 1 .1-.1h.1c0 .1 0 .1-.1.1zm0-1.9h.2c0 .1 0 .1-.1.1h-.1zm.2 5.7zm0-4zm.2-3.2h.2a.1.1 0 0 1-.1.1h-.1zm.2 2.5zm0-1.1h.1v.2h-.1zm.1-.8a.1.1 0 0 1 .2 0h-.2zm.2 1.6h-.1a.1.1 0 0 1 .1 0zm0-2.9h.1a.1.1 0 0 1-.1 0zm0-.2zm.2-.8h-.1c-.1 0-.2 0-.2-.1.1 0 .1-.1.2 0h.1v.2zm-.3 1.2zm0 .1h-.2v-.2h.2zm-.1 7.3zm0-2.5c-.1-.1 0-.1 0-.1zm.1-.2a.1.1 0 0 1 .1.1h-.1zm.2 2.2h-.1c0-.1 0-.1.1-.1zm.1-3.5zm0-2.2a.1.1 0 0 1 .1.1h-.1zm.1 6zm.4-3.9h-.2c0-.1 0-.1.1-.1h.1zm0 .8zm-.2-2.3c0-.1 0 0 .1 0h-.1zm.1-2.6s-.1.1-.1 0h.1zm-.1 2.8zm-.1 3.5h.1s0 .1-.1 0zm.2 4.2h-.1s.1-.1.1 0zm0-4.5zm.1-.3zm0-3.4h.1a.1.1 0 0 1 .1.1h-.2zm.2 1.5zm.1-1.8h-.1c-.1-.1 0-.1 0-.1 0-.1 0-.2.1-.2zm.5 2.1c-.1.1-.1 0-.1 0h.1zm.3-2.7h.2a.1.1 0 0 1 .1.1.1.1 0 0 1-.1.1h-.2zm.4.9l.2.2h-.1c0 .1-.1.1-.2 0a.1.1 0 0 1-.1-.1c0-.1.1-.1.1-.2zm0-1.7h.1c0 .1 0 .1-.1.1zm.3.7h.1a.1.1 0 0 1 .1.1h-.1a.1.1 0 0 1 .1.1h-.2zm.3.6a.1.1 0 0 1-.1-.1h.3v.2h-.2c-.1-.1-.1-.1 0-.2zm.4.9a.1.1 0 0 0 .1.1h-.1zm0 .6c0-.1 0-.1.1-.1h.1a.3.3 0 0 1-.1.2.1.1 0 0 1-.1.1h-.1c-.1 0-.1 0-.1-.1h.2zm1 3.4s.1 0 0 .1zm.1.6zm-.1.7zm-.1 5.4zm-.1-.7zm-.1-6a.1.1 0 0 0 .1.1h-.1zm-.1-2.3h.1a.1.1 0 0 1-.1 0zm.1-.3h-.1a.2.2 0 0 1 .2.2h-.1zm-.2.1h.1a.1.1 0 0 0-.1.1.1.1 0 0 1-.1.1h-.1a.1.1 0 0 1-.1-.1c0-.1.1-.1.1-.2h.1c-.1 0 0-.1 0-.1zm0 2h-.3s0-.1.2-.1h.1zm-.3 3.3h.1s.1.1 0 .1h-.1zm0-1.4h-.1v-.2h.1zm.1.5a.1.1 0 0 1 .1-.1c.1 0 .1.1 0 .1a.1.1 0 0 1-.1.1zm0 1zm.1-.6zm.1-1.5h-.1c0 .1-.1.1-.2 0h.3zm-.1-4.3h-.2c-.1-.1-.1-.2 0-.2h.2zm-1.2.4zm0 .5h.1a.3.3 0 0 1 .1.2h-.1a.1.1 0 0 1-.1-.1c-.1-.1-.1-.1-.1-.2h.1zm.1.5a.1.1 0 0 1 .1-.1h.1a.1.1 0 0 1-.1.1h-.1zm.2 1.2h.2a.1.1 0 0 1 .1.1v.2h-.3zm.1-1.4zm.1-.2c-.1-.1-.1-.2 0-.2a.1.1 0 0 1 .1-.1h.1c.1 0 .1.1 0 .2h-.2zm0 1.4v-.2h.2a.3.3 0 0 1 .1.2h-.2a.1.1 0 0 0-.1 0zm-.2-2.6zm-.1-.9c-.1 0 0 0 0-.1a.1.1 0 0 1 .1.1zm-.2.6h.1c.1.1.1.1.1.2h-.3a.1.1 0 0 1 0-.2.1.1 0 0 1 .1 0zm-.8 4.7h.1c.1 0 .1.1 0 .1h-.1zm0-.8zm.3-3.4h.1a.1.1 0 0 1-.1-.1zm0-.8c.1-.1 0 0 0 0zm0 2.6c-.1 0-.1 0 0-.1zm0-.1zm-.1-.5zm-.1 3.7h-.1.1zm.1 1.5zm.1-.9zm.1-.6zm0-.6zm-.2-1.4h.1c0-.1.1 0 .1 0a.1.1 0 0 1-.2 0zm.2-2.6h.1c0 .1 0 .1-.1.1zm-.2-1.6zm-.1 3.7h-.1c-.1 0-.1 0-.1-.1h.1a.1.1 0 0 1 .1.1zm-.2-.6zm-.2-2.6zm-.1-1.1h.1c.1 0 0 .1 0 .1a.1.1 0 0 1-.1.1zm.3 2.1h-.1c.1 0 .1 0 .1.1zm-.1-.9zm0-.5zm0-1.3h-.3v-.2h.3v.2zm-.2-.3c.1-.1 0 0 0 0zm0 7h-.1s-.1-.1 0-.1h.1zm0-.5c.1.1.1.1 0 .1zm0 .4zm.2 1.6c-.1 0-.1-.1 0-.1zm.1 1.7a.1.1 0 1 1 0-.2zm.1-2.1v-.2h.1v.2h-.1zm.3 5.2h-.1a.1.1 0 0 1-.1-.1h.2zm.1-2.9zm.1-.9zm.1-3.3h-.2a.1.1 0 0 1 .2 0zm.2-1.2c-.1.1-.1.1-.2 0a.1.1 0 0 1 .1-.1h.1zm0-.2h.2v.2h-.2zm.1 3c-.1 0-.1 0-.1-.1h.1zm0-2.5h-.1a.1.1 0 1 1 .2 0zm.1 4.6zm.1 2.7zm0-1.3c.1-.1 0-.1 0 0zm0-5.1h.1c0-.1 0-.1.1-.1s.1 0 .1.1h-.1c0 .1-.1.1-.1 0h-.1zm.2.3a.1.1 0 0 1-.1.1h.1zm.1 9.2h-.1a.1.1 0 0 0-.1-.1h.2zm-.1-6.4h.1a.1.1 0 0 1-.1 0zm.2-3.6h.1s-.1.1-.1 0zm.1.9h-.1v-.2h.5a.2.2 0 0 1-.2.2h-.2zm.1 7.5zm.1-1.6zm0-1.1zm0-1.4zm.1 1.3zm.1 3.3zm.1-.8zm0-9.1a.1.1 0 0 0-.1.1h-.1a.1.1 0 0 1 0-.2c0-.1 0-.1.1-.2h.2c0 .1.1.2 0 .2h-.1zm.1 3.7a.1.1 0 1 1 .2 0h-.2zm.1 6zm.2 3.6zm.1-8.5h.1c.1.1 0 .1 0 .1h-.1zm.1 3.2zm.1-1zm0-1.3h-.1c-.1 0-.1 0-.1-.1h.1c0-.1.1-.1.1 0zm0-3.5h.1a.1.1 0 0 1 .1.1.1.1 0 0 1-.1.1h-.1zm.1 1.7zm.4 1.7h-.1c0-.1.1-.1.1 0zm-.1-.4h.1c.1.1.1.1 0 .1h-.1zm.2.5h.1a.1.1 0 0 1 .1.1h-.2zm0-5.5zm.4 2.7zm-.1-.2a.1.1 0 0 1 .1-.1h-.1zm.2 2.9zm.1 1zm-.3-3h-.1a.1.1 0 0 1 .1 0zm-.1.6h.1a.1.1 0 0 1-.1.1zm-.4 5.3h-.1a.1.1 0 0 1 .1-.1zm-.1-.9zm.2-2.5zm.1 1.6h.1a.1.1 0 0 0-.1 0zm.1 4.4a.1.1 0 0 1-.1-.1h.1zm0-5.2zm-.1.1h-.1c.1-.1.1-.1.1 0zm-.3-1.7zm-.2-1.2c0-.1.1 0 .1 0h-.1zm.1.9h.1v.2h-.1zm.1 5zm.2 2.8c0 .1-.1.1-.1 0h.1zm0-1.4zm.2 3.9zm.1-.5zm0-1.1h-.1a.1.1 0 0 1 .1-.1zm.1-5.8zm.1 3.7c.1-.1 0 0 0 0zm.1-4.2zm.1 6.3zm0-1.4zm.1-.9zm.1 1.5zm.2 2zm0-5.2h.1a.1.1 0 0 1-.1 0zm-.1-.5c0-.1 0-.1.1-.1h-.1zm.2-.3h-.1c.1.1 0 .1.1.1zm-.1-.8h.1a.1.1 0 0 1-.1-.1zm-.1 0h.1a.1.1 0 0 1-.1.1.1.1 0 0 1-.1-.1zm0 1.1zm0-2.8h-.1a.3.3 0 0 1 .1 0zm-.1-.4h-.2s0-.2.1-.2h.2v.2a.1.1 0 0 1-.1 0zm-.1-2a.1.1 0 0 1 .1-.1s.1 0 0 .1h-.1zm.2-.2h-.3v-.2h.3zm-.1-1.1zm-.5-.9h.3a.1.1 0 0 1-.2 0 .1.1 0 0 1-.1-.1.1.1 0 0 1-.1.1h.1zm0-1.1zm-.4-.9zm0 1.5c.1.1.1.1 0 .2h-.1c-.1 0 0 0 0-.1zm-.2-1.8a.1.1 0 0 1 .1-.1h-.1zm0 2.5zm0-3.1h-.3c0-.2 0-.2.1-.2h.2zm-.4-.3h.2c.1 0 .1 0 .1.1h-.3zm0-.7a.1.1 0 0 1 .1-.1h.1v.2c.1 0 .1 0 .1.1h-.2a.1.1 0 0 1-.1-.1zm0 3h.1v.3h-.4c0-.1 0-.1.1-.1h.2zm-.3-3.1zm.2 2.6zm-.2-2.9zm0 .6h-.1c.1-.1.1 0 .1 0zm-.2-.9zm-.2-.8a.1.1 0 0 1 .1-.1h-.1zm-.1.9zm-.2-.5h.1a.1.1 0 0 1-.1.1zm-.2-.9zm-.3-.9a.1.1 0 0 0 .1.1h-.1zm-.6-.7zm-.3.5h.1a.1.1 0 0 1 .1.1h-.2zm-.4-.5h.4a.1.1 0 0 1-.1.1h-.2a.3.3 0 0 1-.1-.2zm0-.1zm-.3-1.5c0-.1.1 0 .2 0v.2h-.2zm-.2.9h-.3v-.2h.2a.1.1 0 0 1 .1.1zm0-.5zm-.2-1h.2a.1.1 0 0 1-.1.1h-.2a.1.1 0 0 1 .1-.1zm-.2.6h.1a.1.1 0 0 1-.1-.1zm0 1.4h.1a.3.3 0 0 1-.1.2zm-.3-1.6zm0 .9h.2c.1 0 0 .1 0 .1h-.2zm-.2.5h.2a.1.1 0 0 1-.2 0zm-.2-1.5h-.2a.1.1 0 0 1-.1-.1h.1c.1 0 .1 0 .1.1zm-.2-.5h.1c0 .1 0 0-.1 0zm-.2-.7c-.1.1 0 0 0 0zm0 7.5zm-.1-1.4h-.2a.1.1 0 0 1 .1-.1c.1 0 .1 0 .1.1zm0-.4h.1a.1.1 0 0 1-.1 0zm0-2.3h-.1c.1-.1.1-.1.1 0zm-.1-.7h-.4a.1.1 0 0 1 .1-.1h.3zm-.2-2.7h.1a.1.1 0 0 0 .1.1h-.2zm-.2.3h.4v.2h-.4zm-.1-.5h.1a.1.1 0 0 1-.1.1zm-.2-.6h.1c-.1 0-.1 0-.1-.1zm-.1 1.6h.1l.2.2a.1.1 0 0 1-.1.1h-.1c-.1 0-.1 0-.1-.1zm-.2-.8h-.1c-.1 0-.1 0-.1-.1a.1.1 0 0 1 .1-.1.2.2 0 0 1 .2.2.1.1 0 0 1-.1 0zm-.1-.9h.2a.2.2 0 0 1-.2.2h-.1a.3.3 0 0 1-.1-.2zm-.1 2.1zm-.4-1.5c0-.1.1-.1.1 0h.2a.1.1 0 0 1-.2 0h-.1zm-.2 1.5h-.1a.1.1 0 0 1 .1 0zm-.1-1.9h-.2c0-.1 0-.1.1-.1h.1zm-.4-.3h.2a.1.1 0 0 1 .1.1h-.3s0 .1-.1 0l.1-.1zm-.1.6h-.2a.1.1 0 0 0-.1-.1v-.2h.1s.1.1.2.3zm-.4-1.6zm-.2 1.2a.1.1 0 0 1 .1.1h.1c0 .1 0 .1-.1.1h-.2c0-.1.1-.1.1-.2zm-.2 2.4c.1 0 .1.1.1.2h-.2a.1.1 0 0 1-.1-.1v-.2a.1.1 0 0 0 .1-.1h.1zm-.4-2.4h.2c0 .1 0 .1.1.1h-.1a.2.2 0 0 1-.2-.2zm0 1.1h.1v.2h-.4a.1.1 0 0 1 .1-.1c.1-.2.1-.2.2-.1zm-.1-.4h-.3c0-.1 0-.2.1-.2h.2zm-.3-1zm0-1.1h.2a.1.1 0 0 1-.1.1c0 .1 0 .1-.1 0zm0 .3c.1 0 .2-.1.2 0h-.2zm0 4.1h.3a.2.2 0 0 1-.2.2h-.2v-.2a.1.1 0 0 0 .1 0zm7.7-19.5h.2c.1.1.1.1.1.2h-.1a.1.1 0 0 1-.1-.1h-.1zm-2.9 1.6zm-1 1.5h.2a.1.1 0 0 0 .1.1h-.1s0 .1-.1 0h-.1zm-1.1 1.1h.2c0 .1 0 .1.1.1v.2h-.3zm0 1.1h-.1c0 .1-.1.1-.1 0h.2zm-.3-1.5h.2s.1 0 0 .1a.1.1 0 0 1-.1.1h-.1zm-7.7 15.1zm1.4-1.9h.1s.1.1 0 .1h-.1zm0-.8zm.2 3zm.4 1.1h-.1c0-.1 0-.2.1-.2zm.2-2.9a.1.1 0 0 1 .1.1h-.1zm.3 2.1h-.1c0-.1 0-.1.1-.1zm0-4.8h.1a.1.1 0 0 1 .1-.1h.1c.1 0 0 .1 0 .1h-.3zm.4-10.2h.1a.3.3 0 0 1-.1 0zm.1 10.4h-.1a.1.1 0 0 1-.1-.1h.2zm-.1-3.6h-.1c0-.1 0-.1.1-.1zm-.2 5.5zm.1 3zm.2-1.5zm0-.1zm.1 2.1c.1-.1.1-.1 0 0zm.1-4.5h-.1a.3.3 0 0 1 .1 0zm0-.6zm.1-.3zm0 3.5h.2c0 .1 0 .1.1.1h-.3zm.1 1.2h.1c0 .1 0 .1-.1.1zm.2 1.6c-.1 0-.1 0-.1-.1h.1zm.1-.3zm-.1-1.4zm.1-2.5h-.1a.1.1 0 0 1 .1 0zm0-.3c-.1 0-.1 0 0 0zm.2 5.2zm.7-.3zm0-1.5h-.1c0 .1-.1.1-.1 0a.1.1 0 0 1 .1-.1h.1zm-.3-1.3zm-.1-.4h.1a.1.1 0 0 0 .1.1h-.2zm.6 3.9zm0-2.5h-.2a.1.1 0 0 1 .1-.1h.1zm.1-1.1h-.3v-.4h.3a.1.1 0 0 1-.1.1h.1zm-.2-.6a.1.1 0 0 1 .1-.1h-.1zm.1-2h.1c.1 0 .1.1 0 .1h-.2a.1.1 0 0 1 0-.2c0-.1 0-.1.1-.1zm-.4-.4h.1c0-.1.1 0 .1 0h-.2zm-.2 1.3h.4a.1.1 0 0 1 0 .2h-.1c0 .1-.1 0-.1 0s-.1-.1-.1-.2a.1.1 0 0 1-.1-.1zm0 3.5h.1c0 .1 0 .1-.1.1zm-.1-1.3zm-.2-2.8zm-.2-.3a.1.1 0 0 1 .1.1h-.2c-.1-.1-.1-.1-.1-.2h.2zm0-3zm.2-7.6h-.2a.1.1 0 0 1-.1-.1c-.1 0-.1-.1-.1-.2h.3c0 .1.1.1.1.2zm.7 7.4h-.1c.1 0 .1 0 .1.1zm.1-9.8a.1.1 0 0 0-.1.1h-.1c-.1 0-.1 0-.1-.1h.3zm.2 8.6h-.1a.1.1 0 0 1 .1.1zm.8-.9zm0-.6zm.2-4.5h-.3a.1.1 0 0 1 .1-.1h.2zm1.2-3.7v-.2h.3a.1.1 0 0 1 .1.1h-.4zm-.3.3h.2c.1.1 0 .2-.1.2h-.2a.1.1 0 0 1 .1-.2zm-1 .8h.1c.1 0 .1 0 .1.1h.2a.1.1 0 0 1 .1.1h-.4V25zm-.1.7zm-.1-2.8c0 .1 0 .1-.1.1s-.1.1-.1 0h-.1v-.2h.3s.1 0 0 .1zm-.4-1.4a.1.1 0 0 1 .2 0h-.2zm-.3 8.7h.2c0 .1-.1.1-.2.1zm-.1-7.3a.1.1 0 0 1-.1.1h-.2c0-.1 0-.2.1-.2zm-.3-1.8a.1.1 0 0 1 .1-.1h-.1zm-.2 2.8h.1c-.1 0-.1 0-.1-.1zm0 7.2zm-.1-6h-.1a.1.1 0 0 1-.1-.1h.2zm-.4-3.2zm-.1 0h-.2v.1zm-.4 12.2zm-.1 2.1h.1c.1 0 .2 0 .2.1s-.1.1-.2.1a.1.1 0 0 0-.1-.1v-.2zm-.1-10.7zm-.1-5.7zm-.3-.2h.3c0 .1-.1.1-.2.1h-.1zm-.2-.4h.1c.1 0 .1 0 .1.1h-.3zm-.2 2.4h.3c0 .1 0 .1-.1.1s-.1 0-.1-.1zm.3 1.9zm-.2 5.1h.3a.3.3 0 0 1 .1.2h-.4zm0 11.8h.1c0 .1 0 .1-.1.1zm-.1-.9h-.1c0-.1 0-.1.1-.1h.1a.1.1 0 0 1-.1.1zm-.2-9.1zm-.2 8.2zm-.3-4.9zm-.2 2zm.1 3.3zm-.6-2.6h-.1c0-.1.1-.1.1 0zm-.9 3.8zm-.5-3.4h.1c.1 0 .1.1 0 .1h-.1zM149 58.9h-.2a.1.1 0 0 1-.1-.1c0-.1 0-.1.1-.1h.2zm.6-.7h-.4a.2.2 0 0 1 .2-.2h.2zm7.7-41.3h.1s-.1 0-.1-.2zm-.4-3.2h.2c.1.1.1.1.1.2h-.2a.1.1 0 0 1-.1-.2zm-4.8 46.5h-.1c-.1 0-.1 0-.1-.1h-.1a.1.1 0 0 1 .1-.1c.1 0 .1-.1.2 0h.1c0 .1 0 .2-.1.2zm.4-1.7h-.2a.1.1 0 0 1-.1-.1c-.1-.1-.1-.1 0-.2h.3zm.4-1.1h-.2v-.2h.2c.1 0 .1.1 0 .2zm.5-41.6h-.3c0-.1 0-.2.1-.2h.2zm.4 42.7h-.2c0-.1-.1-.1-.1-.2s0-.1.1-.1h.1a.1.1 0 0 1 .1.1zm.4-38.1h.1c0 .1.1.1.1.2h-.2zm.3 2.7h-.3v-.2h.2c.1 0 .1.1.1.2zm.3 36.8zm.6.4h-.1c-.1 0-.2 0-.2-.1h.1c.1 0 .1 0 .1.1h.1zm.6-34.2l-.2.2h.2zm.4 32.5h.1c.1 0 .1 0 .1.1h.1c-.1 0-.2.1-.3 0zm.3 1.2zm0-37h-.1c-.1 0-.2-.1-.1-.2h.3a.1.1 0 0 1-.1.2zm.1-5.2zm.3 2.4h-.1a.1.1 0 0 1 .1-.1zm.5 37.8a.1.1 0 0 1-.1.1h.1a.1.1 0 0 1 0-.1zm2.2 2.4a.1.1 0 0 1 .1-.1h.1a.1.1 0 0 1 .1.1h-.1c0 .1-.1.1-.1 0h-.1zm-1.9-38.7zm.4 4.8zm.8 32.7a.1.1 0 0 1 .1-.1h-.1zm-.4.4h.1v.2h-.2a.1.1 0 0 1 .1-.2zm.2-37.9h-.1v-.2h.2c.1 0 .1.1.1.2zm.4-5.4zm-1 50.6zm.6.9h.1a.2.2 0 0 1 .2.2h-.3zm.3 1.3h.2zm.3-3.2zm.3 4.7h-.3v-.3h.2a.3.3 0 0 1 .1.2zm.2-4.7h-.2c-.1 0-.1-.1-.1-.2h.3zm1.5 2.6h-.1c0-.1.1 0 .1 0zm4.8-.2h-.1c0-.1 0-.1.1-.1h.1s0 .1-.1.1zm2.1-2.6h-.2c.1 0 .2 0 .2.1zm.5-2.8h-.2c.1 0 .2 0 .2.1zm1.8 1.3h-.1c-.1 0-.1 0-.1-.1h.3s0 .1-.1.1z"/><path d="M173.9 66.2c1.9 5.6-2 10.8-2 10.8h1.9c2.1-1.6 2.9-5.5 2.9-5.5 4 1.8 13.6 4.8 19.9-2.4-13.1 7.9-22.7-2.9-22.7-2.9zM23.1 88.7c-9.9-7.7-4.7-16.9-3.9-19.6-2.3.8-3.4 3.2-4 6.3a.2.2 0 0 1-.4.1c-2.1-5.3-5.2-6.7-9-5.2 4.9.9 6.9 4.9 8.1 9.1s3.9 8.2 8.9 9.6c.2 0 .5-.2.3-.3zM21.5 43s-5.7.6-7.5 3.5c3.1-1.9 7.4-1.5 11.6-.9s7.6 3.7 7.9 7.1a13 13 0 0 1-.2 3.4l.8-1a.1.1 0 0 1-.1-.1h.2a10.1 10.1 0 0 0 1.2-2.6h-.2a.1.1 0 0 1 .1-.1h.1a2.8 2.8 0 0 0 .1-.9.9.9 0 0 0 0-.7h-.1a.1.1 0 0 1 .1-.1c-.5-3.7-4.5-6.4-8-7.1C16.1 40.1 14.5 33 14 26c-4.7 12.7 7.5 17 7.5 17zm13.8 6.8c.1 0 .1 0 .1.1h-.1zm-1.7 4.6zm.3-2.3zm.1-.5c0-.1-.1-.1-.1-.2h.1a.1.1 0 0 1 .1.1H34zm0 1h.1c0-.1.1 0 .1 0h-.1a.3.3 0 0 1-.1 0zm.8.2s.1 0 0 0zm-.3-.9h.1c.1 0 .1 0 .1.1h-.2zm-.1 1.9zm-.1-.5zm0 1.3zm0-1.2zm-.2-3.9zm-.2-1.8zm0 1.5zm-.2 1.7h.1c-.1 0-.1 0-.1-.1zm-.1-1.2zm-.6.6h.1a.1.1 0 0 0-.1-.1zm-.1-4.1zm-.8 2.3z"/><path d="M78.4 88.4h.1a.1.1 0 0 1 .1.1l1.5-1H80v-.2h.3l.5-.5h.2a11.8 11.8 0 0 0 2.1-3.2h.1a19.9 19.9 0 0 0 .9-2.6l.3-2.2h-.1a.1.1 0 0 1 .1-.1 21.1 21.1 0 0 0 .2-2.6 24.6 24.6 0 0 0-.2-2.8h-.2c0-.1-.1-.1-.1-.2h.2a.1.1 0 0 1 .1.1c-1.1-10-9.3-13-14.4-13.8l1.4-.7h-.1c0-.1 0-.1.1-.1h.1a8.9 8.9 0 0 0 2-1.9c.1-.1.2-.2.2-.3l.2-.3h.1l.3-.5c0-.1-.1-.1-.1-.2h-.1a.1.1 0 0 1 .1.1h.3a10.4 10.4 0 0 0 .4-1c.1-.3.3-.7.4-1.1h-.1c-.1-.1 0-.1 0-.1a.1.1 0 0 1 .1-.1.3.3 0 0 0 .1-.2c0-.2.1-.3.1-.5a10.1 10.1 0 0 0 .3-2.5h-.2c0-.1.1 0 .1-.1-.1 0 0-.1 0-.1h.2v-.7c-.1-.1-.1-.1-.1-.2h.1v-3.6h-.1a.1.1 0 0 1 .1-.1 10.9 10.9 0 0 1-.1-1.8h-.2a.1.1 0 0 0-.1-.1c0-.1 0-.1.1-.2h.1v-.2c0 .1 0 .1-.1.1s-.1 0-.1-.1h.2a1.3 1.3 0 0 0-.1-.6V41h-.1v-.2a1.3 1.3 0 0 1-.1-.6h-.3s-.1-.1.1-.2h.1a14.2 14.2 0 0 0-.5-2.2h-.1a.1.1 0 0 0-.1.1h-.1c0-.1 0-.2.1-.2s0-.1.1 0a.1.1 0 0 1-.1-.1h.1a4.9 4.9 0 0 0-.4-1.1c-.1-.2-.1-.3-.2-.4H74a15.1 15.1 0 0 0-1.1-3.1h-.1l-.3-.5h-.2l-.7-.8h-.1a.1.1 0 0 1-.1.1l-.6-.6h-.5l-.6-.5h-.2c-3.6-2.2-8.4-2.6-14.3-2.6-12.6-1-16.2 6.6-27.7 3.9s-4.8-16.9-.1-13.2h.1a6 6 0 0 1 1.7 3.2 4.9 4.9 0 0 0 1.8-4.9h-.1a3.5 3.5 0 0 0-.6-1.4h-.1a3.7 3.7 0 0 0-1.5-1.3l1.2-.4h.2a5.9 5.9 0 0 1 2.3.1h.1a2.3 2.3 0 0 1 1.2.6h.5c.1 0 0 .1 0 .1H34l.2.2h.2a2.5 2.5 0 0 1 .4 1.3l-.4.4h.3a.1.1 0 0 1-.1-.1h-.3c-1.9 2.5-2.1 9.5 4.4 10h.7a6.1 6.1 0 0 0 2.4-.4.1.1 0 0 1 .1.1c3.4-1.2 4.3-4.9 3.7-7.8A9.4 9.4 0 0 0 45 17l-.3-.5h-.2c.1 0 .1 0 .1-.1a3.5 3.5 0 0 0-1.4-1.3h.4c3.4.1 4.1-4.1 1.4-5.6.3 2.8-2.4 2.9-4.4 2.4h-.1l-.6-.2h-.3l-.4-.2h-.5l-2.5-.6h-.5l-1-.2h-.1a.1.1 0 0 1-.1-.1h-1.3c-.1 0-.2-.1-.1-.2h-1a.1.1 0 0 1 .1.1H32c-.1 0-.2-.1-.1-.2h-.1v.2h-.9a14.2 14.2 0 0 0-10.1 3.6 12.8 12.8 0 0 0-3.3 5.6C13 33.2 27.1 40.1 33.5 42c4.7 1.4 5.9 2.7 6.1 6a.1.1 0 0 1 .1-.1h-.1a6.1 6.1 0 0 1 .1 1.4.1.1 0 0 1 .1.1h-.1V53a5 5 0 0 1-.8 2.6h-.2l-.8.8h.1c0 .1 0 .1.1.1s.1.1 0 .1a.1.1 0 0 1-.1.1h-.1a.1.1 0 0 1-.1-.1 6.4 6.4 0 0 1-2.2 1.4l-1.5.5h-.6a.3.3 0 0 0 0 .6l.9.4h.1l.3.2h.5l.9.7h.1a3 3 0 0 1 .8.8h.2l.5.7h.1l.6 1.1h.1a4.9 4.9 0 0 1 .4 1.1 18.6 18.6 0 0 1 .5 2.7 24.6 24.6 0 0 1 .2 2.8c0 6.7-5 8-8.8 8.7-.3 0-.4.3-.4.6a4.8 4.8 0 0 1 0 1.7.5.5 0 0 0 .5.7h21.7a.6.6 0 0 0 .6-.8 6.5 6.5 0 0 1 0-1.4.6.6 0 0 0-.4-.8c-2.1-.5-4.8-1.6-4.9-3.1-.6-6.4.1-20.3.1-29.7 0-3.5 3.7-5.5 5.4-5.1-1.6-4.7-5-4.5-6.4-4.8a28.5 28.5 0 0 1 10.8-1v20.2s-3.3 2.7-4.4 4.6a15 15 0 0 0 4.4 3.7v22.7s-5-.2-26.4-.2c-6.7 0-9.5-8.5-5.3-10.7 2-1.1 3.9-.1 2.7 1.8 3.1 1.5 7.7-1.1 5.7-5.7s-8.2-4.6-12.2-1.1-4.2 15.7 7.4 18.2l-2.1 1.1h-.1l-1.9 1.3h.1a.1.1 0 0 0-.1-.1L24 92.1h.2s.1 0 0 .1H24a.1.1 0 0 1 0-.2l-1.5 2h-.1a25.6 25.6 0 0 0-1.1 2.4 2.9 2.9 0 0 0-.2.9H21c-.8 3.7.5 7.4 5 9.4a9.8 9.8 0 0 0 2.8.8h.2c7 1 12.5-5.5 6.7-12.1h-.1c.2 4.5-2.1 6.4-5.3 5.3a3.3 3.3 0 0 0 2.3-2.4 5 5 0 0 0-.1-3.2 4.9 4.9 0 0 1-1.3 1.2h-.1l-.6.4a3.8 3.8 0 0 1-1.7.4h-.2c0 .1-.1 0-.1 0h.1a3.4 3.4 0 0 1-1.2-.4h.1l-.2.2h-.2c-.1 0 0-.1 0-.1h.1a.1.1 0 0 1-.1-.1h.1a3.1 3.1 0 0 1-.3-3h.1l.3-.6h.1c0-.1 0-.1.1-.1 1.3-1.7 4.6-3.2 11.4-3.2 12.8 0 15.5.7 22.8.7 2.3 0 7.7.4 11.2-.1h.2a21.4 21.4 0 0 0 3.4-.9h.7l.5-.3h.2l.5-.2zM31 18.1a.1.1 0 0 1-.1-.1h.1zm-.2-.7zm-.1.5zm-.4-1.8zm0 .5zm-.6.2zm.4 1h.1a.1.1 0 0 1-.1.1h-.2c0-.1.1-.1.1-.2zm-.4-1.9zm15.2 6zm-.1-3c-.1 0-.1 0-.1-.1zm.7-4.9zm-1.3-.6zm-.2.2zm0 1zm-19.6-1.1zm.9-.2zm.1 1.5zm.1 1.7c-.1 0-.1 0-.1-.1h.1zm.5 0zm.5-4h-.1c0-.1.1-.1.1 0zm.1 3.9zm.2-2zm.2.1s.1 0 0 0zm.4 1.2h-.3v-.2h.3zm.3-.3zm.1 1.3h.2v.2h-.3zm.2-.5c-.1 0-.1 0-.1-.1h.1zm.1 3h-.2a.1.1 0 0 1 .1-.2h.1zm.1-3.8zm0-.6h-.3a.3.3 0 0 1 .1-.2h.2zm.3 3.6zm0-5.6zm.3 3.4a.1.1 0 0 1-.1-.1h.1zm.5 1.7h-.1s0-.1.1 0zm.2.2zm-.3-3.3h.2v.2h-.2zm-.1 2h.1c0 .1.1.1 0 .1h-.1zm0-1.1zM29 15zm-.2-.6zm.8-1.5v.2zm-.3-.5zm1 .8zm.7 0zm.3-.4zm.1-.3h-.3v-.2h.3zm1.3-.4zm.2.1zm0 1.3zm.4.4zm.2-1.6zm0-.4zm-.1 0zm0 .7zm.2 1.4zm.1-.8zm.1-.7zm.1 1zm.3.4zm.2-.1zm.3-.8v.2h-.1c-.2 0-.2-.1-.2-.2h.3zm0-.6zm-.1 2.4zm.2 2.5h-.2c.1-.1.1-.1.2 0zm.2-2.4zm.6-2.7h-.1a.4.4 0 0 1-.1-.3h.3v.2zm.1.4zm-.3-.3h.1c.1 0 .1.1 0 .1h-.1c.1.1.1.1.1.2h-.2c-.1-.1-.1-.1-.1-.2v-.2h.2zm.7 4.1h.1a.1.1 0 0 0 .1.1h.2c.1.1.1.1 0 .2h-.2a.1.1 0 0 1-.1-.1h-.7a.1.1 0 0 1 .1.1v-.2h.3v.2a.1.1 0 0 1 .1-.1.1.1 0 0 1 .1.1zm.6-4.4zm-.1-.1zm.1 1h.1c.1.1.1.1.1.3h-.2zm.4-.3h-.2v-.2h.2zm1.3 1.8c0-.1 0-.1.1-.2h.2c0 .1 0 .1-.1.1h.1v.2h-.3c-.1 0 0-.1 0-.1zm.6-.3zm.5 1h-.1v.2h-.3v-.2h.2v.2h.1zm.1-.2a.1.1 0 0 1 .1-.1h-.1zm.3-.7zm0 .4h-.1c0-.1 0-.1.1-.2zm.2-.1zm.6 5.6zm0-1.9h.1c-.1.1-.1 0-.1 0zm0-1.1c.1 0 0 .1 0 .1zm0-1.3h.1v.2zm-.8.5zm.1.1h-.1a.1.1 0 0 0-.1-.1h.2zm.5.4zm0 1.2c0 .1 0 .1-.1.2h.1zm-.5-1.5h.3a.1.1 0 0 1-.1.1h-.3a.4.4 0 0 1 .1-.1zm-.3 1zm.1.7zm.1-1h.1a.1.1 0 0 1 .1-.1h.2v.2h-.4zm.1 1.7h.3a.1.1 0 0 1-.1.1H40zm.1 2.2h.1c-.1.1-.1 0-.1 0zm0-.9a.1.1 0 0 1 .1-.1h-.1zm.2 3.7h-.2v-.2h.2v.2zm0-3.6zm0-1.1h-.1a.3.3 0 0 0 .1-.2h.1c.1 0 .1.1.1.2v.1s-.2 0-.2-.1zm.2.6zm.1-4.5a.1.1 0 0 1-.1-.1h.2a.1.1 0 0 1-.1.1zm-.1-1c-.1 0-.1 0-.1-.1h.2c0 .1 0 .1-.1.1zm-.2-.8h.2a.3.3 0 0 1-.1.2h-.2c0-.1-.1-.1-.1-.2h.2zm0-.1zm-.1 2.5zm-1.7 5.5zm-.1-.2zm-.2-1.2h.1a.1.1 0 0 1-.1-.1zm-.6.9h.1c-.1.1-.1.1-.1 0zm0 1.2zm-.1-1.7h.1c0 .1 0 .1-.1.1zm0-.1zm.2 0h-.1V20h.2v.2c0 .1 0 .1-.1.1h-.1zm.1-2.1zm0-.5h-.1a.1.1 0 0 0 .1-.1h.3a.3.3 0 0 1-.1.2zm-.1-2zm.1.2c-.1-.1-.1-.1-.1-.2zm-.1 1.5c.1 0 .1 0 .1.1h-.1zm.8.1h-.2c-.1 0-.1 0-.1-.1h-.1v-.2h.3c0 .2.1.2.1.3zm.2-2.7zm0 .3zm.7 1.7c-.1 0-.1 0-.1-.1h.1zm0 1.3zm0-.2h-.2c.1-.2.2-.2.2 0zm-.4 1.3h-.3a.1.1 0 0 1 .1-.1h.2zm-.2.4h-.1c.1 0 .1 0 .1.1zm.1-2.2zm0-.3h.2a.1.1 0 0 1 .1.1h-.3zm-.1 1h-.3c0-.1 0-.2.1-.2h.2zm-.2.6zm.6-2.6h-.3c0-.1 0-.1.1-.1h.2zm-.2.4h-.1c0 .1 0 .2-.1.2h-.2v-.2h.1v-.2zm-.3-.6zm-.1-.2zm-.2 3.7zm-.3-1.4zm0 .9a.1.1 0 0 1-.1.1h.1zm-.1.8zm-.2 1.1h.2c.1 0 .1 0 .1.1h.1v.1h-.3zm.8-1.2h-.2c-.1 0-.2-.1-.1-.2h.3zm.2.1zm0 1.2h.1a.1.1 0 0 1-.1.1h-.1c0-.1 0-.1.1-.1zm.1 2.2h.1v-.2zm.1-2.4zm0-.8h.2c0 .1.1.1.1.3H39zm.1.6zm.2-1.9c0-.1 0-.1.1-.1h-.1zm.3-2.6h.1zm-.7-2.1h-.3c-.1-.1-.1-.2 0-.2h.3zm-.5 2.6h-.3c-.1 0-.1-.1 0-.2h.2a.1.1 0 0 0 .1.2zm-.1-.7zm-.3-.2h-.1s.1 0 .1.2zm0-1.4h-.2c.2 0 .2.1.2.3zm-.3.7h.2v.2h-.1V15zm-.1 1zm-.9 2.5h-.2c.1 0 .1 0 .1.1.1-.1.2 0 .2.1h-.1zm.1.5zm-.3-.1h-.4c-.1 0-.1 0-.1-.1.1 0 .1 0 .1.1h.4c0 .1.1.1 0 .1zm-.9-1.4zm0 .7zm.2-.3zm.1 6a.1.1 0 0 0-.1-.1h.1zm0-5.8v-.2h.2v.2h-.3zm.5-.7h.1c.1 0 .1 0 .1.1h-.2zm.2-1.3zm0-1.3zm.5-.8c0-.1-.1-.1 0-.2zm.3-1.4zm0 .3zm0 .7zm-.1-.6c.1.1 0 .1 0 .2zm-.3 3h-.1v-.2h.2a.1.1 0 0 1 .1.1.1.1 0 0 0-.1.1H37a.1.1 0 0 1 0 .1zm-.1-.4h-.1v-.2h.1zm.4-1zm-.3.2v.2h-.3v-.2h.3zm0-.3h-.3a.1.1 0 0 1 .1-.1h.2zm-.3 1.1v-.2zm-.4 1.5h.1a.1.1 0 0 1-.1 0zm.4.3h.2a.1.1 0 0 1-.1.1h-.1zm.1-.8h.4a.1.1 0 0 1-.1-.1h-.3zm.2.3zm.4.5zm-.2.4h.2a.1.1 0 0 1 .1.1h-.2v-.2zm.2-1.3h-.2v-.2h.4a.3.3 0 0 1-.1.2zm.2-1.6zm-.2-1.8zm.1-.8zm-.1.2s.1-.1 0 0zm-.1-.4zm-.7 1.3s.1 0 .1.2h-.4a.1.1 0 0 1 .1-.1h.1s.1-.3.1-.1zm-.2 1.8h.1c.1 0 0 .1 0 .1h-.1zm-.1.6c.1 0 .1 0 .1.1s.1 0 0 .1h-.2a.1.1 0 0 0 .1-.2zm0 .7zm0-1.6zm-.7-.7c0 .1 0 .1-.1.1h.1zm.1 1.2h-.3a.1.1 0 0 1 .1-.1zm0-1c0-.1 0-.1.1-.1h-.1zm-.1.7c0-.1.1-.1 0 0zm-.5-.4zm.2 1.4h.4c0 .1 0 .1-.1.1h-.3zm.8-.4H36v.2zm0-.3H36c-.1 0-.1 0 0-.1h.1zm0-.7zm-.1-1h-.5v-.2h.5zm-.1-1zm-.7.6h.1a.1.1 0 0 1 .1.1h.2v.2h-.5a.1.1 0 0 1 .1-.3zm-.2 2.6c0-.1.2 0 .2.1H35zm0 .6h.2a.1.1 0 0 1-.1.1h-.3a.1.1 0 0 1 .1-.1zm-.3 1.9zm.1.7zm.1.1c-.1 0 0 0 0-.1zm0-.2zm0-.2v-.2c0 .1 0 .2.1.2a.1.1 0 0 0-.1 0zm0-.7zm.1-.5h-.1a.1.1 0 0 0 .1-.1h.1a.1.1 0 0 1-.1.1zm.1-.6h.1a.1.1 0 0 1-.1.1zm-.2 1.2zm-.1-.6h-.1c0-.1 0-.1.1-.1zm-.3-.4h.1c-.1 0-.1 0-.1.1zm-.1 1.2zm-.1.8zm-.3.7zm-.5.4c0 .1 0 .1-.1 0h.1zm.1-.5zm0-1.1zm.2 4.3zm.2-2.1zm.1.9zm.1-.9zm-.2-1.3h.3a.2.2 0 0 1-.3 0zm.3 3.5s-.1 0 0-.1zm.1-3.4zm.1-2.1h.1v.2zm0 0zm.1.2zm.1 3.2c.1-.1 0 0 0 0zm0-.7zm.1-.4a.1.1 0 0 1-.1-.1h.1zm.1 1.9zm.2-.6h-.2c0-.1 0-.1.1-.1h.1zm.1 2.1zm.1-1.1h.1a.1.1 0 0 1-.1 0zm0-4zm.1-1.3zm.2 5.4zm0-2.5zm.1-.4zm.1 2.6a.1.1 0 0 1-.1-.1h.1zm.1 3.2zm.1-.6zm0-3.8a.1.1 0 0 1 .1.1zm.2-.8zm0 .1a.1.1 0 0 1 .1-.1h-.1zm.2 1.3zm.1 1.1zm.1-2h.2a.1.1 0 0 0 .1.1h-.3zm.1 0c-.1 0-.1 0-.1-.1zm.1 1.3zm0-4h.4a.1.1 0 0 1-.1.1h-.3zm.2 6.8c0 .1 0 .1-.1.1h.1zm.1-.6zm.2-1.7zm0-3.2c0-.1 0-.1.1-.1-.1-.1 0-.1 0-.2s0-.2.1-.2h.2v.2a.1.1 0 0 1-.1.1h.2c.1 0 0 .1-.1.2h-.4zm.1 3.4zm.1 1.3h.1c-.1.1-.1.1-.1 0zm.2 2a.1.1 0 0 1-.1-.1h.1zm0-4.5a.1.1 0 0 1 .1-.1h-.1zm.4 3.6zm.2-2.2h-.2a.3.3 0 0 1-.1-.2h.3a.1.1 0 0 1 .1.1zm0-1h-.1a.1.1 0 0 1-.1-.1h.3s-.1 0-.1.1zm.1 2.4zm.2 2.7h-.1c.1-.1.1 0 .1 0zm.1-2.8zm.4 1.4zm-.1-.4h.1a.1.1 0 0 1 .1.1H39zm.4-1.9h-.3a.2.2 0 0 1 0-.3h.3zm0-1.4zm.3.4zm.1-1.1h-.1c0-.1.1-.1.1 0zm.1-1.1h-.5c0-.1 0-.1.1-.2h.2a.1.1 0 0 1 .2 0zm0 2.1c.1 0 .1 0 .1-.1h.1c.1 0 .1.1.1.2h-.3zm.2 4.2zm.1-.1a.1.1 0 0 1-.1-.1c.1 0 .1 0 .1.1zm.2-1.5zm.1-2.5zm.1-.6h.1c0-.1.1 0 .1 0a.1.1 0 0 1-.2 0zm.2-1.3zm0 2.4c.1 0 0 0 0 .1h.1c-.1 0-.1 0-.1-.1zm.3.3zm-.1-4.9h-.2v-.2h.2c.1.1.1.1.1.2H41zm0-1.6zm.1 3.4zm1-1.4c.1.1 0 .1 0 .1zm-.1-.8h.1a.1.1 0 0 1-.1 0zm-.1 5.9zm0-4.5h-.1a.1.1 0 0 0-.1-.1.1.1 0 0 1 .1-.1h.1zm0-2.1zm-.4 1.5zm0 .2zm.2-3.2h.1c0 .1 0 .1-.1.1zm.1-.3zm-.2.5c0 .1-.2.1-.2 0h.2zm0 1.3zm-.2 3.3h.1c0 .1-.1.2-.3.1h.2zm-.1-2.3zm-.1.9h.1a.1.1 0 0 1-.1-.1zm.2 2.2h-.2a.1.1 0 0 1-.1-.1h.1c-.1 0-.1 0 0-.1h.2zm.2-.4zm.1 6s-.1-.1 0-.1zm.2-1.6c0 .1.1.1.1.2zm0-2.7zm.2-3.6H42a.1.1 0 0 1-.1-.1h.2v.2zm0 .4h.1c-.1 0-.1.1-.1 0zm.1 4zm.1 1.1h-.1c.1-.1.1 0 .1 0zm.2-3.7zm.1-3.2h-.3V17h.3zm-.3-.3zm.1-.5zm.1-.1h-.1c-.1 0-.1 0-.1-.1h.1c.1 0 .1.1.1.2zm.5 0zm.4 3.5a.1.1 0 0 1-.1-.1h.1zm-.1-.6h.1a.1.1 0 0 1-.1 0zm.2-1.2zm.3 6.5c0 .1-.1 0-.1 0a.1.1 0 0 1 .1-.1zm.6-.3zm-.2-2zm-.2-2.9zm-.1-.2h.1a.1.1 0 0 1-.1 0zm-.1-3.5zm-.1.6zm0 2.6a.1.1 0 0 1 .1.1h-.1zm-.2-.9zm0-1h-.1a.1.1 0 0 1 .1-.1zm-.1-1.3h.1v.2zm-.1 1.8zm.1.2zm-.1 5.4zm-.1-5.6zm.1-4.6c-.1.1 0 0 0 0zm-.1 1.2zm0 .8s-.1-.1 0-.1zM43 13zm-.1 7.8zm-.2-1.5h.1a.1.1 0 0 0-.1-.1zm0 1.9c-.1 0-.1-.1 0-.1a.1.1 0 0 0-.1-.1zm-.1-6.6zm-.2-1.3zm-.1-.5zm-.1 3.9c.1 0 .1 0 .1.1h-.1zm0 .9c-.1 0-.1 0-.1-.1h.1zm-.1-1.4a.1.1 0 1 1-.2 0h.2zm-.2-1zm.1-.6zm-.2-1.2v-.2zm-.2.4zm0-.6c-.1 0-.1 0-.1-.1zm-.3 1.9h.1a.1.1 0 0 1-.1-.1zm0 1.3h.1c.1.1.1.1.1.2h-.3a.1.1 0 0 1 .1-.2zm-.1-2.5zm0 2.8h.1c.1.1.1.1 0 .2h-.2a.1.1 0 0 1 0-.2h.1zm-.2-3.1zm-.2-1zm-.1 1h.1a.1.1 0 0 1-.1.1zm-.2-1.3zm.1.6zm-.1.1h.1c-.1 0-.1 0-.1-.1zm-.2-1zm-.4.5zm0 .4h-.1v-.2zm-.3-1.1zm0 1.2zm-.1-.9c.1 0 .1.1 0 .1zm-.2.4h.2a.1.1 0 0 1-.1.1h-.1a.1.1 0 0 1-.1-.1v-.2zm-.3-.6zm-.1.3h.2a.1.1 0 0 1 .1.1h-.3zm0 .3zm0 .6zm-.2-1.2zm0 1.4a.1.1 0 0 1 .2 0h-.2zm-.1-.7s.1.1 0 .1zm-.1 1.2zm-.2 0h.2zm0-.6zm0-1.1zm-.2.3zm0 1.8zm-.4-2.7zm.1 1.2h.2v.2h-.3c0-.2 0-.2.1-.2zm-.1.6h-.1c-.1 0 0-.1 0-.1zm-.2-2.1zm-.1.1h.2l-.2.2zm-.2-.2zm-.2.4zm0 .6h.1a.1.1 0 0 1 0 .2h-.3v-.2a.1.1 0 0 1 .1-.1h.1zm-.3-.8zm-.2-.4zm-.1 1.7h.2v.2h-.3v-.2zm-.2.7c-.1.1 0 0 0 0zm0 .1zm-.1-1.1zm0-.9h-.2c0-.1 0-.2.1-.2h.1zm-.1-.6zm-.4.5v-.2zm-.2-.7c.1.1.1.1 0 .1s0 .1-.1 0h.1zm-.3.7h.2l.2.2h-.1v.2a.1.1 0 0 1-.1.1h-.2v-.2zm-.1.9zm0 .4zm-.1 1.4zm-.2-2.4h.1c0 .1.1.1.1.2h-.3a.1.1 0 0 1 0-.2zm-.4-.4h.1V11zm0 1.4H34v-.2h.3zm-.2-.9h-.2v-.2h.2c.1 0 .1.1.1.2zm-.1-1zm-.2.2h.2v.1h-.2zm-.2 0zm-.4-.1v-.2zm-.1 2H33v-.2h.2zm0-.3zm-.1-.7zm-.1-1.5zm-.1.5h.1c.1.1.1.1.1.2h-.2zm-.3.7zm-.1 1.2zm-.1.1h-.1c0-.1 0-.1.1-.1s.1.1 0 .1zm-.2-2.1h.1a.1.1 0 0 1-.1.1zm-.1 1.4h.1a.3.3 0 0 1-.1-.2zm0 1.1zm-.3-.6zm.1-.8zm-.4-.5h.1c0-.1.1 0 .1 0v.2h-.3v-.2zm0 .5h.1a.1.1 0 0 1-.1.1h-.1a.1.1 0 0 1-.1-.1h.2zm-.2-.3zm-.2 1zm-.2-.8h-.1c-.1 0-.1-.1-.1-.2zm-.4-1.5zm-.1.7zm-.2 1.2zm-.7-.8h.7c-.1 0-.1 0-.1.1h-.3a.1.1 0 0 1-.1.1h-.1c-.1 0-.1-.1-.1-.2h-.1zm-.3.8zm0 1.7zM29 13zm-.2-2.4c.1 0 .1.1.1.2h-.4a.3.3 0 0 1 .1-.2zm-.6-.1zm-.2 1.4zm-.2.7zm-.1 1.5zm-.1 1.2h-.1c.1-.1.1-.1.1 0zm-.5-4.3a.1.1 0 0 1 .1-.1h.3v.2h-.4zm-.1 1.7h.2c0 .1 0 .2-.1.2h-.3c-.1-.1 0-.1 0-.1h.2zm-.3-1.1zm-.2.4zm-.4-.9zm-.2 1.3zM26 14zm-.2-.5s.1.1 0 .1zm-.3 1.1c-.1 0-.1-.1-.1-.2zm-.5-2zm-.1 3.2h.2v.2h-.2c0-.1-.1-.1 0-.2h.1zm-.2-.7zm0 .5h.2c0 .1 0 .2-.1.2h-.1a.1.1 0 0 1-.1-.1h.1zm-.6-3.9h.5c0 .1.1.2 0 .2h-.2v-.2h-.2zm-.6.8zm-.4 5.4h.2a.1.1 0 0 1 .1.1c.1 0 .1.1 0 .1h-.1c-.1 0-.2 0-.2-.1zm-.3-4zm-.4 1.1h.3v.2h-.2zm-1.2 4h.3c0 .1 0 .1-.1.2h-.1c-.1 0-.1 0-.1-.1zm-1-2.4H20c0-.1.1-.1.1 0a.1.1 0 0 1 .1.1zm19 28.4c-.1.1-.1 0-.1 0h.1zM34 59.8zm.9-.9h.2a.1.1 0 0 1-.1.1h-.1zm-.4.8zm.1-.4h-.1c.1 0 .1 0 .1.1zm.2-.2a.1.1 0 0 1 .1.1h-.1zm.1.2zm.2.7H35a.1.1 0 0 1 .1-.1zm.2-1.2zm.3 1.4h-.2s-.1-.1 0-.1h.2zm-3.8 22.2l-.2.2h-.1c-.1-.1 0-.2.1-.2h.2zm2.6-.6zM43 52.1h.1a.1.1 0 0 1 .1.1H43zm-.2-2.9a.1.1 0 0 1-.1.1c-.1-.1-.1-.1 0-.1zm-.1 5.7zm0 6zm0-7.6a.1.1 0 0 1-.1-.1h.1zm-.1 6.4zm-.5-3zm-.1-3.6c0 .1 0 .1-.1 0h.1zm0-4h-.1.1zm-.3 1.8a.1.1 0 0 1 .1.1h-.1a.1.1 0 0 0-.1-.1zm-.1 5.7c0-.1 0-.1.1-.1h-.1zm0-.8zm.1 2.1h.1c0 .1 0 .1-.1.1s-.1-.1 0-.1zm-.1-3.5h-.1c.1-.1 0-.1 0-.2h.1c.1.1 0 .2 0 .2zm-.2-.7zm-.1 1.1h.2c-.1.1-.2.1-.2 0zm.2-1.7zm-.1-2.1zm-.1-3.5zm0 3.3zm0 4.2h.1c0 .1 0 .1-.1.1zm-.2 5h.1a.1.1 0 0 1 .1.1h-.1c0 .1 0 .1-.1.1zm.2 1.3zm-.3-8.6zm.1 5.4zm-.6 4zm0-2c0 .1 0 .1-.1.1h.1zm-.1 3.7h.1a.1.1 0 0 1-.1.1zm-.1 0zm-.2 2zm-.1-2c-.1 0-.1-.1 0-.1zm0 1.6h-.1c0-.1.1-.1.1 0zm-.7-5.6h-.2c0-.1 0-.2.1-.2h.1zm0-1.4zm0 .3zm.7-3.9h-.1v-.2h.1a.3.3 0 0 1 .1.2H40zm.1-1zm-.1-.6c.1-.1 0 0 0 0zm-.1.7zm0 1.7zm-.2 3h-.1c-.1 0-.1-.1 0-.1s.1 0 .1.1zm-.1.3h.3c0 .1-.1.1-.3.1zm0 1.3h.2a.1.1 0 0 1 .1.1h-.3zm.2-.6zm.1 1.2zm.1-1.5zm.1-1.9zm.1 6.4c-.1 0-.1 0 0-.1zm-.1 1.3zm.1-3.3h.1a.1.1 0 0 1 .1.1h-.2zm.2-5.6zm-.1.5zm.2 1zm-.2.8c.1-.1.1 0 .1 0a.1.1 0 0 1-.1.1zm0-.4c-.1 0 0-.1 0-.1a.1.1 0 0 1 .1.1h-.1zm.1-.7h-.1s-.1-.1 0-.1h.1zm-.1 2.9c.1 0 .1 0 .1.1h-.1zm.2-1.3h.1c0 .1 0 .1-.1.1zm.1-.6h-.1a.1.1 0 0 1 .1.1zm0-1.9h-.1c-.1 0-.1 0-.1-.1h.2zm0 .6a.1.1 0 0 1 .1-.1h-.1zm.2 1.4zm.1 1.6c0 .1 0 .1-.1.1a.1.1 0 0 1-.1-.1h.2zm-.1-4.6zm-.1-.1zm0 6.2zm0 1a.2.2 0 0 1 .2.2h-.2v-.2zm.1 2.5zm.1-2.9zm0-11zm-.1 2.7c-.1 0-.1 0-.1-.1h.1zm-.1-.3h-.1a.1.1 0 0 1 .1-.1zm-.2-4.2h.1c.1.1.1.1 0 .1h-.1zm-.2 4.2c.1 0 .1-.1.2 0 .1 0 .1.1 0 .1h-.1c-.1-.1-.1-.1-.1-.2zm0 1.1h.2c-.1.1-.1.1-.2 0h-.1a.1.1 0 0 1-.1-.1h.2zm-.1-1.5zm0-1h-.3c0-.1.1-.1.2 0h.1zm-.2-4.3zm-.1 2a.1.1 0 0 1-.1-.1h.1zm0 1.1c.1 0 0 .1 0 .1h-.1c0-.1 0-.1.1-.1zm-.1.6c0-.1-.1-.1-.1-.2zm-.1 1.1h.1zm-.1 2s.1-.1.1 0c-.1-.1-.1-.1 0-.1zm-.1 2c.1.1.1.1 0 .1zm-.1.2h.1a.1.1 0 0 0-.1-.1zm-.3-.4h.2a.1.1 0 0 1 .1.1h-.3zm-.3 4.8a.3.3 0 0 1 .1-.2h.1c-.1.3-.1.3-.2.2zm.1.5a.1.1 0 0 1-.1.1c0-.1-.1-.1 0-.1h.1zm0-1.1zm.2-1.5zm-.2-3.4zm0 2c0 .1 0 .2-.1.2s-.1.1-.1 0h-.1a.3.3 0 0 1 .1-.2h.2zm-.4-.2h.1a.1.1 0 0 1 .1.1h-.2zm0 1a.1.1 0 0 1 .1.1h-.1zm.1 1.8a.1.1 0 0 1-.1-.1h.2a.1.1 0 0 1-.1.1zm-.2-.5c0 .1-.1 0-.1 0h.1zm0 .7h.2a.3.3 0 0 1 .1.2h-.3zm-.1-3.9h.4c.1.1 0 .1 0 .2a.1.1 0 0 1 .1.1h-.6v-.2zm-.2 3zm.1 1.1zm-.5-3.1c0-.1.1 0 .1 0h-.1zm-.2.8h.2c0-.1 0-.1.1-.1h.1s.1-.1.1 0h.1c0 .2 0 .2-.1.2h-.2c0 .1 0 .1-.1.1h-.3c-.1-.1-.1-.1-.1-.2h.2zm.4 1.8zm-.3-1h.2a.2.2 0 0 1 0 .3h-.2zm-.5-1.5h.1c0-.1 0 0 .1 0h-.1a.1.1 0 0 1-.1-.1zm-.3.1zm-.2 1.5h.1a.1.1 0 0 1 .1.1h-.1a.1.1 0 0 1-.1-.1c-.1.1-.1 0 0 0zm.2.8c0 .1 0 .1-.1.1h-.1a.1.1 0 0 1-.1-.1h.3zm-1-1.2zm.1.3h.1c0 .1.1.1 0 .1h-.1zm.3 1.5h-.1c-.1 0-.2 0-.2-.1h.1a.1.1 0 0 1 .2 0zm-.1-1.5H36a.4.4 0 0 1 .1-.3h.2v.2zm.3.6h-.1v-.2h.2a.1.1 0 0 1 .1.1h.1v.2h-.2zm.4 1.6c-.1.1-.2.1-.2 0s-.1-.1-.1-.2h.3v.2zm.1-1.8h-.2a.1.1 0 0 1 .1-.1.1.1 0 0 1 .1.1zm0-1.2h-.2a.3.3 0 0 1-.1-.2h.7v.2a.1.1 0 0 0-.1.1h-.3zm.3.1a.1.1 0 0 1-.1-.1zM37 60a.1.1 0 0 1 .1.1H37zm.1-.1zm.2.6h-.2v-.2h.3c0 .2 0 .2-.1.2zm.4 1.1h-.3a.1.1 0 0 1 .1-.1h.1c.1 0 .1 0 .1.1zm0-1a.1.1 0 0 1 .1.1zm.1 1.8a.1.1 0 0 1 .1.1h-.1zm.1.4c0-.1 0-.1-.1-.1h.1zm.2-1.1c.1 0 .1 0 .1.1zm.1-.4c0-.1.1-.1.1 0h.4c0 .1 0 .1-.1.2h-.4zm.1.4zm0 .7h.2a.1.1 0 0 1-.1.1h-.1zm.1.5h.4a.3.3 0 0 1 .1.2h-.5zm.3.4zm.1 1.6a.1.1 0 0 1-.1-.1h.2c-.1 0-.1 0-.1.1zm-.1-1.2h-.2l.2-.2h.1c0 .1.1.1.1.2s-.1 0-.2 0zm.4-.2h-.2v-.2h.3c.1.1.1.1 0 .2zm.1-1.6h.1a.1.1 0 0 1 .1.1v.2h-.1zm.1.8h.1c-.1-.1 0-.1 0-.2h.2c.1.1.1.1 0 .1h.1c0 .1-.1.1-.1.2a.2.2 0 0 1-.2.2h-.1zm.1.9h.1a.1.1 0 0 0-.1-.1zm.2 1.6zm.1-.5zm0-3.8h.2a.1.1 0 0 1-.1.1c-.1 0-.1 0-.1-.1zm.1 1.4zm.2 6.2zm.2.7h-.1a.1.1 0 0 1 .1.1zm0-1.7zm0-1.3zm.3 1.2zm0-2zm0-1.8c-.1 0-.1 0-.1-.1h-.1a.1.1 0 0 1 .1-.1h.1zm0-1.2h.2a.1.1 0 0 0-.1.1h-.1zm.2 4.4h-.1v-.2h.1zm0-.9zm.1 1.2zm.2 2.6zm.1-2zm0-4.1H41a.1.1 0 0 0-.1-.1h.2zm.2 5.3zm0-4.6zm.1-4.7a.1.1 0 0 1-.1-.1h.1zm.1-3.5c-.1 0-.1 0-.1-.1h.1zm0 2c0-.1 0-.1.1-.1h-.1zm0 2h.1a.1.1 0 0 1 .1.1h-.2zm.2 4.8c.1.1 0 .1 0 .1zm0-1.3zm-.1 1.7h.1c0 .1-.1.1-.1 0zm.1 1.8zm.1-4.6a.1.1 0 0 1 0-.2zm0-1c0 .1 0 .1-.1.1h.1zm0-4.8zm.2 5.5s.1.1 0 .1zm0 7.6zm.1-5.4zm.1-6.7zm.1-.5zm.1 1.2zm0 4.8zm0-2.2h-.1c0-.1.1-.1.1-.2a.1.1 0 0 1 .1.1.1.1 0 0 0-.1.1zm0-6.2a.1.1 0 0 1-.1.1h.1zm.1 5.9zm.1.9zm.1 2.5zm-.1 2.5h.1s0 .1-.1 0zm.1-.2h-.1a.1.1 0 0 1 .1-.1zm.4-7.6zm0-1.3zm.1 5.1zm0-10.8zm.6 3.5zm.5 7.2zm-9.6 10.8zm-.2-2.3zm-.7.3h-.1a.1.1 0 0 1 .1 0zm-.6-1.6zm-1.1-.4h.1a.1.1 0 0 1-.1.1c-.1 0-.1-.1 0-.1zm0 1.7zm-.2-2.2zm-7 15.3h-.3a.1.1 0 0 1 0-.2h.3zm7.3 15.5zm-.1-.4c.1.1.1.1 0 .1a.1.1 0 0 1-.1-.1zm-1.3 1.4zm.2-1zm.6.5c.1 0 0 0 0 0zm0-.6zm.2-.5zm0-.8h-.2c.1 0 0-.1 0-.1h.2zm-.4-.8h.4v.2h-.3zm-.1 2.5zm-.1-1.7c.1 0 .1.1 0 .1zM31 98h.1c.1.1 0 .1 0 .1a.1.1 0 0 1-.1.1c-.1-.1-.1-.2 0-.2zm-.2 2.4zm0-.4zm-.2-.6zm0-1.8h.1a.1.1 0 0 1 .1.1h-.2c-.1 0-.1 0 0-.1zm-.1.5zm-.1-.7zm-4.1.4h-.1c-.1-.2 0-.2 0-.2h.1zm-.6 1.9zm-.7 3a.1.1 0 0 1-.1-.1c.1-.1.1-.1.1 0h.1a.1.1 0 0 1-.1.1zm0 .7c.1-.1.1 0 0 0zm-.6-2.5zm.1 1.9zm-.7-.9c.1-.1.1 0 .1 0h.1a.1.1 0 0 0-.1.1zm.1.4zm-.2-1.7zm0-3.7h-.2c-.1 0-.1-.1 0-.1h.3c.1.1 0 .1 0 .1h-.1zm.1 1.6h.1c-.1.1-.1.1-.1 0-.1.1-.1 0 0 0zm0-.2h.2a.1.1 0 0 1-.1.1zm0 .5zm.4-1.6h.2v.2h-.3zm.5.2h.1c0 .1 0 .1-.1.1h-.3v-.2a.1.1 0 0 1 .1-.1h.3zM25 94zm.1.1h-.2c0-.1 0-.2.1-.2zm-.2 1zm.2.4zm-.4 4.2zm0-.3zm.3-1.8zm0 3.1h.2v.2h-.3c0-.1 0-.2.1-.2zm.1-.4H25c-.1-.1 0-.1 0-.2h.2c.1.1.1.1 0 .2zm.1-.4h-.1v-.2h.2a.1.1 0 0 1 .1.1h-.1zm0-2.3zm-.1-1.2zm-.2 1.7c0 .1.1.1 0 .1zm-.4.5a.1.1 0 0 1 .1.1h-.1zm-.3-.5zm.1 1.3zm.3 2.8c-.1.1 0 0 0 0zm0-1v-.2h.3v.2h-.3zm.3.4c-.1 0-.1 0-.1-.1s0 .1.1.1zm.2 0h.4v.2h-.3zm.8-5.3zm0 .5zm0-2.2h-.5c0-.1-.1-.1 0-.2h.6v.2zm-.2 1.7a.1.1 0 0 1 .1.1h-.1zm-.3.6h.2a.1.1 0 0 0-.1.1h-.1zm0 3.4h.1a.1.1 0 0 1-.1-.1zm-.1 1.7h.2v.2c-.1 0-.1 0-.1-.1h-.2v-.1zm0 .3h.2v.2h-.3zm.1 1.1a.1.1 0 0 1 .1-.1h-.1zm.1-4.9h-.1c0-.1 0-.1.1-.2zm.5-.8h-.4a.1.1 0 0 1-.1-.1l.2-.2h.4v.2H26zm.1-2.2a.1.1 0 0 1 .1.1zm0 1h.3a.1.1 0 0 1-.1.1h-.1zm.3.5a.1.1 0 0 1 0 .2zm.1 1.3zm0-2.5h-.2c0-.1 0-.2.1-.2h.1c.1.1.1.1.1.2zm-.4-3zm.1.6h.1c.1 0 .1 0 .1.1s.1.1 0 .2h-.2zm.1-2.4zm-.2 1h.1a.1.1 0 0 1-.1-.1zm0 2.6h.1a.1.1 0 0 1 0 .2H26s-.1-.1 0-.1c-.1-.1-.1-.1 0-.2h.1zm-.2-4zm-.3.1zm0 2.1zm-.2 1.1c.1-.1.1 0 .2 0h-.1v.1zm-.1 1.9h.3c0 .1 0 .2-.1.2h.1a.1.1 0 0 1-.1.1h-.2zm0-1.1h-.2c-.1.1-.1 0-.1 0h.1a.1.1 0 0 0 .1.1h.1zm-.1-2.9zm-.3-.5h.2a.1.1 0 0 1 .1.1h-.3zm.1 1.1zm-.3-.4zm-.1 3.3h.2c0 .1 0 .1-.1.1h-.1zm0 .7h.5v.2h-.7a.1.1 0 0 1 .1-.1h.1zm-.1-.3h-.2a.1.1 0 0 1 0-.2h.2c.1.1.1.1 0 .2zm-.2-.5zm0-2.3h-.1c.1-.1.1-.1.1 0zm-.1.3zm-.1 2h.1c.1 0 0 .1 0 .1zm-.1 2zm0-.2a.1.1 0 0 1-.1.1h-.1V97h.2zm-.2-1.4zm0-.3zm-.1-1.1c.1-.1.1-.1 0 0zm-.1-1.4a.1.1 0 0 1-.1-.1zm-.1.9h.1a.1.1 0 0 1 .1.1h-.2zm-.1 2.3a.2.2 0 0 1 .2-.2c0 .1-.1.1-.1 0h-.1zm-.1 2.1h.2a.1.1 0 0 1-.1-.1.1.1 0 0 1-.1-.1zm-.4-4.4h.1a.1.1 0 0 1 .1-.1l.2.2h-.4zm.5 8.4a.1.1 0 0 1-.1.1c0-.1-.1-.1 0-.1h.1zm0-.5zm-.1-1.7h.1a.1.1 0 0 0-.1 0zm-.1-1.1zm-.2.8c-.1-.1 0-.1 0-.1zm-.1.7c.1 0 0 .1 0 .1zm0 1.8h-.1v-.2zm-.7-3.9zm.1 1.2zm0-2.4zm.1 3.2zm.2-2.4zm0 1.3zm.2-1.1c-.1 0-.1-.1 0-.1zm.1-.5zm.1.7zm.1-2.1zm-.2-.7zm.3 2.6zm-.4-3.5zm0 2.3zm0 .2zm-.1-.7zm-.1-1.4zm-.2-.1zm-.1.5zm-.1 3.6h-.1c0-.1 0-.1.1-.1zm0-.2zm-.2-2.1zm0 3zm-.2-2.2h.1c.1 0 0 .1 0 .1h-.1zm0 .5h.1c.1 0 0 .1 0 .1h-.1zm-.5.9zm0-.4h.1a.1.1 0 0 0-.1 0zm.1 3.8zm.2-3.4s.1.1 0 .1zm.1 2.2zm.1 2zm.2-1.6zm.1.2zm.1-.9H22a.1.1 0 0 1 .1-.1h.1zm0 1.8zm.2.8c0 .1-.1.1-.1 0h.1zm.2-.6zm0-1.9zm.1-.9c.1 0 .1 0 0 0zm0-.5a.1.1 0 0 1 .1-.1h-.1zm.2 3zm.1-1.7zm0 3.9zm.1.5zm0-3.1zm.3 2.1zm-.1-1zm.2-.4h-.2c-.1 0-.1 0-.1-.1h.3zm0-3.1c-.1 0-.1 0-.1.1h.1zm0-.4zm.1 4.7h-.1c.1 0 .1 0 .1.1zm.2 1.7zm.1-1.2zm0-1.1a.1.1 0 0 1 .1.1l-.1-.1zm.2 2.4H24c0-.1-.1-.1 0-.2 0 .1.1.1.1.2zm0-1.8H24c.1 0 .1 0 .1.1zm.1-2.7zM24 100c.1-.1.1-.1.1 0h.1c0-.1 0-.1-.2 0zm.2-.5zm0 .3zm.3 4.1zm.3 1.1zm0-1h-.3c0-.1.1-.2.3-.2zm.1-.3zm.2 2.1zm.2.2h-.1c-.1 0 0-.1 0-.1h.1zm0-1.4zm.1-.7zm.3 1.6h-.2a.1.1 0 0 1 .1.1h.1zm0-.4zm.1-.4zm0-3.4zm0-2.2h-.1a.1.1 0 0 1-.1-.1v-.2h.7c-.1 0-.1-.1 0-.1a.1.1 0 0 1 .1-.1h-.1a.2.2 0 0 1 0 .3h-.5zm.9 1.2zm.1 1.8h-.1c-.1 0-.1 0-.1-.1h.2zm0 .5h-.1.1zm0-1.3zm-.4.9zm-.1-2.1c-.1.1-.1.1-.2 0h.2zm-.1-.3zm-.2.8h.4v.2h-.2v.2H26a.1.1 0 0 1 0-.4zm.1.5v.2H26c-.1-.1 0-.1 0-.1h.1zm-.1.6zm0 .8s-.1.1 0 0zm.2 3.4h-.1a.1.1 0 0 1 .1-.1zm.1 1.2zm.1-3.9h-.2a.1.1 0 0 1 .1-.1h.1v.2zm0-.7h-.2v-.2h.4c0 .1 0 .1-.1.2zm.2.1h.2v.2h-.1zm.2 2.2h-.1c-.1 0-.1-.1-.1-.2h.2zm.1-1.7zm0-1.5c0-.1-.1-.1 0-.1zm.1-.8h-.2a.1.1 0 0 1 .1-.1h.2v.2H27zm-.1-1.7zm.2 7.1zm.9-7.6zm0 .1zm-.2.5h.1c0 .1-.1.1-.1.2h-.4a.1.1 0 0 1 .1-.1h-.1c0-.1 0-.1.1-.1h.3zm-.4 1.3h.2c-.1 0-.1 0-.1-.1h-.1zm0 .4h-.1c0-.1 0-.1.1 0zm-.1 3.4h.1c-.1 0-.1.1-.2 0h.1zm.1-3.1h.1v.2zm.1 2.5zm.1.6h.1a.1.1 0 0 1 0 .2h-.1zm0-.9a.1.1 0 0 1 .1-.1h.2a.1.1 0 0 1 .1.1h-.4zm.3-.7h-.3v-.2h.2zm-.5-3.4h.1a.3.3 0 0 1-.1 0zm-.2 3.5zm0 3.6zm.2-1.3h-.1a.1.1 0 0 1-.1-.1h.2zm.3 1.4zm.3-.1h-.2c-.1 0-.1-.2 0-.2h.2zm.1-1.8h.1zm0-.5c0 .1 0 .1-.1.1h.1zm.1-1.9h-.3a.1.1 0 0 1 .1-.1h.1c.1-.1.1 0 .1.1zm-.1-.7zm.2 2.2a.1.1 0 0 1-.1-.1h.1c.1 0 .1 0 .1.1zm.1-1.1zm0-.4zm.1.6zm.2 2.5zm.1-1.6zm0-.4h-.1a.1.1 0 0 1-.1-.1h.2v.2zm.1-1.9zm.1.8zm-.1-2.3zm0-.2c.1.1.1.1 0 .2zm.1-.7s-.1 0 0 0zm0 5.2zm.4.8h.2c.1 0 .1 0 .1.1h-.3zm0-5.2h.1c-.1-.1 0-.1 0-.1h-.1zm.1 1.4zm.1 2.4a.1.1 0 0 1 0-.2zm.1 1h-.1a.1.1 0 0 1-.1-.1h.2zm-.1-2.8h.2c-.1.1-.1 0-.2 0zm.2-1.1zm-.2 0c.1 0 .1.1 0 .1zm-.2.2zm.2 5.5zm.1.6zm.2.5zm.3-3a.1.1 0 0 1-.1.1h.1zm0-1.1zm.2 1.8h.1a.1.1 0 0 1-.1 0zm3.2.5zm-.7-2.6h.1a.1.1 0 0 0 .1.1h-.2zm-1 1.3zm-.1 2.3zm-.1-4.4zm-.3 2.6zm-.3-3.1h.1a.1.1 0 0 1-.1.1zm-.2 5.9h-.1a.1.1 0 0 1 .1 0zm-.1-5.1zm-.1-.1c-.1 0-.1 0-.1.1h.1zm-.2-.7h.1c-.1 0-.1 0-.1-.1zm0 .1zm-.3-.6zm-.1.3zm.1.7zm-.2-3.5zm0 5.4zm-.1-1.9h-.2a.1.1 0 0 1 .1-.1h.1zm-.1-3.3h-.1c-.1.1-.1 0-.1 0h.2zm-.4-1.1zm0 .8h.1a.1.1 0 0 1 0-.2h-.1zm-.2-.8h.1c0 .1-.1 0-.2 0v-.2h.1zm-.3-.3zm0 3.1zm-.1-.2zm-.1-2.6s-.1-.1 0-.1zm0 .9zm-.2.9zm-.2-1.7h.1a.1.1 0 0 1-.1-.1zm-.1.4h.2c0 .1.1.1 0 .2h-.1c-.1 0-.1 0-.1-.1v-.1zm-.4-1zm-.1.7zm-.2-.8h.1a.1.1 0 0 1 .1.1v.2h-.3c-.1-.2-.1-.3.1-.3zm-.2 1.3zm-.4-.3h.2c.1.1.1.1.1.2h-.3zm-.2-1.9a.1.1 0 1 1 .2 0h-.2zm0 2.2zm.4-5.2h-.4v-.2h.3zm0-2h-.2c0-.1 0-.1.1-.2h.1zm0-.3zm.2 1.4zm.1-.4zm.1-.6zm2.6-2.3H30a.1.1 0 0 1 .1 0zM27 85.9h-.3a.1.1 0 0 1 .1-.1h.1c.1 0 .1 0 .1.1zm.9-.6h-.3c-.1-.1 0-.1 0-.2h.3zm1.2 2.2zm.5-1.6zm.2 1.2zM28 90.4h.1v.2H28zm.1.4c-.1 0-.1-.1 0-.1zm.3-.2zm.3.1h-.2a.1.1 0 0 1 .1-.1h.1zm0-1.2h.1c0-.1-.1-.1-.1 0zm.4 1.9zm.4-.5zm.6-1.3h-.2a.1.1 0 0 1-.1-.1v-.2h.2a.1.1 0 0 1 .1.1h.1zm.4-.3v.2zm.6.9h-.3c0-.1 0-.2.1-.2zm.3-3.1c0-.1 0-.1.1-.1a.1.1 0 0 1 .1.1h-.2zm.3 1.9h-.2v-.2h.2zm.2-2.4h-.1c0-.1 0-.1.1 0h.1c0-.1 0 0-.1 0zm.6 2.2zm.9.6h-.2c-.1 0 0-.1 0-.1h.2zm.2-2.3a.1.1 0 0 1-.1.1.1.1 0 0 0-.1-.1h.2zm.3-.5zm.4 2.4H34v-.2h-.1v-.2h.4zm.3-3zm1.4 0zm1 3h-.1a.1.1 0 0 1 .1.1zm.4 0zm.4-2.1h.1c0-.1 0 0-.1 0zm.9 1.3zm0-2.1h-.2v-.2c.1 0 .2 0 .2.1zm.4 2.8h-.3c0-.1 0-.1.1-.2h.2zm1.2-1h-.2a.3.3 0 0 1-.1-.2h.3zm2.4-.6zm35.8-.9h.1c.1.1 0 .1 0 .2h-.1zm.2 1.2zm.1-.7h-.2c-.1-.1-.1-.1 0-.2h.2a.3.3 0 0 1 .1.2zm-.2-3.6zm.1 2.1zm-.1 2.9h-.1V88h.1v.2zm.4-.4h-.3a.2.2 0 0 1 .2-.2h.1zm0-2.9zm.5 1c.1-.1.1 0 0 0zm-.2-.6zm.1.5zm-.2-2.3zm.4.4zm0-.1s-.1 0 0-.1zm.1-.9zm-.1-.5h-.1a.1.1 0 0 1 .1.1zm-.1.2c-.1 0-.1 0-.1-.1h.1zm.1 2.8zm0-.8zm.2-2.5h.2v.2h-.2zm.1 3.1zm-.1 1.3zm.1-.4zm.2-1zm.2 1.1h-.1v.2h-.1a.1.1 0 0 1-.1-.1h.3zm.3-.7h-.2c-.1-.1-.1-.1 0-.2h.2zm-.3-3.3zm0-.1c.1 0 .1 0 .1.1h-.1zm.5 2.3zm0-.2h-.2V84h.3a.1.1 0 0 1-.1.1zm-.2-2.5h-.2a.1.1 0 0 1 .1-.1h.1zm.1 2.6zm.5 1.8h-.1c0 .1-.1.1-.1 0h-.3a.3.3 0 0 1 .1-.2h.4zm.2-.5h-.3c-.1-.1-.1-.1 0-.2h.3zm.2-6.5c0 .1-.1.1-.1.2h-.2c.1-.2.2-.3.3-.2zm-.2-.2zm.2 3.3h-.1a.1.1 0 0 1 0-.2h.3a.1.1 0 0 1-.1.1zm0 1.8zm-.3-4.4s.1-.1.1 0h.1a.1.1 0 0 1-.1.1h-.2c-.1-.1-.1-.1 0-.2zm-.2-1.1H81v-.2zm.1 4.4h.3v.2h-.4c-.1 0-.1-.1 0-.2zm.4 2.1zm.1-.6h-.4c-.1 0-.1 0-.1-.1s-.1 0 0-.1h.2a.1.1 0 0 1 .1-.1c.1 0 .1 0 .1.1h.1zm.1-2h-.1a.1.1 0 0 1 .1-.1zm.4 1.9zm.3-.4zm.5-7.3a.1.1 0 0 0-.1-.1h.1zm0-2.9h.1c-.1.1-.1 0-.1 0zm-.1 3.8c.1-.2.1 0 0 0zm0 4.3h-.4c-.1-.1-.1-.2 0-.2h.3a.1.1 0 0 1 .1.2zm-.2.7zm-.3-1.7h.1a.1.1 0 0 1 .1.1h-.2zm.2-5.7h.1c.1.1.1.1 0 .1zm0 3.7zm0 1.1h.2c.1 0 .1.1 0 .2h-.2zm-.1.3h.1a.1.1 0 0 1 .1.1h-.3c-.1 0-.1-.1-.1-.2h.2zm-.1 1.2zm-.1 1.8zm0-6.5zm-.1 5.2zm.3 1.5zm.3-.6h-.2c0-.1 0-.1.1-.1h.1zm0-.3h.1s0 .1-.1 0zm.3 0h-.2v-.2h.3zm-.2-1.6a.1.1 0 0 1 .1-.1h.2v.3h-.3zm.7.4h-.2c-.1 0-.1-.1-.1-.2h.4zm0-.8zm.4-1.7zm.2-2.3zm-.1.8zm0 1H84a.1.1 0 0 0 .1.1zm-.4-1.9zm-.1 2.7a.1.1 0 0 1 .2 0h-.2zm-.2.6h.1c0-.1.1-.1.1 0h-.2zm-.1 1h.3v.2h-.3zm-.1-.4zm0-.5zm-.3-9.2c0-.1 0-.1.1-.1h-.1c-.1.2-.1.1 0 .1zm-.1 3.1h-.2c0-.1.1-.1.2-.1zm-.3-4.2h.2a.1.1 0 0 1 0 .2c-.1.1-.1.1-.2 0h-.1a.1.1 0 0 1 .1-.2zm0 8.8zM82 73zm0 8.9c0 .1-.1.1-.2 0h.2zm-.1-.6h-.2a.1.1 0 0 1 .1.1zm-.2-4.7h-.2c-.1 0-.1-.1 0-.2h.2zm-.1-2.2zm-.2 1.7zm-.2-.4h.2c0 .1-.1.1-.1.2h-.2c0-.1 0-.2.1-.2zm-.3 2.2zm-.1 1.8c0-.1 0-.1.1-.1h.1c.1 0 .1 0 .1.1h-.3zm.1 1.5zm.1 1.3zm-.2.1h.2a.1.1 0 0 1 0 .2h-.2zm-.1-4.6zm0 1zm-.1-1.4zm-.1 2.6h.1c.1 0 .1 0 .1.1h-.2zm0 .2s.1 0 0 .1zm-.2-1.2h.2v.2h-.2c-.1-.1 0-.1 0-.2zm-.1 1.5a.1.1 0 0 1 .1-.1h-.1zm0 3.4a.1.1 0 0 1 .1.1c.1 0 .1.1 0 .1h-.2c0-.1-.1-.2 0-.3h.1zm-.1-2.8c0 .1 0 .1-.1.1h.1zm-.2-7.1zm-.1 6.4h.1a.1.1 0 0 1-.1.1zm-.1-5.3zm-.1 1.4zm-.1 4.8s0 .1-.1 0h.1zm-.1-2zm0 .3h-.1.1zm-.2 3.2zm0 .3zm-.1 3.8h.1c.1 0 .1 0 .1.1h-.2V87zm0-2.5zm-.2-7h.1c-.1-.1-.1 0-.2 0h.1zm-.2.2h.1c0 .1 0 .1-.1.1zm0 1.5zm0 2.1zm-.3 0zm0-1.2zm-.2 1.2zm-.2 1.2zm0 2.4h.2a.1.1 0 0 0-.1.1H78zm0 0zm.1-.2zm-.2-4.8zm-.1 2.9zm-.1 2.3zm-.1-5.4zm-.1 4.7zm-.1-1.5zm0 .7zm-.1 1.2c-.1-.1 0-.1 0-.1zm0 .3zm.1 1.4c-.1 0-.1 0 0-.1zm.2-4.2zm-.1-.2zm-.1-5.5zm-.2 2.4zm-.1 1zm0 4.5h.1c-.1 0-.1 0-.1-.1zm0 .9H77a.3.3 0 0 1 .1 0zm-.2-.9zm.1 1.6h.1s0 .1-.1 0zm0 0h.1a.1.1 0 0 1-.1.1zm-.1-2.7zm-.1 1.1zm-.2-1.2zm-.1 3zm-2.3-25.2zm1.9 24.6h-.2c0-.1.1-.1.2-.1zm0-.2zm-.3-3zm0 1.5zm-.1-.5a.1.1 0 0 0 .1.1h-.2a.1.1 0 0 1 .1-.1zm-.4 5.1zm.1-.7c0 .1-.1.1 0 0zm.1-.2h-.3a.3.3 0 0 1 .1-.2h.3c0 .1.1.1.1.2h.1v.2h-.3zm.1-.9zm-.1-1.8zm.1-.8a.1.1 0 0 1-.1-.1zm-.2-1.7zm-.2 3.3h.1v.2zm-2.3-25.5zM75 85.2zm-.2-.7c0 .1 0 .1-.1.1h.1zm-.2.6zm-.1 1.2zm-.3-2.2h.1a.1.1 0 0 0-.1-.1zm0 .8zm-2.1-24.2a.1.1 0 0 1 .1.1h-.1zm2 25.8zM72 61.2zm-.3-.5h.2c0 .1 0 .1-.1.1s-.1-.1-.1-.2zm-.5 2.2h-.1c0 .1 0 .1.1 0zm-.9-3.1c.1 0 .1 0 .1.1h-.1zm0 3.4zm-.2-2.5h.1a.1.1 0 0 1-.1-.1zm-.1 1.6a.1.1 0 0 1-.1.1h.1zm.1-5.6h-.2c-.1 0-.1-.1-.1-.2h.3zm-1.6 3.2h-.1a.1.1 0 0 1 .1-.1zm-.6 4.2h.2a.1.1 0 0 1-.1.1h-.1zm-.3-3.7h-.1a.1.1 0 0 1-.1-.1h.2zm0-.7h-.2c0-.1 0-.1.1-.1h.1zm-.3-3.6c-.1.1-.2.1-.2 0s0-.1.1-.1h.1a.1.1 0 0 1 .1.1h-.1zm0 2.1zm-.4-4.8zm0-3zm.1 6.2zm0 1.9h.1c-.1 0-.1 0-.1-.1zm.1 3.6zm.2-7.5h-.1c0 .1 0 .1-.1 0s0-.1 0-.1h.2zm0 .8c.1.1.1.1 0 .2zm-.2-2.1zm.3.2h-.2a.1.1 0 0 0 .1-.1.1.1 0 0 1 .1.1zm.2-.3zm.1 1.4zm-.3-2.7c0 .1 0 .1-.1.1h.1zm0 .9zm0-2.3zm-.1-15.8h.2a.1.1 0 0 1-.1.1h-.1zm.1.6v-.2h.1v.2h-.1zm.1-.3h-.1c0-.1 0-.1.1-.2zm0-1.4h-.1c0-.1.1-.1.1 0zm0-1.4zm-.1 22.9h.2a.1.1 0 0 0 .1.1v.2h-.2c-.1 0-.1-.1-.1-.2zm.2 2.4a.3.3 0 0 1-.1-.2h.1zm.2-1.3h.1a.1.1 0 0 1 .1.1h-.2zm0-2.6zm0-1.3h.1c.1.1.1.1 0 .1a.1.1 0 0 0-.1-.1zm.2 10.4zm.1-5.5zm.2-2.1H68c-.1-.1 0-.1 0-.2h.1c0-.1.1-.1.1 0h.1zm0-19.4c-.1 0 0 0 0 0zm0-1.2c-.1 0-.1 0 0-.1a.1.1 0 0 1 .1.1h-.1zm.1 8.4zm-.2-11.1c-.1-.1-.1-.1 0-.1zm0-1.4v-.2h.1c0 .1-.1.1-.2 0zm.4 24zm-.3-3.4h-.1c0-.1 0-.1-.1-.1h.2zm0 .4zm.2-2.3zm-.1-3.7h.2a.1.1 0 0 1-.1.1h-.1zm0-.1zm0 7.1zm0 2.4h.1a.1.1 0 0 1 .1.1h-.2zm.4-1.2zm0-4.3zm0-16zm0-1.4h-.2c-.1-.1-.1-.1-.1-.2h.1c.1 0 .1 0 .1.1zm-.3-.3h.1a.1.1 0 0 1-.1 0zm-.2 15.2h-.2c0-.1 0-.1.1-.1h.1zm0 10.8zm.1 4.8h.1c0 .1 0 .1-.1.1a.1.1 0 0 1-.1-.1zm.2-2.9c-.1 0-.2-.1-.1-.2h.3c0 .1 0 .1-.1.1h-.1zm.1 1.9c.1-.1.1-.1.1 0s0 .1-.1.1zm.1-3.6zm-.1-.5h.2a.1.1 0 0 1 .1.1h-.1a.1.1 0 0 1-.2-.1zm.2-1.7h.1a.1.1 0 0 1 .1.1h-.2zm1-17.8zm-.1-2zm.3-2.7h.3c0 .1 0 .2-.1.2h-.2v-.2zm.7 1.1h.3c0 .1-.1.1-.2.2h-.1zm0-.9zm.4.5v.2h-.4a.1.1 0 0 1 .1-.1h.3zm.2 5.4zm0-.5zm0 1.7h.1a.1.1 0 0 1-.1 0zm.1 3.5zm-.1 7.3zm0-3.5h.1a.1.1 0 0 1 .1.1h-.2zm.2 6.3h-.1c-.1-.1-.1-.1-.1-.2h.3a.1.1 0 0 1-.1.1zm0 .6zm-.3-1.9h-.2c0-.1 0-.1.1-.1s.1 0 .1.1zm-.9 2.5h-.1a.1.1 0 0 0-.1-.1h.2zm0 .3h-.1c0-.1.1 0 .1 0zm-.2-2.9zm-.2 3.5h-.1a.1.1 0 0 1 .1.1zm-.6.5h.2c.1.1.1.1.1.2a.1.1 0 0 1-.1.1h-.1c-.1-.1-.1-.2-.1-.3zm-.5-4.5h.2v.2h-.2zm.1-11.7zm.3 8.6h-.2a.1.1 0 0 1 .1-.1h.1zm.1-.3zm.2 2.9h-.2v-.2h.2zm0 1.5zm-.3-2.2zm.3.1c0 .1-.1.1-.1 0h.1zm0-.1h-.1a.1.1 0 0 1-.1-.1h.2zm0-1.1zm.1-2.1h.1a.1.1 0 0 0 .1.1h-.2zm-.1 0zm-.1-5.9zm0-4.5zm-.1 9.1zm-.1 3.2zm-.3-1.7h-.1a.1.1 0 0 1 .1-.1zm.1-6.8zm.1 6.7zm0-11.7h.1a.1.1 0 0 1-.1 0zm.1-.7h-.1c-.1 0-.1-.1 0-.1h.1zm-.1.1zm-.1 5.4c-.1 0-.1 0-.1-.1a.1.1 0 0 1 .1.1zm-.2 11zm.2 1.3c0-.1 0-.1.1-.1a.1.1 0 0 1 .1.1h.2a.1.1 0 0 1-.1.1h-.3zm.1.4h-.1c.1-.1.1-.1.1 0zm-.1.1h.2c0-.1.1-.1.1 0a.1.1 0 0 1-.1.1h-.1a.1.1 0 0 1-.1-.1zm.1.4c.1.1.1.1 0 .2zm0 4.1zm.1-4zm.2 1h.4c.1.1.1.1 0 .2a.1.1 0 0 1-.1.1.1.1 0 0 1-.1.1h-.1a.1.1 0 0 1-.1-.1.1.1 0 0 1-.1-.1h.1zm.5-.6h-.1c.1 0 .1 0 .1.1zm-.1-.2zm0-3.4zm0 2zm0-3.5h-.1a.1.1 0 0 1-.1-.1h.3c0 .1 0 .1-.1.1zm.2-5.3zm.2 1.8zm0 1.6zm-.1-5.6h-.1a.1.1 0 0 1 .1-.1zm-.2-2.5h-.1a.1.1 0 0 1 .1-.1zm-.1 4.4zm.1 3.6zm0 5.9h.1c-.1.1-.1.1-.1 0zm.4-2.1a.2.2 0 0 1 .3 0h-.3zm0-12.7c-.1-.1 0-.1 0-.1zm0 0zm.1 10.5zm.8-8.3v.2h-.1v-.2zm0-.7zm-.2-1.2a.1.1 0 0 1-.1-.1h.1c.1 0 .1.1 0 .1zm.1.3h-.1c0-.1.1-.1.1 0zm-.1 7.3zm0-4.2zm.1-1.2h-.1c.1-.1.1 0 .1 0zm0-.6zm0-3.8zm-.1-1.6zm0 1.1a.1.1 0 0 1-.1.1h.1zm-.2 5.9zm0 1h-.2c.1 0 .1-.1.1 0h.1s.1.1 0 .1zm0 4.1zm-.1-5.9zm-.1 4.2h-.1a.1.1 0 0 0 .1-.1zm.2 4.2zm0 .1h-.1.1zm-.2 1zm0-4.6h-.1c0-.1 0-.1.1-.1zm-.1-3.4h.1c0 .1-.1 0-.1 0zm0 .9h-.1a.1.1 0 0 1 .1-.1zm0-6h-.1a.1.1 0 0 1 .1-.1zm.1 6.2zm-.1 10zm.2-1zm-.1-.2zm.2-.5c-.1 0-.2 0-.2-.1h.3a.1.1 0 0 1-.1.1zm.4-.9zm-.2 2.2H71c0 .1 0 0 .1 0zm0 1c-.1 0 0 0 0 0zm.2-5.3H71a.1.1 0 0 0-.1-.1h-.2a.1.1 0 0 1 .1-.1h.2a.2.2 0 0 1 .3.1zm-.2-.9zm.2-.6h-.2c-.1-.1 0-.1 0-.2h.2zm-.1-1.3zm.1-4.5c-.1-.1 0-.1 0-.2h.1c-.1 0 0 .1 0 .1h-.1zm0-6.3h.1a.1.1 0 0 1-.1.1zm-.5 4.6v.2zm-.1-4.4zm-.3-1.1h.1a.1.1 0 0 1-.1 0zm-.3 2.1h.1c0 .1 0 .1-.1.1zm0 .9zm-.4 6.9h.2a.1.1 0 0 1-.1.1h-.1c0-.1 0-.1.1-.1zm.2 1.3h-.2c.1-.1.1 0 .2 0zm-.2-11.7zm-.1-.2h-.1a.1.1 0 0 1-.1-.1h.2zm-.1 2.4h-.2a.1.1 0 0 0 .1.1zm-.2-1.4a1990328647664.3 1990328647664.3 0 0 0-.2-.2h.2zm-.1-1.2H69a.1.1 0 0 1 .1-.1h.1zm-.1-.8zM69 56.3zm.2 2.7h-.1a.4.4 0 0 1 .1 0zm-.1.6h.3c.1 0 .1 0 .1.1h-.4zm.4-1.7h-.1v-.2h.2v.2h-.2zm0 1.3h.2c-.1 0-.1 0-.1.1h-.1zm.1 3.1zm.1-1.2zm.4-4.6zm0-2.6c-.1.1-.1 0-.2 0h.1l.2.2h-.1zm.1 2.1h.2c.1.1.1.1.1.2h-.1c-.1 0-.2 0-.2-.1zm.2 3h.1a.3.3 0 0 1-.1 0zm.1-4.8zm.2 1.3zm.2 2.3h-.1c.1 0 .2 0 .2.1a.1.1 0 0 1 .1-.1s-.2.1-.2 0zm.3.4a.1.1 0 0 1-.1.1h.1zm.2-.4zm0-1zm.4.6h-.1c0 .1 0 .1-.1.1h.2zm-.2-.9zm-.1-.7h.2a.1.1 0 0 1-.1.1.1.1 0 0 1-.1-.1zm.2-.2h-.1c.1 0 .1 0 .1.1h.1a.1.1 0 0 1-.1-.1zm0-6.8c.1 0 .1 0 .1.1a.1.1 0 0 1-.1-.1zm.2-14.8h.1a.1.1 0 0 1-.1.1zm.3 4.4zm.1-.2h-.1c0-.1 0-.1.1-.1zm0-1.1zm.1.5h-.1v-.2h.1zm-.1.6zm.8 2.1v.2zm.8-2.9c0 .1-.1.1-.2.1h.1a.1.1 0 0 1 .1.1zm.3 4.2h.1v.2h.2v.2h-.3c-.1 0-.1.1-.1 0H74zm-.1-2.4a.1.1 0 0 1 .1-.1h.2v.2h-.2zm.4 1c0-.1.1-.1.1-.2h.2a.1.1 0 0 0 .1.1h-.3a.4.4 0 0 1-.1.3h-.1c-.1-.1-.1-.1-.1-.2a.1.1 0 0 1 .1-.1h.1zm.3-.6h.1a.1.1 0 0 1-.1 0zm.2 2.3a.1.1 0 0 1 .2 0v.2h-.3a.1.1 0 0 1 .1-.2zm0-.9h.2c0 .1 0 .1-.1.2H75zm-.3 7.4h.1a.1.1 0 0 1 .1.1c0 .1-.1.1-.1 0h-.1zm-.3 1.2v-.2h-.2a.1.1 0 0 0-.1.1h.1c0-.1.1 0 .1 0a.1.1 0 0 1 .1-.1c.1 0 .2 0 .2.1h.1a.1.1 0 0 0-.1.1s.1.1 0 .1h-.2s-.1-.1 0-.1zm-1 3.6h-.1V53h.3c0 .1 0 .1-.1.1h-.1zm-.1-4.7c-.1-.1-.1-.2 0-.2zm-.2 4v.2h-.4a.2.2 0 0 1 .2-.2.2.2 0 0 1 0-.3h.2zm-.7 2.2h-.3s-.1.1-.1 0-.2 0-.2-.1h.2a.1.1 0 0 0 .1.1h.4c0 .1 0 .2-.1.2zm.1.9zm-.1-.7zm-.5-4.6c0 .1 0 .1-.1.1h.1zm0-2.6c.1-.1.1-.1.1 0h.1c0 .1 0 .1-.1.1h-.1zm0-11.3a.1.1 0 0 0-.1.1.1.1 0 0 1-.1-.1h.2zm-.1 1zm0 6.7h-.1a.1.1 0 0 1 .1 0zm.3-.3h.1c.1 0 .1 0 .1.1h-.2a.1.1 0 0 1-.1.1h.1zm.2 2a.1.1 0 0 1-.2 0H72c.1 0 .1 0 .1-.1h.2s.1.1 0 .1zm.1-3.8c0-.1.1-.1.1 0h.2a.1.1 0 0 1 .1.1h-.4zm0-1.6c0-.1 0-.1.1-.1h-.1zm.1.3zm0-2.5zm.3 1h.1a.1.1 0 0 1 .1.1h-.2zm.5 6.5h-.1s.1-.1.1 0zm.1-6.2h.2a.3.3 0 0 1 .1.2h-.3c0-.1-.1-.1-.1-.2zm.5.1a.1.1 0 0 0-.1.1h.1zm-.2 1.8a.1.1 0 0 1 .1.1h.1a.1.1 0 0 1-.1.1h-.2c-.1 0-.1-.1 0-.1zm.9 1h.1a.1.1 0 0 1-.1.1h-.3c-.1 0-.1 0-.1-.1h.4zm-.5 6.2zm0-.4zm.2-1.2zm.1-1.1c-.1-.1 0-.1 0-.2zm-.2-1.8h.1c0-.1 0-.1.1 0h-.2zm.5 2h-.1.1zm0-.5h.2a.1.1 0 0 0-.1.1h-.1zm.1-.6a.1.1 0 0 1 .2 0h-.3c0-.1 0-.1.1-.1zm.2.9zm0 .3h.1c.1.1.1.1.1.2a.1.1 0 0 0-.1.1h-.3a.2.2 0 0 1 .2-.3zm.1-1.7h-.2c.1 0 0 0 0 .1h.2zm-.3-1.5h-.2c-.1-.1-.1-.1-.1-.2s0-.1.1-.1h.1a.1.1 0 0 1 .1.1zm-.5.5s.1-.1 0 0zm-.1-1.2zm0 1.4h.1c0 .1 0 .1-.1.1H74a.1.1 0 0 1 0-.2h.2zm-.3 4.8zm-.1-.4zm.2-1.4zm-.5 2.8h.1a.1.1 0 0 1-.1-.1zm0-.6c-.1 0-.1-.1 0-.1zm-.5.3zm0-2.4c-.1 0-.1-.1 0-.1zm.1.5h.2c0 .1 0 .1.1.2h-.2a.1.1 0 0 1-.1-.2zm.2-1.1h.2a.1.1 0 0 1 .1.1h-.2a.1.1 0 0 1-.1-.1zm0 1.2h-.1a.3.3 0 0 1 .1 0zm.2-.3zm0-1.6h.1a.3.3 0 0 1 .1.2h-.2zm0-2.6c-.1 0-.1 0-.1-.1zm0-1.9a.1.1 0 0 1 .1-.1c0 .2 0 .2-.1.1zm.1 2.6zm0 1.1c-.1 0-.2 0-.2-.1v-.2c.1.3.1.2.2.3zm.2-.3c-.1 0-.1 0-.1-.1zm0-.8h.2c0 .1 0 .1-.1.1h-.1zm-.2 7.1zm.4-7.3h-.1c.1-.2.2-.1.1 0zm-.4-3h-.1a.1.1 0 0 1 0-.2h.2a.1.1 0 0 1-.1.2zm-.2 1.3zm-.1 5.1h-.1c-.1-.1-.1-.1 0-.1h.1zm-.1-1.6zm-.1-3.1zm0-1.1H73c-.1 0-.1-.1 0-.1h.1zm-.1 4.2h-.2c-.1 0-.1 0-.1-.1h-.1a.1.1 0 0 1 .2 0c.1-.1.1-.1.2 0zm-.1 5.8zm0-.3c0-.1 0-.1.1-.1h-.1zm-.1-.2h-.5a.1.1 0 0 1 0-.2h.5zm-.5 1.2h.1a.1.1 0 0 1 .1.1h-.2zm0 1.7h.1a.2.2 0 0 1-.2.2h.1zm.1-1zm-.3-.9zm0-.8zm0-1.2a.3.3 0 0 1 .1-.2h.1a.1.1 0 0 1 0 .2h-.2zm.6-.1h.1a.1.1 0 0 1-.1 0zm0-3.2zm.2-.3zm-.5-3h.2c.1.1 0 .1 0 .1h-.2zm.5-.4h-.1c-.1 0-.2 0-.2-.1a.1.1 0 0 0-.1-.1h.1a.1.1 0 0 1 .1-.1h.2zm0 .7zm0-1.7h-.2a.1.1 0 0 1 .1-.1h.1zm0-.4zm-.5 5.7h.2a.1.1 0 0 1-.1.1h-.1zm0 1.5a.1.1 0 0 1 .1.1h-.1zm0-1.6zm-.4-2.5zm.1 1.2zm.2-5.1zm-.1 1.1zm-.3 3.1zm.1 1h-.1c-.1 0-.1-.1 0-.1h.1zm-.1 1.3h.1a.1.1 0 0 1-.1.1zm0 1.3h.4c0 .1 0 .1-.1.2h-.3zm.1 3.5h.2a.1.1 0 0 0-.1.1H72a.1.1 0 0 1 0-.1zm0 .9h.3c0 .1 0 .1-.1.2H72a.1.1 0 0 1 0-.2zm.5 1h.2c.1.1.1.2 0 .2h-.2zm.6-3.4h-.2v-.2h-.1a.1.1 0 0 1 .1.1h.2a.1.1 0 0 1 .1.1c0-.1 0-.1-.1 0zm.5.1zm0 1.1h.3v.2h-.3zm.3.6h.1a.1.1 0 0 1-.1.1zm0-.4c0-.1 0-.1.1-.1h-.1zm.1-1h.1a.1.1 0 0 1-.1.1zm.6-1.5zm0-1.7zm0 2.5h-.1a.1.1 0 0 1 .1 0zm0 .3zm.3-1.5h.1a.1.1 0 0 1 .1.1c0 .1 0 .2-.1.2h-.2a.1.1 0 0 1 .1-.3zm.1 1.5a.1.1 0 0 1 .1.1h-.2c0-.1 0-.1.1-.1zm.1-.5h.1a.1.1 0 0 1-.1 0zm0-2.4h-.6c0-.1-.1-.1-.1-.2a.1.1 0 0 1 .1-.1h.6a.1.1 0 0 1 .1.1h-.1zm.1-3.6zm-1.1-1.3zm-.1-4.1h-.1c-.1 0-.1-.1-.2-.2h.3zm-.3.3zm-.1-1.4h-.1c-.1 0-.2 0-.2-.1s0-.1.1-.2h.2zm-.2.9h-.1c0-.1.1 0 .1 0zm-.1.2c.1 0 .1.1.1.2h-.2a.1.1 0 0 1-.1-.1v-.2h.2zm-.2 1.1h.1c-.1.1-.1.1-.1 0zm0 .4zm-.2-1.8c.1-.1.1 0 .1 0h.1a.1.1 0 0 0-.1.1zm-.1-1.3zm.2-.1c0 .1 0 .1-.1 0h.1zm0-.2zm-.1-.5zm0-.2zm-.1 1.6zm-.1-.3zm-.2 1.5zm-.1 1.2h-.2c0-.1 0-.1.1-.1s0 .1.1.1zm-.2-3.4zm-.1 1.3a.1.1 0 0 1 .1.1.1.1 0 0 0-.1.1h-.2a.1.1 0 0 1 .1-.1zm-.1 1h-.1a.1.1 0 0 1 .1 0zm-.1-5.1zm-.1.3h.1a.1.1 0 0 1-.1.1zm0 7.3c0 .1 0 .1-.1.1 0-.1 0-.1.1-.1zm-.1 2.5zm.1 5.4v.2c-.1 0 0-.1 0-.1h-.1v-.2zm0 4.9h.1a.3.3 0 0 1 .1.2h-.3c0-.1-.1-.2 0-.3zm0 2.3zm.2 1.8a.1.1 0 0 1-.1-.1h.1zm.4-.4h-.3v-.2h.1c.1 0 .2 0 .2.2zm.1-.4h-.2a.1.1 0 0 1 .1-.1h.1zm0-1.1h.1a.1.1 0 0 1-.1 0zm.1-.8a.1.1 0 0 1-.1-.1.1.1 0 0 1 .1-.1h.1a.1.1 0 0 1 .1.1.2.2 0 0 1-.2.1zm.2 1.8h.1a.1.1 0 0 1-.1 0zm.4-1.2h-.3a.1.1 0 0 1 .1-.1h.3l-.1.1zm.1-2.3zm.3.4c0 .1 0 .1-.1.1h-.1a.1.1 0 0 0-.1-.1v-.2h.3zm0-2v-.2h.3v.2h-.3zm.4 3.9zm0-1.6h-.1c-.1-.1-.1-.1-.1-.2h-.1c.1-.1.1-.1.2 0 0-.1.1-.1.1 0a.1.1 0 0 1 .1.1H74zm0-1.9h-.1V52h.3a.3.3 0 0 1-.1.2zm.2.9h-.1a.1.1 0 0 1 .1-.1zm.3.7zm0-2.9h-.4v-.2h.1c0-.1.1-.1.1 0s.1 0 .1.1h.2zm0-1zm.1 1.6c0-.1 0-.1.1-.1 0 .1-.1 0-.1 0zm.2 2.6h-.1c-.1-.1-.1-.1-.1-.2h.1a.1.1 0 0 1 .1.1zm.1-1.7h-.2v-.2h.2zm-.1-.8c-.1 0 0-.1 0-.1h.1c0 .1 0 .1-.1.1zm.2-.5h-.1c-.1 0-.2 0-.2-.1a.1.1 0 0 1 .1-.1h.2zm0-.3h-.1a.1.1 0 0 1 .1-.1zm.2.4zm.1-1h.1c-.1.1-.1.1-.1 0zm.3.4h-.2c.1-.1.1-.1.2 0zm0-1.9h.1c0-.1 0-.1-.1 0zm.2-.3zm-.2-1h.2v.2h-.3c0-.2 0-.2.1-.2zm-.2.4zm0-.4zm.1-2.7h-.1v-.2h.1a.1.1 0 0 0 .1.1zm.1-.8c0 .1 0 .1-.1.1h-.1c.1-.2.2-.2.2-.1zm-.2-1.8h-.3a.1.1 0 0 1-.1-.1h.4zm0-.9a.1.1 0 0 1 .1.1c0 .1 0 .1-.1.1zm-.4-1.4h.1a.3.3 0 0 1 .1.2H75a.1.1 0 0 1-.1-.1c0-.1 0-.1.1-.2zm-.3-1.4zm-.1.5h.2v.2h-.2a.3.3 0 0 1-.1-.2zm0 .9a.1.1 0 0 1-.1.1h-.2c-.1 0-.1 0-.1-.1h.4zm-.2-3.1zm0 1.4zm-.2-2.3h.1c0 .1 0 .2-.1.2H74V36zm-.4-.1zm-.2.5h.1c.1-.1.1-.1.2 0 0 .1-.1 0-.1 0s-.1 0-.1-.1a.1.1 0 0 1-.1.1h-.2v-.2h.2zm-.2-1.1zm-.2.8h.2v.2h-.2zm0 1.9H73v-.2h.2zm-.5-3.9h.4c0 .1 0 .1-.1.1h-.1a.1.1 0 0 1-.1.1h-.1zm0 .2zm-.3-1.1h.3a.3.3 0 0 1-.1.2h-.2zm.1 1.8h.3a.1.1 0 0 1 .1-.1h.1c0 .1.1.1.1.2h-.5a.1.1 0 0 1-.1.1h-.1c-.1 0-.1 0-.1-.1s.1-.1.2-.1zm-.2-.7zm-.2-1.8h.1a.1.1 0 0 1 .1.1h-.1c-.1 0-.1 0-.1-.1zm-.1 3zm-.4-3.4h.3v.2h-.3zm0 19.8zm0-4.4h-.1a.1.1 0 0 1 .1.1zm-.2-1.4zm.2-.4zm0-10a.1.1 0 0 1-.1.1h-.2c0-.1 0-.1.1-.1s0-.1.1-.1a.1.1 0 0 0 .1.1zm-.4-3.1h.1a.1.1 0 0 1 .1.1c-.1.1-.1 0-.1 0h-.1zm-.1.5h.3v.2h-.3zm0-1.2c0 .1 0 .1-.1.2h-.1c-.1 0-.1-.1-.1-.2h.1c.1-.1.1 0 .2 0zm-.4-.7h.2a.1.1 0 0 1 0 .2h-.2zm-.1 2.4h.1c0 .1 0 .2-.1.2h-.1v-.2a.1.1 0 0 1 .1-.1.1.1 0 0 1 0 .1zm-.3-2h.1c.1.1.2.1.1.3h-.1a.1.1 0 0 1-.1-.1zm0 .4h.1c.1 0 0 0 0 .1h-.2a.1.1 0 0 1 .1-.1zm-.1 1zm-.3-2.5h.2a.1.1 0 0 1-.1.1h-.1zm-.1.9h.3c0 .1 0 .2-.1.2h-.1c-.1 0-.1-.1-.1-.2zm-.5 1.2h.5a.4.4 0 0 1-.1.3h-.4a.1.1 0 0 1-.1-.1zm-.1-.9a.1.1 0 0 0-.1.1c-.1 0-.1 0-.1-.1h.2zm-.2-1.2h.1a.1.1 0 0 1-.1.1h-.2v-.2zm-.3-.7zm-.2.5zm-.3-1h.2v.2h-.2v-.2zm-.1 3.6h.2c.1 0 .1 0 .1.1h-.2a.1.1 0 0 1-.1-.1zm0 .9H68c.1-.1.1-.1.1 0zm-.1-.3zm-.1-.2c.1-.1.1 0 .1 0h-.1zm0 15.2zm0 3.1h.1c-.1.1-.1 0-.1 0zm-.1-22.4zm-.1 22.6zm-.3-22.4zm.1 2.1zm-.2.4zm0-.9h-.1c-.1 0-.1-.1 0-.1h.1zm-.2-.9c0-.1.1 0 .1 0 0 .1 0 .1-.1.1zm-.1 5.9zm-.5-3.5zm0-.4zm0 .6c.1 0 .1 0 0 .1zm0 1.7h.1v.2h-.1zm.1-3.8zm-.2-1.1h.2a.1.1 0 0 1-.1.1h-.1zm-.1 3.7h-.1c-.1-.1-.1-.1 0-.1h.1zm-.1-3.9c0 .1-.1.1-.1 0h.1zm-.2-.5h.1v.2zm-.6 2.4zm.1 2.4h-.1a.1.1 0 0 1 .1-.1zm-.1-2.2zm-.3 3.1zm-.9-.7zm-.2-4.8a.1.1 0 0 1 .1.1H64zm-1.1 8.2s4.3 1.4 4.3 9.1a11.5 11.5 0 0 1-.1 1.9 10.5 10.5 0 0 1-.7 2.3h-.1a5.8 5.8 0 0 1-3.4 3.3zm3.3 15.8h.1v.2h-.1zm-.1-.5H66a.1.1 0 0 1 .1-.1zm.4 6.3h-.2a.2.2 0 0 1 .2 0zm0-7.9zm0 .9zm.1 6.6zm.1-3zm0-.3a.1.1 0 0 1-.1-.1c0-.1.1-.1.1 0zm-.8-.5h-.1v-.2h.1c.1 0 .1 0 .1.1a.1.1 0 0 0-.1.1zm0 5.6zm-.7-3.1zm.1-.3zm.2-.4zm0-1.6zm.1-1.7h-.1a.1.1 0 0 0 .1-.1h.2c-.1 0-.2 0-.2.1zm.1 7.6h.1v.2h-.1a.1.1 0 0 1-.1-.1zm.2-8h-.1c0-.1 0-.1.1-.1zm-1 1zm0 4.2h.1a.1.1 0 0 1-.1-.1zm-.1 5.1a.1.1 0 0 0-.1-.1zm-.4-4.4c0-.1 0-.1.1-.1h-.1zm.1 1.5h-.2c0-.1 0-.1.1-.1zm-.2 1.2zm-.3-5.7zm-.1-.8a.1.1 0 0 1 .1.1h-.1zm-.3 2.2zm-.7 3.3zm4 27.3zm.2 2.4h.1a.1.1 0 0 1-.1 0zm-.1-2zm1.3.5zm-5.4-4.5V66.2s9.1 0 9.1 8.9-9.1 8.8-9.1 8.8zm10.9 2.4zm0-2.6zm-.4 2.9zm0-.9a.1.1 0 0 0-.1-.1h.1zm-.5-.7zm.1 1.6c.1 0 .1 0 .1.1H73zm-.1 2.6h.1c.1 0 .1 0 .1.1h-.2zm.1-1.4a.1.1 0 0 1 .1.1c-.1 0-.1 0-.1-.1zm-.8-2.1zm-.5.9zm0 1zm.1-2.4h.1a.1.1 0 0 1-.1 0zm.1-.9zm0-.6zm-1.3.9zm0 3.2zm.1-1.6c.1-.1.1-.1.2 0s-.1.1-.1 0h-.1zm-1-.5zm-.8-1h.1s.1 0 0 .1h-.1zm.1 2.4zm0 3.2h-.1c.1 0 .1 0 .1.1zm0-1.9a.1.1 0 0 1 .1-.1h.1a.1.1 0 0 1-.1.1zm.2.9h.1c.1.1 0 .1 0 .1h-.1zm.2.7zm.3-.3zm.2-1.8zm.6.8zm.1-.5h.2a.1.1 0 0 0-.1.1h-.1zm.5 1.6a.1.1 0 0 1-.1.1c-.1 0-.1.1-.2 0h.3zm.3-.1zm-.1-.2zm.2-4.2zm.3 2.9zm.1 1.6zm.2.4zm0-2.8h.3a.2.2 0 0 1 0 .3h-.3zm.3 1.2h-.2c-.1 0-.1-.1 0-.1s0-.1.1-.1h.1c0 .1.1.1 0 .3zm.1-.1zm.2-1zm.5 2.2H73c.1-.1.2-.1.2 0h.1zm.1-3zm.3 2.4h-.2s0-.1.2 0zm0-.4zm.1-.8zm0-1.3h.1c-.1.1-.1.1-.1 0zm.2 2.3c0-.1 0-.1.1-.1h-.1zm.1.3zm.4.4c0 .1-.2.1-.3.1h.3zm0-3.8zm.4 3.8zm.1-.2zm0-.2h-.2c-.1 0-.1-.1-.1-.2h.3v.2zm.2-1.9h-.3v-.2h.7v.2h-.3zm.1 1.6zm.4.6zm0-1v-.2h.3a.3.3 0 0 1-.1.2h-.2zm.5.6zm0-2.6zm.1 1.1c-.1 0-.1-.1 0-.1zm.2 1.8c-.1 0-.1 0-.1-.1h.1zm0-2.5zm.3.4zm-.1 1.8a.1.1 0 0 1-.1.1h.1zm.2-.3zm.1-.6h-.1a.1.1 0 0 0-.1-.1h.2zm0-.9zm.1.7h.1s.1.1 0 .1H77zm.2.5s.1 0 0 .1zm0-1.2zm.3 1h-.1a.3.3 0 0 1-.1-.2h.2zm.2-.4h.2zm.4-.6zm.2-.9H78c-.1 0-.1-.1-.1-.2h.4zm0-.5h.1c0 .1.1.1.1.2h-.2zm0 .5h.1c.1 0 .1.1 0 .1h-.1z"/></svg>