<svg xmlns="http://www.w3.org/2000/svg" width="100" height="100" viewBox="0 0 100 100"><path fill="#e5c97a" d="M97.2 0h-91L6 .2a3.2 3.2 0 0 0 2.5 5.3h64a7.4 7.4 0 0 1 7.4 7.4 5.9 5.9 0 0 0 5.9 5.9h5.7a5.6 5.6 0 0 0 5.7-5.7z"/><path fill="#e5c97a" d="M70.5 8.6H13.4A7.4 7.4 0 0 0 6 16v80.7a2.9 2.9 0 0 0 4.4 2.5l31.5-18.8 31.6 18.8a3 3 0 0 0 4.4-2.5V16a7.4 7.4 0 0 0-7.4-7.4z"/><path fill="#141414" d="M19.7 59.7a10.9 10.9 0 0 1-3.4-.4 7.6 7.6 0 0 1-2.2-1 3.1 3.1 0 0 1-1.2-1.4 4 4 0 0 1-.3-1.5 4.4 4.4 0 0 1 .2-1.3 2.4 2.4 0 0 1 .8-.9l1.1-.5H16a8.5 8.5 0 0 0 .3 2.3 4.2 4.2 0 0 0 .9 1.6 3.1 3.1 0 0 0 1.3 1 3.3 3.3 0 0 0 1.7.4 4.1 4.1 0 0 0 1.6-.3A3.5 3.5 0 0 0 23 57a2.3 2.3 0 0 0 .7-1 3.1 3.1 0 0 0 .3-1.3 2.9 2.9 0 0 0-.3-1.4 3.5 3.5 0 0 0-1-1.1 4.9 4.9 0 0 0-1.6-1l-2.2-1a16.7 16.7 0 0 1-2.7-1.4 6.5 6.5 0 0 1-1.8-1.5 5.6 5.6 0 0 1-.9-1.7 7.1 7.1 0 0 1-.3-2.1 6.6 6.6 0 0 1 .5-2.5 6.2 6.2 0 0 1 1.6-2 9 9 0 0 1 2.4-1.2 9.5 9.5 0 0 1 3-.4l2.9.2a7.6 7.6 0 0 1 2 .8 4.3 4.3 0 0 1 1.2 1.1 3.7 3.7 0 0 1 .4 1.4 1.7 1.7 0 0 1-.3 1 1.8 1.8 0 0 1-.7.8 3.4 3.4 0 0 1-1.2.6l-1.6.2a6.8 6.8 0 0 0-.2-1.4 5.8 5.8 0 0 0-.5-1.4 3.2 3.2 0 0 0-1-1 3 3 0 0 0-1.5-.5l-1.2.2a3.1 3.1 0 0 0-1 .5 4.7 4.7 0 0 0-.6.9 2.8 2.8 0 0 0-.3 1.3 2.7 2.7 0 0 0 .3 1.2 4.9 4.9 0 0 0 .7 1.1l1.6 1.1 2.5 1.1 2.7 1.3 1.8 1.5a5.9 5.9 0 0 1 1 1.7 6.4 6.4 0 0 1 .3 2 6 6 0 0 1-.6 2.7 5.4 5.4 0 0 1-1.6 2.1 8.2 8.2 0 0 1-2.6 1.4 12.9 12.9 0 0 1-3.5.4zm16.9-15.2l-1 .2a1.3 1.3 0 0 0-.6.7 3.6 3.6 0 0 0-.4 1.1c0 .4-.1.8-.1 1.3a8.3 8.3 0 0 1-3.1-.5 1.5 1.5 0 0 1-1-1.6 2.4 2.4 0 0 1 .5-1.4 3.9 3.9 0 0 1 1.4-1l1.9-.5 2.5-.2a11.4 11.4 0 0 1 2.8.3 5.3 5.3 0 0 1 2 .9 4 4 0 0 1 1.2 1.6 6.1 6.1 0 0 1 .4 2.4v7.8a2.8 2.8 0 0 0 .1 1l.3.7a.9.9 0 0 0 .6.4h1v1.6h-5.7l-.7-2.1h-.2l-1 1a3.2 3.2 0 0 1-.9.8l-1.2.4-1.5.2a5.8 5.8 0 0 1-1.9-.3 3.8 3.8 0 0 1-1.5-.9 4.4 4.4 0 0 1-1-1.6 4.8 4.8 0 0 1-.4-2.2 4.4 4.4 0 0 1 1.7-3.6 10.1 10.1 0 0 1 5.2-1.3h2.5V48c0-.5-.1-1-.1-1.4a1.8 1.8 0 0 0-.3-1.1 1.6 1.6 0 0 0-.5-.8zm-2.7 10.3a3.5 3.5 0 0 0 .4 2 1.4 1.4 0 0 0 1.3.7 2.7 2.7 0 0 0 1.2-.3l.9-.8a6.7 6.7 0 0 0 .6-1.2 7.8 7.8 0 0 0 .2-1.6v-2.3h-1.4l-1.5.3a2 2 0 0 0-1 .7 2.4 2.4 0 0 0-.6 1.1 6.1 6.1 0 0 0-.1 1.4zm13 3h.8c.2-.1.5-.1.7-.3a1 1 0 0 0 .5-.6 1.5 1.5 0 0 0 .2-1V39.7c0-.5 0-.8-.2-1a1 1 0 0 0-.5-.6l-.7-.2h-1.1v-1.7h7.2v19.6a1.5 1.5 0 0 0 .2 1 1 1 0 0 0 .5.6c.2.2.5.2.7.3h1.1v1.6h-9.7v-1.5zm17.8 1.9a8.6 8.6 0 0 1-3.4-.6 6.3 6.3 0 0 1-2.5-1.6 5.9 5.9 0 0 1-1.5-2.7 9.6 9.6 0 0 1-.5-3.5 11.3 11.3 0 0 1 .5-3.8 6.9 6.9 0 0 1 1.4-2.7 6.3 6.3 0 0 1 2.4-1.6 8.3 8.3 0 0 1 3.2-.6 9.4 9.4 0 0 1 3 .5 6.8 6.8 0 0 1 2.3 1.4 5.9 5.9 0 0 1 1.4 2.3 10.2 10.2 0 0 1 .5 3.2v1.5h-10a10.6 10.6 0 0 0 .3 2.7 7.5 7.5 0 0 0 .8 1.8 4.5 4.5 0 0 0 1.3 1.1 4.3 4.3 0 0 0 1.7.3l1.4-.2a3.3 3.3 0 0 0 1.2-.5 3.9 3.9 0 0 0 1-.8 3.6 3.6 0 0 0 .7-1 1.6 1.6 0 0 1 .8 1.5 2 2 0 0 1-.4 1.3 2.7 2.7 0 0 1-1.1 1 7.5 7.5 0 0 1-1.8.7 11.2 11.2 0 0 1-2.7.3zm-.3-15.1a2.1 2.1 0 0 0-2 1.3 8.3 8.3 0 0 0-.9 3.7h5.3a13.4 13.4 0 0 0-.1-2.1 7.5 7.5 0 0 0-.5-1.6 2.3 2.3 0 0 0-.7-1 2 2 0 0 0-1.1-.3z"/></svg>